<svg version="1.1" id="Layer_1" xmlns="http://www.w3.org/2000/svg" xmlns:xlink="http://www.w3.org/1999/xlink" x="0px" y="0px" width="602px" height="596.5px" viewBox="0 0 602 596.5" enable-background="new 0 0 602 596.5" xml:space="preserve" data-id="1"><rect x="166.3" y="498.2" fill="none" stroke="#FFFFFF" stroke-width="3" stroke-miterlimit="10" width="253.5" height="6.6" class="z-ze9b1h_1" style="stroke-dasharray: 520.2px; stroke-dashoffset: 0px;"></rect><polyline fill="none" stroke="#FFFFFF" stroke-width="3" stroke-miterlimit="10" points="365.2,545.3 365.2,596.5 220.4,596.5 	220.4,545.3 " class="z-i0uxcp_1"></polyline><polyline fill="none" stroke="#FFFFFF" stroke-width="3" stroke-miterlimit="10" points="365.2,498.2 348.1,308 270.1,308 " class="z-fyswfj_1"></polyline><rect x="213.8" y="504.8" fill="none" stroke="#FFFFFF" stroke-width="3" stroke-miterlimit="10" width="6.6" height="30.9" class="z-0au26v_1" style="stroke-dasharray: 75px; stroke-dashoffset: 0px;"></rect><line fill="none" stroke="#FFFFFF" stroke-width="3" stroke-miterlimit="10" x1="182.4" y1="504.8" x2="213.8" y2="535.7" class="z-vjqy2k_1" style="stroke-dasharray: 44.0542px; stroke-dashoffset: 0px;"></line><line fill="none" stroke="#FFFFFF" stroke-width="3" stroke-miterlimit="10" x1="204.3" y1="535.6" x2="182.3" y2="514.1" class="z-9bg525_1" style="stroke-dasharray: 30.7612px; stroke-dashoffset: 0px;"></line><line fill="none" stroke="#FFFFFF" stroke-width="3" stroke-miterlimit="10" x1="230" y1="535.5" x2="251.9" y2="514.1" class="z-27avgc_1" style="stroke-dasharray: 30.6198px; stroke-dashoffset: 0px;"></line><line fill="none" stroke="#FFFFFF" stroke-width="3" stroke-miterlimit="10" x1="251.8" y1="504.8" x2="220.4" y2="535.7" class="z-zp17ph_1" style="stroke-dasharray: 44.0542px; stroke-dashoffset: 0px;"></line><rect x="175.8" y="504.8" fill="none" stroke="#FFFFFF" stroke-width="3" stroke-miterlimit="10" width="6.6" height="30.9" class="z-kbdw5w_1" style="stroke-dasharray: 75px; stroke-dashoffset: 0px;"></rect><rect x="289.7" y="504.8" fill="none" stroke="#FFFFFF" stroke-width="3" stroke-miterlimit="10" width="6.6" height="30.9" class="z-911iyj_1" style="stroke-dasharray: 75px; stroke-dashoffset: 0px;"></rect><line fill="none" stroke="#FFFFFF" stroke-width="3" stroke-miterlimit="10" x1="280.3" y1="535.6" x2="258.2" y2="514.1" class="z-q4mzn2_1" style="stroke-dasharray: 30.8328px; stroke-dashoffset: 0px;"></line><line fill="none" stroke="#FFFFFF" stroke-width="3" stroke-miterlimit="10" x1="258.4" y1="504.8" x2="289.8" y2="535.7" class="z-wjqnl8_1" style="stroke-dasharray: 44.0542px; stroke-dashoffset: 0px;"></line><line fill="none" stroke="#FFFFFF" stroke-width="3" stroke-miterlimit="10" x1="305.9" y1="535.5" x2="327.8" y2="514.1" class="z-jiq6d1_1" style="stroke-dasharray: 30.6198px; stroke-dashoffset: 0px;"></line><line fill="none" stroke="#FFFFFF" stroke-width="3" stroke-miterlimit="10" x1="327.7" y1="504.8" x2="296.3" y2="535.7" class="z-cnvg08_1" style="stroke-dasharray: 44.0542px; stroke-dashoffset: 0px;"></line><polyline fill="none" stroke="#FFFFFF" stroke-width="3" stroke-miterlimit="10" points="365.7,504.8 372.3,504.8 372.3,535.7 	365.7,535.7 " class="z-il88hw_1"></polyline><line fill="none" stroke="#FFFFFF" stroke-width="3" stroke-miterlimit="10" x1="356.2" y1="535.6" x2="334.2" y2="514.1" class="z-xjmguu_1" style="stroke-dasharray: 30.7612px; stroke-dashoffset: 0px;"></line><line fill="none" stroke="#FFFFFF" stroke-width="3" stroke-miterlimit="10" x1="334.3" y1="504.8" x2="365.7" y2="535.7" class="z-h8iju5_1" style="stroke-dasharray: 44.0542px; stroke-dashoffset: 0px;"></line><line fill="none" stroke="#FFFFFF" stroke-width="3" stroke-miterlimit="10" x1="403.7" y1="504.8" x2="372.3" y2="535.7" class="z-bj3hpo_1" style="stroke-dasharray: 44.0542px; stroke-dashoffset: 0px;"></line><line fill="none" stroke="#FFFFFF" stroke-width="3" stroke-miterlimit="10" x1="381.9" y1="535.5" x2="403.8" y2="514.1" class="z-f0kh0k_1" style="stroke-dasharray: 30.6198px; stroke-dashoffset: 0px;"></line><rect x="327.7" y="504.8" fill="none" stroke="#FFFFFF" stroke-width="3" stroke-miterlimit="10" width="6.6" height="30.9" class="z-ruxp0n_1" style="stroke-dasharray: 75px; stroke-dashoffset: 0px;"></rect><rect x="403.7" y="504.8" fill="none" stroke="#FFFFFF" stroke-width="3" stroke-miterlimit="10" width="6.6" height="30.9" class="z-qf2omp_1" style="stroke-dasharray: 75px; stroke-dashoffset: 0px;"></rect><rect x="251.8" y="504.8" fill="none" stroke="#FFFFFF" stroke-width="3" stroke-miterlimit="10" width="6.6" height="30.9" class="z-01n3ap_1" style="stroke-dasharray: 75px; stroke-dashoffset: 0px;"></rect><rect x="175.8" y="535.7" fill="none" stroke="#FFFFFF" stroke-width="3" stroke-miterlimit="10" width="234.5" height="9.6" class="z-14gbog_1" style="stroke-dasharray: 488.2px; stroke-dashoffset: 0px;"></rect><line fill="none" stroke="#FFFFFF" stroke-width="3" stroke-miterlimit="10" x1="324" y1="498.2" x2="316.7" y2="308" class="z-2lzt0e_1" style="stroke-dasharray: 190.34px; stroke-dashoffset: 0px;"></line><g class="z-4qhq96_1">	<line fill="none" stroke="#FFFFFF" stroke-width="3" stroke-miterlimit="10" x1="316.9" y1="322.1" x2="349.4" y2="322.1" class="z-oymonl_1" style="stroke-dasharray: 32.5px; stroke-dashoffset: 0px;"></line>	<line fill="none" stroke="#FFFFFF" stroke-width="3" stroke-miterlimit="10" x1="317.7" y1="340.9" x2="351.2" y2="340.9" class="z-87d2h1_1" style="stroke-dasharray: 33.5px; stroke-dashoffset: 0px;"></line>	<line fill="none" stroke="#FFFFFF" stroke-width="3" stroke-miterlimit="10" x1="318.5" y1="359.7" x2="353" y2="359.7" class="z-je0nbb_1" style="stroke-dasharray: 34.5px; stroke-dashoffset: 0px;"></line>	<line fill="none" stroke="#FFFFFF" stroke-width="3" stroke-miterlimit="10" x1="319.3" y1="378.4" x2="354.8" y2="378.4" class="z-xdlp39_1" style="stroke-dasharray: 35.5px; stroke-dashoffset: 0px;"></line>	<line fill="none" stroke="#FFFFFF" stroke-width="3" stroke-miterlimit="10" x1="320.1" y1="397.2" x2="356.6" y2="397.2" class="z-bfepeq_1" style="stroke-dasharray: 36.5px; stroke-dashoffset: 0px;"></line>	<line fill="none" stroke="#FFFFFF" stroke-width="3" stroke-miterlimit="10" x1="320.9" y1="416" x2="358.4" y2="416" class="z-6hvd64_1" style="stroke-dasharray: 37.5px; stroke-dashoffset: 0px;"></line>	<line fill="none" stroke="#FFFFFF" stroke-width="3" stroke-miterlimit="10" x1="321.6" y1="434.8" x2="360.2" y2="434.8" class="z-d6vpz2_1" style="stroke-dasharray: 38.6px; stroke-dashoffset: 0px;"></line>	<line fill="none" stroke="#FFFFFF" stroke-width="3" stroke-miterlimit="10" x1="322.4" y1="453.6" x2="361.9" y2="453.6" class="z-b4yvye_1" style="stroke-dasharray: 39.5px; stroke-dashoffset: 0px;"></line>	<line fill="none" stroke="#FFFFFF" stroke-width="3" stroke-miterlimit="10" x1="323.2" y1="472.4" x2="363.7" y2="472.4" class="z-9tc9ct_1" style="stroke-dasharray: 40.5px; stroke-dashoffset: 0px;"></line>	<line fill="none" stroke="#FFFFFF" stroke-width="3" stroke-miterlimit="10" x1="324" y1="491.1" x2="365.5" y2="491.1" class="z-g9z6u1_1" style="stroke-dasharray: 41.5px; stroke-dashoffset: 0px;"></line></g><polyline fill="none" stroke="#FFFFFF" stroke-width="3" stroke-miterlimit="10" points="324,498.2 316.7,308 348.1,308 	365.2,498.2 " class="z-zu0sf2_1"></polyline><line fill="none" stroke="#FFFFFF" stroke-width="3" stroke-miterlimit="10" x1="299.2" y1="339.7" x2="317.9" y2="339.7" class="z-zc3d5b_1" style="stroke-dasharray: 18.7px; stroke-dashoffset: 0px;"></line><line fill="none" stroke="#FFFFFF" stroke-width="3" stroke-miterlimit="10" x1="278.4" y1="382" x2="319.6" y2="382" class="z-nztqey_1" style="stroke-dasharray: 41.2px; stroke-dashoffset: 0px;"></line><line fill="none" stroke="#FFFFFF" stroke-width="3" stroke-miterlimit="10" x1="265.1" y1="424.2" x2="321.2" y2="424.2" class="z-n964wn_1" style="stroke-dasharray: 56.1px; stroke-dashoffset: 0px;"></line><line fill="none" stroke="#FFFFFF" stroke-width="3" stroke-miterlimit="10" x1="263.4" y1="466.5" x2="322.8" y2="466.5" class="z-mig4e4_1" style="stroke-dasharray: 59.4px; stroke-dashoffset: 0px;"></line><rect x="277.3" y="249.3" transform="matrix(0.8979 0.4401 -0.4401 0.8979 146.5765 -101.9593)" fill="none" stroke="#FFFFFF" stroke-width="3" stroke-miterlimit="10" width="31.5" height="31.5" class="z-g221gd_1" style="stroke-dasharray: 126px; stroke-dashoffset: 0px;"></rect><circle fill="none" stroke="#FFFFFF" stroke-width="3" stroke-miterlimit="10" cx="293.1" cy="265" r="8.8" class="z-4aob94_1" style="stroke-dasharray: 55.292px; stroke-dashoffset: 0px;"></circle><rect x="344.7" y="66" transform="matrix(-0.8979 -0.4401 0.4401 -0.8979 588.3574 465.7196)" fill="none" stroke="#FFFFFF" stroke-width="3" stroke-miterlimit="10" width="7" height="197.2" class="z-k9acm8_1" style="stroke-dasharray: 408.4px; stroke-dashoffset: 0px;"></rect><rect x="315.2" y="57.5" transform="matrix(-0.8979 -0.4401 0.4401 -0.8979 575.6242 408.7757)" fill="none" stroke="#FFFFFF" stroke-width="3" stroke-miterlimit="10" width="40" height="160.2" class="z-ui3hsc_1" style="stroke-dasharray: 400.4px; stroke-dashoffset: 0px;"></rect><line fill="none" stroke="#FFFFFF" stroke-width="3" stroke-miterlimit="10" x1="376.5" y1="68.7" x2="306" y2="212.5" class="z-1drx0b_1" style="stroke-dasharray: 160.152px; stroke-dashoffset: 0px;"></line><line fill="none" stroke="#FFFFFF" stroke-width="3" stroke-miterlimit="10" x1="364.5" y1="62.8" x2="294" y2="206.6" class="z-gbscbb_1" style="stroke-dasharray: 160.152px; stroke-dashoffset: 0px;"></line><line fill="none" stroke="#FFFFFF" stroke-width="3" stroke-miterlimit="10" x1="376.7" y1="98.5" x2="340.7" y2="80.9" class="z-4pcwff_1" style="stroke-dasharray: 40.0719px; stroke-dashoffset: 0px;"></line><line fill="none" stroke="#FFFFFF" stroke-width="3" stroke-miterlimit="10" x1="364.9" y1="122.5" x2="329" y2="104.9" class="z-uybfc4_1" style="stroke-dasharray: 39.9821px; stroke-dashoffset: 0px;"></line><line fill="none" stroke="#FFFFFF" stroke-width="3" stroke-miterlimit="10" x1="353.2" y1="146.5" x2="317.2" y2="128.8" class="z-jvwgjh_1" style="stroke-dasharray: 40.116px; stroke-dashoffset: 0px;"></line><line fill="none" stroke="#FFFFFF" stroke-width="3" stroke-miterlimit="10" x1="341.4" y1="170.4" x2="305.5" y2="152.8" class="z-0sta6l_1" style="stroke-dasharray: 39.9821px; stroke-dashoffset: 0px;"></line><line fill="none" stroke="#FFFFFF" stroke-width="3" stroke-miterlimit="10" x1="329.7" y1="194.4" x2="293.7" y2="176.8" class="z-j1tjw9_1" style="stroke-dasharray: 40.0719px; stroke-dashoffset: 0px;"></line><rect x="390" y="221.5" transform="matrix(0.4401 -0.8979 0.8979 0.4401 -67.1227 532.5607)" fill="none" stroke="#FFFFFF" stroke-width="3" stroke-miterlimit="10" width="7" height="197.2" class="z-lf6o31_1" style="stroke-dasharray: 408.4px; stroke-dashoffset: 0px;"></rect><rect x="400.5" y="227" transform="matrix(0.4401 -0.8979 0.8979 0.4401 -40.3636 549.5396)" fill="none" stroke="#FFFFFF" stroke-width="3" stroke-miterlimit="10" width="40" height="160.2" class="z-z1t7t0_1" style="stroke-dasharray: 400.4px; stroke-dashoffset: 0px;"></rect><line fill="none" stroke="#FFFFFF" stroke-width="3" stroke-miterlimit="10" x1="489.5" y1="348.4" x2="345.7" y2="277.9" class="z-rodl5u_1" style="stroke-dasharray: 160.152px; stroke-dashoffset: 0px;"></line><line fill="none" stroke="#FFFFFF" stroke-width="3" stroke-miterlimit="10" x1="495.4" y1="336.4" x2="351.5" y2="265.9" class="z-f0ym08_1" style="stroke-dasharray: 160.242px; stroke-dashoffset: 0px;"></line><line fill="none" stroke="#FFFFFF" stroke-width="3" stroke-miterlimit="10" x1="459.6" y1="348.6" x2="477.3" y2="312.7" class="z-hmzh53_1" style="stroke-dasharray: 40.0262px; stroke-dashoffset: 0px;"></line><line fill="none" stroke="#FFFFFF" stroke-width="3" stroke-miterlimit="10" x1="435.7" y1="336.9" x2="453.3" y2="300.9" class="z-5ll73t_1" style="stroke-dasharray: 40.0719px; stroke-dashoffset: 0px;"></line><line fill="none" stroke="#FFFFFF" stroke-width="3" stroke-miterlimit="10" x1="411.7" y1="325.1" x2="429.3" y2="289.2" class="z-2dpfjc_1" style="stroke-dasharray: 39.9821px; stroke-dashoffset: 0px;"></line><line fill="none" stroke="#FFFFFF" stroke-width="3" stroke-miterlimit="10" x1="387.7" y1="313.4" x2="405.4" y2="277.4" class="z-ytam4k_1" style="stroke-dasharray: 40.116px; stroke-dashoffset: 0px;"></line><line fill="none" stroke="#FFFFFF" stroke-width="3" stroke-miterlimit="10" x1="363.8" y1="301.6" x2="381.4" y2="265.7" class="z-v7607l_1" style="stroke-dasharray: 39.9821px; stroke-dashoffset: 0px;"></line><rect x="234.5" y="266.8" transform="matrix(0.8979 0.4401 -0.4401 0.8979 185.1476 -67.4723)" fill="none" stroke="#FFFFFF" stroke-width="3" stroke-miterlimit="10" width="7" height="197.2" class="z-y0rk8v_1" style="stroke-dasharray: 408.4px; stroke-dashoffset: 0px;"></rect><rect x="231" y="312.3" transform="matrix(0.8979 0.4401 -0.4401 0.8979 198.3535 -70.4253)" fill="none" stroke="#FFFFFF" stroke-width="3" stroke-miterlimit="10" width="40" height="160.2" class="z-xbl8fa_1" style="stroke-dasharray: 400.4px; stroke-dashoffset: 0px;"></rect><line fill="none" stroke="#FFFFFF" stroke-width="3" stroke-miterlimit="10" x1="209.8" y1="461.4" x2="280.3" y2="317.6" class="z-7u4r8f_1" style="stroke-dasharray: 160.152px; stroke-dashoffset: 0px;"></line><line fill="none" stroke="#FFFFFF" stroke-width="3" stroke-miterlimit="10" x1="221.8" y1="467.3" x2="292.3" y2="323.5" class="z-8ixfml_1" style="stroke-dasharray: 160.152px; stroke-dashoffset: 0px;"></line><line fill="none" stroke="#FFFFFF" stroke-width="3" stroke-miterlimit="10" x1="209.5" y1="431.6" x2="245.5" y2="449.2" class="z-h4xwag_1" style="stroke-dasharray: 40.0719px; stroke-dashoffset: 0px;"></line><line fill="none" stroke="#FFFFFF" stroke-width="3" stroke-miterlimit="10" x1="221.3" y1="407.6" x2="257.2" y2="425.2" class="z-g2novt_1" style="stroke-dasharray: 39.9821px; stroke-dashoffset: 0px;"></line><line fill="none" stroke="#FFFFFF" stroke-width="3" stroke-miterlimit="10" x1="233" y1="383.6" x2="269" y2="401.3" class="z-f6ht3l_1" style="stroke-dasharray: 40.116px; stroke-dashoffset: 0px;"></line><line fill="none" stroke="#FFFFFF" stroke-width="3" stroke-miterlimit="10" x1="244.8" y1="359.7" x2="280.7" y2="377.3" class="z-10zb59_1" style="stroke-dasharray: 39.9821px; stroke-dashoffset: 0px;"></line><line fill="none" stroke="#FFFFFF" stroke-width="3" stroke-miterlimit="10" x1="256.5" y1="335.7" x2="292.5" y2="353.3" class="z-prup1g_1" style="stroke-dasharray: 40.0719px; stroke-dashoffset: 0px;"></line><rect x="189.2" y="111.3" transform="matrix(-0.4401 0.8979 -0.8979 -0.4401 466.0691 129.351)" fill="none" stroke="#FFFFFF" stroke-width="3" stroke-miterlimit="10" width="7" height="197.2" class="z-rod2wj_1" style="stroke-dasharray: 408.4px; stroke-dashoffset: 0px;"></rect><rect x="145.7" y="142.8" transform="matrix(-0.4401 0.8979 -0.8979 -0.4401 438.8373 172.2689)" fill="none" stroke="#FFFFFF" stroke-width="3" stroke-miterlimit="10" width="40" height="160.2" class="z-nn3n90_1" style="stroke-dasharray: 400.4px; stroke-dashoffset: 0px;"></rect><line fill="none" stroke="#FFFFFF" stroke-width="3" stroke-miterlimit="10" x1="96.7" y1="181.7" x2="240.6" y2="252.2" class="z-ogw9s7_1" style="stroke-dasharray: 160.242px; stroke-dashoffset: 0px;"></line><line fill="none" stroke="#FFFFFF" stroke-width="3" stroke-miterlimit="10" x1="90.9" y1="193.7" x2="234.7" y2="264.2" class="z-r7djxr_1" style="stroke-dasharray: 160.152px; stroke-dashoffset: 0px;"></line><line fill="none" stroke="#FFFFFF" stroke-width="3" stroke-miterlimit="10" x1="126.6" y1="181.5" x2="109" y2="217.4" class="z-ovf013_1" style="stroke-dasharray: 39.9821px; stroke-dashoffset: 0px;"></line><line fill="none" stroke="#FFFFFF" stroke-width="3" stroke-miterlimit="10" x1="150.6" y1="193.2" x2="132.9" y2="229.2" class="z-6e2d5z_1" style="stroke-dasharray: 40.116px; stroke-dashoffset: 0px;"></line><line fill="none" stroke="#FFFFFF" stroke-width="3" stroke-miterlimit="10" x1="174.5" y1="205" x2="156.9" y2="240.9" class="z-0tbz71_1" style="stroke-dasharray: 39.9821px; stroke-dashoffset: 0px;"></line><line fill="none" stroke="#FFFFFF" stroke-width="3" stroke-miterlimit="10" x1="198.5" y1="216.7" x2="180.9" y2="252.7" class="z-lbsa1j_1" style="stroke-dasharray: 40.0719px; stroke-dashoffset: 0px;"></line><line fill="none" stroke="#FFFFFF" stroke-width="3" stroke-miterlimit="10" x1="222.5" y1="228.5" x2="204.8" y2="264.4" class="z-jorugh_1" style="stroke-dasharray: 40.0262px; stroke-dashoffset: 0px;"></line><path fill="none" stroke="#FFFFFF" stroke-width="3" stroke-miterlimit="10" d="M490,210.5c11.3,0,20.4-9.2,20.4-20.4	c0-9-7.3-16.3-16.3-16.3c-7.2,0-13.1,5.9-13.1,13.1c0,5.8,4.7,10.5,10.5,10.5" class="z-4ev9mj_1" style="stroke-dasharray: 94.7099px; stroke-dashoffset: 0px;"></path><line fill="none" stroke="#FFFFFF" stroke-width="3" stroke-miterlimit="10" x1="490" y1="210.5" x2="396.5" y2="210.5" class="z-ihquyb_1" style="stroke-dasharray: 93.5px; stroke-dashoffset: 0px;"></line><path fill="none" stroke="#FFFFFF" stroke-width="3" stroke-miterlimit="10" d="M193.8,136.3c8.5,0,15.3-6.9,15.3-15.3	c0-6.8-5.5-12.3-12.3-12.3c-5.4,0-9.8,4.4-9.8,9.8c0,4.3,3.5,7.9,7.9,7.9" class="z-2qtudf_1" style="stroke-dasharray: 71.1592px; stroke-dashoffset: 0px;"></path><line fill="none" stroke="#FFFFFF" stroke-width="3" stroke-miterlimit="10" x1="193.8" y1="136.3" x2="123.6" y2="136.3" class="z-esf4uj_1" style="stroke-dasharray: 70.2px; stroke-dashoffset: 0px;"></line><line fill="none" stroke="#FFFFFF" stroke-width="3" stroke-miterlimit="10" x1="365.7" y1="504.8" x2="365.7" y2="535.7" class="z-bwnnm6_1" style="stroke-dasharray: 30.9px; stroke-dashoffset: 0px;"></line><line fill="none" stroke="#FFFFFF" stroke-width="3" stroke-miterlimit="10" x1="223.7" y1="468.8" x2="221.1" y2="498.2" class="z-muk8or_1" style="stroke-dasharray: 29.5147px; stroke-dashoffset: 0px;"></line><line fill="none" stroke="#FFFFFF" stroke-width="3" stroke-miterlimit="10" x1="238.1" y1="308" x2="232.7" y2="367.8" class="z-tw7k5i_1" style="stroke-dasharray: 60.0433px; stroke-dashoffset: 0px;"></line><g class="z-qr39qf_1">	<path fill="none" stroke="#FFFFFF" stroke-width="3" stroke-miterlimit="10" d="M295.9,346.3l-10.2,20.8v9.8h14.8v-23.8		C300.5,350.1,298.6,347.4,295.9,346.3z" class="z-q0nihx_1" style="stroke-dasharray: 80.2676px; stroke-dashoffset: 0px;"></path></g><line fill="none" stroke="#FFFFFF" stroke-width="3" stroke-miterlimit="10" x1="262.2" y1="498.2" x2="265.6" y2="408.8" class="z-9z090s_1" style="stroke-dasharray: 89.4646px; stroke-dashoffset: 0px;"></line><line fill="none" stroke="#FFFFFF" stroke-width="3" stroke-miterlimit="10" x1="238.1" y1="297.8" x2="238.1" y2="308" class="z-gck00m_1" style="stroke-dasharray: 10.2px; stroke-dashoffset: 0px;"></line><line fill="none" stroke="#FFFFFF" stroke-width="3" stroke-miterlimit="10" x1="348" y1="308" x2="348" y2="301.6" class="z-uwvdhx_1" style="stroke-dasharray: 6.4px; stroke-dashoffset: 0px;"></line><line fill="none" stroke="#FFFFFF" stroke-width="3" stroke-miterlimit="10" x1="275.2" y1="297.8" x2="339.2" y2="297.8" class="z-2yjioj_1" style="stroke-dasharray: 64px; stroke-dashoffset: 0px;"></line><line fill="none" stroke="#FFFFFF" stroke-width="3" stroke-miterlimit="10" x1="262.3" y1="308" x2="238.1" y2="308" class="z-j7uuk8_1" style="stroke-dasharray: 24.2px; stroke-dashoffset: 0px;"></line><polyline fill="none" stroke="#FFFFFF" stroke-width="3" stroke-miterlimit="10" points="258.2,246.1 206.4,297.8 267.3,297.8 " class="z-s9fpa5_1"></polyline><line fill="none" stroke="#FFFFFF" stroke-width="3" stroke-miterlimit="10" x1="350.3" y1="268.3" x2="317.4" y2="235.4" class="z-fns8qi_1" style="stroke-dasharray: 46.5276px; stroke-dashoffset: 0px;"></line><polyline fill="none" stroke="#FFFFFF" stroke-width="3" stroke-miterlimit="10" points="312,230 293.1,211.1 263.5,240.8 " class="z-3doo7y_1"></polyline></svg>