<svg version="1.1" id="Layer_1" xmlns="http://www.w3.org/2000/svg" xmlns:xlink="http://www.w3.org/1999/xlink" x="0px" y="0px" width="834px" height="737.4px" viewBox="0 0 834 737.4" enable-background="new 0 0 834 737.4" xml:space="preserve" data-id="10"><g class="z-fs1snc_10">	<path fill="none" stroke="#FFFFFF" stroke-width="3" stroke-miterlimit="10" d="M479.5,95.3c0,24.9-28.3,62.7-28.3,197.7		s0,240.9,0,248.9" class="z-irzqvc_10" style="stroke-dasharray: 449.47px; stroke-dashoffset: 0px;"></path>	<line fill="none" stroke="#FFFFFF" stroke-width="3" stroke-miterlimit="10" x1="465.4" y1="348.3" x2="465.4" y2="412.8" class="z-qq5k9n_10" style="stroke-dasharray: 64.5px; stroke-dashoffset: 0px;"></line>	<line fill="none" stroke="#FFFFFF" stroke-width="3" stroke-miterlimit="10" x1="479.5" y1="348.3" x2="479.5" y2="412.8" class="z-xosw5j_10" style="stroke-dasharray: 64.5px; stroke-dashoffset: 0px;"></line>	<line fill="none" stroke="#FFFFFF" stroke-width="3" stroke-miterlimit="10" x1="493.7" y1="348.3" x2="493.7" y2="412.8" class="z-3ob49b_10" style="stroke-dasharray: 64.5px; stroke-dashoffset: 0px;"></line>	<line fill="none" stroke="#FFFFFF" stroke-width="3" stroke-miterlimit="10" x1="479.5" y1="177.6" x2="479.5" y2="324.5" class="z-bq96r3_10" style="stroke-dasharray: 146.9px; stroke-dashoffset: 0px;"></line>	<line fill="none" stroke="#FFFFFF" stroke-width="3" stroke-miterlimit="10" x1="465.4" y1="182.4" x2="465.4" y2="324.5" class="z-kiu156_10" style="stroke-dasharray: 142.1px; stroke-dashoffset: 0px;"></line>	<line fill="none" stroke="#FFFFFF" stroke-width="3" stroke-miterlimit="10" x1="493.7" y1="182.6" x2="493.7" y2="324.5" class="z-0s6k5e_10" style="stroke-dasharray: 141.9px; stroke-dashoffset: 0px;"></line>	<line fill="none" stroke="#FFFFFF" stroke-width="3" stroke-miterlimit="10" x1="469.4" y1="219.2" x2="475.5" y2="219.2" class="z-wxuf2y_10" style="stroke-dasharray: 6.1px; stroke-dashoffset: 0px;"></line>	<line fill="none" stroke="#FFFFFF" stroke-width="3" stroke-miterlimit="10" x1="469.4" y1="234.9" x2="475.5" y2="234.9" class="z-2jwj4w_10" style="stroke-dasharray: 6.1px; stroke-dashoffset: 0px;"></line>	<line fill="none" stroke="#FFFFFF" stroke-width="3" stroke-miterlimit="10" x1="469.4" y1="250.6" x2="475.5" y2="250.6" class="z-iyzlud_10" style="stroke-dasharray: 6.1px; stroke-dashoffset: 0px;"></line>	<line fill="none" stroke="#FFFFFF" stroke-width="3" stroke-miterlimit="10" x1="469.4" y1="266.3" x2="475.5" y2="266.3" class="z-d4qn6b_10" style="stroke-dasharray: 6.1px; stroke-dashoffset: 0px;"></line>	<line fill="none" stroke="#FFFFFF" stroke-width="3" stroke-miterlimit="10" x1="469.4" y1="282" x2="475.5" y2="282" class="z-7d3jot_10" style="stroke-dasharray: 6.1px; stroke-dashoffset: 0px;"></line>	<line fill="none" stroke="#FFFFFF" stroke-width="3" stroke-miterlimit="10" x1="469.4" y1="297.7" x2="475.5" y2="297.7" class="z-qjawyl_10" style="stroke-dasharray: 6.1px; stroke-dashoffset: 0px;"></line>	<line fill="none" stroke="#FFFFFF" stroke-width="3" stroke-miterlimit="10" x1="469.4" y1="313.4" x2="475.5" y2="313.4" class="z-tzpn4a_10" style="stroke-dasharray: 6.1px; stroke-dashoffset: 0px;"></line>	<line fill="none" stroke="#FFFFFF" stroke-width="3" stroke-miterlimit="10" x1="483.3" y1="219.2" x2="489.4" y2="219.2" class="z-1jfuik_10" style="stroke-dasharray: 6.1px; stroke-dashoffset: 0px;"></line>	<line fill="none" stroke="#FFFFFF" stroke-width="3" stroke-miterlimit="10" x1="483.3" y1="234.9" x2="489.4" y2="234.9" class="z-j3lwd5_10" style="stroke-dasharray: 6.1px; stroke-dashoffset: 0px;"></line>	<line fill="none" stroke="#FFFFFF" stroke-width="3" stroke-miterlimit="10" x1="483.3" y1="250.6" x2="489.4" y2="250.6" class="z-le6u0w_10" style="stroke-dasharray: 6.1px; stroke-dashoffset: 0px;"></line>	<line fill="none" stroke="#FFFFFF" stroke-width="3" stroke-miterlimit="10" x1="483.3" y1="266.3" x2="489.4" y2="266.3" class="z-zd7q9t_10" style="stroke-dasharray: 6.1px; stroke-dashoffset: 0px;"></line>	<line fill="none" stroke="#FFFFFF" stroke-width="3" stroke-miterlimit="10" x1="483.3" y1="282" x2="489.4" y2="282" class="z-qvtsh1_10" style="stroke-dasharray: 6.1px; stroke-dashoffset: 0px;"></line>	<line fill="none" stroke="#FFFFFF" stroke-width="3" stroke-miterlimit="10" x1="483.3" y1="297.7" x2="489.4" y2="297.7" class="z-6nshzs_10" style="stroke-dasharray: 6.1px; stroke-dashoffset: 0px;"></line>	<line fill="none" stroke="#FFFFFF" stroke-width="3" stroke-miterlimit="10" x1="483.3" y1="313.4" x2="489.4" y2="313.4" class="z-1l5o9q_10" style="stroke-dasharray: 6.1px; stroke-dashoffset: 0px;"></line>	<path fill="none" stroke="#FFFFFF" stroke-width="3" stroke-miterlimit="10" d="M355.1,95.3c0,24.9-28.3,62.7-28.3,197.7		s0,228.3,0,236.3h-12.7c0-8,0-55,0-190s-28.3-172.8-28.3-197.7" class="z-wvcri4_10" style="stroke-dasharray: 840.139px; stroke-dashoffset: 0px;"></path>	<path fill="none" stroke="#FFFFFF" stroke-width="3" stroke-miterlimit="10" d="M355.1,95.3c0,24.9,28.3,62.7,28.3,197.7		s0,239.2,0,247.2" class="z-pm2y3k_10" style="stroke-dasharray: 447.77px; stroke-dashoffset: 0px;"></path>	<line fill="none" stroke="#FFFFFF" stroke-width="3" stroke-miterlimit="10" x1="341" y1="348.3" x2="341" y2="412.8" class="z-fcg2d6_10" style="stroke-dasharray: 64.5px; stroke-dashoffset: 0px;"></line>	<line fill="none" stroke="#FFFFFF" stroke-width="3" stroke-miterlimit="10" x1="355.1" y1="348.3" x2="355.1" y2="412.8" class="z-i00r3n_10" style="stroke-dasharray: 64.5px; stroke-dashoffset: 0px;"></line>	<line fill="none" stroke="#FFFFFF" stroke-width="3" stroke-miterlimit="10" x1="369.3" y1="348.3" x2="369.3" y2="412.8" class="z-w9c7yw_10" style="stroke-dasharray: 64.5px; stroke-dashoffset: 0px;"></line>	<line fill="none" stroke="#FFFFFF" stroke-width="3" stroke-miterlimit="10" x1="355.1" y1="177.3" x2="355.1" y2="324.5" class="z-872nlb_10" style="stroke-dasharray: 147.2px; stroke-dashoffset: 0px;"></line>	<line fill="none" stroke="#FFFFFF" stroke-width="3" stroke-miterlimit="10" x1="341" y1="183" x2="341" y2="324.5" class="z-xdiu51_10" style="stroke-dasharray: 141.5px; stroke-dashoffset: 0px;"></line>	<line fill="none" stroke="#FFFFFF" stroke-width="3" stroke-miterlimit="10" x1="369.3" y1="182.8" x2="369.3" y2="324.5" class="z-dy1usx_10" style="stroke-dasharray: 141.7px; stroke-dashoffset: 0px;"></line>	<line fill="none" stroke="#FFFFFF" stroke-width="3" stroke-miterlimit="10" x1="345.3" y1="219.2" x2="351.4" y2="219.2" class="z-h75o13_10" style="stroke-dasharray: 6.1px; stroke-dashoffset: 0px;"></line>	<line fill="none" stroke="#FFFFFF" stroke-width="3" stroke-miterlimit="10" x1="345.3" y1="234.9" x2="351.4" y2="234.9" class="z-jp6tcx_10" style="stroke-dasharray: 6.1px; stroke-dashoffset: 0px;"></line>	<line fill="none" stroke="#FFFFFF" stroke-width="3" stroke-miterlimit="10" x1="345.3" y1="250.6" x2="351.4" y2="250.6" class="z-iidvyt_10" style="stroke-dasharray: 6.1px; stroke-dashoffset: 0px;"></line>	<line fill="none" stroke="#FFFFFF" stroke-width="3" stroke-miterlimit="10" x1="345.3" y1="266.3" x2="351.4" y2="266.3" class="z-x3itnt_10" style="stroke-dasharray: 6.1px; stroke-dashoffset: 0px;"></line>	<line fill="none" stroke="#FFFFFF" stroke-width="3" stroke-miterlimit="10" x1="345.3" y1="282" x2="351.4" y2="282" class="z-j3g4uk_10" style="stroke-dasharray: 6.1px; stroke-dashoffset: 0px;"></line>	<line fill="none" stroke="#FFFFFF" stroke-width="3" stroke-miterlimit="10" x1="345.3" y1="297.7" x2="351.4" y2="297.7" class="z-mizeli_10" style="stroke-dasharray: 6.1px; stroke-dashoffset: 0px;"></line>	<line fill="none" stroke="#FFFFFF" stroke-width="3" stroke-miterlimit="10" x1="345.3" y1="313.4" x2="351.4" y2="313.4" class="z-o0jsg3_10" style="stroke-dasharray: 6.1px; stroke-dashoffset: 0px;"></line>	<line fill="none" stroke="#FFFFFF" stroke-width="3" stroke-miterlimit="10" x1="358.9" y1="219.2" x2="365" y2="219.2" class="z-emwwhd_10" style="stroke-dasharray: 6.1px; stroke-dashoffset: 0px;"></line>	<line fill="none" stroke="#FFFFFF" stroke-width="3" stroke-miterlimit="10" x1="358.9" y1="234.9" x2="365" y2="234.9" class="z-6qmznn_10" style="stroke-dasharray: 6.1px; stroke-dashoffset: 0px;"></line>	<line fill="none" stroke="#FFFFFF" stroke-width="3" stroke-miterlimit="10" x1="358.9" y1="250.6" x2="365" y2="250.6" class="z-i81awg_10" style="stroke-dasharray: 6.1px; stroke-dashoffset: 0px;"></line>	<line fill="none" stroke="#FFFFFF" stroke-width="3" stroke-miterlimit="10" x1="358.9" y1="266.3" x2="365" y2="266.3" class="z-lmk8ou_10" style="stroke-dasharray: 6.1px; stroke-dashoffset: 0px;"></line>	<line fill="none" stroke="#FFFFFF" stroke-width="3" stroke-miterlimit="10" x1="358.9" y1="282" x2="365" y2="282" class="z-krcgq5_10" style="stroke-dasharray: 6.1px; stroke-dashoffset: 0px;"></line>	<line fill="none" stroke="#FFFFFF" stroke-width="3" stroke-miterlimit="10" x1="358.9" y1="297.7" x2="365" y2="297.7" class="z-pamm8i_10" style="stroke-dasharray: 6.1px; stroke-dashoffset: 0px;"></line>	<line fill="none" stroke="#FFFFFF" stroke-width="3" stroke-miterlimit="10" x1="358.9" y1="313.4" x2="365" y2="313.4" class="z-vkxuuk_10" style="stroke-dasharray: 6.1px; stroke-dashoffset: 0px;"></line>	<path fill="none" stroke="#FFFFFF" stroke-width="3" stroke-miterlimit="10" d="M285.8,141.5c0,24.9-28.3,62.7-28.3,197.7		s0,258.5,0,266.5" class="z-lgty12_10" style="stroke-dasharray: 467.07px; stroke-dashoffset: 0px;"></path>	<path fill="none" stroke="#FFFFFF" stroke-width="3" stroke-miterlimit="10" d="M262.8,247.9c0-13.8,10.3-25,23.1-25		c12.7,0,23.1,11.2,23.1,25" class="z-ljq3vi_10" style="stroke-dasharray: 75.5891px; stroke-dashoffset: 0px;"></path>	<path fill="none" stroke="#FFFFFF" stroke-width="3" stroke-miterlimit="10" d="M526.3,247.9c0-13.8,10.3-25,23.1-25		c12.7,0,23.1,11.2,23.1,25" class="z-6wtjjn_10" style="stroke-dasharray: 75.589px; stroke-dashoffset: 0px;"></path>	<path fill="none" stroke="#FFFFFF" stroke-width="3" stroke-miterlimit="10" d="M456.5,202.3c0-13.8,10.3-25,23.1-25		s23.1,11.2,23.1,25" class="z-o89rts_10" style="stroke-dasharray: 75.6117px; stroke-dashoffset: 0px;"></path>	<path fill="none" stroke="#FFFFFF" stroke-width="3" stroke-miterlimit="10" d="M332.1,202.3c0-13.8,10.3-25,23.1-25		c12.7,0,23.1,11.2,23.1,25" class="z-o1jtn5_10" style="stroke-dasharray: 75.5891px; stroke-dashoffset: 0px;"></path>	<line fill="none" stroke="#FFFFFF" stroke-width="3" stroke-miterlimit="10" x1="271.7" y1="394.6" x2="271.7" y2="459.1" class="z-nyf4cx_10" style="stroke-dasharray: 64.5px; stroke-dashoffset: 0px;"></line>	<line fill="none" stroke="#FFFFFF" stroke-width="3" stroke-miterlimit="10" x1="285.8" y1="394.6" x2="285.8" y2="459.1" class="z-5nvuge_10" style="stroke-dasharray: 64.5px; stroke-dashoffset: 0px;"></line>	<line fill="none" stroke="#FFFFFF" stroke-width="3" stroke-miterlimit="10" x1="300" y1="394.6" x2="300" y2="459.1" class="z-vkleo3_10" style="stroke-dasharray: 64.5px; stroke-dashoffset: 0px;"></line>	<line fill="none" stroke="#FFFFFF" stroke-width="3" stroke-miterlimit="10" x1="285.8" y1="222.9" x2="285.8" y2="370.8" class="z-rzf4l3_10" style="stroke-dasharray: 147.9px; stroke-dashoffset: 0px;"></line>	<line fill="none" stroke="#FFFFFF" stroke-width="3" stroke-miterlimit="10" x1="271.7" y1="228.1" x2="271.7" y2="370.8" class="z-4fphal_10" style="stroke-dasharray: 142.7px; stroke-dashoffset: 0px;"></line>	<line fill="none" stroke="#FFFFFF" stroke-width="3" stroke-miterlimit="10" x1="300" y1="228.1" x2="300" y2="370.8" class="z-c5sk1o_10" style="stroke-dasharray: 142.7px; stroke-dashoffset: 0px;"></line>	<line fill="none" stroke="#FFFFFF" stroke-width="3" stroke-miterlimit="10" x1="276" y1="265.4" x2="282.1" y2="265.4" class="z-9zbvnk_10" style="stroke-dasharray: 6.1px; stroke-dashoffset: 0px;"></line>	<line fill="none" stroke="#FFFFFF" stroke-width="3" stroke-miterlimit="10" x1="276" y1="281.1" x2="282.1" y2="281.1" class="z-o3wm6t_10" style="stroke-dasharray: 6.1px; stroke-dashoffset: 0px;"></line>	<line fill="none" stroke="#FFFFFF" stroke-width="3" stroke-miterlimit="10" x1="276" y1="296.8" x2="282.1" y2="296.8" class="z-sr0o54_10" style="stroke-dasharray: 6.1px; stroke-dashoffset: 0px;"></line>	<line fill="none" stroke="#FFFFFF" stroke-width="3" stroke-miterlimit="10" x1="276" y1="312.5" x2="282.1" y2="312.5" class="z-loghey_10" style="stroke-dasharray: 6.1px; stroke-dashoffset: 0px;"></line>	<line fill="none" stroke="#FFFFFF" stroke-width="3" stroke-miterlimit="10" x1="276" y1="328.3" x2="282.1" y2="328.3" class="z-vnn0dw_10" style="stroke-dasharray: 6.1px; stroke-dashoffset: 0px;"></line>	<line fill="none" stroke="#FFFFFF" stroke-width="3" stroke-miterlimit="10" x1="276" y1="344" x2="282.1" y2="344" class="z-rsd27h_10" style="stroke-dasharray: 6.1px; stroke-dashoffset: 0px;"></line>	<line fill="none" stroke="#FFFFFF" stroke-width="3" stroke-miterlimit="10" x1="276" y1="359.7" x2="282.1" y2="359.7" class="z-ixh6ec_10" style="stroke-dasharray: 6.1px; stroke-dashoffset: 0px;"></line>	<line fill="none" stroke="#FFFFFF" stroke-width="3" stroke-miterlimit="10" x1="289.6" y1="265.4" x2="295.7" y2="265.4" class="z-9qega5_10" style="stroke-dasharray: 6.1px; stroke-dashoffset: 0px;"></line>	<line fill="none" stroke="#FFFFFF" stroke-width="3" stroke-miterlimit="10" x1="289.6" y1="281.1" x2="295.7" y2="281.1" class="z-kypk8y_10" style="stroke-dasharray: 6.1px; stroke-dashoffset: 0px;"></line>	<line fill="none" stroke="#FFFFFF" stroke-width="3" stroke-miterlimit="10" x1="289.6" y1="296.8" x2="295.7" y2="296.8" class="z-9vn7kn_10" style="stroke-dasharray: 6.1px; stroke-dashoffset: 0px;"></line>	<line fill="none" stroke="#FFFFFF" stroke-width="3" stroke-miterlimit="10" x1="289.6" y1="312.5" x2="295.7" y2="312.5" class="z-vry1dk_10" style="stroke-dasharray: 6.1px; stroke-dashoffset: 0px;"></line>	<line fill="none" stroke="#FFFFFF" stroke-width="3" stroke-miterlimit="10" x1="289.6" y1="328.3" x2="295.7" y2="328.3" class="z-wc3j8w_10" style="stroke-dasharray: 6.1px; stroke-dashoffset: 0px;"></line>	<line fill="none" stroke="#FFFFFF" stroke-width="3" stroke-miterlimit="10" x1="289.6" y1="344" x2="295.7" y2="344" class="z-0724q0_10" style="stroke-dasharray: 6.1px; stroke-dashoffset: 0px;"></line>	<line fill="none" stroke="#FFFFFF" stroke-width="3" stroke-miterlimit="10" x1="289.6" y1="359.7" x2="295.7" y2="359.7" class="z-toy4ye_10" style="stroke-dasharray: 6.1px; stroke-dashoffset: 0px;"></line>	<path fill="none" stroke="#FFFFFF" stroke-width="3" stroke-miterlimit="10" d="M549.3,141.5c0,24.9-28.3,62.7-28.3,197.7		s0,182,0,190h-13.2c0-8,0-101.3,0-236.3s-28.3-172.8-28.3-197.7" class="z-tkd97u_10" style="stroke-dasharray: 840.639px; stroke-dashoffset: 0px;"></path>	<path fill="none" stroke="#FFFFFF" stroke-width="3" stroke-miterlimit="10" d="M549.3,141.5c0,24.9,28.3,62.7,28.3,197.7		s0,258.1,0,266.2" class="z-k6aok5_10" style="stroke-dasharray: 466.77px; stroke-dashoffset: 0px;"></path>	<line fill="none" stroke="#FFFFFF" stroke-width="3" stroke-miterlimit="10" x1="535.2" y1="394.6" x2="535.2" y2="459.1" class="z-gwq37w_10" style="stroke-dasharray: 64.5px; stroke-dashoffset: 0px;"></line>	<line fill="none" stroke="#FFFFFF" stroke-width="3" stroke-miterlimit="10" x1="549.3" y1="394.6" x2="549.3" y2="459.1" class="z-rerjto_10" style="stroke-dasharray: 64.5px; stroke-dashoffset: 0px;"></line>	<line fill="none" stroke="#FFFFFF" stroke-width="3" stroke-miterlimit="10" x1="563.5" y1="394.6" x2="563.5" y2="459.1" class="z-lmkjvx_10" style="stroke-dasharray: 64.5px; stroke-dashoffset: 0px;"></line>	<line fill="none" stroke="#FFFFFF" stroke-width="3" stroke-miterlimit="10" x1="535.2" y1="504.3" x2="535.2" y2="531.6" class="z-1umb1o_10" style="stroke-dasharray: 27.3px; stroke-dashoffset: 0px;"></line>	<line fill="none" stroke="#FFFFFF" stroke-width="3" stroke-miterlimit="10" x1="549.3" y1="504.3" x2="549.3" y2="531.6" class="z-uk9q5n_10" style="stroke-dasharray: 27.3px; stroke-dashoffset: 0px;"></line>	<line fill="none" stroke="#FFFFFF" stroke-width="3" stroke-miterlimit="10" x1="563.5" y1="504.3" x2="563.5" y2="531.6" class="z-78og80_10" style="stroke-dasharray: 27.3px; stroke-dashoffset: 0px;"></line>	<line fill="none" stroke="#FFFFFF" stroke-width="3" stroke-miterlimit="10" x1="271.7" y1="504.3" x2="271.7" y2="531.6" class="z-9cfb3d_10" style="stroke-dasharray: 27.3px; stroke-dashoffset: 0px;"></line>	<line fill="none" stroke="#FFFFFF" stroke-width="3" stroke-miterlimit="10" x1="285.8" y1="504.3" x2="285.8" y2="531.6" class="z-aipc0b_10" style="stroke-dasharray: 27.3px; stroke-dashoffset: 0px;"></line>	<line fill="none" stroke="#FFFFFF" stroke-width="3" stroke-miterlimit="10" x1="300" y1="504.3" x2="300" y2="531.6" class="z-3pxaz6_10" style="stroke-dasharray: 27.3px; stroke-dashoffset: 0px;"></line>	<line fill="none" stroke="#FFFFFF" stroke-width="3" stroke-miterlimit="10" x1="341" y1="466" x2="341" y2="493.2" class="z-zhguuh_10" style="stroke-dasharray: 27.2px; stroke-dashoffset: 0px;"></line>	<line fill="none" stroke="#FFFFFF" stroke-width="3" stroke-miterlimit="10" x1="355.1" y1="466" x2="355.1" y2="493.2" class="z-p1pqq7_10" style="stroke-dasharray: 27.2px; stroke-dashoffset: 0px;"></line>	<line fill="none" stroke="#FFFFFF" stroke-width="3" stroke-miterlimit="10" x1="369.3" y1="466" x2="369.3" y2="493.2" class="z-lgu7nd_10" style="stroke-dasharray: 27.2px; stroke-dashoffset: 0px;"></line>	<line fill="none" stroke="#FFFFFF" stroke-width="3" stroke-miterlimit="10" x1="465.4" y1="466" x2="465.4" y2="493.2" class="z-cg1b73_10" style="stroke-dasharray: 27.2px; stroke-dashoffset: 0px;"></line>	<line fill="none" stroke="#FFFFFF" stroke-width="3" stroke-miterlimit="10" x1="479.5" y1="466" x2="479.5" y2="493.2" class="z-thevie_10" style="stroke-dasharray: 27.2px; stroke-dashoffset: 0px;"></line>	<line fill="none" stroke="#FFFFFF" stroke-width="3" stroke-miterlimit="10" x1="493.7" y1="466" x2="493.7" y2="493.2" class="z-pgxwke_10" style="stroke-dasharray: 27.2px; stroke-dashoffset: 0px;"></line>	<line fill="none" stroke="#FFFFFF" stroke-width="3" stroke-miterlimit="10" x1="549.3" y1="222.9" x2="549.3" y2="370.8" class="z-9au5ve_10" style="stroke-dasharray: 147.9px; stroke-dashoffset: 0px;"></line>	<line fill="none" stroke="#FFFFFF" stroke-width="3" stroke-miterlimit="10" x1="535.2" y1="228.1" x2="535.2" y2="370.8" class="z-tkz0xh_10" style="stroke-dasharray: 142.7px; stroke-dashoffset: 0px;"></line>	<line fill="none" stroke="#FFFFFF" stroke-width="3" stroke-miterlimit="10" x1="563.5" y1="228.1" x2="563.5" y2="370.8" class="z-iz6pum_10" style="stroke-dasharray: 142.7px; stroke-dashoffset: 0px;"></line>	<line fill="none" stroke="#FFFFFF" stroke-width="3" stroke-miterlimit="10" x1="539.2" y1="265.4" x2="545.3" y2="265.4" class="z-lscw2v_10" style="stroke-dasharray: 6.1px; stroke-dashoffset: 0px;"></line>	<line fill="none" stroke="#FFFFFF" stroke-width="3" stroke-miterlimit="10" x1="539.2" y1="281.1" x2="545.3" y2="281.1" class="z-cx7euz_10" style="stroke-dasharray: 6.1px; stroke-dashoffset: 0px;"></line>	<line fill="none" stroke="#FFFFFF" stroke-width="3" stroke-miterlimit="10" x1="539.2" y1="296.8" x2="545.3" y2="296.8" class="z-i8ivid_10" style="stroke-dasharray: 6.1px; stroke-dashoffset: 0px;"></line>	<line fill="none" stroke="#FFFFFF" stroke-width="3" stroke-miterlimit="10" x1="539.2" y1="312.5" x2="545.3" y2="312.5" class="z-ubt5xv_10" style="stroke-dasharray: 6.1px; stroke-dashoffset: 0px;"></line>	<line fill="none" stroke="#FFFFFF" stroke-width="3" stroke-miterlimit="10" x1="539.2" y1="328.3" x2="545.3" y2="328.3" class="z-zvnxe7_10" style="stroke-dasharray: 6.1px; stroke-dashoffset: 0px;"></line>	<line fill="none" stroke="#FFFFFF" stroke-width="3" stroke-miterlimit="10" x1="539.2" y1="344" x2="545.3" y2="344" class="z-8rxc0k_10" style="stroke-dasharray: 6.1px; stroke-dashoffset: 0px;"></line>	<line fill="none" stroke="#FFFFFF" stroke-width="3" stroke-miterlimit="10" x1="539.2" y1="359.7" x2="545.3" y2="359.7" class="z-jj0yoy_10" style="stroke-dasharray: 6.1px; stroke-dashoffset: 0px;"></line>	<line fill="none" stroke="#FFFFFF" stroke-width="3" stroke-miterlimit="10" x1="553.1" y1="265.4" x2="559.2" y2="265.4" class="z-23xdbv_10" style="stroke-dasharray: 6.1px; stroke-dashoffset: 0px;"></line>	<line fill="none" stroke="#FFFFFF" stroke-width="3" stroke-miterlimit="10" x1="553.1" y1="281.1" x2="559.2" y2="281.1" class="z-f3523z_10" style="stroke-dasharray: 6.1px; stroke-dashoffset: 0px;"></line>	<line fill="none" stroke="#FFFFFF" stroke-width="3" stroke-miterlimit="10" x1="553.1" y1="296.8" x2="559.2" y2="296.8" class="z-fu0am3_10" style="stroke-dasharray: 6.1px; stroke-dashoffset: 0px;"></line>	<line fill="none" stroke="#FFFFFF" stroke-width="3" stroke-miterlimit="10" x1="553.1" y1="312.5" x2="559.2" y2="312.5" class="z-sv878i_10" style="stroke-dasharray: 6.1px; stroke-dashoffset: 0px;"></line>	<line fill="none" stroke="#FFFFFF" stroke-width="3" stroke-miterlimit="10" x1="553.1" y1="328.3" x2="559.2" y2="328.3" class="z-is130l_10" style="stroke-dasharray: 6.1px; stroke-dashoffset: 0px;"></line>	<line fill="none" stroke="#FFFFFF" stroke-width="3" stroke-miterlimit="10" x1="553.1" y1="344" x2="559.2" y2="344" class="z-fvncu7_10" style="stroke-dasharray: 6.1px; stroke-dashoffset: 0px;"></line>	<line fill="none" stroke="#FFFFFF" stroke-width="3" stroke-miterlimit="10" x1="553.1" y1="359.7" x2="559.2" y2="359.7" class="z-8xa3kz_10" style="stroke-dasharray: 6.1px; stroke-dashoffset: 0px;"></line>	<line fill="none" stroke="#FFFFFF" stroke-width="3" stroke-miterlimit="10" x1="382.7" y1="316" x2="451.2" y2="316" class="z-6hbbpv_10" style="stroke-dasharray: 68.5px; stroke-dashoffset: 0px;"></line>	<line fill="none" stroke="#FFFFFF" stroke-width="3" stroke-miterlimit="10" x1="309.3" y1="251.9" x2="327.7" y2="251.9" class="z-7qqyhg_10" style="stroke-dasharray: 18.4px; stroke-dashoffset: 0px;"></line>	<line fill="none" stroke="#FFFFFF" stroke-width="3" stroke-miterlimit="10" x1="309.3" y1="260" x2="327.7" y2="260" class="z-i1g4mw_10" style="stroke-dasharray: 18.4px; stroke-dashoffset: 0px;"></line>	<line fill="none" stroke="#FFFFFF" stroke-width="3" stroke-miterlimit="10" x1="312.8" y1="291.7" x2="326.8" y2="291.7" class="z-peoitg_10" style="stroke-dasharray: 14px; stroke-dashoffset: 0px;"></line>	<line fill="none" stroke="#FFFFFF" stroke-width="3" stroke-miterlimit="10" x1="526.1" y1="251.9" x2="506.9" y2="251.9" class="z-0giq6w_10" style="stroke-dasharray: 19.2px; stroke-dashoffset: 0px;"></line>	<line fill="none" stroke="#FFFFFF" stroke-width="3" stroke-miterlimit="10" x1="524.9" y1="260" x2="507.2" y2="260" class="z-50y50h_10" style="stroke-dasharray: 17.7px; stroke-dashoffset: 0px;"></line>	<line fill="none" stroke="#FFFFFF" stroke-width="3" stroke-miterlimit="10" x1="522.7" y1="291.7" x2="508.6" y2="291.7" class="z-iwikuy_10" style="stroke-dasharray: 14.1px; stroke-dashoffset: 0px;"></line>	<path fill="none" stroke="#FFFFFF" stroke-width="3" stroke-miterlimit="10" d="M314.3,390c0-3.1,2.8-5.5,6.3-5.5		c3.5,0,6.3,2.5,6.3,5.5" class="z-dvprsy_10" style="stroke-dasharray: 18.5736px; stroke-dashoffset: 0px;"></path>	<path fill="none" stroke="#FFFFFF" stroke-width="3" stroke-miterlimit="10" d="M314.3,469.9c0-3.1,2.8-5.5,6.3-5.5		c3.5,0,6.3,2.5,6.3,5.5" class="z-q7x4ff_10" style="stroke-dasharray: 18.5736px; stroke-dashoffset: 0px;"></path>	<path fill="none" stroke="#FFFFFF" stroke-width="3" stroke-miterlimit="10" d="M507.8,390c0-3.1,2.8-5.5,6.3-5.5		c3.5,0,6.3,2.5,6.3,5.5" class="z-nilc6s_10" style="stroke-dasharray: 18.5736px; stroke-dashoffset: 0px;"></path>	<path fill="none" stroke="#FFFFFF" stroke-width="3" stroke-miterlimit="10" d="M402.5,530.2v-36.7c0-2.7,2.5-4.8,5.5-4.8		s5.5,2.2,5.5,4.8v30.9" class="z-lnx3qi_10" style="stroke-dasharray: 83.785px; stroke-dashoffset: 0px;"></path>	<path fill="none" stroke="#FFFFFF" stroke-width="3" stroke-miterlimit="10" d="M383.4,529.3v-35.8c0-2.7,2.5-4.8,5.5-4.8		s5.5,2.2,5.5,4.8v41" class="z-d1ssso_10" style="stroke-dasharray: 92.9849px; stroke-dashoffset: 0px;"></path>	<path fill="none" stroke="#FFFFFF" stroke-width="3" stroke-miterlimit="10" d="M421.3,524.8v-31.3c0-2.7,2.5-4.8,5.5-4.8		s5.5,2.2,5.5,4.8v37.7" class="z-47rjer_10" style="stroke-dasharray: 85.1849px; stroke-dashoffset: 0px;"></path>	<path fill="none" stroke="#FFFFFF" stroke-width="3" stroke-miterlimit="10" d="M440.3,535.1v-41.6c0-2.7,2.5-4.8,5.5-4.8		s5.5,2.2,5.5,4.8v35.8" class="z-7zmgx9_10" style="stroke-dasharray: 93.5849px; stroke-dashoffset: 0px;"></path>	<path fill="none" stroke="#FFFFFF" stroke-width="3" stroke-miterlimit="10" d="M619.8,627" class="z-td3psf_10" style="stroke-dasharray: 0px; stroke-dashoffset: 0px;"></path>	<path fill="none" stroke="#FFFFFF" stroke-width="3" stroke-miterlimit="10" d="M417,531.8" class="z-azxbny_10" style="stroke-dasharray: 0px; stroke-dashoffset: 0px;"></path>	<line fill="none" stroke="#FFFFFF" stroke-width="3" stroke-miterlimit="10" x1="221.1" y1="627" x2="221.1" y2="634" class="z-dl7a2v_10" style="stroke-dasharray: 7px; stroke-dashoffset: 0px;"></line>	<path fill="none" stroke="#FFFFFF" stroke-width="3" stroke-miterlimit="10" d="M417,523.2" class="z-h58t41_10" style="stroke-dasharray: 0px; stroke-dashoffset: 0px;"></path>	<path fill="none" stroke="#FFFFFF" stroke-width="3" stroke-miterlimit="10" d="M472.6,636.5" class="z-b7wrvh_10" style="stroke-dasharray: 0px; stroke-dashoffset: 0px;"></path>	<line fill="none" stroke="#FFFFFF" stroke-width="3" stroke-miterlimit="10" x1="361.2" y1="738.1" x2="472.6" y2="738.1" class="z-lqxq6b_10" style="stroke-dasharray: 111.4px; stroke-dashoffset: 0px;"></line>	<path fill="none" stroke="#FFFFFF" stroke-width="3" stroke-miterlimit="10" d="M361.2,638" class="z-ucd8qw_10" style="stroke-dasharray: 0px; stroke-dashoffset: 0px;"></path>	<path fill="none" stroke="#FFFFFF" stroke-width="3" stroke-miterlimit="10" d="M378.5,551.9" class="z-2ftg1d_10" style="stroke-dasharray: 0px; stroke-dashoffset: 0px;"></path>	<line fill="none" stroke="#FFFFFF" stroke-width="3" stroke-miterlimit="10" x1="397" y1="542.2" x2="324.3" y2="738.1" class="z-u7k9rj_10" style="stroke-dasharray: 208.955px; stroke-dashoffset: 0px;"></line>	<path fill="none" stroke="#FFFFFF" stroke-width="3" stroke-miterlimit="10" d="M456.1,551.9" class="z-n1if4k_10" style="stroke-dasharray: 0px; stroke-dashoffset: 0px;"></path>	<path fill="none" stroke="#FFFFFF" stroke-width="3" stroke-miterlimit="10" d="M528.7,738.1" class="z-xttitr_10" style="stroke-dasharray: 0px; stroke-dashoffset: 0px;"></path>	<path fill="none" stroke="#FFFFFF" stroke-width="3" stroke-miterlimit="10" d="M437.6,542.2" class="z-4ja2cy_10" style="stroke-dasharray: 0px; stroke-dashoffset: 0px;"></path>	<path fill="none" stroke="#FFFFFF" stroke-width="3" stroke-miterlimit="10" d="M293.6,596.1" class="z-ru4onp_10" style="stroke-dasharray: 0px; stroke-dashoffset: 0px;"></path>	<line fill="none" stroke="#FFFFFF" stroke-width="3" stroke-miterlimit="10" x1="311.6" y1="586.7" x2="251.6" y2="738.1" class="z-e58qob_10" style="stroke-dasharray: 162.856px; stroke-dashoffset: 0px;"></line>	<path fill="none" stroke="#FFFFFF" stroke-width="3" stroke-miterlimit="10" d="M544.8,596.1" class="z-8kc6fh_10" style="stroke-dasharray: 0px; stroke-dashoffset: 0px;"></path>	<path fill="none" stroke="#FFFFFF" stroke-width="3" stroke-miterlimit="10" d="M601.7,738.1" class="z-za54j3_10" style="stroke-dasharray: 0px; stroke-dashoffset: 0px;"></path>	<path fill="none" stroke="#FFFFFF" stroke-width="3" stroke-miterlimit="10" d="M526.9,586.7" class="z-q0xhmx_10" style="stroke-dasharray: 0px; stroke-dashoffset: 0px;"></path>	<path fill="none" stroke="#FFFFFF" stroke-width="3" stroke-miterlimit="10" d="M246.7,620.6" class="z-9sv4ea_10" style="stroke-dasharray: 0px; stroke-dashoffset: 0px;"></path>	<line fill="none" stroke="#FFFFFF" stroke-width="3" stroke-miterlimit="10" x1="262.4" y1="612.4" x2="213.2" y2="738.1" class="z-rlf6cu_10" style="stroke-dasharray: 134.986px; stroke-dashoffset: 0px;"></line>	<path fill="none" stroke="#FFFFFF" stroke-width="3" stroke-miterlimit="10" d="M593.2,620.6" class="z-ezmnkp_10" style="stroke-dasharray: 0px; stroke-dashoffset: 0px;"></path>	<path fill="none" stroke="#FFFFFF" stroke-width="3" stroke-miterlimit="10" d="M640.2,738.1" class="z-u1pwh5_10" style="stroke-dasharray: 0px; stroke-dashoffset: 0px;"></path>	<path fill="none" stroke="#FFFFFF" stroke-width="3" stroke-miterlimit="10" d="M577.6,612.4" class="z-r4d1h5_10" style="stroke-dasharray: 0px; stroke-dashoffset: 0px;"></path>	<polygon fill="none" stroke="#FFFFFF" stroke-width="3" stroke-linejoin="round" stroke-miterlimit="10" points="417.4,673.4 		384.3,693.8 450.1,693.8 	" class="z-8m5usz_10" style="stroke-dasharray: 143.223px; stroke-dashoffset: 0px;"></polygon>			<rect x="384.3" y="693.8" fill="none" stroke="#FFFFFF" stroke-width="3" stroke-linejoin="round" stroke-miterlimit="10" width="65.8" height="44.3" class="z-ev9qxp_10" style="stroke-dasharray: 220.2px; stroke-dashoffset: 0px;"></rect>	<line fill="none" stroke="#FFFFFF" stroke-width="3" stroke-miterlimit="10" x1="417.2" y1="693.8" x2="417.2" y2="738.1" class="z-ye1b75_10" style="stroke-dasharray: 44.3px; stroke-dashoffset: 0px;"></line>	<path fill="none" stroke="#FFFFFF" stroke-width="3" stroke-miterlimit="10" d="M564.3,738.1" class="z-r1hi1m_10" style="stroke-dasharray: 0px; stroke-dashoffset: 0px;"></path>	<path fill="none" stroke="#FFFFFF" stroke-width="3" stroke-miterlimit="10" d="M540,705.4" class="z-mz6vna_10" style="stroke-dasharray: 0px; stroke-dashoffset: 0px;"></path>	<path fill="none" stroke="#FFFFFF" stroke-width="3" stroke-miterlimit="10" d="M295.6,738.1" class="z-bzd36f_10" style="stroke-dasharray: 0px; stroke-dashoffset: 0px;"></path>	<path fill="none" stroke="#FFFFFF" stroke-width="3" stroke-miterlimit="10" d="M271.4,705.4" class="z-19a0ds_10" style="stroke-dasharray: 0px; stroke-dashoffset: 0px;"></path>	<line fill="none" stroke="#FFFFFF" stroke-width="3" stroke-miterlimit="10" x1="472.6" y1="594.1" x2="530.5" y2="594.1" class="z-yxs99p_10" style="stroke-dasharray: 57.9px; stroke-dashoffset: 0px;"></line>	<line fill="none" stroke="#FFFFFF" stroke-width="3" stroke-miterlimit="10" x1="308.7" y1="594.1" x2="362" y2="594.1" class="z-v2hlk7_10" style="stroke-dasharray: 53.3px; stroke-dashoffset: 0px;"></line>	<line fill="none" stroke="#FFFFFF" stroke-width="3" stroke-miterlimit="10" x1="553.8" y1="618.4" x2="579.9" y2="618.4" class="z-pb8hhw_10" style="stroke-dasharray: 26.1px; stroke-dashoffset: 0px;"></line>	<line fill="none" stroke="#FFFFFF" stroke-width="3" stroke-miterlimit="10" x1="260.1" y1="618.4" x2="284.7" y2="618.4" class="z-b42deu_10" style="stroke-dasharray: 24.6px; stroke-dashoffset: 0px;"></line>	<line fill="none" stroke="#FFFFFF" stroke-width="3" stroke-miterlimit="10" x1="314.1" y1="448.1" x2="326.9" y2="448.1" class="z-rcd6xb_10" style="stroke-dasharray: 12.8px; stroke-dashoffset: 0px;"></line>	<path fill="none" stroke="#FFFFFF" stroke-width="3" stroke-miterlimit="10" d="M508.2,469.9c0-3.1,2.8-5.5,6.3-5.5		c3.5,0,6.3,2.5,6.3,5.5" class="z-e5c4al_10" style="stroke-dasharray: 18.5736px; stroke-dashoffset: 0px;"></path>	<line fill="none" stroke="#FFFFFF" stroke-width="3" stroke-miterlimit="10" x1="508" y1="448.1" x2="520.8" y2="448.1" class="z-q67vhn_10" style="stroke-dasharray: 12.8px; stroke-dashoffset: 0px;"></line>	<line fill="none" stroke="#FFFFFF" stroke-width="3" stroke-miterlimit="10" x1="314.1" y1="367.7" x2="326.9" y2="367.7" class="z-i1tmql_10" style="stroke-dasharray: 12.8px; stroke-dashoffset: 0px;"></line>	<line fill="none" stroke="#FFFFFF" stroke-width="3" stroke-miterlimit="10" x1="509.3" y1="367.7" x2="522" y2="367.7" class="z-7xjqzv_10" style="stroke-dasharray: 12.7px; stroke-dashoffset: 0px;"></line>	<circle fill="none" stroke="#FFFFFF" stroke-width="3" stroke-miterlimit="10" cx="355.1" cy="83.7" r="11.7" class="z-y8e6hf_10" style="stroke-dasharray: 73.5133px; stroke-dashoffset: 0px;"></circle>	<circle fill="none" stroke="#FFFFFF" stroke-width="3" stroke-miterlimit="10" cx="479.5" cy="83.7" r="11.7" class="z-wnybya_10" style="stroke-dasharray: 73.5133px; stroke-dashoffset: 0px;"></circle>	<circle fill="none" stroke="#FFFFFF" stroke-width="3" stroke-miterlimit="10" cx="549.3" cy="130" r="11.7" class="z-1uuyjq_10" style="stroke-dasharray: 73.5133px; stroke-dashoffset: 0px;"></circle>	<circle fill="none" stroke="#FFFFFF" stroke-width="3" stroke-miterlimit="10" cx="285.8" cy="130" r="11.7" class="z-zlr06t_10" style="stroke-dasharray: 73.5133px; stroke-dashoffset: 0px;"></circle>	<line fill="none" stroke="#FFFFFF" stroke-width="3" stroke-miterlimit="10" x1="391.8" y1="556.3" x2="442.8" y2="556.3" class="z-cqop7h_10" style="stroke-dasharray: 51px; stroke-dashoffset: 0px;"></line>	<line fill="none" stroke="#FFFFFF" stroke-width="3" stroke-miterlimit="10" x1="383.4" y1="605.8" x2="451.3" y2="605.8" class="z-przgob_10" style="stroke-dasharray: 67.9px; stroke-dashoffset: 0px;"></line>	<line fill="none" stroke="#FFFFFF" stroke-width="3" stroke-miterlimit="10" x1="383.4" y1="645.5" x2="451.3" y2="645.5" class="z-iofllh_10" style="stroke-dasharray: 67.9px; stroke-dashoffset: 0px;"></line>	<line fill="none" stroke="#FFFFFF" stroke-width="3" stroke-miterlimit="10" x1="497.5" y1="628.5" x2="533.9" y2="628.5" class="z-dlslt7_10" style="stroke-dasharray: 36.4px; stroke-dashoffset: 0px;"></line>	<line fill="none" stroke="#FFFFFF" stroke-width="3" stroke-miterlimit="10" x1="510.3" y1="662.4" x2="546.7" y2="662.4" class="z-rilj0l_10" style="stroke-dasharray: 36.4px; stroke-dashoffset: 0px;"></line>	<line fill="none" stroke="#FFFFFF" stroke-width="3" stroke-miterlimit="10" x1="339.3" y1="628.5" x2="302.9" y2="628.5" class="z-mrnrq1_10" style="stroke-dasharray: 36.4px; stroke-dashoffset: 0px;"></line>	<line fill="none" stroke="#FFFFFF" stroke-width="3" stroke-miterlimit="10" x1="326.5" y1="662.4" x2="290" y2="662.4" class="z-fpq7ju_10" style="stroke-dasharray: 36.5px; stroke-dashoffset: 0px;"></line>	<path fill="none" stroke="#FFFFFF" stroke-width="3" stroke-miterlimit="10" d="M383.4,358.2c0-15.7,15.2-28.5,33.9-28.5		s33.9,12.8,33.9,28.5" class="z-gqab4f_10" style="stroke-dasharray: 98.1874px; stroke-dashoffset: 0px;"></path>	<path fill="none" stroke="#FFFFFF" stroke-width="3" stroke-miterlimit="10" d="M414.1,405h5.3c5.3,0,9.5,4.3,9.5,9.5V433		c0,5.3-4.3,9.5-9.5,9.5h-5.3c-5.3,0-9.5-4.3-9.5-9.5v-18.5C404.6,409.2,408.9,405,414.1,405z" class="z-ctbvl9_10" style="stroke-dasharray: 107.305px; stroke-dashoffset: 0px;"></path></g><path fill="none" stroke="#FFFFFF" stroke-width="3" stroke-miterlimit="10" d="M664.6,491l-6-10.3h-11.9l-5.2,9	c1.4,4.4,3.7,8.3,6.7,11.6h10.4L664.6,491z" class="z-1wvjaw_10" style="stroke-dasharray: 70.035px; stroke-dashoffset: 0px;"></path><path fill="none" stroke="#FFFFFF" stroke-width="3" stroke-miterlimit="10" d="M694.4,480.7" class="z-hqjy82_10" style="stroke-dasharray: 0px; stroke-dashoffset: 0px;"></path><path fill="none" stroke="#FFFFFF" stroke-width="3" stroke-miterlimit="10" d="M694.4,480.7h-11.9l-6,10.3l6,10.3h10.4	c3-3.3,5.4-7.2,6.7-11.6" class="z-2nyrr2_10" style="stroke-dasharray: 59.6507px; stroke-dashoffset: 0px;"></path><polygon fill="none" stroke="#FFFFFF" stroke-width="3" stroke-miterlimit="10" points="676.5,470.4 664.6,470.4 658.7,480.7 	658.7,480.7 664.6,491 676.5,491 682.5,480.7 682.5,480.7 " class="z-cwrbzt_10" style="stroke-dasharray: 71.3806px; stroke-dashoffset: 0px;"></polygon><path fill="none" stroke="#FFFFFF" stroke-width="3" stroke-miterlimit="10" d="M658.7,501.3L658.7,501.3l5.2,9	c2.2,0.5,4.4,0.7,6.7,0.7c2.3,0,4.5-0.3,6.7-0.8l5.2-9h0l-6-10.3h-11.9L658.7,501.3z" class="z-5gkf7r_10" style="stroke-dasharray: 70.0784px; stroke-dashoffset: 0px;"></path><path fill="none" stroke="#FFFFFF" stroke-width="3" stroke-miterlimit="10" d="M664.6,470.4h11.9l6-10.3l-5.2-9	c-2.2-0.5-4.4-0.8-6.7-0.8c-2.3,0-4.5,0.3-6.7,0.7l-5.2,9L664.6,470.4z" class="z-c5k98c_10" style="stroke-dasharray: 70.0735px; stroke-dashoffset: 0px;"></path><path fill="none" stroke="#FFFFFF" stroke-width="3" stroke-miterlimit="10" d="M699.6,471.7l-5.2,9l5.2,9c0.9-2.8,1.4-5.9,1.4-9	C700.9,477.5,700.5,474.5,699.6,471.7z" class="z-3sxyuw_10" style="stroke-dasharray: 39.0712px; stroke-dashoffset: 0px;"></path><path fill="none" stroke="#FFFFFF" stroke-width="3" stroke-miterlimit="10" d="M641.6,471.6c-0.9,2.9-1.4,5.9-1.4,9	c0,3.1,0.5,6.2,1.4,9" class="z-jzlt7y_10" style="stroke-dasharray: 18.2875px; stroke-dashoffset: 0px;"></path><path fill="none" stroke="#FFFFFF" stroke-width="3" stroke-miterlimit="10" d="M682.5,460.1h10.4c-4.1-4.4-9.5-7.6-15.6-9" class="z-559kch_10" style="stroke-dasharray: 28.6785px; stroke-dashoffset: 0px;"></path><path fill="none" stroke="#FFFFFF" stroke-width="3" stroke-miterlimit="10" d="M699.6,471.7c-1.4-4.4-3.7-8.3-6.7-11.6h-10.4	l-6,10.3l6,10.3h11.9" class="z-amzv0f_10" style="stroke-dasharray: 59.6407px; stroke-dashoffset: 0px;"></path><polygon fill="none" stroke="#FFFFFF" stroke-width="3" stroke-miterlimit="10" points="676.5,470.4 682.5,480.7 682.5,480.7 	676.5,470.4 " class="z-yxy4an_10" style="stroke-dasharray: 23.8403px; stroke-dashoffset: 0px;"></polygon><polygon fill="none" stroke="#FFFFFF" stroke-width="3" stroke-miterlimit="10" points="676.5,470.4 676.5,470.4 682.5,460.1 	682.5,460.1 " class="z-zwq5h3_10" style="stroke-dasharray: 23.8403px; stroke-dashoffset: 0px;"></polygon><path fill="none" stroke="#FFFFFF" stroke-width="3" stroke-miterlimit="10" d="M658.7,480.7l6-10.3l-6-10.3h-10.4	c-3,3.3-5.4,7.2-6.7,11.6l5.2,9H658.7z" class="z-mis79x_10" style="stroke-dasharray: 70.0449px; stroke-dashoffset: 0px;"></path><polygon fill="none" stroke="#FFFFFF" stroke-width="3" stroke-miterlimit="10" points="658.7,480.7 658.7,480.7 664.6,470.4 	664.6,470.4 " class="z-xov2ex_10" style="stroke-dasharray: 23.7403px; stroke-dashoffset: 0px;"></polygon><polygon fill="none" stroke="#FFFFFF" stroke-width="3" stroke-miterlimit="10" points="658.7,460.1 664.6,470.4 664.6,470.4 	658.7,460.1 " class="z-ndku54_10" style="stroke-dasharray: 23.7403px; stroke-dashoffset: 0px;"></polygon><path fill="none" stroke="#FFFFFF" stroke-width="3" stroke-miterlimit="10" d="M663.9,451.1c-6.1,1.4-11.5,4.6-15.6,9h10.4" class="z-l0gnwy_10" style="stroke-dasharray: 28.6785px; stroke-dashoffset: 0px;"></path><path fill="none" stroke="#FFFFFF" stroke-width="3" stroke-miterlimit="10" d="M677.3,510.3c6.1-1.4,11.5-4.6,15.6-9" class="z-2e4jbi_10" style="stroke-dasharray: 18.2785px; stroke-dashoffset: 0px;"></path><path fill="none" stroke="#FFFFFF" stroke-width="3" stroke-miterlimit="10" d="M648.3,501.3c4.1,4.4,9.5,7.6,15.6,9" class="z-zk0kqa_10" style="stroke-dasharray: 18.2785px; stroke-dashoffset: 0px;"></path><line fill="none" stroke="#FFFFFF" stroke-width="3" stroke-miterlimit="10" x1="717.2" y1="525.2" x2="762.2" y2="570.1" class="z-24r8ko_10" style="stroke-dasharray: 63.5689px; stroke-dashoffset: 0px;"></line><line fill="none" stroke="#FFFFFF" stroke-width="3" stroke-miterlimit="10" x1="700.9" y1="526.4" x2="798.1" y2="623.6" class="z-e4pviz_10" style="stroke-dasharray: 137.462px; stroke-dashoffset: 0px;"></line><line fill="none" stroke="#FFFFFF" stroke-width="3" stroke-miterlimit="10" x1="707.4" y1="498.1" x2="782.3" y2="572.9" class="z-otmt0r_10" style="stroke-dasharray: 105.854px; stroke-dashoffset: 0px;"></line><line fill="none" stroke="#FFFFFF" stroke-width="3" stroke-miterlimit="10" x1="417" y1="523.2" x2="221.1" y2="627" class="z-ne9agz_10" style="stroke-dasharray: 221.701px; stroke-dashoffset: 0px;"></line><line fill="none" stroke="#FFFFFF" stroke-width="3" stroke-miterlimit="10" x1="619.8" y1="627" x2="417" y2="523.2" class="z-hlmdyd_10" style="stroke-dasharray: 227.821px; stroke-dashoffset: 0px;"></line><path fill="none" stroke="#FFFFFF" stroke-width="3" stroke-miterlimit="10" d="M378.5,551.9" class="z-yh7x5u_10" style="stroke-dasharray: 0px; stroke-dashoffset: 0px;"></path><line fill="none" stroke="#FFFFFF" stroke-width="3" stroke-miterlimit="10" x1="528.7" y1="738.1" x2="456.1" y2="551.9" class="z-kxhsfc_10" style="stroke-dasharray: 199.853px; stroke-dashoffset: 0px;"></line><path fill="none" stroke="#FFFFFF" stroke-width="3" stroke-miterlimit="10" d="M293.6,596.1" class="z-5bgwqa_10" style="stroke-dasharray: 0px; stroke-dashoffset: 0px;"></path><line fill="none" stroke="#FFFFFF" stroke-width="3" stroke-miterlimit="10" x1="601.7" y1="738.1" x2="544.8" y2="596.1" class="z-l8r7am_10" style="stroke-dasharray: 152.976px; stroke-dashoffset: 0px;"></line><line fill="none" stroke="#FFFFFF" stroke-width="3" stroke-miterlimit="10" x1="588.7" y1="738.1" x2="526.9" y2="586.7" class="z-5jbs2u_10" style="stroke-dasharray: 163.527px; stroke-dashoffset: 0px;"></line><path fill="none" stroke="#FFFFFF" stroke-width="3" stroke-miterlimit="10" d="M246.7,620.6" class="z-o9358l_10" style="stroke-dasharray: 0px; stroke-dashoffset: 0px;"></path><line fill="none" stroke="#FFFFFF" stroke-width="3" stroke-miterlimit="10" x1="640.2" y1="738.1" x2="593.2" y2="620.6" class="z-iy01ie_10" style="stroke-dasharray: 126.551px; stroke-dashoffset: 0px;"></line><line fill="none" stroke="#FFFFFF" stroke-width="3" stroke-miterlimit="10" x1="626.7" y1="738.1" x2="576.4" y2="610.4" class="z-tn1dba_10" style="stroke-dasharray: 137.249px; stroke-dashoffset: 0px;"></line><line fill="none" stroke="#FFFFFF" stroke-width="3" stroke-miterlimit="10" x1="221.1" y1="634" x2="417" y2="531.8" class="z-kdny68_10" style="stroke-dasharray: 220.956px; stroke-dashoffset: 0px;"></line><line fill="none" stroke="#FFFFFF" stroke-width="3" stroke-miterlimit="10" x1="324.3" y1="738.1" x2="305.9" y2="738.1" class="z-90ys7p_10" style="stroke-dasharray: 18.4px; stroke-dashoffset: 0px;"></line><line fill="none" stroke="#FFFFFF" stroke-width="3" stroke-miterlimit="10" x1="510.3" y1="738.1" x2="528.7" y2="738.1" class="z-feyrk1_10" style="stroke-dasharray: 18.4px; stroke-dashoffset: 0px;"></line><path fill="none" stroke="#FFFFFF" stroke-width="3" stroke-miterlimit="10" d="M437.6,542.2" class="z-dm4p3j_10" style="stroke-dasharray: 0px; stroke-dashoffset: 0px;"></path><line fill="none" stroke="#FFFFFF" stroke-width="3" stroke-miterlimit="10" x1="251.6" y1="738.1" x2="236.8" y2="738.1" class="z-epo7pt_10" style="stroke-dasharray: 14.8px; stroke-dashoffset: 0px;"></line><line fill="none" stroke="#FFFFFF" stroke-width="3" stroke-miterlimit="10" x1="586.9" y1="738.1" x2="601.7" y2="738.1" class="z-wt890f_10" style="stroke-dasharray: 14.8px; stroke-dashoffset: 0px;"></line><path fill="none" stroke="#FFFFFF" stroke-width="3" stroke-miterlimit="10" d="M526.9,586.7" class="z-7ijst7_10" style="stroke-dasharray: 0px; stroke-dashoffset: 0px;"></path><line fill="none" stroke="#FFFFFF" stroke-width="3" stroke-miterlimit="10" x1="213.2" y1="738.1" x2="199.7" y2="738.1" class="z-skgurb_10" style="stroke-dasharray: 13.5px; stroke-dashoffset: 0px;"></line><line fill="none" stroke="#FFFFFF" stroke-width="3" stroke-miterlimit="10" x1="626.7" y1="738.1" x2="640.2" y2="738.1" class="z-pbtx3v_10" style="stroke-dasharray: 13.5px; stroke-dashoffset: 0px;"></line><path fill="none" stroke="#FFFFFF" stroke-width="3" stroke-miterlimit="10" d="M577.6,612.4" class="z-o4e9xc_10" style="stroke-dasharray: 0px; stroke-dashoffset: 0px;"></path><line fill="none" stroke="#FFFFFF" stroke-width="3" stroke-miterlimit="10" x1="305.9" y1="738.1" x2="378.5" y2="551.9" class="z-52m2z7_10" style="stroke-dasharray: 199.853px; stroke-dashoffset: 0px;"></line><line fill="none" stroke="#FFFFFF" stroke-width="3" stroke-miterlimit="10" x1="236.8" y1="738.1" x2="293.6" y2="596.1" class="z-r58tj0_10" style="stroke-dasharray: 152.939px; stroke-dashoffset: 0px;"></line><line fill="none" stroke="#FFFFFF" stroke-width="3" stroke-miterlimit="10" x1="199.7" y1="738.1" x2="246.7" y2="620.6" class="z-jz0vav_10" style="stroke-dasharray: 126.551px; stroke-dashoffset: 0px;"></line><polyline fill="none" stroke="#FFFFFF" stroke-width="3" stroke-miterlimit="10" points="295.6,738.1 271.4,738.1 271.4,705.4 " class="z-x8qt8r_10"></polyline><path fill="none" stroke="#FFFFFF" stroke-width="3" stroke-miterlimit="10" d="M295.6,738.1" class="z-j2i8nz_10" style="stroke-dasharray: 0px; stroke-dashoffset: 0px;"></path><line fill="none" stroke="#FFFFFF" stroke-width="3" stroke-miterlimit="10" x1="271.4" y1="705.4" x2="295.6" y2="705.4" class="z-eiusok_10" style="stroke-dasharray: 24.2px; stroke-dashoffset: 0px;"></line><polyline fill="none" stroke="#FFFFFF" stroke-width="3" stroke-miterlimit="10" points="564.3,738.1 540,738.1 540,705.4 " class="z-uuntby_10"></polyline><path fill="none" stroke="#FFFFFF" stroke-width="3" stroke-miterlimit="10" d="M564.3,738.1" class="z-o44ql9_10" style="stroke-dasharray: 0px; stroke-dashoffset: 0px;"></path><line fill="none" stroke="#FFFFFF" stroke-width="3" stroke-miterlimit="10" x1="540" y1="705.4" x2="564.3" y2="705.4" class="z-y4hlma_10" style="stroke-dasharray: 24.3px; stroke-dashoffset: 0px;"></line><line fill="none" stroke="#FFFFFF" stroke-width="3" stroke-miterlimit="10" x1="619.8" y1="634" x2="619.8" y2="627" class="z-fepfvd_10" style="stroke-dasharray: 7px; stroke-dashoffset: 0px;"></line><path fill="none" stroke="#FFFFFF" stroke-width="3" stroke-miterlimit="10" d="M417,531.8" class="z-eyf7f3_10" style="stroke-dasharray: 0px; stroke-dashoffset: 0px;"></path><line fill="none" stroke="#FFFFFF" stroke-width="3" stroke-miterlimit="10" x1="417" y1="531.8" x2="619.8" y2="634" class="z-v62mqi_10" style="stroke-dasharray: 227.096px; stroke-dashoffset: 0px;"></line><line fill="none" stroke="#FFFFFF" stroke-width="3" stroke-miterlimit="10" x1="437.6" y1="542.2" x2="510.3" y2="738.1" class="z-s75mzd_10" style="stroke-dasharray: 208.955px; stroke-dashoffset: 0px;"></line><line fill="none" stroke="#FFFFFF" stroke-width="3" stroke-miterlimit="10" x1="361.2" y1="638" x2="361.2" y2="738.1" class="z-yfr15l_10" style="stroke-dasharray: 100.1px; stroke-dashoffset: 0px;"></line><line fill="none" stroke="#FFFFFF" stroke-width="3" stroke-miterlimit="10" x1="472.6" y1="738.1" x2="472.6" y2="636.5" class="z-sr3wu2_10" style="stroke-dasharray: 101.6px; stroke-dashoffset: 0px;"></line><line fill="none" stroke="#FFFFFF" stroke-width="3" stroke-miterlimit="10" x1="295.6" y1="705.4" x2="295.6" y2="738.1" class="z-f9avlg_10" style="stroke-dasharray: 32.7px; stroke-dashoffset: 0px;"></line><line fill="none" stroke="#FFFFFF" stroke-width="3" stroke-miterlimit="10" x1="564.3" y1="705.4" x2="564.3" y2="738.1" class="z-sfme52_10" style="stroke-dasharray: 32.7px; stroke-dashoffset: 0px;"></line></svg>