<svg version="1.1" id="Layer_1" xmlns="http://www.w3.org/2000/svg" xmlns:xlink="http://www.w3.org/1999/xlink" x="0px" y="0px" width="636px" height="565.9px" viewBox="0 0 636 565.9" enable-background="new 0 0 636 565.9" xml:space="preserve" data-id="11"><rect x="309" y="330.3" fill="none" stroke="#FFFFFF" stroke-width="3" stroke-miterlimit="10" width="29.4" height="6.3" class="z-tgxha8_11" style="stroke-dasharray: 71.4px; stroke-dashoffset: 0px;"></rect><rect x="309" y="343.8" fill="none" stroke="#FFFFFF" stroke-width="3" stroke-miterlimit="10" width="29.4" height="6.3" class="z-8da5tg_11" style="stroke-dasharray: 71.4px; stroke-dashoffset: 0px;"></rect><rect x="309" y="202.4" fill="none" stroke="#FFFFFF" stroke-width="3" stroke-miterlimit="10" width="29.4" height="6.3" class="z-bem4cp_11" style="stroke-dasharray: 71.4px; stroke-dashoffset: 0px;"></rect><rect x="317.8" y="190.1" fill="none" stroke="#FFFFFF" stroke-width="3" stroke-miterlimit="10" width="11.8" height="6.3" class="z-ncjcli_11" style="stroke-dasharray: 36.2px; stroke-dashoffset: 0px;"></rect><rect x="309" y="238.5" fill="none" stroke="#FFFFFF" stroke-width="3" stroke-miterlimit="10" width="29.4" height="6.3" class="z-bf2xma_11" style="stroke-dasharray: 71.4px; stroke-dashoffset: 0px;"></rect><rect x="313.4" y="208.8" fill="none" stroke="#FFFFFF" stroke-width="3" stroke-miterlimit="10" width="20.6" height="29.7" class="z-b2lkl7_11" style="stroke-dasharray: 100.6px; stroke-dashoffset: 0px;"></rect><line fill="none" stroke="#FFFFFF" stroke-width="3" stroke-miterlimit="10" x1="326.8" y1="181.4" x2="320.6" y2="181.4" class="z-o1k65l_11" style="stroke-dasharray: 6.2px; stroke-dashoffset: 0px;"></line><line fill="none" stroke="#FFFFFF" stroke-width="3" stroke-miterlimit="10" x1="326.5" y1="168.2" x2="320.9" y2="168.2" class="z-m5f3pe_11" style="stroke-dasharray: 5.6px; stroke-dashoffset: 0px;"></line><line fill="none" stroke="#FFFFFF" stroke-width="3" stroke-miterlimit="10" x1="326.2" y1="155" x2="321.2" y2="155" class="z-6g0dr9_11" style="stroke-dasharray: 5px; stroke-dashoffset: 0px;"></line><line fill="none" stroke="#FFFFFF" stroke-width="3" stroke-miterlimit="10" x1="325.9" y1="141.8" x2="321.5" y2="141.8" class="z-re5qzj_11" style="stroke-dasharray: 4.4px; stroke-dashoffset: 0px;"></line><line fill="none" stroke="#FFFFFF" stroke-width="3" stroke-miterlimit="10" x1="325.5" y1="128.7" x2="321.7" y2="128.7" class="z-pgjeln_11" style="stroke-dasharray: 3.8px; stroke-dashoffset: 0px;"></line><line fill="none" stroke="#FFFFFF" stroke-width="3" stroke-miterlimit="10" x1="325.2" y1="115.5" x2="322" y2="115.5" class="z-vjpg0h_11" style="stroke-dasharray: 3.2px; stroke-dashoffset: 0px;"></line><line fill="none" stroke="#FFFFFF" stroke-width="3" stroke-miterlimit="10" x1="324.9" y1="102.3" x2="322.5" y2="102.3" class="z-5dszkw_11" style="stroke-dasharray: 2.4px; stroke-dashoffset: 0px;"></line><line fill="none" stroke="#FFFFFF" stroke-width="3" stroke-miterlimit="10" x1="324.6" y1="89.1" x2="322.8" y2="89.1" class="z-u6ku3g_11" style="stroke-dasharray: 1.8px; stroke-dashoffset: 0px;"></line><line fill="none" stroke="#FFFFFF" stroke-width="3" stroke-miterlimit="10" x1="313.4" y1="212.5" x2="334" y2="212.5" class="z-xizai1_11" style="stroke-dasharray: 20.6px; stroke-dashoffset: 0px;"></line><line fill="none" stroke="#FFFFFF" stroke-width="3" stroke-miterlimit="10" x1="313.4" y1="216.2" x2="334" y2="216.2" class="z-5xon5w_11" style="stroke-dasharray: 20.6px; stroke-dashoffset: 0px;"></line><line fill="none" stroke="#FFFFFF" stroke-width="3" stroke-miterlimit="10" x1="313.4" y1="219.9" x2="334" y2="219.9" class="z-92h94k_11" style="stroke-dasharray: 20.6px; stroke-dashoffset: 0px;"></line><line fill="none" stroke="#FFFFFF" stroke-width="3" stroke-miterlimit="10" x1="313.4" y1="223.6" x2="334" y2="223.6" class="z-0kjzqd_11" style="stroke-dasharray: 20.6px; stroke-dashoffset: 0px;"></line><line fill="none" stroke="#FFFFFF" stroke-width="3" stroke-miterlimit="10" x1="313.4" y1="227.4" x2="334" y2="227.4" class="z-vacoxw_11" style="stroke-dasharray: 20.6px; stroke-dashoffset: 0px;"></line><line fill="none" stroke="#FFFFFF" stroke-width="3" stroke-miterlimit="10" x1="313.4" y1="231.1" x2="334" y2="231.1" class="z-xtcxoj_11" style="stroke-dasharray: 20.6px; stroke-dashoffset: 0px;"></line><line fill="none" stroke="#FFFFFF" stroke-width="3" stroke-miterlimit="10" x1="313.4" y1="234.8" x2="334" y2="234.8" class="z-y48rj3_11" style="stroke-dasharray: 20.6px; stroke-dashoffset: 0px;"></line><g class="z-hoafzd_11">	<path fill="none" stroke="#FFFFFF" stroke-width="3" stroke-miterlimit="10" d="M323.6,306.8c-17.1,0-31-13.8-31-30.9		s13.8-31,30.9-31" class="z-nckjbg_11" style="stroke-dasharray: 97.2521px; stroke-dashoffset: 0px;"></path>	<path fill="none" stroke="#FFFFFF" stroke-width="3" stroke-miterlimit="10" d="M323.5,244.8c-13.7,0-24.8,14.8-24.7,31		c0,16.9,11.1,31,24.8,30.9" class="z-zf9fwu_11" style="stroke-dasharray: 87.6491px; stroke-dashoffset: 0px;"></path>	<path fill="none" stroke="#FFFFFF" stroke-width="3" stroke-miterlimit="10" d="M323.5,244.8c-6.8,0-12.4,16.5-12.4,31		c0,16.5,5.6,31,12.4,31" class="z-zu9r5i_11" style="stroke-dasharray: 71.0016px; stroke-dashoffset: 0px;"></path></g><g class="z-m3vgo4_11">	<path fill="none" stroke="#FFFFFF" stroke-width="3" stroke-miterlimit="10" d="M323.6,306.8" class="z-hlzpy5_11" style="stroke-dasharray: 0px; stroke-dashoffset: 0px;"></path></g><g class="z-9333co_11">	<path fill="none" stroke="#FFFFFF" stroke-width="3" stroke-miterlimit="10" d="M323.6,244.8" class="z-rdzwxg_11" style="stroke-dasharray: 0px; stroke-dashoffset: 0px;"></path></g><g class="z-v65qd7_11">	<path fill="none" stroke="#FFFFFF" stroke-width="3" stroke-miterlimit="10" d="M323.6,244.8c17.1,0,31,13.8,31,30.9		c0,17.1-13.8,31-30.9,31" class="z-nwiwzw_11" style="stroke-dasharray: 97.2521px; stroke-dashoffset: 0px;"></path>	<path fill="none" stroke="#FFFFFF" stroke-width="3" stroke-miterlimit="10" d="M323.6,306.8c13.7,0,24.8-14.8,24.7-31		c0-16.9-11.1-31-24.8-30.9" class="z-27f6e0_11" style="stroke-dasharray: 87.6491px; stroke-dashoffset: 0px;"></path>	<path fill="none" stroke="#FFFFFF" stroke-width="3" stroke-miterlimit="10" d="M323.6,306.8c6.8,0,12.4-16.5,12.4-31		c0-16.5-5.6-31-12.4-31" class="z-g2xf01_11" style="stroke-dasharray: 71.0016px; stroke-dashoffset: 0px;"></path></g><g class="z-lhosau_11">	<path fill="none" stroke="#FFFFFF" stroke-width="3" stroke-miterlimit="10" d="M323.6,244.8" class="z-14dw0o_11" style="stroke-dasharray: 0px; stroke-dashoffset: 0px;"></path></g><line fill="none" stroke="#FFFFFF" stroke-width="3" stroke-miterlimit="10" x1="296.8" y1="260.2" x2="350.7" y2="260.2" class="z-5a0lwc_11" style="stroke-dasharray: 53.9px; stroke-dashoffset: 0px;"></line><line fill="none" stroke="#FFFFFF" stroke-width="3" stroke-miterlimit="10" x1="323.5" y1="244.8" x2="323.5" y2="306.8" class="z-3mk8oy_11" style="stroke-dasharray: 62px; stroke-dashoffset: 0px;"></line><g class="z-n432eg_11">	<path fill="none" stroke="#FFFFFF" stroke-width="3" stroke-miterlimit="10" d="M352,288.1h-56.9c1.8,4.1,4.5,7.8,7.8,10.8h41.3		C347.6,295.9,350.3,292.2,352,288.1z" class="z-w5vj63_11" style="stroke-dasharray: 125.057px; stroke-dashoffset: 0px;"></path></g><path fill="none" stroke="#FFFFFF" stroke-width="3" stroke-miterlimit="10" d="M62.6,154.2h34.6c0-14.2,11.5-25.7,25.7-25.7	c3.4,0,6.6,0.7,9.6,1.9c3-15.6,16.7-27.4,33.2-27.4c16.9,0,30.9,12.4,33.4,28.6c3.6-2,7.8-3.1,12.2-3.1c14.2,0,25.7,11.5,25.7,25.7	h34.6" class="z-d0t4w6_11" style="stroke-dasharray: 267.071px; stroke-dashoffset: 0px;"></path><path fill="none" stroke="#FFFFFF" stroke-width="3" stroke-miterlimit="10" d="M407.9,271h20.9h0c0-0.1,0-0.3,0-0.4	c0-11.9,9.7-21.6,21.6-21.6c4,0,7.8,1.1,11.1,3.1c4.6-8.1,13.3-13.6,23.4-13.6c14.8,0,26.8,12,26.8,26.8c0,2-0.2,3.9-0.6,5.7H532" class="z-n96kct_11" style="stroke-dasharray: 164.004px; stroke-dashoffset: 0px;"></path><g class="z-y72oi6_11">	<path fill="none" stroke="#FFFFFF" stroke-width="3" stroke-miterlimit="10" d="M323.7,52.2" class="z-1sihde_11" style="stroke-dasharray: 0px; stroke-dashoffset: 0px;"></path>	<line fill="none" stroke="#FFFFFF" stroke-width="3" stroke-miterlimit="10" x1="320.3" y1="190.1" x2="327.1" y2="190.1" class="z-9bpovc_11" style="stroke-dasharray: 6.8px; stroke-dashoffset: 0px;"></line>	<polygon fill="none" stroke="#FFFFFF" stroke-width="3" stroke-miterlimit="10" points="327.3,196.5 320.1,196.5 320,202.4 		327.4,202.4 	" class="z-pvtza2_11" style="stroke-dasharray: 26.4017px; stroke-dashoffset: 0px;"></polygon>	<line fill="none" stroke="#FFFFFF" stroke-width="3" stroke-miterlimit="10" x1="331" y1="350.2" x2="316.3" y2="350.2" class="z-mtllmh_11" style="stroke-dasharray: 14.7px; stroke-dashoffset: 0px;"></line>	<line fill="none" stroke="#FFFFFF" stroke-width="3" stroke-miterlimit="10" x1="311.1" y1="564.6" x2="336.3" y2="564.6" class="z-dlozp1_11" style="stroke-dasharray: 25.2px; stroke-dashoffset: 0px;"></line>	<path fill="none" stroke="#FFFFFF" stroke-width="3" stroke-miterlimit="10" d="M330,306.2c-2.1,0.4-4.2,0.6-6.4,0.6		c-2.1,0-4.1-0.2-6.1-0.6" class="z-r71swo_11" style="stroke-dasharray: 12.5773px; stroke-dashoffset: 0px;"></path>	<line fill="none" stroke="#FFFFFF" stroke-width="3" stroke-miterlimit="10" x1="316.8" y1="330.3" x2="330.6" y2="330.3" class="z-wifv4d_11" style="stroke-dasharray: 13.8px; stroke-dashoffset: 0px;"></line>	<polygon fill="none" stroke="#FFFFFF" stroke-width="3" stroke-miterlimit="10" points="330.7,336.6 316.7,336.6 316.5,343.8 		330.9,343.8 	" class="z-iyt60b_11" style="stroke-dasharray: 42.8056px; stroke-dashoffset: 0px;"></polygon></g><line fill="none" stroke="#FFFFFF" stroke-width="3" stroke-miterlimit="10" x1="316.3" y1="350.2" x2="311.1" y2="564.6" class="z-5cdw9s_11" style="stroke-dasharray: 214.463px; stroke-dashoffset: 0px;"></line><line fill="none" stroke="#FFFFFF" stroke-width="3" stroke-miterlimit="10" x1="336.3" y1="564.6" x2="331" y2="350.2" class="z-up2oex_11" style="stroke-dasharray: 214.465px; stroke-dashoffset: 0px;"></line><path fill="none" stroke="#FFFFFF" stroke-width="3" stroke-miterlimit="10" d="M317.4,306.3l-0.6,24" class="z-2vv1lm_11" style="stroke-dasharray: 24.0075px; stroke-dashoffset: 0px;"></path><path fill="none" stroke="#FFFFFF" stroke-width="3" stroke-miterlimit="10" d="M330.6,330.3l-0.6-24.1" class="z-w0nxin_11" style="stroke-dasharray: 24.1075px; stroke-dashoffset: 0px;"></path><line fill="none" stroke="#FFFFFF" stroke-width="3" stroke-miterlimit="10" x1="323.7" y1="52.2" x2="320.3" y2="190.1" class="z-m8bcxc_11" style="stroke-dasharray: 137.942px; stroke-dashoffset: 0px;"></line><line fill="none" stroke="#FFFFFF" stroke-width="3" stroke-miterlimit="10" x1="327.1" y1="190.1" x2="323.7" y2="52.2" class="z-4islfm_11" style="stroke-dasharray: 137.942px; stroke-dashoffset: 0px;"></line></svg>