<svg version="1.1" id="Layer_1" xmlns="http://www.w3.org/2000/svg" xmlns:xlink="http://www.w3.org/1999/xlink" x="0px" y="0px" width="760.5px" height="589.3px" viewBox="0 0 760.5 589.3" enable-background="new 0 0 760.5 589.3" xml:space="preserve" data-id="18"><g class="z-yiuzxw_18">	<path fill="none" stroke="#FFFFFF" stroke-width="3" stroke-miterlimit="10" d="M502.3,557.6c0-5,1.6-9.5,4.4-13.2H257.1		c2.7,3.7,4.4,8.3,4.4,13.2c0,12.3-9.9,22.2-22.2,22.2h-4.7v9h294.6v-9h-4.7C512.2,579.8,502.3,569.9,502.3,557.6z" class="z-9b2vp0_18" style="stroke-dasharray: 669.699px; stroke-dashoffset: 0px;"></path></g><g class="z-6bsnp3_18">	<path fill="none" stroke="#FFFFFF" stroke-width="3" stroke-miterlimit="10" d="M401.2,557.6c0-5,1.6-9.5,4.4-13.2h-47.4		c2.7,3.7,4.4,8.3,4.4,13.2c0,12.3-9.9,22.2-22.2,22.2h-4.7v9h92.4v-9h-4.7C411.1,579.8,401.2,569.9,401.2,557.6z" class="z-j4lyc9_18" style="stroke-dasharray: 265.299px; stroke-dashoffset: 0px;"></path></g><rect x="349.7" y="434.7" fill="none" stroke="#FFFFFF" stroke-width="3" stroke-miterlimit="10" width="64.4" height="109.7" class="z-0tdhv3_18" style="stroke-dasharray: 348.2px; stroke-dashoffset: 0px;"></rect><polygon fill="none" stroke="#FFFFFF" stroke-width="3" stroke-miterlimit="10" points="423,425.1 340.7,425.1 342.5,434.7 	421.2,434.7 " class="z-fy2x5b_18" style="stroke-dasharray: 180.535px; stroke-dashoffset: 0px;"></polygon><rect x="354.2" y="415.6" fill="none" stroke="#FFFFFF" stroke-width="3" stroke-miterlimit="10" width="55.4" height="9.6" class="z-bh9n44_18" style="stroke-dasharray: 130px; stroke-dashoffset: 0px;"></rect><rect x="358.7" y="178.7" fill="none" stroke="#FFFFFF" stroke-width="3" stroke-miterlimit="10" width="46.4" height="236.8" class="z-l7z0v2_18" style="stroke-dasharray: 566.4px; stroke-dashoffset: 0px;"></rect><rect x="358.7" y="167.6" fill="none" stroke="#FFFFFF" stroke-width="3" stroke-miterlimit="10" width="46.4" height="11.1" class="z-cumwkj_18" style="stroke-dasharray: 115px; stroke-dashoffset: 0px;"></rect><polygon fill="none" stroke="#FFFFFF" stroke-width="3" stroke-miterlimit="10" points="348.6,144.3 348.6,155.4 358.7,167.6 	405.1,167.6 415.2,155.4 415.2,144.3 " class="z-crp4o6_18" style="stroke-dasharray: 166.876px; stroke-dashoffset: 0px;"></polygon><path fill="none" stroke="#FFFFFF" stroke-width="3" stroke-miterlimit="10" d="M491.6,544.3l0.1-13.8l12.2-12.2	c4.9-4.9,4.9-12.9,0-17.8c-4.9-4.9-12.9-4.9-17.8,0s-4.9,12.9,0,17.8v26" class="z-z1fzhd_18" style="stroke-dasharray: 116.347px; stroke-dashoffset: 0px;"></path><path fill="none" stroke="#FFFFFF" stroke-width="3" stroke-miterlimit="10" d="M486.1,523.2h-34.3c-7.6,0-13.8-6.2-13.8-13.8v-25.5	l-3-3" class="z-gywc4z_18" style="stroke-dasharray: 85.7134px; stroke-dashoffset: 0px;"></path><path fill="none" stroke="#FFFFFF" stroke-width="3" stroke-miterlimit="10" d="M444.7,514.8l-9.3,3.8V530h-0.1l0,0	c-2.7,0-4.8-2.2-4.8-4.8v-10.4L452,506" class="z-6rv0zy_18" style="stroke-dasharray: 62.7182px; stroke-dashoffset: 0px;"></path><line fill="none" stroke="#FFFFFF" stroke-width="3" stroke-miterlimit="10" x1="447.1" y1="522.4" x2="447.1" y2="544.3" class="z-riorfb_18" style="stroke-dasharray: 21.9px; stroke-dashoffset: 0px;"></line><path fill="none" stroke="#FFFFFF" stroke-width="3" stroke-miterlimit="10" d="M465.9,496.8h-6.8c0-19.3-15.7-35-35-35v30.9l0,0	c2.8,0,5-2.2,5-5l0-3.8c4.1,0,7.5-3.4,7.4-7.6c-0.1-4-3.6-7.1-7.7-7.1h-4.7" class="z-1ej6v0_18" style="stroke-dasharray: 132.449px; stroke-dashoffset: 0px;"></path><polyline fill="none" stroke="#FFFFFF" stroke-width="3" stroke-miterlimit="10" points="498.9,523.2 506.7,531 506.7,544.3 " class="z-ymakl8_18"></polyline><polyline fill="none" stroke="#FFFFFF" stroke-width="3" stroke-miterlimit="10" points="494.4,527.7 499.7,533 499.7,544.4 " class="z-2am6ck_18"></polyline><path fill="none" stroke="#FFFFFF" stroke-width="3" stroke-miterlimit="10" d="M503.9,500.4L503.9,500.4c4.9-4.9,12.8-4.9,17.6,0	l0.4,0.4c4.9,4.9,12.8,4.9,17.6,0l0.7-0.7" class="z-a80ra7_18" style="stroke-dasharray: 40.7198px; stroke-dashoffset: 0px;"></path><g class="z-y0vr6d_18">	<polygon fill="none" stroke="#FFFFFF" stroke-width="3" stroke-linejoin="round" stroke-miterlimit="10" points="412.9,530.3 		365.7,530.3 363.9,475 396.9,475 	" class="z-unustb_18" style="stroke-dasharray: 193.097px; stroke-dashoffset: 0px;"></polygon>	<polygon fill="none" stroke="#FFFFFF" stroke-width="3" stroke-linejoin="round" stroke-miterlimit="10" points="390.2,505.6 		370.6,505.6 363.9,475 380.4,470.8 396.9,475 	" class="z-qnohwr_18" style="stroke-dasharray: 116.302px; stroke-dashoffset: 0px;"></polygon>	<g class="z-gaonbk_18">		<line fill="none" stroke="#FFFFFF" stroke-width="3" stroke-miterlimit="10" x1="370.6" y1="487.3" x2="390.3" y2="487.3" class="z-q8k941_18" style="stroke-dasharray: 19.7px; stroke-dashoffset: 0px;"></line>		<line fill="none" stroke="#FFFFFF" stroke-width="3" stroke-miterlimit="10" x1="380.4" y1="487.3" x2="380.4" y2="478" class="z-74m03b_18" style="stroke-dasharray: 9.3px; stroke-dashoffset: 0px;"></line>	</g>	<path fill="none" stroke="#FFFFFF" stroke-width="3" stroke-miterlimit="10" d="M381.9,468.2H379c-2.2,0-4-1.8-4-4v-10.3h10.9v10.3		C385.9,466.4,384.1,468.2,381.9,468.2z" class="z-o5upil_18" style="stroke-dasharray: 46.9602px; stroke-dashoffset: 0px;"></path>	<line fill="none" stroke="#FFFFFF" stroke-width="3" stroke-miterlimit="10" x1="365.7" y1="485" x2="375" y2="472.2" class="z-x1fjps_18" style="stroke-dasharray: 15.8218px; stroke-dashoffset: 0px;"></line>	<polygon fill="none" stroke="#FFFFFF" stroke-width="3" stroke-miterlimit="10" points="392.3,519.4 368.6,519.4 370.6,505.6 		390.3,505.6 	" class="z-3tzgyu_18" style="stroke-dasharray: 71.2883px; stroke-dashoffset: 0px;"></polygon>	<polygon fill="none" stroke="#FFFFFF" stroke-width="3" stroke-miterlimit="10" points="378.5,544.4 375.9,544.4 369.6,519.4 		378.5,519.4 	" class="z-k5tmnl_18" style="stroke-dasharray: 62.2816px; stroke-dashoffset: 0px;"></polygon>	<polygon fill="none" stroke="#FFFFFF" stroke-width="3" stroke-miterlimit="10" points="384.9,544.4 382.4,544.4 382.4,519.4 		391.3,519.4 	" class="z-zh5aiu_18" style="stroke-dasharray: 62.2062px; stroke-dashoffset: 0px;"></polygon></g><g class="z-905aus_18">	<path fill="none" stroke="#FFFFFF" stroke-width="3" stroke-miterlimit="10" d="M474.1,487.7l-17.2,18.9l13.6,12.7l4.2-4.5l-6.3-8		l12.4-7.1c4.6-2.2,7.5-6.9,7.5-12l0,0H474.1z" class="z-pprh0t_18" style="stroke-dasharray: 103.913px; stroke-dashoffset: 0px;"></path>	<line fill="none" stroke="#FFFFFF" stroke-width="3" stroke-miterlimit="10" x1="473" y1="477.5" x2="473" y2="466.1" class="z-rg1doo_18" style="stroke-dasharray: 11.4px; stroke-dashoffset: 0px;"></line>	<path fill="none" stroke="#FFFFFF" stroke-width="3" stroke-miterlimit="10" d="M481,466.1h-10.5V458c0-4.1,3.3-7.4,7.4-7.4h3		V466.1z" class="z-0jaca9_18" style="stroke-dasharray: 48.8313px; stroke-dashoffset: 0px;"></path>			<line fill="none" stroke="#FFFFFF" stroke-width="3" stroke-linejoin="round" stroke-miterlimit="10" x1="463.2" y1="466.1" x2="452.1" y2="475.7" class="z-lstduy_18" style="stroke-dasharray: 14.6755px; stroke-dashoffset: 0px;"></line>	<polyline fill="none" stroke="#FFFFFF" stroke-width="3" stroke-linejoin="round" stroke-miterlimit="10" points="455.3,480.9 		465,477.5 481,477.5 	" class="z-isoykc_18"></polyline></g><polyline fill="none" stroke="#FFFFFF" stroke-width="3" stroke-linejoin="round" stroke-miterlimit="10" points="465,477.5 	463.2,466.1 488.3,466.1 501.5,479.3 501.5,492.6 496.2,492.6 496.2,481.9 488.3,476.5 " class="z-z7autv_18"></polyline><polyline fill="none" stroke="#FFFFFF" stroke-width="3" stroke-linejoin="round" stroke-miterlimit="10" points="469.1,477.5 	469.1,487.7 488.3,487.7 " class="z-9z2z4j_18"></polyline><g class="z-hogb2l_18">	<path fill="none" stroke="#FFFFFF" stroke-width="3" stroke-miterlimit="10" d="M397.2,144.3h-1.8c-2.1,0-4-0.8-5.5-2.3h0		c-1.5-1.5-2.3-3.4-2.3-5.5v-3c0,0,0-18.1,0-18.1c0-2.3-1.9-4.2-4.2-4.2h-6c-2.3,0-4.2,1.9-4.2,4.2v21c0,2.1-0.8,4-2.3,5.5l0,0		c-1.5,1.5-3.4,2.3-5.5,2.3h-1.8" class="z-y4f9za_18" style="stroke-dasharray: 89.3716px; stroke-dashoffset: 0px;"></path>	<line fill="none" stroke="#FFFFFF" stroke-width="3" stroke-miterlimit="10" x1="377.4" y1="122.4" x2="377.4" y2="130" class="z-pu43f1_18" style="stroke-dasharray: 7.6px; stroke-dashoffset: 0px;"></line>	<path fill="none" stroke="#FFFFFF" stroke-width="3" stroke-miterlimit="10" d="M384.3,111.3h-7.7c-2.3,0-3.8-2.3-2.8-4.4l2.3-4.9		h8.7l2.3,4.9C388,109,386.5,111.3,384.3,111.3z" class="z-lit0bs_18" style="stroke-dasharray: 39.6496px; stroke-dashoffset: 0px;"></path>	<path fill="none" stroke="#FFFFFF" stroke-width="3" stroke-miterlimit="10" d="M380.4,98.6L380.4,98.6c-1.7,0-3.1-1.4-3.1-3.1		v-3.1c0-1.7,1.4-3.1,3.1-3.1l0,0c1.7,0,3.1,1.4,3.1,3.1v3.1C383.5,97.2,382.1,98.6,380.4,98.6z" class="z-inzazh_18" style="stroke-dasharray: 25.6598px; stroke-dashoffset: 0px;"></path></g><path fill="none" stroke="#FFFFFF" stroke-width="3" stroke-miterlimit="10" d="M393,102.1L393,102.1c12-4.7,19.8-16.3,19.8-29.2	V48.1v0c-11.2,4.9-18.5,16-18.5,28.2v2.4c0,8.7-3.5,17.1-9.6,23.3l0,0" class="z-9k0y5a_18" style="stroke-dasharray: 126.21px; stroke-dashoffset: 0px;"></path><path fill="none" stroke="#FFFFFF" stroke-width="3" stroke-miterlimit="10" d="M367.8,102.1L367.8,102.1	c-12-4.7-19.8-16.3-19.8-29.2V48.1l0,0c11.2,4.9,18.5,16,18.5,28.2v2.4c0,8.7,3.5,17.1,9.6,23.3v0" class="z-suf4hv_18" style="stroke-dasharray: 126.21px; stroke-dashoffset: 0px;"></path><line fill="none" stroke="#FFFFFF" stroke-width="3" stroke-miterlimit="10" x1="452.8" y1="523.2" x2="452.8" y2="544.3" class="z-dkompj_18" style="stroke-dasharray: 21.1px; stroke-dashoffset: 0px;"></line><path fill="none" stroke="#FFFFFF" stroke-width="3" stroke-miterlimit="10" d="M272.4,544.3l-0.1-13.8l-12.2-12.2	c-4.9-4.9-4.9-12.9,0-17.8c4.9-4.9,12.9-4.9,17.8,0c4.9,4.9,4.9,12.9,0,17.8v26" class="z-8iwa42_18" style="stroke-dasharray: 116.347px; stroke-dashoffset: 0px;"></path><path fill="none" stroke="#FFFFFF" stroke-width="3" stroke-miterlimit="10" d="M277.9,523.2h34.3c7.6,0,13.8-6.2,13.8-13.8v-25.5	l3-3" class="z-dk62f0_18" style="stroke-dasharray: 85.7134px; stroke-dashoffset: 0px;"></path><path fill="none" stroke="#FFFFFF" stroke-width="3" stroke-miterlimit="10" d="M319.3,514.8l9.3,3.8V530h0.1l0,0	c2.7,0,4.8-2.2,4.8-4.8v-10.4L312,506" class="z-fdjdym_18" style="stroke-dasharray: 62.7182px; stroke-dashoffset: 0px;"></path><line fill="none" stroke="#FFFFFF" stroke-width="3" stroke-miterlimit="10" x1="316.9" y1="522.4" x2="316.9" y2="544.3" class="z-lxfonp_18" style="stroke-dasharray: 21.9px; stroke-dashoffset: 0px;"></line><path fill="none" stroke="#FFFFFF" stroke-width="3" stroke-miterlimit="10" d="M297.6,496.8h7.3c0-19.3,15.7-35,35-35v30.9l0,0	c-2.8,0-5-2.2-5-5l0-3.8c-4.1,0-7.5-3.4-7.4-7.6c0.1-4,3.6-7.1,7.7-7.1h4.7" class="z-ct6knq_18" style="stroke-dasharray: 132.949px; stroke-dashoffset: 0px;"></path><polyline fill="none" stroke="#FFFFFF" stroke-width="3" stroke-miterlimit="10" points="265.1,523.2 257.3,531 257.3,544.3 " class="z-namix7_18"></polyline><polyline fill="none" stroke="#FFFFFF" stroke-width="3" stroke-miterlimit="10" points="269.6,527.7 264.3,533 264.3,544.4 " class="z-01fx3v_18"></polyline><path fill="none" stroke="#FFFFFF" stroke-width="3" stroke-miterlimit="10" d="M260.1,500.4L260.1,500.4c-4.9-4.9-12.8-4.9-17.6,0	l-0.4,0.4c-4.9,4.9-12.8,4.9-17.6,0l-0.7-0.7" class="z-ejfm2i_18" style="stroke-dasharray: 40.7198px; stroke-dashoffset: 0px;"></path><line fill="none" stroke="#FFFFFF" stroke-width="3" stroke-miterlimit="10" x1="311.2" y1="523.2" x2="311.2" y2="544.3" class="z-sxam81_18" style="stroke-dasharray: 21.1px; stroke-dashoffset: 0px;"></line><g class="z-o3iqa3_18">	<rect x="614.1" y="553.9" fill="none" stroke="#FFFFFF" stroke-width="3" stroke-miterlimit="10" width="110.9" height="35.4" class="z-90xyt5_18" style="stroke-dasharray: 292.6px; stroke-dashoffset: 0px;"></rect>	<rect x="605.9" y="448.5" fill="none" stroke="#FFFFFF" stroke-width="3" stroke-miterlimit="10" width="119.1" height="19.7" class="z-hz0evd_18" style="stroke-dasharray: 277.6px; stroke-dashoffset: 0px;"></rect>	<rect x="555.1" y="467.4" fill="none" stroke="#FFFFFF" stroke-width="3" stroke-miterlimit="10" width="50.8" height="86.5" class="z-gsdea8_18" style="stroke-dasharray: 274.6px; stroke-dashoffset: 0px;"></rect>	<polygon fill="none" stroke="#FFFFFF" stroke-width="3" stroke-miterlimit="10" points="605.9,459.3 547.2,459.3 555.1,467.4 		605.9,467.4 	" class="z-lw1sfg_18" style="stroke-dasharray: 128.915px; stroke-dashoffset: 0px;"></polygon>	<polygon fill="none" stroke="#FFFFFF" stroke-width="3" stroke-miterlimit="10" points="614.1,580.6 546.9,580.6 539,589.3 		614.1,589.3 	" class="z-nazt1f_18" style="stroke-dasharray: 162.752px; stroke-dashoffset: 0px;"></polygon>	<rect x="546.9" y="572.4" fill="none" stroke="#FFFFFF" stroke-width="3" stroke-miterlimit="10" width="67.2" height="8.2" class="z-7q9pym_18" style="stroke-dasharray: 150.8px; stroke-dashoffset: 0px;"></rect>	<rect x="546.9" y="553.9" fill="none" stroke="#FFFFFF" stroke-width="3" stroke-miterlimit="10" width="67.2" height="18.5" class="z-h69t4m_18" style="stroke-dasharray: 171.4px; stroke-dashoffset: 0px;"></rect>	<rect x="555.1" y="448.5" fill="none" stroke="#FFFFFF" stroke-width="3" stroke-miterlimit="10" width="50.8" height="10.8" class="z-pqhdgn_18" style="stroke-dasharray: 123.2px; stroke-dashoffset: 0px;"></rect>	<rect x="648.8" y="468.2" fill="none" stroke="#FFFFFF" stroke-width="3" stroke-miterlimit="10" width="5.7" height="85.7" class="z-m2qoyk_18" style="stroke-dasharray: 182.8px; stroke-dashoffset: 0px;"></rect>	<rect x="697.3" y="468.2" fill="none" stroke="#FFFFFF" stroke-width="3" stroke-miterlimit="10" width="5.7" height="85.7" class="z-d0bp22_18" style="stroke-dasharray: 182.8px; stroke-dashoffset: 0px;"></rect>	<g class="z-8uzf9m_18">		<path fill="none" stroke="#FFFFFF" stroke-width="3" stroke-miterlimit="10" d="M589.9,448.9l0.1-8l7.1-7.1			c2.9-2.9,2.9-7.5,0-10.4c-2.9-2.9-7.5-2.9-10.4,0c-2.9,2.9-2.9,7.5,0,10.4v15.2" class="z-ko2otn_18" style="stroke-dasharray: 67.9531px; stroke-dashoffset: 0px;"></path>		<path fill="none" stroke="#FFFFFF" stroke-width="3" stroke-miterlimit="10" d="M586.7,436.7h-20c-4.5,0-8.1-3.6-8.1-8.1v-14.9			l-1.7-1.7" class="z-ov509t_18" style="stroke-dasharray: 50.041px; stroke-dashoffset: 0px;"></path>		<path fill="none" stroke="#FFFFFF" stroke-width="3" stroke-miterlimit="10" d="M562.6,431.7l-5.4,2.2v6.7h-0.1l0,0			c-1.5,0-2.8-1.3-2.8-2.8v-6.1l12.5-5.1" class="z-gavjim_18" style="stroke-dasharray: 36.6103px; stroke-dashoffset: 0px;"></path>		<line fill="none" stroke="#FFFFFF" stroke-width="3" stroke-miterlimit="10" x1="564" y1="436.2" x2="564" y2="448.9" class="z-zmviv4_18" style="stroke-dasharray: 12.7px; stroke-dashoffset: 0px;"></line>		<path fill="none" stroke="#FFFFFF" stroke-width="3" stroke-miterlimit="10" d="M591.9,421.2H571c0-11.3-9.1-20.4-20.4-20.4v18			l0,0c1.6,0,2.9-1.3,2.9-2.9l0-2.2c2.4,0,4.4-2,4.3-4.4c-0.1-2.3-2.1-4.2-4.5-4.2h-2.7" class="z-u2fiw3_18" style="stroke-dasharray: 94.0674px; stroke-dashoffset: 0px;"></path>		<polyline fill="none" stroke="#FFFFFF" stroke-width="3" stroke-miterlimit="10" points="594.2,436.7 598.7,441.2 598.7,448.9 					" class="z-9q3xg7_18"></polyline>		<polyline fill="none" stroke="#FFFFFF" stroke-width="3" stroke-miterlimit="10" points="591.6,439.3 594.7,442.4 594.7,449 		" class="z-ps8qvb_18"></polyline>		<path fill="none" stroke="#FFFFFF" stroke-width="3" stroke-miterlimit="10" d="M597.1,423.4L597.1,423.4c2.8-2.8,7.4-2.8,10.3,0			l0.2,0.2c2.8,2.8,7.4,2.8,10.3,0l0.4-0.4" class="z-xa51s2_18" style="stroke-dasharray: 23.6672px; stroke-dashoffset: 0px;"></path>		<line fill="none" stroke="#FFFFFF" stroke-width="3" stroke-miterlimit="10" x1="567.3" y1="436.7" x2="567.3" y2="448.9" class="z-9gpz9f_18" style="stroke-dasharray: 12.2px; stroke-dashoffset: 0px;"></line>	</g></g><g class="z-xgffzz_18">	<rect x="38.6" y="553.9" fill="none" stroke="#FFFFFF" stroke-width="3" stroke-miterlimit="10" width="110.9" height="35.4" class="z-l38zv3_18" style="stroke-dasharray: 292.6px; stroke-dashoffset: 0px;"></rect>	<rect x="38.6" y="448.5" fill="none" stroke="#FFFFFF" stroke-width="3" stroke-miterlimit="10" width="119.1" height="19.7" class="z-9q490w_18" style="stroke-dasharray: 277.6px; stroke-dashoffset: 0px;"></rect>	<rect x="157.7" y="467.4" fill="none" stroke="#FFFFFF" stroke-width="3" stroke-miterlimit="10" width="50.8" height="86.5" class="z-1yffx5_18" style="stroke-dasharray: 274.6px; stroke-dashoffset: 0px;"></rect>	<polygon fill="none" stroke="#FFFFFF" stroke-width="3" stroke-miterlimit="10" points="157.7,459.3 216.3,459.3 208.5,467.4 		157.7,467.4 	" class="z-9vaxrp_18" style="stroke-dasharray: 128.745px; stroke-dashoffset: 0px;"></polygon>	<polygon fill="none" stroke="#FFFFFF" stroke-width="3" stroke-miterlimit="10" points="149.5,580.6 216.7,580.6 224.6,589.3 		149.5,589.3 	" class="z-ecvndf_18" style="stroke-dasharray: 162.752px; stroke-dashoffset: 0px;"></polygon>	<rect x="149.5" y="572.4" fill="none" stroke="#FFFFFF" stroke-width="3" stroke-miterlimit="10" width="67.2" height="8.2" class="z-q746wf_18" style="stroke-dasharray: 150.8px; stroke-dashoffset: 0px;"></rect>	<rect x="149.5" y="553.9" fill="none" stroke="#FFFFFF" stroke-width="3" stroke-miterlimit="10" width="67.2" height="18.5" class="z-h1vv9g_18" style="stroke-dasharray: 171.4px; stroke-dashoffset: 0px;"></rect>	<rect x="157.7" y="448.5" fill="none" stroke="#FFFFFF" stroke-width="3" stroke-miterlimit="10" width="50.8" height="10.8" class="z-4xep3i_18" style="stroke-dasharray: 123.2px; stroke-dashoffset: 0px;"></rect>	<rect x="109.1" y="468.2" fill="none" stroke="#FFFFFF" stroke-width="3" stroke-miterlimit="10" width="5.7" height="85.7" class="z-twq9eb_18" style="stroke-dasharray: 182.8px; stroke-dashoffset: 0px;"></rect>	<rect x="60.6" y="468.2" fill="none" stroke="#FFFFFF" stroke-width="3" stroke-miterlimit="10" width="5.7" height="85.7" class="z-v6vfsd_18" style="stroke-dasharray: 182.8px; stroke-dashoffset: 0px;"></rect>	<g class="z-199rcy_18">		<path fill="none" stroke="#FFFFFF" stroke-width="3" stroke-miterlimit="10" d="M173.6,448.9l-0.1-8l-7.1-7.1			c-2.9-2.9-2.9-7.5,0-10.4c2.9-2.9,7.5-2.9,10.4,0c2.9,2.9,2.9,7.5,0,10.4v15.2" class="z-196yfl_18" style="stroke-dasharray: 67.953px; stroke-dashoffset: 0px;"></path>		<path fill="none" stroke="#FFFFFF" stroke-width="3" stroke-miterlimit="10" d="M176.8,436.7h20c4.5,0,8.1-3.6,8.1-8.1v-14.9			l1.7-1.7" class="z-3uo3pv_18" style="stroke-dasharray: 50.041px; stroke-dashoffset: 0px;"></path>		<path fill="none" stroke="#FFFFFF" stroke-width="3" stroke-miterlimit="10" d="M200.9,431.7l5.4,2.2v6.7h0.1h0			c1.5,0,2.8-1.3,2.8-2.8v-6.1l-12.5-5.1" class="z-dr9itx_18" style="stroke-dasharray: 36.6102px; stroke-dashoffset: 0px;"></path>		<line fill="none" stroke="#FFFFFF" stroke-width="3" stroke-miterlimit="10" x1="199.5" y1="436.2" x2="199.5" y2="448.9" class="z-9xxr1y_18" style="stroke-dasharray: 12.7px; stroke-dashoffset: 0px;"></line>		<path fill="none" stroke="#FFFFFF" stroke-width="3" stroke-miterlimit="10" d="M171.6,421.2h20.9c0-11.3,9.1-20.4,20.4-20.4v18			l0,0c-1.6,0-2.9-1.3-2.9-2.9l0-2.2c-2.4,0-4.4-2-4.3-4.4c0.1-2.3,2.1-4.2,4.5-4.2h2.7" class="z-umvmwp_18" style="stroke-dasharray: 94.0672px; stroke-dashoffset: 0px;"></path>		<polyline fill="none" stroke="#FFFFFF" stroke-width="3" stroke-miterlimit="10" points="169.3,436.7 164.8,441.2 164.8,448.9 					" class="z-pdjjs9_18"></polyline>		<polyline fill="none" stroke="#FFFFFF" stroke-width="3" stroke-miterlimit="10" points="172,439.3 168.9,442.4 168.9,449 		" class="z-lrm4mi_18"></polyline>		<path fill="none" stroke="#FFFFFF" stroke-width="3" stroke-miterlimit="10" d="M166.4,423.4L166.4,423.4c-2.8-2.8-7.4-2.8-10.3,0			l-0.2,0.2c-2.8,2.8-7.4,2.8-10.3,0l-0.4-0.4" class="z-nxeynq_18" style="stroke-dasharray: 23.6672px; stroke-dashoffset: 0px;"></path>		<line fill="none" stroke="#FFFFFF" stroke-width="3" stroke-miterlimit="10" x1="196.2" y1="436.7" x2="196.2" y2="448.9" class="z-6fq9jq_18" style="stroke-dasharray: 12.2px; stroke-dashoffset: 0px;"></line>	</g></g><g class="z-40jisw_18">	<g class="z-o9pw2a_18">		<g class="z-8yevsj_18">			<path fill="none" stroke="#FFFFFF" stroke-width="3" stroke-miterlimit="10" d="M289.7,488.1l17.2,18.9l-13.6,12.7l-4.2-4.5				l6.3-8l-12.4-7.1c-4.6-2.2-7.5-6.9-7.5-12v0H289.7z" class="z-7cfnv2_18" style="stroke-dasharray: 103.913px; stroke-dashoffset: 0px;"></path>			<line fill="none" stroke="#FFFFFF" stroke-width="3" stroke-miterlimit="10" x1="290.8" y1="477.9" x2="290.8" y2="466.5" class="z-8h8qfb_18" style="stroke-dasharray: 11.4px; stroke-dashoffset: 0px;"></line>			<rect x="282.8" y="457.2" fill="none" stroke="#FFFFFF" stroke-width="3" stroke-miterlimit="10" width="10.5" height="9.3" class="z-h4g2ys_18" style="stroke-dasharray: 39.6px; stroke-dashoffset: 0px;"></rect>							<line fill="none" stroke="#FFFFFF" stroke-width="3" stroke-linejoin="round" stroke-miterlimit="10" x1="300.6" y1="466.5" x2="311.8" y2="476.1" class="z-dmms01_18" style="stroke-dasharray: 14.7513px; stroke-dashoffset: 0px;"></line>			<polyline fill="none" stroke="#FFFFFF" stroke-width="3" stroke-linejoin="round" stroke-miterlimit="10" points="308.5,481.3 				298.8,477.9 282.8,477.9 			" class="z-f1agid_18"></polyline>		</g>		<path fill="none" stroke="#FFFFFF" stroke-width="3" stroke-linejoin="round" stroke-miterlimit="10" d="M275.5,476.9" class="z-kzjxql_18" style="stroke-dasharray: 0px; stroke-dashoffset: 0px;"></path>		<polyline fill="none" stroke="#FFFFFF" stroke-width="3" stroke-linejoin="round" stroke-miterlimit="10" points="298.8,477.9 			300.6,466.5 275.5,466.5 		" class="z-95y8g4_18"></polyline>		<polyline fill="none" stroke="#FFFFFF" stroke-width="3" stroke-linejoin="round" stroke-miterlimit="10" points="294.8,477.9 			289.7,488.1 275.5,488.1 		" class="z-ifi7qe_18"></polyline>	</g>	<path fill="none" stroke="#FFFFFF" stroke-width="3" stroke-linejoin="round" stroke-miterlimit="10" d="M277.4,466.5h-5.3		c-4,0-7.2,3.2-7.2,7.2v23h10.6v-17.1" class="z-hur0vh_18" style="stroke-dasharray: 67.3216px; stroke-dashoffset: 0px;"></path>	<polygon fill="none" stroke="#FFFFFF" stroke-width="3" stroke-miterlimit="10" points="293.3,457.2 282.8,457.2 282.8,451 		299.3,451 	" class="z-fb93w8_18" style="stroke-dasharray: 41.8279px; stroke-dashoffset: 0px;"></polygon></g></svg>