<svg version="1.1" id="Layer_1" xmlns="http://www.w3.org/2000/svg" xmlns:xlink="http://www.w3.org/1999/xlink" x="0px" y="0px" width="552px" height="590px" viewBox="0 0 552 590" enable-background="new 0 0 552 590" xml:space="preserve" data-id="28"><g class="z-0ruasm_28">	<polygon fill="none" stroke="#FFFFFF" stroke-width="3" stroke-miterlimit="10" points="124.1,475.2 124.1,520.7 95.7,520.7 	" class="z-uelg7b_28" style="stroke-dasharray: 127.536px; stroke-dashoffset: 0px;"></polygon>	<polygon fill="none" stroke="#FFFFFF" stroke-width="3" stroke-miterlimit="10" points="125.3,535.4 95.7,535.4 87.1,526.1 		133.8,526.1 	" class="z-mgknrn_28" style="stroke-dasharray: 101.566px; stroke-dashoffset: 0px;"></polygon>	<line fill="none" stroke="#FFFFFF" stroke-width="3" stroke-miterlimit="10" x1="124.1" y1="520.7" x2="124.1" y2="526.3" class="z-f7xurv_28" style="stroke-dasharray: 5.6px; stroke-dashoffset: 0px;"></line>	<polygon fill="none" stroke="#FFFFFF" stroke-width="3" stroke-miterlimit="10" points="124.1,497.8 141.8,520.7 124.1,520.7 	" class="z-7v49sn_28" style="stroke-dasharray: 69.543px; stroke-dashoffset: 0px;"></polygon></g><g class="z-nkonqs_28">	<g class="z-s1fcdi_28">		<path fill="none" stroke="#FFFFFF" stroke-width="3" stroke-linejoin="round" stroke-miterlimit="10" d="M443.8,414.8			c-3.1-3.5-7.5-5.3-11.8-5.4l15.8,17.8C448.2,422.9,447,418.4,443.8,414.8z" class="z-iqwe3k_28" style="stroke-dasharray: 50.5554px; stroke-dashoffset: 0px;"></path>	</g>	<g class="z-kxd66m_28">		<path fill="none" stroke="#FFFFFF" stroke-width="3" stroke-linejoin="round" stroke-miterlimit="10" d="M451.7,414.8			c3.1-3.5,7.5-5.3,11.8-5.4l-15.8,17.8C447.3,422.9,448.6,418.4,451.7,414.8z" class="z-no29mo_28" style="stroke-dasharray: 50.5366px; stroke-dashoffset: 0px;"></path>	</g>	<g class="z-jq39ap_28">		<path fill="none" stroke="#FFFFFF" stroke-width="3" stroke-linejoin="round" stroke-miterlimit="10" d="M436.4,420.9			c-4.7-0.4-9.1,1.3-12.3,4.2l23.7,2.1C445.1,423.8,441.1,421.3,436.4,420.9z" class="z-cajws6_28" style="stroke-dasharray: 50.5573px; stroke-dashoffset: 0px;"></path>	</g>	<g class="z-79xq28_28">		<path fill="none" stroke="#FFFFFF" stroke-width="3" stroke-linejoin="round" stroke-miterlimit="10" d="M459.1,420.9			c4.7-0.4,9.1,1.3,12.3,4.2l-23.7,2.1C450.4,423.8,454.4,421.3,459.1,420.9z" class="z-5ehqqx_28" style="stroke-dasharray: 50.5573px; stroke-dashoffset: 0px;"></path>	</g>	<g class="z-l6j2ba_28">		<path fill="none" stroke="#FFFFFF" stroke-width="3" stroke-linejoin="round" stroke-miterlimit="10" d="M435.2,430.7			c-3.6,3-5.6,7.3-5.8,11.6l18.4-15.1C443.4,426.6,438.8,427.7,435.2,430.7z" class="z-83ld4y_28" style="stroke-dasharray: 50.6117px; stroke-dashoffset: 0px;"></path>	</g>	<g class="z-4pjb4l_28">		<path fill="none" stroke="#FFFFFF" stroke-width="3" stroke-linejoin="round" stroke-miterlimit="10" d="M460.3,430.7			c3.6,3,5.6,7.3,5.8,11.6l-18.4-15.1C452.1,426.6,456.6,427.7,460.3,430.7z" class="z-473toh_28" style="stroke-dasharray: 50.6046px; stroke-dashoffset: 0px;"></path>	</g>	<polygon fill="none" stroke="#FFFFFF" stroke-width="3" stroke-miterlimit="10" points="451.1,500.4 444.4,500.4 446.9,427.2 		448.6,427.2 	" class="z-m3op7b_28" style="stroke-dasharray: 154.885px; stroke-dashoffset: 0px;"></polygon></g><g class="z-fw6bjy_28">	<g class="z-6cmxf1_28">		<path fill="none" stroke="#FFFFFF" stroke-width="3" stroke-linejoin="round" stroke-miterlimit="10" d="M208.9,414.8			c-3.1-3.5-7.5-5.3-11.8-5.4l15.8,17.8C213.3,422.9,212,418.4,208.9,414.8z" class="z-por1tp_28" style="stroke-dasharray: 50.5366px; stroke-dashoffset: 0px;"></path>	</g>	<g class="z-2thv9s_28">		<path fill="none" stroke="#FFFFFF" stroke-width="3" stroke-linejoin="round" stroke-miterlimit="10" d="M216.8,414.8			c3.1-3.5,7.5-5.3,11.8-5.4l-15.8,17.8C212.4,422.9,213.7,418.4,216.8,414.8z" class="z-w6uxlb_28" style="stroke-dasharray: 50.5366px; stroke-dashoffset: 0px;"></path>	</g>	<g class="z-cj9o5x_28">		<path fill="none" stroke="#FFFFFF" stroke-width="3" stroke-linejoin="round" stroke-miterlimit="10" d="M201.4,420.9			c-4.7-0.4-9.1,1.3-12.3,4.2l23.7,2.1C210.1,423.8,206.1,421.3,201.4,420.9z" class="z-oho2kq_28" style="stroke-dasharray: 50.5572px; stroke-dashoffset: 0px;"></path>	</g>	<g class="z-8tzpkp_28">		<path fill="none" stroke="#FFFFFF" stroke-width="3" stroke-linejoin="round" stroke-miterlimit="10" d="M224.1,420.9			c4.7-0.4,9.1,1.3,12.3,4.2l-23.7,2.1C215.4,423.8,219.4,421.3,224.1,420.9z" class="z-cbhim2_28" style="stroke-dasharray: 50.5572px; stroke-dashoffset: 0px;"></path>	</g>	<g class="z-yp7kqb_28">		<path fill="none" stroke="#FFFFFF" stroke-width="3" stroke-linejoin="round" stroke-miterlimit="10" d="M200.2,430.7			c-3.6,3-5.6,7.3-5.8,11.6l18.4-15.1C208.4,426.6,203.9,427.7,200.2,430.7z" class="z-csqlgx_28" style="stroke-dasharray: 50.6045px; stroke-dashoffset: 0px;"></path>	</g>	<g class="z-fuiopt_28">		<path fill="none" stroke="#FFFFFF" stroke-width="3" stroke-linejoin="round" stroke-miterlimit="10" d="M225.3,430.7			c3.6,3,5.6,7.3,5.8,11.6l-18.4-15.1C217.1,426.6,221.7,427.7,225.3,430.7z" class="z-ikruav_28" style="stroke-dasharray: 50.6116px; stroke-dashoffset: 0px;"></path>	</g>	<polygon fill="none" stroke="#FFFFFF" stroke-width="3" stroke-miterlimit="10" points="216.1,500.4 209.4,500.4 212,427.2 		213.6,427.2 	" class="z-abwuds_28" style="stroke-dasharray: 154.789px; stroke-dashoffset: 0px;"></polygon></g><g class="z-8vhk6z_28">	<g class="z-465fyp_28">		<line fill="none" stroke="#FFFFFF" stroke-width="3" stroke-miterlimit="10" x1="283.3" y1="222.9" x2="353.9" y2="222.9" class="z-vymu2e_28" style="stroke-dasharray: 70.6px; stroke-dashoffset: 0px;"></line>		<line fill="none" stroke="#FFFFFF" stroke-width="3" stroke-miterlimit="10" x1="283.7" y1="233.2" x2="359.9" y2="233.2" class="z-nzfq6c_28" style="stroke-dasharray: 76.2px; stroke-dashoffset: 0px;"></line>		<line fill="none" stroke="#FFFFFF" stroke-width="3" stroke-miterlimit="10" x1="284" y1="243.5" x2="365.3" y2="243.5" class="z-d7hnnj_28" style="stroke-dasharray: 81.3px; stroke-dashoffset: 0px;"></line>		<line fill="none" stroke="#FFFFFF" stroke-width="3" stroke-miterlimit="10" x1="356" y1="253.9" x2="370.3" y2="253.9" class="z-x64h3v_28" style="stroke-dasharray: 14.3px; stroke-dashoffset: 0px;"></line>		<line fill="none" stroke="#FFFFFF" stroke-width="3" stroke-miterlimit="10" x1="284.7" y1="253.9" x2="344.4" y2="253.9" class="z-7d2eyh_28" style="stroke-dasharray: 59.7px; stroke-dashoffset: 0px;"></line>		<line fill="none" stroke="#FFFFFF" stroke-width="3" stroke-miterlimit="10" x1="347.3" y1="264.2" x2="374.8" y2="264.2" class="z-nplp10_28" style="stroke-dasharray: 27.5px; stroke-dashoffset: 0px;"></line>		<line fill="none" stroke="#FFFFFF" stroke-width="3" stroke-miterlimit="10" x1="284.6" y1="264.2" x2="334.6" y2="264.2" class="z-h9u8jg_28" style="stroke-dasharray: 50px; stroke-dashoffset: 0px;"></line>		<line fill="none" stroke="#FFFFFF" stroke-width="3" stroke-miterlimit="10" x1="338.3" y1="274.5" x2="378.8" y2="274.5" class="z-u233is_28" style="stroke-dasharray: 40.5px; stroke-dashoffset: 0px;"></line>		<line fill="none" stroke="#FFFFFF" stroke-width="3" stroke-miterlimit="10" x1="284.9" y1="274.5" x2="325" y2="274.5" class="z-zj40dn_28" style="stroke-dasharray: 40.1px; stroke-dashoffset: 0px;"></line>		<line fill="none" stroke="#FFFFFF" stroke-width="3" stroke-miterlimit="10" x1="328.3" y1="284.8" x2="382.6" y2="284.8" class="z-fng4v2_28" style="stroke-dasharray: 54.3px; stroke-dashoffset: 0px;"></line>		<line fill="none" stroke="#FFFFFF" stroke-width="3" stroke-miterlimit="10" x1="285.2" y1="284.8" x2="316" y2="284.8" class="z-966lsx_28" style="stroke-dasharray: 30.8px; stroke-dashoffset: 0px;"></line>		<line fill="none" stroke="#FFFFFF" stroke-width="3" stroke-miterlimit="10" x1="318.6" y1="295.1" x2="385.9" y2="295.1" class="z-snytfn_28" style="stroke-dasharray: 67.3px; stroke-dashoffset: 0px;"></line>		<line fill="none" stroke="#FFFFFF" stroke-width="3" stroke-miterlimit="10" x1="285.6" y1="295.1" x2="306.5" y2="295.1" class="z-v3firt_28" style="stroke-dasharray: 20.9px; stroke-dashoffset: 0px;"></line>		<line fill="none" stroke="#FFFFFF" stroke-width="3" stroke-miterlimit="10" x1="308.3" y1="305.4" x2="388.9" y2="305.4" class="z-oo28nf_28" style="stroke-dasharray: 80.6px; stroke-dashoffset: 0px;"></line>		<line fill="none" stroke="#FFFFFF" stroke-width="3" stroke-miterlimit="10" x1="285.6" y1="305.4" x2="296" y2="305.4" class="z-sp22lj_28" style="stroke-dasharray: 10.4px; stroke-dashoffset: 0px;"></line>		<line fill="none" stroke="#FFFFFF" stroke-width="3" stroke-miterlimit="10" x1="287.6" y1="315.7" x2="391.6" y2="315.7" class="z-ts8jgh_28" style="stroke-dasharray: 104px; stroke-dashoffset: 0px;"></line>		<line fill="none" stroke="#FFFFFF" stroke-width="3" stroke-miterlimit="10" x1="286.5" y1="326" x2="394" y2="326" class="z-v0vliv_28" style="stroke-dasharray: 107.5px; stroke-dashoffset: 0px;"></line>		<line fill="none" stroke="#FFFFFF" stroke-width="3" stroke-miterlimit="10" x1="381" y1="336.3" x2="396" y2="336.3" class="z-asw7wt_28" style="stroke-dasharray: 15px; stroke-dashoffset: 0px;"></line>		<line fill="none" stroke="#FFFFFF" stroke-width="3" stroke-miterlimit="10" x1="287.6" y1="336.3" x2="365.3" y2="336.3" class="z-tulu8i_28" style="stroke-dasharray: 77.7px; stroke-dashoffset: 0px;"></line>		<line fill="none" stroke="#FFFFFF" stroke-width="3" stroke-miterlimit="10" x1="368.7" y1="346.6" x2="397.8" y2="346.6" class="z-8mdeeq_28" style="stroke-dasharray: 29.1px; stroke-dashoffset: 0px;"></line>		<line fill="none" stroke="#FFFFFF" stroke-width="3" stroke-miterlimit="10" x1="287.6" y1="346.6" x2="352.6" y2="346.6" class="z-s04vgf_28" style="stroke-dasharray: 65px; stroke-dashoffset: 0px;"></line>		<line fill="none" stroke="#FFFFFF" stroke-width="3" stroke-miterlimit="10" x1="355.4" y1="356.9" x2="399.2" y2="356.9" class="z-cw6vui_28" style="stroke-dasharray: 43.8px; stroke-dashoffset: 0px;"></line>		<line fill="none" stroke="#FFFFFF" stroke-width="3" stroke-miterlimit="10" x1="287.6" y1="356.9" x2="341.1" y2="356.9" class="z-sdc56m_28" style="stroke-dasharray: 53.5px; stroke-dashoffset: 0px;"></line>		<line fill="none" stroke="#FFFFFF" stroke-width="3" stroke-miterlimit="10" x1="342.5" y1="367.2" x2="400.3" y2="367.2" class="z-0hq5fa_28" style="stroke-dasharray: 57.8px; stroke-dashoffset: 0px;"></line>		<line fill="none" stroke="#FFFFFF" stroke-width="3" stroke-miterlimit="10" x1="287.6" y1="367.2" x2="328.3" y2="367.2" class="z-dz92cl_28" style="stroke-dasharray: 40.7px; stroke-dashoffset: 0px;"></line>		<line fill="none" stroke="#FFFFFF" stroke-width="3" stroke-miterlimit="10" x1="329.7" y1="377.5" x2="401.2" y2="377.5" class="z-wrd0t9_28" style="stroke-dasharray: 71.5px; stroke-dashoffset: 0px;"></line>		<line fill="none" stroke="#FFFFFF" stroke-width="3" stroke-miterlimit="10" x1="287.6" y1="377.5" x2="315" y2="377.5" class="z-fp5zp4_28" style="stroke-dasharray: 27.4px; stroke-dashoffset: 0px;"></line>		<line fill="none" stroke="#FFFFFF" stroke-width="3" stroke-miterlimit="10" x1="316.7" y1="387.8" x2="401.7" y2="387.8" class="z-xhd474_28" style="stroke-dasharray: 85px; stroke-dashoffset: 0px;"></line>		<line fill="none" stroke="#FFFFFF" stroke-width="3" stroke-miterlimit="10" x1="288.4" y1="387.8" x2="302.3" y2="387.8" class="z-wkh249_28" style="stroke-dasharray: 13.9px; stroke-dashoffset: 0px;"></line>		<line fill="none" stroke="#FFFFFF" stroke-width="3" stroke-miterlimit="10" x1="288.7" y1="398.2" x2="401.7" y2="398.2" class="z-ehsblh_28" style="stroke-dasharray: 113px; stroke-dashoffset: 0px;"></line>		<line fill="none" stroke="#FFFFFF" stroke-width="3" stroke-miterlimit="10" x1="289" y1="408.5" x2="401.9" y2="408.5" class="z-8gncgl_28" style="stroke-dasharray: 112.9px; stroke-dashoffset: 0px;"></line>		<line fill="none" stroke="#FFFFFF" stroke-width="3" stroke-miterlimit="10" x1="388.9" y1="418.8" x2="401.5" y2="418.8" class="z-kouibk_28" style="stroke-dasharray: 12.6px; stroke-dashoffset: 0px;"></line>		<line fill="none" stroke="#FFFFFF" stroke-width="3" stroke-miterlimit="10" x1="289.3" y1="418.8" x2="375.3" y2="418.8" class="z-sj2lza_28" style="stroke-dasharray: 86px; stroke-dashoffset: 0px;"></line>		<line fill="none" stroke="#FFFFFF" stroke-width="3" stroke-miterlimit="10" x1="377.3" y1="429.1" x2="400.9" y2="429.1" class="z-tejf7c_28" style="stroke-dasharray: 23.6px; stroke-dashoffset: 0px;"></line>		<line fill="none" stroke="#FFFFFF" stroke-width="3" stroke-miterlimit="10" x1="289.7" y1="429.1" x2="363.1" y2="429.1" class="z-58c8y8_28" style="stroke-dasharray: 73.4px; stroke-dashoffset: 0px;"></line>		<line fill="none" stroke="#FFFFFF" stroke-width="3" stroke-miterlimit="10" x1="366.3" y1="439.4" x2="399.9" y2="439.4" class="z-n5xe8l_28" style="stroke-dasharray: 33.6px; stroke-dashoffset: 0px;"></line>		<line fill="none" stroke="#FFFFFF" stroke-width="3" stroke-miterlimit="10" x1="354.1" y1="449.4" x2="399.9" y2="449.4" class="z-uux9qn_28" style="stroke-dasharray: 45.8px; stroke-dashoffset: 0px;"></line>		<line fill="none" stroke="#FFFFFF" stroke-width="3" stroke-miterlimit="10" x1="290" y1="449.4" x2="340.2" y2="449.4" class="z-bicc3b_28" style="stroke-dasharray: 50.2px; stroke-dashoffset: 0px;"></line>		<line fill="none" stroke="#FFFFFF" stroke-width="3" stroke-miterlimit="10" x1="290" y1="439.4" x2="351.7" y2="439.4" class="z-y4mof0_28" style="stroke-dasharray: 61.7px; stroke-dashoffset: 0px;"></line>		<line fill="none" stroke="#FFFFFF" stroke-width="3" stroke-miterlimit="10" x1="342.5" y1="460" x2="397.1" y2="460" class="z-3lt1hk_28" style="stroke-dasharray: 54.6px; stroke-dashoffset: 0px;"></line>		<line fill="none" stroke="#FFFFFF" stroke-width="3" stroke-miterlimit="10" x1="290.6" y1="460" x2="327.3" y2="460" class="z-kbrbq9_28" style="stroke-dasharray: 36.7px; stroke-dashoffset: 0px;"></line>		<line fill="none" stroke="#FFFFFF" stroke-width="3" stroke-miterlimit="10" x1="330.7" y1="470.3" x2="395.2" y2="470.3" class="z-59geo1_28" style="stroke-dasharray: 64.5px; stroke-dashoffset: 0px;"></line>		<line fill="none" stroke="#FFFFFF" stroke-width="3" stroke-miterlimit="10" x1="290.9" y1="470.3" x2="316.3" y2="470.3" class="z-wgu2du_28" style="stroke-dasharray: 25.4px; stroke-dashoffset: 0px;"></line>		<line fill="none" stroke="#FFFFFF" stroke-width="3" stroke-miterlimit="10" x1="318.6" y1="480.6" x2="392.7" y2="480.6" class="z-lr8vka_28" style="stroke-dasharray: 74.1px; stroke-dashoffset: 0px;"></line>		<line fill="none" stroke="#FFFFFF" stroke-width="3" stroke-miterlimit="10" x1="291.2" y1="480.6" x2="304.3" y2="480.6" class="z-s5039w_28" style="stroke-dasharray: 13.1px; stroke-dashoffset: 0px;"></line>		<line fill="none" stroke="#FFFFFF" stroke-width="3" stroke-miterlimit="10" x1="291.6" y1="490.9" x2="390.5" y2="490.9" class="z-i6a6qz_28" style="stroke-dasharray: 98.9px; stroke-dashoffset: 0px;"></line>	</g>	<path fill="none" d="M347,213.2c-13.1,0-64,0-64,0" class="z-j5f33e_28" style="stroke-dasharray: 64px; stroke-dashoffset: 0px;"></path>	<path fill="none" d="M291.8,500.4c47.7,0,78.6,0,96.1,0" class="z-hrsc36_28" style="stroke-dasharray: 96.1px; stroke-dashoffset: 0px;"></path></g><path fill="none" stroke="#FFFFFF" stroke-width="3" stroke-miterlimit="10" d="M272.7,118.8c26,19.2,189.1,146.1,127.8,381.7H290.3	" class="z-ltr1fu_28" style="stroke-dasharray: 538.441px; stroke-dashoffset: 0px;"></path><path fill="none" stroke="#FFFFFF" stroke-width="3" stroke-linecap="round" stroke-linejoin="round" stroke-miterlimit="10" d="	M281.9,139.3c16.6,14.2,164.7,130.5,107,361.2" class="z-g3njqg_28" style="stroke-dasharray: 398.557px; stroke-dashoffset: 0px;"></path><polygon fill="none" stroke="#FFFFFF" stroke-width="3" stroke-linejoin="round" stroke-miterlimit="10" points="353.8,243.5 	286.7,315.7 299.3,315.7 365.6,243.5 " class="z-2kxi9r_28" style="stroke-dasharray: 220.989px; stroke-dashoffset: 0px;"></polygon><polygon fill="none" stroke="#FFFFFF" stroke-width="3" stroke-linejoin="round" stroke-miterlimit="10" points="386.8,408.5 	292.8,490.9 307.1,490.9 400.3,408.5 " class="z-0rjtcm_28" style="stroke-dasharray: 277.206px; stroke-dashoffset: 0px;"></polygon><polygon fill="none" stroke="#FFFFFF" stroke-width="3" stroke-linejoin="round" stroke-miterlimit="10" points="378.9,326 	289.3,398 303.7,398 393.2,326 " class="z-b5o7ls_28" style="stroke-dasharray: 258.51px; stroke-dashoffset: 0px;"></polygon><line fill="none" stroke="#FFFFFF" stroke-width="3" stroke-linecap="round" stroke-linejoin="round" stroke-miterlimit="10" x1="293" y1="500.4" x2="281.9" y2="139.3" class="z-t0scwd_28" style="stroke-dasharray: 361.271px; stroke-dashoffset: 0px;"></line><path fill="none" stroke="#FFFFFF" stroke-width="3" stroke-miterlimit="10" d="M282.2,156.6c17.9,22.6,28.9,49.4,33.4,66.4" class="z-gm48vn_28" style="stroke-dasharray: 74.8006px; stroke-dashoffset: 0px;"></path><path fill="none" stroke="#FFFFFF" stroke-width="3" stroke-miterlimit="10" d="M282.7,168.9c7.1,9.9,20.7,38.4,23.7,54" class="z-qvl6yh_28" style="stroke-dasharray: 59.2414px; stroke-dashoffset: 0px;"></path><g class="z-6komcj_28">	<path fill="none" stroke="#FFFFFF" stroke-width="3" stroke-miterlimit="10" d="M272.5,233.3V132.6V46.1l-7,9v167.8v9.1		C268.5,232.3,270.5,232.7,272.5,233.3z" class="z-rzkpvb_28" style="stroke-dasharray: 382.633px; stroke-dashoffset: 0px;"></path>	<path fill="none" stroke="#FFFFFF" stroke-width="3" stroke-miterlimit="10" d="M265.5,244.9v255.6h7V243.6		C270.5,244.2,268.5,244.6,265.5,244.9z" class="z-01wskq_28" style="stroke-dasharray: 526.632px; stroke-dashoffset: 0px;"></path>	<path fill="none" stroke="#FFFFFF" stroke-width="3" stroke-miterlimit="10" d="M265.5,222.5h-8v9c3,0,6,0.2,8,0.5V222.5z" class="z-ynodsx_28" style="stroke-dasharray: 34.522px; stroke-dashoffset: 0px;"></path>	<path fill="none" stroke="#FFFFFF" stroke-width="3" stroke-miterlimit="10" d="M257.5,245.4v255.1h8V244.9		C263.5,245.2,260.5,245.4,257.5,245.4z" class="z-r37o50_28" style="stroke-dasharray: 526.722px; stroke-dashoffset: 0px;"></path>	<path fill="none" stroke="#FFFFFF" stroke-width="3" stroke-miterlimit="10" d="M273.2,233.3c-2-0.6-4-1-7-1.3c-2-0.3-5-0.5-8-0.5		c0,0-0.6,0-0.7,0c-5.9,0-12,0.6-16,1.5v10.8c4,1,10.1,1.5,16,1.5c0.1,0,0.5,0,0.5,0c3,0,6.1-0.2,8.1-0.5c3-0.3,5-0.8,7-1.3		c4-1.3,6.3-3.1,6.3-5.1S277.2,234.6,273.2,233.3z" class="z-kxqgvs_28" style="stroke-dasharray: 91.7006px; stroke-dashoffset: 0px;"></path></g><line fill="none" stroke="#FFFFFF" stroke-width="3" stroke-miterlimit="10" x1="173.6" y1="500.4" x2="499.3" y2="500.4" class="z-rt3210_28" style="stroke-dasharray: 325.7px; stroke-dashoffset: 0px;"></line><line fill="none" stroke="#FFFFFF" stroke-width="3" stroke-linecap="round" stroke-miterlimit="10" x1="56.7" y1="535.4" x2="217.4" y2="535.4" class="z-1xsfaa_28" style="stroke-dasharray: 160.7px; stroke-dashoffset: 0px;"></line></svg>