<svg version="1.1" id="Layer_1" xmlns="http://www.w3.org/2000/svg" xmlns:xlink="http://www.w3.org/1999/xlink" x="0px" y="0px" viewBox="0 0 541.7 502.2" enable-background="new 0 0 541.7 502.2" xml:space="preserve" data-id="12"><g class="z-ho9x7q_12">	<polygon fill="none" stroke="#FFFFFF" stroke-width="3" stroke-miterlimit="10" points="109.3,448.9 78.8,448.9 82.9,256.9 		105.2,256.9 	" class="z-bhq2d0_12" style="stroke-dasharray: 436.888px; stroke-dashoffset: 0px;"></polygon>	<polygon fill="none" stroke="#FFFFFF" stroke-width="3" stroke-miterlimit="10" points="105.2,256.9 82.9,256.9 78.8,248 		109.3,248 	" class="z-wtqq52_12" style="stroke-dasharray: 72.398px; stroke-dashoffset: 0px;"></polygon>	<rect x="78.2" y="237.9" fill="none" stroke="#FFFFFF" stroke-width="3" stroke-miterlimit="10" width="31.6" height="10" class="z-gpufw9_12" style="stroke-dasharray: 83.2px; stroke-dashoffset: 0px;"></rect></g><g class="z-wnnve6_12">	<polygon fill="none" stroke="#FFFFFF" stroke-width="3" stroke-miterlimit="10" points="178.9,448.9 148.4,448.9 152.5,256.9 		174.8,256.9 	" class="z-l35n38_12" style="stroke-dasharray: 436.888px; stroke-dashoffset: 0px;"></polygon>	<polygon fill="none" stroke="#FFFFFF" stroke-width="3" stroke-miterlimit="10" points="174.8,256.9 152.5,256.9 148.4,248 		178.9,248 	" class="z-vnwvkd_12" style="stroke-dasharray: 72.398px; stroke-dashoffset: 0px;"></polygon>	<rect x="147.8" y="237.9" fill="none" stroke="#FFFFFF" stroke-width="3" stroke-miterlimit="10" width="31.6" height="10" class="z-0kekii_12" style="stroke-dasharray: 83.2px; stroke-dashoffset: 0px;"></rect></g><g class="z-rkfywp_12">	<polygon fill="none" stroke="#FFFFFF" stroke-width="3" stroke-miterlimit="10" points="248.5,448.9 218,448.9 222.1,256.9 		244.4,256.9 	" class="z-uyhdw5_12" style="stroke-dasharray: 436.888px; stroke-dashoffset: 0px;"></polygon>	<polygon fill="none" stroke="#FFFFFF" stroke-width="3" stroke-miterlimit="10" points="244.4,256.9 222.1,256.9 218,248 		248.5,248 	" class="z-jcs1ey_12" style="stroke-dasharray: 72.398px; stroke-dashoffset: 0px;"></polygon>	<rect x="217.4" y="237.9" fill="none" stroke="#FFFFFF" stroke-width="3" stroke-miterlimit="10" width="31.6" height="10" class="z-awr9x9_12" style="stroke-dasharray: 83.2px; stroke-dashoffset: 0px;"></rect></g><g class="z-lr68uz_12">	<polygon fill="none" stroke="#FFFFFF" stroke-width="3" stroke-miterlimit="10" points="318,448.9 287.5,448.9 291.6,256.9 		313.9,256.9 	" class="z-h4md2h_12" style="stroke-dasharray: 436.888px; stroke-dashoffset: 0px;"></polygon>	<polygon fill="none" stroke="#FFFFFF" stroke-width="3" stroke-miterlimit="10" points="313.9,256.9 291.6,256.9 287.5,248 		318,248 	" class="z-r8y7pk_12" style="stroke-dasharray: 72.398px; stroke-dashoffset: 0px;"></polygon>	<rect x="287" y="237.9" fill="none" stroke="#FFFFFF" stroke-width="3" stroke-miterlimit="10" width="31.6" height="10" class="z-8x6es4_12" style="stroke-dasharray: 83.2px; stroke-dashoffset: 0px;"></rect></g><g class="z-w0balb_12">	<polygon fill="none" stroke="#FFFFFF" stroke-width="3" stroke-miterlimit="10" points="387.6,448.9 357.1,448.9 361.2,256.9 		383.5,256.9 	" class="z-h9gixm_12" style="stroke-dasharray: 436.888px; stroke-dashoffset: 0px;"></polygon>	<polygon fill="none" stroke="#FFFFFF" stroke-width="3" stroke-miterlimit="10" points="383.5,256.9 361.2,256.9 357.1,248 		387.6,248 	" class="z-jlvo7v_12" style="stroke-dasharray: 72.398px; stroke-dashoffset: 0px;"></polygon>	<rect x="356.5" y="237.9" fill="none" stroke="#FFFFFF" stroke-width="3" stroke-miterlimit="10" width="31.6" height="10" class="z-qyw5ud_12" style="stroke-dasharray: 83.2px; stroke-dashoffset: 0px;"></rect></g><g class="z-1an3tq_12">	<polygon fill="none" stroke="#FFFFFF" stroke-width="3" stroke-miterlimit="10" points="457.2,448.9 426.7,448.9 430.8,256.9 		453.1,256.9 	" class="z-qc7bfc_12" style="stroke-dasharray: 436.888px; stroke-dashoffset: 0px;"></polygon>	<polygon fill="none" stroke="#FFFFFF" stroke-width="3" stroke-miterlimit="10" points="453.1,256.9 430.8,256.9 426.7,248 		457.2,248 	" class="z-i5odxs_12" style="stroke-dasharray: 72.398px; stroke-dashoffset: 0px;"></polygon>	<rect x="426.1" y="237.9" fill="none" stroke="#FFFFFF" stroke-width="3" stroke-miterlimit="10" width="31.6" height="10" class="z-sl8huo_12" style="stroke-dasharray: 83.2px; stroke-dashoffset: 0px;"></rect></g><rect x="78.2" y="218.5" fill="none" stroke="#FFFFFF" stroke-width="3" stroke-miterlimit="10" width="379.5" height="19.4" class="z-sdsypb_12" style="stroke-dasharray: 797.8px; stroke-dashoffset: 0px;"></rect><rect x="78.2" y="183.7" fill="none" stroke="#FFFFFF" stroke-width="3" stroke-miterlimit="10" width="379.5" height="34.9" class="z-406b63_12" style="stroke-dasharray: 828.8px; stroke-dashoffset: 0px;"></rect><g class="z-0c0txy_12">	<line fill="none" stroke="#FFFFFF" stroke-width="3" stroke-miterlimit="10" x1="85.9" y1="183.7" x2="85.9" y2="218.5" class="z-34atyj_12" style="stroke-dasharray: 34.8px; stroke-dashoffset: 0px;"></line>	<line fill="none" stroke="#FFFFFF" stroke-width="3" stroke-miterlimit="10" x1="93.6" y1="183.7" x2="93.6" y2="218.5" class="z-rgn0w2_12" style="stroke-dasharray: 34.8px; stroke-dashoffset: 0px;"></line>	<line fill="none" stroke="#FFFFFF" stroke-width="3" stroke-miterlimit="10" x1="101.3" y1="183.7" x2="101.3" y2="218.5" class="z-e50tzq_12" style="stroke-dasharray: 34.8px; stroke-dashoffset: 0px;"></line></g><g class="z-g6zpqq_12">	<line fill="none" stroke="#FFFFFF" stroke-width="3" stroke-miterlimit="10" x1="155.9" y1="183.7" x2="155.9" y2="218.5" class="z-mcojbz_12" style="stroke-dasharray: 34.8px; stroke-dashoffset: 0px;"></line>	<line fill="none" stroke="#FFFFFF" stroke-width="3" stroke-miterlimit="10" x1="163.6" y1="183.7" x2="163.6" y2="218.5" class="z-9oxldl_12" style="stroke-dasharray: 34.8px; stroke-dashoffset: 0px;"></line>	<line fill="none" stroke="#FFFFFF" stroke-width="3" stroke-miterlimit="10" x1="171.4" y1="183.7" x2="171.4" y2="218.5" class="z-8ujg74_12" style="stroke-dasharray: 34.8px; stroke-dashoffset: 0px;"></line></g><g class="z-047gn9_12">	<line fill="none" stroke="#FFFFFF" stroke-width="3" stroke-miterlimit="10" x1="225.9" y1="183.7" x2="225.9" y2="218.5" class="z-u3zx89_12" style="stroke-dasharray: 34.8px; stroke-dashoffset: 0px;"></line>	<line fill="none" stroke="#FFFFFF" stroke-width="3" stroke-miterlimit="10" x1="233.7" y1="183.7" x2="233.7" y2="218.5" class="z-ye5jkg_12" style="stroke-dasharray: 34.8px; stroke-dashoffset: 0px;"></line>	<line fill="none" stroke="#FFFFFF" stroke-width="3" stroke-miterlimit="10" x1="241.4" y1="183.7" x2="241.4" y2="218.5" class="z-70w8h9_12" style="stroke-dasharray: 34.8px; stroke-dashoffset: 0px;"></line></g><g class="z-2ee18s_12">	<line fill="none" stroke="#FFFFFF" stroke-width="3" stroke-miterlimit="10" x1="296" y1="183.7" x2="296" y2="218.5" class="z-o8nri2_12" style="stroke-dasharray: 34.8px; stroke-dashoffset: 0px;"></line>	<line fill="none" stroke="#FFFFFF" stroke-width="3" stroke-miterlimit="10" x1="303.7" y1="183.7" x2="303.7" y2="218.5" class="z-y8vhl8_12" style="stroke-dasharray: 34.8px; stroke-dashoffset: 0px;"></line>	<line fill="none" stroke="#FFFFFF" stroke-width="3" stroke-miterlimit="10" x1="311.4" y1="183.7" x2="311.4" y2="218.5" class="z-1cb0oe_12" style="stroke-dasharray: 34.8px; stroke-dashoffset: 0px;"></line></g><g class="z-8uq2ub_12">	<line fill="none" stroke="#FFFFFF" stroke-width="3" stroke-miterlimit="10" x1="366" y1="183.7" x2="366" y2="218.5" class="z-e1b3hm_12" style="stroke-dasharray: 34.8px; stroke-dashoffset: 0px;"></line>	<line fill="none" stroke="#FFFFFF" stroke-width="3" stroke-miterlimit="10" x1="373.7" y1="183.7" x2="373.7" y2="218.5" class="z-mc5yfa_12" style="stroke-dasharray: 34.8px; stroke-dashoffset: 0px;"></line>	<line fill="none" stroke="#FFFFFF" stroke-width="3" stroke-miterlimit="10" x1="381.5" y1="183.7" x2="381.5" y2="218.5" class="z-s2sw5x_12" style="stroke-dasharray: 34.8px; stroke-dashoffset: 0px;"></line></g><g class="z-x79zig_12">	<line fill="none" stroke="#FFFFFF" stroke-width="3" stroke-miterlimit="10" x1="436" y1="183.7" x2="436" y2="218.5" class="z-jpfhq4_12" style="stroke-dasharray: 34.8px; stroke-dashoffset: 0px;"></line>	<line fill="none" stroke="#FFFFFF" stroke-width="3" stroke-miterlimit="10" x1="443.8" y1="183.7" x2="443.8" y2="218.5" class="z-lfsb4w_12" style="stroke-dasharray: 34.8px; stroke-dashoffset: 0px;"></line>	<line fill="none" stroke="#FFFFFF" stroke-width="3" stroke-miterlimit="10" x1="451.5" y1="183.7" x2="451.5" y2="218.5" class="z-l35hdi_12" style="stroke-dasharray: 34.8px; stroke-dashoffset: 0px;"></line></g><rect x="47.9" y="466.7" fill="none" stroke="#FFFFFF" stroke-width="3" stroke-miterlimit="10" width="440.1" height="17.8" class="z-d4qdgw_12" style="stroke-dasharray: 915.8px; stroke-dashoffset: 0px;"></rect><rect x="32.5" y="484.5" fill="none" stroke="#FFFFFF" stroke-width="3" stroke-miterlimit="10" width="471" height="17.8" class="z-ulz074_12" style="stroke-dasharray: 977.6px; stroke-dashoffset: 0px;"></rect><g class="z-tkzusw_12">	<polygon fill="none" stroke="#FFFFFF" stroke-width="3" stroke-miterlimit="10" points="291.7,166.2 287,175 282.1,166.2 		188.2,166.2 179.5,175 171.4,172.7 165.3,172.7 158.9,166.2 62.8,166.2 70.5,183.7 465.5,183.7 473.2,166.2 	" class="z-wh45bb_12" style="stroke-dasharray: 860.804px; stroke-dashoffset: 0px;"></polygon></g><g class="z-7q3l3v_12">	<polygon fill="none" stroke="#FFFFFF" stroke-width="3" stroke-miterlimit="10" points="349.6,448.9 349.6,455.4 344.5,450.4 		341.3,453.6 336.4,453.6 333.8,448.9 63.4,448.9 63.4,466.7 472.6,466.7 472.6,448.9 	" class="z-5o6vnz_12" style="stroke-dasharray: 866.639px; stroke-dashoffset: 0px;"></polygon></g><g class="z-mbet2h_12">	<polyline fill="none" stroke="#FFFFFF" stroke-width="3" stroke-miterlimit="10" points="197.8,166.2 202.5,155.2 194.9,138.6 		103.6,166.2 	" class="z-0xbkn7_12"></polyline>	<polygon fill="none" stroke="#FFFFFF" stroke-width="3" stroke-miterlimit="10" points="389.8,153.4 381.5,156 381.5,150.8 		339.5,138.2 339.5,146.2 405.5,166.2 335.8,166.2 335.8,166.2 432.4,166.2 	" class="z-nqdgat_12" style="stroke-dasharray: 345.492px; stroke-dashoffset: 0px;"></polygon>	<polygon fill="none" stroke="#FFFFFF" stroke-width="3" stroke-miterlimit="10" points="335.8,166.2 335.8,166.2 337.1,151.7 	" class="z-yfkqe6_12" style="stroke-dasharray: 29.1163px; stroke-dashoffset: 0px;"></polygon>	<polygon fill="none" stroke="#FFFFFF" stroke-width="3" stroke-miterlimit="10" points="339.5,146.2 339.5,151.7 337.1,151.7 		335.8,166.2 405.5,166.2 	" class="z-us6vkv_12" style="stroke-dasharray: 161.122px; stroke-dashoffset: 0px;"></polygon></g></svg>