<svg version="1.1" id="Layer_1" xmlns="http://www.w3.org/2000/svg" xmlns:xlink="http://www.w3.org/1999/xlink" x="0px" y="0px" viewBox="0 0 900 731" enable-background="new 0 0 900 731" xml:space="preserve" data-id="43"> <path fill="none" stroke="#FFFFFF" stroke-width="3" stroke-miterlimit="10" d="M684,730.4v-15.8" class="z-7cz2ej_43" style="stroke-dasharray: 15.8px; stroke-dashoffset: 0px;"></path> <path fill="none" stroke="#FFFFFF" stroke-width="3" stroke-miterlimit="10" d="M702.7,714.6v15.8" class="z-rhd2s6_43" style="stroke-dasharray: 15.8px; stroke-dashoffset: 0px;"></path> <path fill="none" stroke="#FFFFFF" stroke-width="3" stroke-miterlimit="10" d="M689.7,714.6v15.8" class="z-b7dj64_43" style="stroke-dasharray: 15.8px; stroke-dashoffset: 0px;"></path> <path fill="none" stroke="#FFFFFF" stroke-width="3" stroke-miterlimit="10" d="M616.3,730.4V714" class="z-rt0qvl_43" style="stroke-dasharray: 16.4px; stroke-dashoffset: 0px;"></path> <path fill="none" stroke="#FFFFFF" stroke-width="3" stroke-miterlimit="10" d="M622,714v16.4" class="z-bv9hbe_43" style="stroke-dasharray: 16.4px; stroke-dashoffset: 0px;"></path> <path fill="none" stroke="#FFFFFF" stroke-width="3" stroke-miterlimit="10" d="M697.1,730.4v-15.8" class="z-gw7gte_43" style="stroke-dasharray: 15.8px; stroke-dashoffset: 0px;"></path> <line fill="none" stroke="#FFFFFF" stroke-width="3.273" stroke-miterlimit="10" x1="16.6" y1="544.2" x2="316.1" y2="544.2" class="z-nz5k02_43" style="stroke-dasharray: 299.5px; stroke-dashoffset: 0px;"></line> <line fill="none" stroke="#FFFFFF" stroke-width="3.273" stroke-miterlimit="10" x1="16.6" y1="507.8" x2="316.1" y2="507.8" class="z-irvfm0_43" style="stroke-dasharray: 299.5px; stroke-dashoffset: 0px;"></line> <polyline fill="none" stroke="#FFFFFF" stroke-width="3.273" stroke-miterlimit="10" points="16.6,728.7 16.6,327.9 316.1,327.9  	316.1,728.7 " class="z-g8o1wc_43"></polyline> <path fill="none" stroke="#FFFFFF" stroke-width="3.273" stroke-miterlimit="10" d="M190.2,544.2V430.4c-7.9-1.6-15.9-2.5-24.2-2.5 	s-16.4,0.9-24.2,2.5v113.9h48.4V544.2z" class="z-2v4bid_43" style="stroke-dasharray: 324.94px; stroke-dashoffset: 0px;"></path> <path fill="none" stroke="#FFFFFF" stroke-width="3.273" stroke-miterlimit="10" d="M98.3,544.2V430.4c-7.9-1.6-15.9-2.5-24.2-2.5 	s-16.4,0.9-24.2,2.5v113.9h48.4V544.2z" class="z-rinyt9_43" style="stroke-dasharray: 324.94px; stroke-dashoffset: 0px;"></path> <path fill="none" stroke="#FFFFFF" stroke-width="3.273" stroke-miterlimit="10" d="M282.1,544.2V430.4c-7.9-1.6-15.9-2.5-24.2-2.5 	s-16.4,0.9-24.2,2.5v113.9h48.4V544.2z" class="z-b73aj1_43" style="stroke-dasharray: 324.94px; stroke-dashoffset: 0px;"></path> <path fill="none" stroke="#FFFFFF" stroke-width="3.273" stroke-miterlimit="10" d="M391.6,520.2V403.9c-7.9-1.6-15.9-2.5-24.2-2.5 	s-16.4,0.9-24.2,2.5v116.4h48.4V520.2z" class="z-rqxz8p_43" style="stroke-dasharray: 329.94px; stroke-dashoffset: 0px;"></path> <path fill="none" stroke="#FFFFFF" stroke-width="3.273" stroke-miterlimit="10" d="M350.1,445.9v-36.2c5.7-0.9,11.5-1.4,17.2-1.4 	s11.6,0.4,17.2,1.4v36.2H350.1z" class="z-xljmi6_43" style="stroke-dasharray: 141.354px; stroke-dashoffset: 0px;"></path> <path fill="none" stroke="#FFFFFF" stroke-width="3.273" stroke-miterlimit="10" d="M555.3,520.2V403.9c-7.9-1.6-15.9-2.5-24.2-2.5 	c-8.3,0-16.4,0.9-24.2,2.5v116.4h48.4V520.2z" class="z-tym0u3_43" style="stroke-dasharray: 329.94px; stroke-dashoffset: 0px;"></path> <path fill="none" stroke="#FFFFFF" stroke-width="3.273" stroke-miterlimit="10" d="M677,520.2V458c-7.9-1.6-15.9-2.5-24.2-2.5 	c-8.3,0-16.4,0.9-24.2,2.5v62.2H677z" class="z-dazg83_43" style="stroke-dasharray: 221.54px; stroke-dashoffset: 0px;"></path> <path fill="none" stroke="#FFFFFF" stroke-width="3.273" stroke-miterlimit="10" d="M513.9,445.9v-36.2c5.7-0.9,11.5-1.4,17.2-1.4 	s11.6,0.4,17.2,1.4v36.2H513.9z" class="z-x1g7j1_43" style="stroke-dasharray: 141.354px; stroke-dashoffset: 0px;"></path> <g class="z-g6u6pg_43"> 	<path fill="none" stroke="#FFFFFF" stroke-width="3.273" stroke-miterlimit="10" d="M219.7,400v19.1l11-2.3 		c8.9-1.9,18-2.8,27.2-2.8s18.2,1,27.2,2.8l11,2.3V400H219.7z" class="z-gig53u_43" style="stroke-dasharray: 191.859px; stroke-dashoffset: 0px;"></path> 	<path fill="none" stroke="#FFFFFF" stroke-width="3.273" stroke-miterlimit="10" d="M127.9,419.1l11-2.3c8.9-1.9,18-2.8,27.2-2.8 		c9.2,0,18.2,1,27.2,2.8l11,2.3V400h-76.4V419.1z" class="z-r7uwuc_43" style="stroke-dasharray: 191.859px; stroke-dashoffset: 0px;"></path> 	<path fill="none" stroke="#FFFFFF" stroke-width="3.273" stroke-miterlimit="10" d="M35.9,419.1l11-2.3c8.9-1.9,18-2.8,27.2-2.8 		s18.2,1,27.2,2.8l11,2.3V400H35.9C35.9,400,35.9,419.1,35.9,419.1z" class="z-eflw38_43" style="stroke-dasharray: 191.859px; stroke-dashoffset: 0px;"></path> </g> <line fill="none" stroke="#FFFFFF" stroke-width="3.273" stroke-miterlimit="10" x1="316.1" y1="379.6" x2="16.6" y2="379.6" class="z-plr7ki_43" style="stroke-dasharray: 299.5px; stroke-dashoffset: 0px;"></line> <line fill="none" stroke="#FFFFFF" stroke-width="3.273" stroke-miterlimit="10" x1="297.4" y1="379.6" x2="297.4" y2="384.5" class="z-he9zkx_43" style="stroke-dasharray: 4.9px; stroke-dashoffset: 0px;"></line> <line fill="none" stroke="#FFFFFF" stroke-width="3.273" stroke-miterlimit="10" x1="278.7" y1="379.6" x2="278.7" y2="384.5" class="z-67saw2_43" style="stroke-dasharray: 4.9px; stroke-dashoffset: 0px;"></line> <line fill="none" stroke="#FFFFFF" stroke-width="3.273" stroke-miterlimit="10" x1="260" y1="379.6" x2="260" y2="384.5" class="z-2opgta_43" style="stroke-dasharray: 4.9px; stroke-dashoffset: 0px;"></line> <line fill="none" stroke="#FFFFFF" stroke-width="3.273" stroke-miterlimit="10" x1="241.2" y1="379.6" x2="241.2" y2="384.5" class="z-2v0x89_43" style="stroke-dasharray: 4.9px; stroke-dashoffset: 0px;"></line> <line fill="none" stroke="#FFFFFF" stroke-width="3.273" stroke-miterlimit="10" x1="222.6" y1="379.6" x2="222.6" y2="384.5" class="z-a71noc_43" style="stroke-dasharray: 4.9px; stroke-dashoffset: 0px;"></line> <line fill="none" stroke="#FFFFFF" stroke-width="3.273" stroke-miterlimit="10" x1="203.8" y1="379.6" x2="203.8" y2="384.5" class="z-9p63x2_43" style="stroke-dasharray: 4.9px; stroke-dashoffset: 0px;"></line> <line fill="none" stroke="#FFFFFF" stroke-width="3.273" stroke-miterlimit="10" x1="185" y1="379.6" x2="185" y2="384.5" class="z-kbgjbe_43" style="stroke-dasharray: 4.9px; stroke-dashoffset: 0px;"></line> <line fill="none" stroke="#FFFFFF" stroke-width="3.273" stroke-miterlimit="10" x1="166.4" y1="379.6" x2="166.4" y2="384.5" class="z-agu5rb_43" style="stroke-dasharray: 4.9px; stroke-dashoffset: 0px;"></line> <line fill="none" stroke="#FFFFFF" stroke-width="3.273" stroke-miterlimit="10" x1="147.6" y1="379.6" x2="147.6" y2="384.5" class="z-ogvqwf_43" style="stroke-dasharray: 4.9px; stroke-dashoffset: 0px;"></line> <line fill="none" stroke="#FFFFFF" stroke-width="3.273" stroke-miterlimit="10" x1="129" y1="379.6" x2="129" y2="384.5" class="z-tzi9s9_43" style="stroke-dasharray: 4.9px; stroke-dashoffset: 0px;"></line> <line fill="none" stroke="#FFFFFF" stroke-width="3.273" stroke-miterlimit="10" x1="110.2" y1="379.6" x2="110.2" y2="384.5" class="z-3py8vj_43" style="stroke-dasharray: 4.9px; stroke-dashoffset: 0px;"></line> <line fill="none" stroke="#FFFFFF" stroke-width="3.273" stroke-miterlimit="10" x1="91.5" y1="379.6" x2="91.5" y2="384.5" class="z-1ef9nt_43" style="stroke-dasharray: 4.9px; stroke-dashoffset: 0px;"></line> <line fill="none" stroke="#FFFFFF" stroke-width="3.273" stroke-miterlimit="10" x1="72.8" y1="379.6" x2="72.8" y2="384.5" class="z-6kn2r3_43" style="stroke-dasharray: 4.9px; stroke-dashoffset: 0px;"></line> <line fill="none" stroke="#FFFFFF" stroke-width="3.273" stroke-miterlimit="10" x1="54.1" y1="379.6" x2="54.1" y2="384.5" class="z-48blhx_43" style="stroke-dasharray: 4.9px; stroke-dashoffset: 0px;"></line> <line fill="none" stroke="#FFFFFF" stroke-width="3.273" stroke-miterlimit="10" x1="35.4" y1="379.6" x2="35.4" y2="384.5" class="z-tozac4_43" style="stroke-dasharray: 4.9px; stroke-dashoffset: 0px;"></line> <g class="z-0ro8t2_43"> 	<rect x="219.7" y="343.4" fill="none" stroke="#FFFFFF" stroke-width="3.273" stroke-miterlimit="10" width="76.4" height="16.3" class="z-y44d0a_43" style="stroke-dasharray: 185.4px; stroke-dashoffset: 0px;"></rect> 	<line fill="none" stroke="#FFFFFF" stroke-width="3.273" stroke-miterlimit="10" x1="287.6" y1="343.4" x2="287.6" y2="359.6" class="z-qfl47x_43" style="stroke-dasharray: 16.2px; stroke-dashoffset: 0px;"></line> 	<line fill="none" stroke="#FFFFFF" stroke-width="3.273" stroke-miterlimit="10" x1="279.1" y1="343.4" x2="279.1" y2="359.6" class="z-ka42ea_43" style="stroke-dasharray: 16.2px; stroke-dashoffset: 0px;"></line> 	<line fill="none" stroke="#FFFFFF" stroke-width="3.273" stroke-miterlimit="10" x1="270.6" y1="343.4" x2="270.6" y2="359.6" class="z-ounggi_43" style="stroke-dasharray: 16.2px; stroke-dashoffset: 0px;"></line> 	<line fill="none" stroke="#FFFFFF" stroke-width="3.273" stroke-miterlimit="10" x1="262.1" y1="343.4" x2="262.1" y2="359.6" class="z-7uuw2v_43" style="stroke-dasharray: 16.2px; stroke-dashoffset: 0px;"></line> 	<line fill="none" stroke="#FFFFFF" stroke-width="3.273" stroke-miterlimit="10" x1="253.7" y1="343.4" x2="253.7" y2="359.6" class="z-7vj9ef_43" style="stroke-dasharray: 16.2px; stroke-dashoffset: 0px;"></line> 	<line fill="none" stroke="#FFFFFF" stroke-width="3.273" stroke-miterlimit="10" x1="245.2" y1="343.4" x2="245.2" y2="359.6" class="z-n95umy_43" style="stroke-dasharray: 16.2px; stroke-dashoffset: 0px;"></line> 	<line fill="none" stroke="#FFFFFF" stroke-width="3.273" stroke-miterlimit="10" x1="236.7" y1="343.4" x2="236.7" y2="359.6" class="z-ksh72y_43" style="stroke-dasharray: 16.2px; stroke-dashoffset: 0px;"></line> 	<line fill="none" stroke="#FFFFFF" stroke-width="3.273" stroke-miterlimit="10" x1="228.1" y1="343.4" x2="228.1" y2="359.6" class="z-e1i4kp_43" style="stroke-dasharray: 16.2px; stroke-dashoffset: 0px;"></line> </g> <g class="z-g8uhe1_43"> 	<rect x="127.9" y="343.4" fill="none" stroke="#FFFFFF" stroke-width="3.273" stroke-miterlimit="10" width="76.4" height="16.3" class="z-6uc6az_43" style="stroke-dasharray: 185.4px; stroke-dashoffset: 0px;"></rect> 	<line fill="none" stroke="#FFFFFF" stroke-width="3.273" stroke-miterlimit="10" x1="195.6" y1="343.4" x2="195.6" y2="359.6" class="z-9adwdr_43" style="stroke-dasharray: 16.2px; stroke-dashoffset: 0px;"></line> 	<line fill="none" stroke="#FFFFFF" stroke-width="3.273" stroke-miterlimit="10" x1="187.2" y1="343.4" x2="187.2" y2="359.6" class="z-1lgsw9_43" style="stroke-dasharray: 16.2px; stroke-dashoffset: 0px;"></line> 	<line fill="none" stroke="#FFFFFF" stroke-width="3.273" stroke-miterlimit="10" x1="178.7" y1="343.4" x2="178.7" y2="359.6" class="z-dgfgx7_43" style="stroke-dasharray: 16.2px; stroke-dashoffset: 0px;"></line> 	<line fill="none" stroke="#FFFFFF" stroke-width="3.273" stroke-miterlimit="10" x1="170.2" y1="343.4" x2="170.2" y2="359.6" class="z-w64per_43" style="stroke-dasharray: 16.2px; stroke-dashoffset: 0px;"></line> 	<line fill="none" stroke="#FFFFFF" stroke-width="3.273" stroke-miterlimit="10" x1="161.7" y1="343.4" x2="161.7" y2="359.6" class="z-0phv7t_43" style="stroke-dasharray: 16.2px; stroke-dashoffset: 0px;"></line> 	<line fill="none" stroke="#FFFFFF" stroke-width="3.273" stroke-miterlimit="10" x1="153.3" y1="343.4" x2="153.3" y2="359.6" class="z-frqr77_43" style="stroke-dasharray: 16.2px; stroke-dashoffset: 0px;"></line> 	<line fill="none" stroke="#FFFFFF" stroke-width="3.273" stroke-miterlimit="10" x1="144.8" y1="343.4" x2="144.8" y2="359.6" class="z-tnfvu9_43" style="stroke-dasharray: 16.2px; stroke-dashoffset: 0px;"></line> 	<line fill="none" stroke="#FFFFFF" stroke-width="3.273" stroke-miterlimit="10" x1="136.3" y1="343.4" x2="136.3" y2="359.6" class="z-swmnsy_43" style="stroke-dasharray: 16.2px; stroke-dashoffset: 0px;"></line> </g> <g class="z-1b544j_43"> 	<rect x="35.9" y="343.4" fill="none" stroke="#FFFFFF" stroke-width="3.273" stroke-miterlimit="10" width="76.4" height="16.3" class="z-fn07an_43" style="stroke-dasharray: 185.4px; stroke-dashoffset: 0px;"></rect> 	<line fill="none" stroke="#FFFFFF" stroke-width="3.273" stroke-miterlimit="10" x1="103.8" y1="343.4" x2="103.8" y2="359.6" class="z-2p39et_43" style="stroke-dasharray: 16.2px; stroke-dashoffset: 0px;"></line> 	<line fill="none" stroke="#FFFFFF" stroke-width="3.273" stroke-miterlimit="10" x1="95.3" y1="343.4" x2="95.3" y2="359.6" class="z-7y3zo4_43" style="stroke-dasharray: 16.2px; stroke-dashoffset: 0px;"></line> 	<line fill="none" stroke="#FFFFFF" stroke-width="3.273" stroke-miterlimit="10" x1="86.9" y1="343.4" x2="86.9" y2="359.6" class="z-gs73n7_43" style="stroke-dasharray: 16.2px; stroke-dashoffset: 0px;"></line> 	<line fill="none" stroke="#FFFFFF" stroke-width="3.273" stroke-miterlimit="10" x1="78.3" y1="343.4" x2="78.3" y2="359.6" class="z-3bqe33_43" style="stroke-dasharray: 16.2px; stroke-dashoffset: 0px;"></line> 	<line fill="none" stroke="#FFFFFF" stroke-width="3.273" stroke-miterlimit="10" x1="69.8" y1="343.4" x2="69.8" y2="359.6" class="z-g5104a_43" style="stroke-dasharray: 16.2px; stroke-dashoffset: 0px;"></line> 	<line fill="none" stroke="#FFFFFF" stroke-width="3.273" stroke-miterlimit="10" x1="61.3" y1="343.4" x2="61.3" y2="359.6" class="z-2owaj2_43" style="stroke-dasharray: 16.2px; stroke-dashoffset: 0px;"></line> 	<line fill="none" stroke="#FFFFFF" stroke-width="3.273" stroke-miterlimit="10" x1="52.9" y1="343.4" x2="52.9" y2="359.6" class="z-vcuzu5_43" style="stroke-dasharray: 16.2px; stroke-dashoffset: 0px;"></line> 	<line fill="none" stroke="#FFFFFF" stroke-width="3.273" stroke-miterlimit="10" x1="44.4" y1="343.4" x2="44.4" y2="359.6" class="z-xiyxhn_43" style="stroke-dasharray: 16.2px; stroke-dashoffset: 0px;"></line> </g> <line fill="none" stroke="#FFFFFF" stroke-width="3.273" stroke-miterlimit="10" x1="282.1" y1="455.3" x2="233.6" y2="455.3" class="z-y1xycj_43" style="stroke-dasharray: 48.5px; stroke-dashoffset: 0px;"></line> <line fill="none" stroke="#FFFFFF" stroke-width="3.273" stroke-miterlimit="10" x1="190.6" y1="455.3" x2="142.2" y2="455.3" class="z-74c5xl_43" style="stroke-dasharray: 48.4px; stroke-dashoffset: 0px;"></line> <line fill="none" stroke="#FFFFFF" stroke-width="3.273" stroke-miterlimit="10" x1="233.6" y1="455.3" x2="233.6" y2="544.2" class="z-3zn34x_43" style="stroke-dasharray: 88.9px; stroke-dashoffset: 0px;"></line> <line fill="none" stroke="#FFFFFF" stroke-width="3.273" stroke-miterlimit="10" x1="245.7" y1="455.3" x2="245.7" y2="544.2" class="z-8ntqtj_43" style="stroke-dasharray: 88.9px; stroke-dashoffset: 0px;"></line> <line fill="none" stroke="#FFFFFF" stroke-width="3.273" stroke-miterlimit="10" x1="270" y1="455.3" x2="270" y2="544.2" class="z-t04qmh_43" style="stroke-dasharray: 88.9px; stroke-dashoffset: 0px;"></line> <line fill="none" stroke="#FFFFFF" stroke-width="3.273" stroke-miterlimit="10" x1="282.1" y1="455.3" x2="282.1" y2="544.2" class="z-eez042_43" style="stroke-dasharray: 88.9px; stroke-dashoffset: 0px;"></line> <line fill="none" stroke="#FFFFFF" stroke-width="3.273" stroke-miterlimit="10" x1="257.9" y1="455.3" x2="257.9" y2="544.2" class="z-0zueby_43" style="stroke-dasharray: 88.9px; stroke-dashoffset: 0px;"></line> <line fill="none" stroke="#FFFFFF" stroke-width="3.273" stroke-miterlimit="10" x1="141.7" y1="455.3" x2="141.7" y2="544.2" class="z-i12bby_43" style="stroke-dasharray: 88.9px; stroke-dashoffset: 0px;"></line> <line fill="none" stroke="#FFFFFF" stroke-width="3.273" stroke-miterlimit="10" x1="153.8" y1="455.3" x2="153.8" y2="544.2" class="z-u7reob_43" style="stroke-dasharray: 88.9px; stroke-dashoffset: 0px;"></line> <line fill="none" stroke="#FFFFFF" stroke-width="3.273" stroke-miterlimit="10" x1="178.1" y1="455.3" x2="178.1" y2="544.2" class="z-yuefx3_43" style="stroke-dasharray: 88.9px; stroke-dashoffset: 0px;"></line> <line fill="none" stroke="#FFFFFF" stroke-width="3.273" stroke-miterlimit="10" x1="190.2" y1="455.3" x2="190.2" y2="544.2" class="z-uo0dk5_43" style="stroke-dasharray: 88.9px; stroke-dashoffset: 0px;"></line> <line fill="none" stroke="#FFFFFF" stroke-width="3.273" stroke-miterlimit="10" x1="166" y1="455.3" x2="166" y2="544.2" class="z-swdqbw_43" style="stroke-dasharray: 88.9px; stroke-dashoffset: 0px;"></line> <line fill="none" stroke="#FFFFFF" stroke-width="3.273" stroke-miterlimit="10" x1="98.5" y1="455.3" x2="50.1" y2="455.3" class="z-lfwmtv_43" style="stroke-dasharray: 48.4px; stroke-dashoffset: 0px;"></line> <line fill="none" stroke="#FFFFFF" stroke-width="3.273" stroke-miterlimit="10" x1="49.7" y1="455.3" x2="49.7" y2="544.2" class="z-bbn29i_43" style="stroke-dasharray: 88.9px; stroke-dashoffset: 0px;"></line> <line fill="none" stroke="#FFFFFF" stroke-width="3.273" stroke-miterlimit="10" x1="61.8" y1="455.3" x2="61.8" y2="544.2" class="z-hpmcrq_43" style="stroke-dasharray: 88.9px; stroke-dashoffset: 0px;"></line> <line fill="none" stroke="#FFFFFF" stroke-width="3.273" stroke-miterlimit="10" x1="86" y1="455.3" x2="86" y2="544.2" class="z-68cxr4_43" style="stroke-dasharray: 88.9px; stroke-dashoffset: 0px;"></line> <line fill="none" stroke="#FFFFFF" stroke-width="3.273" stroke-miterlimit="10" x1="98.1" y1="455.3" x2="98.1" y2="544.2" class="z-24hpvu_43" style="stroke-dasharray: 88.9px; stroke-dashoffset: 0px;"></line> <line fill="none" stroke="#FFFFFF" stroke-width="3.273" stroke-miterlimit="10" x1="73.9" y1="455.3" x2="73.9" y2="544.2" class="z-a4jyrh_43" style="stroke-dasharray: 88.9px; stroke-dashoffset: 0px;"></line> <path fill="none" stroke="#FFFFFF" stroke-width="3.273" stroke-miterlimit="10" d="M39.9,728.8V607.3c0-16.3,13.2-29.5,29.6-29.5 	h9.2c16.3,0,29.6,13.2,29.6,29.6v121.4" class="z-4ub1o2_43" style="stroke-dasharray: 345.04px; stroke-dashoffset: 0px;"></path> <path fill="none" stroke="#FFFFFF" stroke-width="3.273" stroke-miterlimit="10" d="M131.8,728.8V607.3c0-16.3,13.3-29.5,29.6-29.5 	h9.2c16.3,0,29.6,13.2,29.6,29.6v121.4" class="z-lk0bpc_43" style="stroke-dasharray: 345.018px; stroke-dashoffset: 0px;"></path> <path fill="none" stroke="#FFFFFF" stroke-width="3.273" stroke-miterlimit="10" d="M223.7,728.8V607.3 	c0.1-16.3,13.3-29.5,29.6-29.5h9.2c16.3,0,29.6,13.2,29.6,29.6v121.4" class="z-gxzqzv_43" style="stroke-dasharray: 344.988px; stroke-dashoffset: 0px;"></path> <line fill="none" stroke="#FFFFFF" stroke-width="3.273" stroke-miterlimit="10" x1="16.6" y1="559.7" x2="316.1" y2="559.7" class="z-t3xemf_43" style="stroke-dasharray: 299.5px; stroke-dashoffset: 0px;"></line> <rect x="108.2" y="577.8" fill="none" stroke="#FFFFFF" stroke-width="3.273" stroke-miterlimit="10" width="23.7" height="151" class="z-8e0grr_43" style="stroke-dasharray: 349.4px; stroke-dashoffset: 0px;"></rect> <rect x="200.1" y="577.8" fill="none" stroke="#FFFFFF" stroke-width="3.273" stroke-miterlimit="10" width="23.7" height="151" class="z-cjph8x_43" style="stroke-dasharray: 349.4px; stroke-dashoffset: 0px;"></rect> <rect x="292" y="577.8" fill="none" stroke="#FFFFFF" stroke-width="3.273" stroke-miterlimit="10" width="24.1" height="151" class="z-wlrmqz_43" style="stroke-dasharray: 350.2px; stroke-dashoffset: 0px;"></rect> <rect x="16.6" y="577.8" fill="none" stroke="#FFFFFF" stroke-width="3.273" stroke-miterlimit="10" width="23.7" height="151" class="z-bg2apn_43" style="stroke-dasharray: 349.4px; stroke-dashoffset: 0px;"></rect> <line fill="none" stroke="#FFFFFF" stroke-width="3.273" stroke-miterlimit="10" x1="315.6" y1="577.8" x2="16.6" y2="577.8" class="z-g1s9x2_43" style="stroke-dasharray: 299px; stroke-dashoffset: 0px;"></line> <polyline fill="none" stroke="#FFFFFF" stroke-width="3.273" stroke-miterlimit="10" points="582.3,647.8 582.3,190.3 316.1,190.3  	316.1,728.7 " class="z-iy3erl_43"></polyline> <line fill="none" stroke="#FFFFFF" stroke-width="3.273" stroke-miterlimit="10" x1="316.1" y1="190.3" x2="582.3" y2="190.3" class="z-b7dh64_43" style="stroke-dasharray: 266.2px; stroke-dashoffset: 0px;"></line> <line fill="none" stroke="#FFFFFF" stroke-width="3.273" stroke-miterlimit="10" x1="316.1" y1="223.3" x2="582.3" y2="223.3" class="z-9rkwtp_43" style="stroke-dasharray: 266.2px; stroke-dashoffset: 0px;"></line> <line fill="none" stroke="#FFFFFF" stroke-width="3.273" stroke-miterlimit="10" x1="316.1" y1="232.9" x2="582.3" y2="232.9" class="z-wt8imh_43" style="stroke-dasharray: 266.2px; stroke-dashoffset: 0px;"></line> <line fill="none" stroke="#FFFFFF" stroke-width="3.273" stroke-miterlimit="10" x1="316.1" y1="365.4" x2="582.3" y2="365.4" class="z-sl0etd_43" style="stroke-dasharray: 266.2px; stroke-dashoffset: 0px;"></line> <line fill="none" stroke="#FFFFFF" stroke-width="3.273" stroke-miterlimit="10" x1="316.1" y1="384.8" x2="582.3" y2="384.8" class="z-e79mzn_43" style="stroke-dasharray: 266.2px; stroke-dashoffset: 0px;"></line> <line fill="none" stroke="#FFFFFF" stroke-width="3.273" stroke-miterlimit="10" x1="316.1" y1="520.2" x2="582.3" y2="520.2" class="z-bnet9h_43" style="stroke-dasharray: 266.2px; stroke-dashoffset: 0px;"></line> <line fill="none" stroke="#FFFFFF" stroke-width="3.273" stroke-miterlimit="10" x1="316.1" y1="539.6" x2="582.3" y2="539.6" class="z-bso086_43" style="stroke-dasharray: 266.2px; stroke-dashoffset: 0px;"></line> <line fill="none" stroke="#FFFFFF" stroke-width="3.273" stroke-miterlimit="10" x1="582.3" y1="520.2" x2="887.1" y2="520.2" class="z-i0g0r1_43" style="stroke-dasharray: 304.8px; stroke-dashoffset: 0px;"></line> <line fill="none" stroke="#FFFFFF" stroke-width="3.273" stroke-miterlimit="10" x1="582.3" y1="539.6" x2="887.1" y2="539.6" class="z-ppmmp2_43" style="stroke-dasharray: 304.8px; stroke-dashoffset: 0px;"></line> <path fill="none" stroke="#FFFFFF" stroke-width="3.273" stroke-miterlimit="10" d="M398,728.7V586.3c0.1-14.7-11.9-26.6-26.5-26.6 	h-8.3c-14.7,0-26.6,11.9-26.6,26.6v142.4" class="z-e2tlp8_43" style="stroke-dasharray: 376.628px; stroke-dashoffset: 0px;"></path> <path fill="none" stroke="#FFFFFF" stroke-width="3.273" stroke-miterlimit="10" d="M479.9,669.3v-78.8c0-17-13.7-30.8-30.8-30.8 	l0,0c-17,0-30.8,13.7-30.8,30.8v140.4" class="z-aihxkv_43" style="stroke-dasharray: 316.009px; stroke-dashoffset: 0px;"></path> <path fill="none" stroke="#FFFFFF" stroke-width="3.273" stroke-miterlimit="10" d="M561.9,647.8v-57.3c0-17-13.7-30.8-30.8-30.8 	l0,0c-17,0-30.8,13.7-30.8,30.8v78.8" class="z-z0gr0w_43" style="stroke-dasharray: 232.909px; stroke-dashoffset: 0px;"></path> <path fill="none" stroke="#FFFFFF" stroke-width="3.273" stroke-miterlimit="10" d="M683.5,669.3v-78.1c0-17-13.7-30.8-30.8-30.8 	l0,0c-17,0-30.8,13.7-30.8,30.8v63.2" class="z-98cweo_43" style="stroke-dasharray: 238.109px; stroke-dashoffset: 0px;"></path> <path fill="none" stroke="#FFFFFF" stroke-width="3.273" stroke-miterlimit="10" d="M765.3,728.7V586.3c0-14.7-11.9-26.6-26.6-26.6 	h-8.3c-14.7,0-26.6,11.9-26.6,26.6v82.9" class="z-fjlh5a_43" style="stroke-dasharray: 317.187px; stroke-dashoffset: 0px;"></path> <path fill="none" stroke="#FFFFFF" stroke-width="3.273" stroke-miterlimit="10" d="M703.9,728.7" class="z-4wslu4_43" style="stroke-dasharray: 0px; stroke-dashoffset: 0px;"></path> <path fill="none" stroke="#FFFFFF" stroke-width="3.273" stroke-miterlimit="10" d="M847.3,728.7V586.3c0-14.7-11.9-26.6-26.5-26.6 	h-8.3c-14.7,0-26.6,11.9-26.6,26.6v142.4" class="z-4yk8an_43" style="stroke-dasharray: 376.598px; stroke-dashoffset: 0px;"></path> <path fill="none" stroke="#FFFFFF" stroke-width="3.273" stroke-miterlimit="10" d="M452.8,409.5h-7.2c-12.8,0-23.1,10.4-23.1,23.1 	v87.6h53.3v-87.6C475.9,419.9,465.5,409.5,452.8,409.5z" class="z-hzv1wb_43" style="stroke-dasharray: 308.216px; stroke-dashoffset: 0px;"></path> <path fill="none" stroke="#FFFFFF" stroke-width="3.273" stroke-miterlimit="10" d="M436.4,468.5v-32.3c0-7.1,5.7-12.8,12.8-12.8 	s12.8,5.7,12.8,12.8v32.3H436.4z" class="z-2hhjgs_43" style="stroke-dasharray: 130.445px; stroke-dashoffset: 0px;"></path> <line fill="none" stroke="#FFFFFF" stroke-width="3.273" stroke-miterlimit="10" x1="582.3" y1="493.2" x2="316.1" y2="493.2" class="z-70yg88_43" style="stroke-dasharray: 266.2px; stroke-dashoffset: 0px;"></line> <line fill="none" stroke="#FFFFFF" stroke-width="3.273" stroke-miterlimit="10" x1="475.8" y1="493.2" x2="475.8" y2="520.2" class="z-5de1os_43" style="stroke-dasharray: 27px; stroke-dashoffset: 0px;"></line> <line fill="none" stroke="#FFFFFF" stroke-width="3.273" stroke-miterlimit="10" x1="316.1" y1="493.2" x2="316.1" y2="520.2" class="z-5z1fkt_43" style="stroke-dasharray: 27px; stroke-dashoffset: 0px;"></line> <line fill="none" stroke="#FFFFFF" stroke-width="3.273" stroke-miterlimit="10" x1="461.9" y1="436.2" x2="436.4" y2="436.2" class="z-90r0ct_43" style="stroke-dasharray: 25.5px; stroke-dashoffset: 0px;"></line> <line fill="none" stroke="#FFFFFF" stroke-width="3.273" stroke-miterlimit="10" x1="461.9" y1="445.9" x2="436.4" y2="445.9" class="z-yg9lgf_43" style="stroke-dasharray: 25.5px; stroke-dashoffset: 0px;"></line> <path fill="none" stroke="#FFFFFF" stroke-width="3.273" stroke-miterlimit="10" d="M452.8,254.7h-7.2c-12.8,0-23.1,10.4-23.1,23.1 	v87.6h53.3v-87.6C475.9,265,465.5,254.7,452.8,254.7z" class="z-3kc5xi_43" style="stroke-dasharray: 308.238px; stroke-dashoffset: 0px;"></path> <path fill="none" stroke="#FFFFFF" stroke-width="3.273" stroke-miterlimit="10" d="M436.4,313.7v-32.3c0-7.1,5.7-12.8,12.8-12.8 	s12.8,5.7,12.8,12.8v32.3H436.4z" class="z-nahbor_43" style="stroke-dasharray: 130.445px; stroke-dashoffset: 0px;"></path> <line fill="none" stroke="#FFFFFF" stroke-width="3.273" stroke-miterlimit="10" x1="461.9" y1="281.4" x2="436.4" y2="281.4" class="z-5yfkcy_43" style="stroke-dasharray: 25.5px; stroke-dashoffset: 0px;"></line> <line fill="none" stroke="#FFFFFF" stroke-width="3.273" stroke-miterlimit="10" x1="461.9" y1="291.1" x2="436.4" y2="291.1" class="z-z7wdez_43" style="stroke-dasharray: 25.5px; stroke-dashoffset: 0px;"></line> <path fill="none" stroke="#FFFFFF" stroke-width="3.273" stroke-miterlimit="10" d="M534.7,254.7h-7.2c-12.8,0-23.1,10.4-23.1,23.1 	v87.6h53.5v-87.6C557.8,265,547.5,254.7,534.7,254.7z" class="z-px8hth_43" style="stroke-dasharray: 308.533px; stroke-dashoffset: 0px;"></path> <path fill="none" stroke="#FFFFFF" stroke-width="3.273" stroke-miterlimit="10" d="M518.3,313.7v-32.3c0-7.1,5.7-12.8,12.8-12.8 	c7.1,0,12.8,5.7,12.8,12.8v32.3H518.3z" class="z-g9085q_43" style="stroke-dasharray: 130.445px; stroke-dashoffset: 0px;"></path> <line fill="none" stroke="#FFFFFF" stroke-width="3.273" stroke-miterlimit="10" x1="543.9" y1="281.4" x2="518.3" y2="281.4" class="z-lt9eau_43" style="stroke-dasharray: 25.6px; stroke-dashoffset: 0px;"></line> <line fill="none" stroke="#FFFFFF" stroke-width="3.273" stroke-miterlimit="10" x1="543.9" y1="291.1" x2="518.3" y2="291.1" class="z-an4xrp_43" style="stroke-dasharray: 25.6px; stroke-dashoffset: 0px;"></line> <path fill="none" stroke="#FFFFFF" stroke-width="3.273" stroke-miterlimit="10" d="M371,254.7h-7.2c-12.8,0-23.1,10.4-23.1,23.1 	v87.6H394v-87.6C394.1,265,383.7,254.7,371,254.7z" class="z-ip83qk_43" style="stroke-dasharray: 308.238px; stroke-dashoffset: 0px;"></path> <path fill="none" stroke="#FFFFFF" stroke-width="3.273" stroke-miterlimit="10" d="M354.6,313.7v-32.3c0-7.1,5.7-12.8,12.8-12.8 	s12.8,5.7,12.8,12.8v32.3H354.6z" class="z-dssai1_43" style="stroke-dasharray: 130.445px; stroke-dashoffset: 0px;"></path> <line fill="none" stroke="#FFFFFF" stroke-width="3.273" stroke-miterlimit="10" x1="380.1" y1="281.4" x2="354.6" y2="281.4" class="z-zdex0b_43" style="stroke-dasharray: 25.5px; stroke-dashoffset: 0px;"></line> <line fill="none" stroke="#FFFFFF" stroke-width="3.273" stroke-miterlimit="10" x1="380.1" y1="291.1" x2="354.6" y2="291.1" class="z-j22igy_43" style="stroke-dasharray: 25.5px; stroke-dashoffset: 0px;"></line> <line fill="none" stroke="#FFFFFF" stroke-width="3.273" stroke-miterlimit="10" x1="582.3" y1="338.4" x2="316.1" y2="338.4" class="z-0qxvob_43" style="stroke-dasharray: 266.2px; stroke-dashoffset: 0px;"></line> <line fill="none" stroke="#FFFFFF" stroke-width="3.273" stroke-miterlimit="10" x1="582.3" y1="427.1" x2="887.1" y2="427.1" class="z-sm1eal_43" style="stroke-dasharray: 304.8px; stroke-dashoffset: 0px;"></line> <path fill="none" stroke="#FFFFFF" stroke-width="3.273" stroke-miterlimit="10" d="M738.3,316.3h-7.2c-12.8,0-23.1,10.4-23.1,23.1 	v87.6h53.3v-87.6C761.4,326.7,751.1,316.3,738.3,316.3z" class="z-uyryij_43" style="stroke-dasharray: 308.238px; stroke-dashoffset: 0px;"></path> <path fill="none" stroke="#FFFFFF" stroke-width="3.273" stroke-miterlimit="10" d="M721.9,427.1v-84c0-7.1,5.7-12.8,12.8-12.8 	c7.1,0,12.8,5.7,12.8,12.8v84H721.9z" class="z-betr66_43" style="stroke-dasharray: 233.845px; stroke-dashoffset: 0px;"></path> <line fill="none" stroke="#FFFFFF" stroke-width="3.273" stroke-miterlimit="10" x1="747.5" y1="343.1" x2="721.9" y2="343.1" class="z-4g0a7a_43" style="stroke-dasharray: 25.6px; stroke-dashoffset: 0px;"></line> <line fill="none" stroke="#FFFFFF" stroke-width="3.273" stroke-miterlimit="10" x1="747.5" y1="352.8" x2="721.9" y2="352.8" class="z-98xev1_43" style="stroke-dasharray: 25.6px; stroke-dashoffset: 0px;"></line> <path fill="none" stroke="#FFFFFF" stroke-width="3.273" stroke-miterlimit="10" d="M820.2,316.3H813c-12.8,0-23.1,10.4-23.1,23.1 	v87.6h53.3v-87.6C843.2,326.7,833,316.3,820.2,316.3z" class="z-xzka96_43" style="stroke-dasharray: 308.208px; stroke-dashoffset: 0px;"></path> <path fill="none" stroke="#FFFFFF" stroke-width="3.273" stroke-miterlimit="10" d="M803.9,427.1v-84c0-7.1,5.7-12.8,12.8-12.8 	c7.1,0,12.8,5.7,12.8,12.8v84H803.9z" class="z-u4qs2w_43" style="stroke-dasharray: 233.845px; stroke-dashoffset: 0px;"></path> <line fill="none" stroke="#FFFFFF" stroke-width="3.273" stroke-miterlimit="10" x1="829.4" y1="352.8" x2="803.9" y2="352.8" class="z-ezpacx_43" style="stroke-dasharray: 25.5px; stroke-dashoffset: 0px;"></line> <path fill="none" stroke="#FFFFFF" stroke-width="3.273" stroke-miterlimit="10" d="M656.4,316.3h-7.2c-12.8,0-23.1,10.4-23.1,23.1 	v87.6h53.3v-87.6C679.5,326.7,669.1,316.3,656.4,316.3z" class="z-k39o27_43" style="stroke-dasharray: 308.216px; stroke-dashoffset: 0px;"></path> <path fill="none" stroke="#FFFFFF" stroke-width="3.273" stroke-miterlimit="10" d="M640,427.1v-84c0-7.1,5.7-12.8,12.8-12.8 	c7.1,0,12.8,5.7,12.8,12.8v84H640z" class="z-x7epyw_43" style="stroke-dasharray: 233.845px; stroke-dashoffset: 0px;"></path> <line fill="none" stroke="#FFFFFF" stroke-width="3.273" stroke-miterlimit="10" x1="665.5" y1="343.1" x2="640" y2="343.1" class="z-igehjv_43" style="stroke-dasharray: 25.5px; stroke-dashoffset: 0px;"></line> <line fill="none" stroke="#FFFFFF" stroke-width="3.273" stroke-miterlimit="10" x1="665.5" y1="352.8" x2="640" y2="352.8" class="z-2pw6la_43" style="stroke-dasharray: 25.5px; stroke-dashoffset: 0px;"></line> <line fill="none" stroke="#FFFFFF" stroke-width="3.273" stroke-miterlimit="10" x1="887.1" y1="400" x2="582.3" y2="400" class="z-t88fjz_43" style="stroke-dasharray: 304.8px; stroke-dashoffset: 0px;"></line> <line fill="none" stroke="#FFFFFF" stroke-width="3.273" stroke-miterlimit="10" x1="849" y1="400" x2="849" y2="427.1" class="z-91n7q6_43" style="stroke-dasharray: 27.1px; stroke-dashoffset: 0px;"></line> <rect x="316.1" y="190.3" fill="none" stroke="#FFFFFF" stroke-width="3.273" stroke-miterlimit="10" width="266.2" height="32.9" class="z-bhp1on_43" style="stroke-dasharray: 598.2px; stroke-dashoffset: 0px;"></rect> <rect x="423.2" y="197.3" fill="none" stroke="#FFFFFF" stroke-width="3.273" stroke-miterlimit="10" width="52.5" height="19" class="z-pgjdgi_43" style="stroke-dasharray: 143px; stroke-dashoffset: 0px;"></rect> <rect x="504.5" y="197.3" fill="none" stroke="#FFFFFF" stroke-width="3.273" stroke-miterlimit="10" width="61.2" height="19" class="z-j19n5i_43" style="stroke-dasharray: 160.4px; stroke-dashoffset: 0px;"></rect> <rect x="332.8" y="197.3" fill="none" stroke="#FFFFFF" stroke-width="3.273" stroke-miterlimit="10" width="61.3" height="19" class="z-oo44i6_43" style="stroke-dasharray: 160.6px; stroke-dashoffset: 0px;"></rect> <line fill="none" stroke="#FFFFFF" stroke-width="3.273" stroke-miterlimit="10" x1="565.7" y1="190.3" x2="565.7" y2="147" class="z-ndro5c_43" style="stroke-dasharray: 43.3px; stroke-dashoffset: 0px;"></line> <line fill="none" stroke="#FFFFFF" stroke-width="3.273" stroke-miterlimit="10" x1="565.7" y1="197.3" x2="565.7" y2="216.3" class="z-0m8zj7_43" style="stroke-dasharray: 19px; stroke-dashoffset: 0px;"></line> <line fill="none" stroke="#FFFFFF" stroke-width="3.273" stroke-miterlimit="10" x1="557" y1="197.3" x2="557" y2="216.3" class="z-qzkdse_43" style="stroke-dasharray: 19px; stroke-dashoffset: 0px;"></line> <line fill="none" stroke="#FFFFFF" stroke-width="3.273" stroke-miterlimit="10" x1="548.1" y1="197.3" x2="548.1" y2="216.3" class="z-4plv8n_43" style="stroke-dasharray: 19px; stroke-dashoffset: 0px;"></line> <line fill="none" stroke="#FFFFFF" stroke-width="3.273" stroke-miterlimit="10" x1="539.4" y1="197.3" x2="539.4" y2="216.3" class="z-omm9mt_43" style="stroke-dasharray: 19px; stroke-dashoffset: 0px;"></line> <line fill="none" stroke="#FFFFFF" stroke-width="3.273" stroke-miterlimit="10" x1="530.7" y1="197.3" x2="530.7" y2="216.3" class="z-1x6txa_43" style="stroke-dasharray: 19px; stroke-dashoffset: 0px;"></line> <line fill="none" stroke="#FFFFFF" stroke-width="3.273" stroke-miterlimit="10" x1="521.9" y1="197.3" x2="521.9" y2="216.3" class="z-p0yltv_43" style="stroke-dasharray: 19px; stroke-dashoffset: 0px;"></line> <line fill="none" stroke="#FFFFFF" stroke-width="3.273" stroke-miterlimit="10" x1="513.2" y1="197.3" x2="513.2" y2="216.3" class="z-4tdgjr_43" style="stroke-dasharray: 19px; stroke-dashoffset: 0px;"></line> <line fill="none" stroke="#FFFFFF" stroke-width="3.273" stroke-miterlimit="10" x1="504.5" y1="197.3" x2="504.5" y2="216.3" class="z-ihtw9x_43" style="stroke-dasharray: 19px; stroke-dashoffset: 0px;"></line> <line fill="none" stroke="#FFFFFF" stroke-width="3.273" stroke-miterlimit="10" x1="394" y1="197.3" x2="394" y2="216.3" class="z-48iral_43" style="stroke-dasharray: 19px; stroke-dashoffset: 0px;"></line> <line fill="none" stroke="#FFFFFF" stroke-width="3.273" stroke-miterlimit="10" x1="385.2" y1="197.3" x2="385.2" y2="216.3" class="z-tcnvm4_43" style="stroke-dasharray: 19px; stroke-dashoffset: 0px;"></line> <line fill="none" stroke="#FFFFFF" stroke-width="3.273" stroke-miterlimit="10" x1="376.5" y1="197.3" x2="376.5" y2="216.3" class="z-31bsdm_43" style="stroke-dasharray: 19px; stroke-dashoffset: 0px;"></line> <line fill="none" stroke="#FFFFFF" stroke-width="3.273" stroke-miterlimit="10" x1="367.8" y1="197.3" x2="367.8" y2="216.3" class="z-edc64v_43" style="stroke-dasharray: 19px; stroke-dashoffset: 0px;"></line> <line fill="none" stroke="#FFFFFF" stroke-width="3.273" stroke-miterlimit="10" x1="359.1" y1="197.3" x2="359.1" y2="216.3" class="z-jb1t65_43" style="stroke-dasharray: 19px; stroke-dashoffset: 0px;"></line> <line fill="none" stroke="#FFFFFF" stroke-width="3.273" stroke-miterlimit="10" x1="350.3" y1="197.3" x2="350.3" y2="216.3" class="z-bx29bi_43" style="stroke-dasharray: 19px; stroke-dashoffset: 0px;"></line> <line fill="none" stroke="#FFFFFF" stroke-width="3.273" stroke-miterlimit="10" x1="341.5" y1="197.3" x2="341.5" y2="216.3" class="z-51yf63_43" style="stroke-dasharray: 19px; stroke-dashoffset: 0px;"></line> <line fill="none" stroke="#FFFFFF" stroke-width="3.273" stroke-miterlimit="10" x1="332.8" y1="197.3" x2="332.8" y2="216.3" class="z-avc8of_43" style="stroke-dasharray: 19px; stroke-dashoffset: 0px;"></line> <line fill="none" stroke="#FFFFFF" stroke-width="3.273" stroke-miterlimit="10" x1="475.7" y1="197.3" x2="475.7" y2="216.3" class="z-4wtcik_43" style="stroke-dasharray: 19px; stroke-dashoffset: 0px;"></line> <line fill="none" stroke="#FFFFFF" stroke-width="3.273" stroke-miterlimit="10" x1="467" y1="197.3" x2="467" y2="216.3" class="z-8c9sky_43" style="stroke-dasharray: 19px; stroke-dashoffset: 0px;"></line> <line fill="none" stroke="#FFFFFF" stroke-width="3.273" stroke-miterlimit="10" x1="458.2" y1="197.3" x2="458.2" y2="216.3" class="z-mnlaim_43" style="stroke-dasharray: 19px; stroke-dashoffset: 0px;"></line> <line fill="none" stroke="#FFFFFF" stroke-width="3.273" stroke-miterlimit="10" x1="449.4" y1="197.3" x2="449.4" y2="216.3" class="z-owyuk2_43" style="stroke-dasharray: 19px; stroke-dashoffset: 0px;"></line> <line fill="none" stroke="#FFFFFF" stroke-width="3.273" stroke-miterlimit="10" x1="440.7" y1="197.3" x2="440.7" y2="216.3" class="z-q838qi_43" style="stroke-dasharray: 19px; stroke-dashoffset: 0px;"></line> <line fill="none" stroke="#FFFFFF" stroke-width="3.273" stroke-miterlimit="10" x1="431.9" y1="197.3" x2="431.9" y2="216.3" class="z-thfjhu_43" style="stroke-dasharray: 19px; stroke-dashoffset: 0px;"></line> <line fill="none" stroke="#FFFFFF" stroke-width="3.273" stroke-miterlimit="10" x1="423.2" y1="197.3" x2="423.2" y2="216.3" class="z-gz47av_43" style="stroke-dasharray: 19px; stroke-dashoffset: 0px;"></line> <rect x="582.3" y="242.6" fill="none" stroke="#FFFFFF" stroke-width="3.273" stroke-miterlimit="10" width="304.7" height="28.6" class="z-2scwuc_43" style="stroke-dasharray: 666.6px; stroke-dashoffset: 0px;"></rect> <polyline fill="none" stroke="#FFFFFF" stroke-width="3.273" stroke-miterlimit="10" points="582.3,647.8 582.3,242.6 887.1,242.6  	887.1,728.7 " class="z-t4hgxg_43"></polyline> <path fill="none" stroke="#FFFFFF" stroke-width="3.273" stroke-miterlimit="10" d="M615.9,650.5v-95.6c0-5,4-9.1,9.1-9.1h55.6 	c5,0,9.1,4,9.1,9.1v114.3" class="z-grmva9_43" style="stroke-dasharray: 294.114px; stroke-dashoffset: 0px;"></path> <path fill="none" stroke="#FFFFFF" stroke-width="3.273" stroke-miterlimit="10" d="M697.8,728.8" class="z-r5wcil_43" style="stroke-dasharray: 0px; stroke-dashoffset: 0px;"></path> <path fill="none" stroke="#FFFFFF" stroke-width="3.273" stroke-miterlimit="10" d="M697.8,669.3V553.7c0-4.4,3.5-7.9,7.9-7.9h58.2 	c4.4,0,7.9,3.5,7.9,7.9v175.1" class="z-nfjkg0_43" style="stroke-dasharray: 373.754px; stroke-dashoffset: 0px;"></path> <path fill="none" stroke="#FFFFFF" stroke-width="3.273" stroke-miterlimit="10" d="M779.6,728.8v-0.1v-175c0-4.4,3.5-7.9,7.9-7.9 	h58.1c4.4,0,7.9,3.5,7.9,7.9v175.1" class="z-jjt1rc_43" style="stroke-dasharray: 433.154px; stroke-dashoffset: 0px;"></path> <line fill="none" stroke="#FFFFFF" stroke-width="3.273" stroke-miterlimit="10" x1="703.9" y1="622.3" x2="765.5" y2="622.3" class="z-69ad3z_43" style="stroke-dasharray: 61.6px; stroke-dashoffset: 0px;"></line> <line fill="none" stroke="#FFFFFF" stroke-width="3.273" stroke-miterlimit="10" x1="785.9" y1="622.3" x2="847.3" y2="622.3" class="z-c7hqen_43" style="stroke-dasharray: 61.4px; stroke-dashoffset: 0px;"></line> <line fill="none" stroke="#FFFFFF" stroke-width="3.273" stroke-miterlimit="10" x1="703.9" y1="616.6" x2="765.5" y2="616.6" class="z-py3pyh_43" style="stroke-dasharray: 61.6px; stroke-dashoffset: 0px;"></line> <line fill="none" stroke="#FFFFFF" stroke-width="3.273" stroke-miterlimit="10" x1="621.9" y1="622.3" x2="683.5" y2="622.3" class="z-adz7sa_43" style="stroke-dasharray: 61.6px; stroke-dashoffset: 0px;"></line> <line fill="none" stroke="#FFFFFF" stroke-width="3.273" stroke-miterlimit="10" x1="621.9" y1="616.6" x2="683.5" y2="616.6" class="z-2z5asr_43" style="stroke-dasharray: 61.6px; stroke-dashoffset: 0px;"></line> <line fill="none" stroke="#FFFFFF" stroke-width="3.273" stroke-miterlimit="10" x1="785.9" y1="616.6" x2="847.3" y2="616.6" class="z-pnsmx6_43" style="stroke-dasharray: 61.4px; stroke-dashoffset: 0px;"></line> <rect x="615.9" y="497.5" fill="none" stroke="#FFFFFF" stroke-width="3.273" stroke-miterlimit="10" width="73.9" height="22.7" class="z-gm8n14_43" style="stroke-dasharray: 193.2px; stroke-dashoffset: 0px;"></rect> <line fill="none" stroke="#FFFFFF" stroke-width="3.273" stroke-miterlimit="10" x1="640.5" y1="497.5" x2="640.5" y2="520.2" class="z-wkcmw1_43" style="stroke-dasharray: 22.7px; stroke-dashoffset: 0px;"></line> <line fill="none" stroke="#FFFFFF" stroke-width="3.273" stroke-miterlimit="10" x1="652.8" y1="497.5" x2="652.8" y2="520.2" class="z-c49m25_43" style="stroke-dasharray: 22.7px; stroke-dashoffset: 0px;"></line> <line fill="none" stroke="#FFFFFF" stroke-width="3.273" stroke-miterlimit="10" x1="665.1" y1="497.5" x2="665.1" y2="520.2" class="z-jtrk6g_43" style="stroke-dasharray: 22.7px; stroke-dashoffset: 0px;"></line> <path fill="none" stroke="#FFFFFF" stroke-width="3.273" stroke-miterlimit="10" d="M758.9,520.2V458c-7.9-1.6-15.9-2.5-24.2-2.5 	s-16.4,0.9-24.2,2.5v62.2H758.9z" class="z-mvcq0h_43" style="stroke-dasharray: 221.54px; stroke-dashoffset: 0px;"></path> <rect x="697.8" y="497.5" fill="none" stroke="#FFFFFF" stroke-width="3.273" stroke-miterlimit="10" width="73.9" height="22.7" class="z-t2ixif_43" style="stroke-dasharray: 193.2px; stroke-dashoffset: 0px;"></rect> <line fill="none" stroke="#FFFFFF" stroke-width="3.273" stroke-miterlimit="10" x1="722.4" y1="497.5" x2="722.4" y2="520.2" class="z-ug465x_43" style="stroke-dasharray: 22.7px; stroke-dashoffset: 0px;"></line> <line fill="none" stroke="#FFFFFF" stroke-width="3.273" stroke-miterlimit="10" x1="734.7" y1="497.5" x2="734.7" y2="520.2" class="z-mvbttn_43" style="stroke-dasharray: 22.7px; stroke-dashoffset: 0px;"></line> <line fill="none" stroke="#FFFFFF" stroke-width="3.273" stroke-miterlimit="10" x1="747" y1="497.5" x2="747" y2="520.2" class="z-3vqw5c_43" style="stroke-dasharray: 22.7px; stroke-dashoffset: 0px;"></line> <path fill="none" stroke="#FFFFFF" stroke-width="3.273" stroke-miterlimit="10" d="M840.8,520.2V458c-7.9-1.6-15.9-2.5-24.2-2.5 	s-16.4,0.9-24.2,2.5v62.2H840.8z" class="z-vm5dj9_43" style="stroke-dasharray: 221.54px; stroke-dashoffset: 0px;"></path> <rect x="779.6" y="497.5" fill="none" stroke="#FFFFFF" stroke-width="3.273" stroke-miterlimit="10" width="73.9" height="22.7" class="z-q2jx5t_43" style="stroke-dasharray: 193.2px; stroke-dashoffset: 0px;"></rect> <line fill="none" stroke="#FFFFFF" stroke-width="3.273" stroke-miterlimit="10" x1="804.3" y1="497.5" x2="804.3" y2="520.2" class="z-x0fqig_43" style="stroke-dasharray: 22.7px; stroke-dashoffset: 0px;"></line> <line fill="none" stroke="#FFFFFF" stroke-width="3.273" stroke-miterlimit="10" x1="816.6" y1="497.5" x2="816.6" y2="520.2" class="z-4t8iww_43" style="stroke-dasharray: 22.7px; stroke-dashoffset: 0px;"></line> <line fill="none" stroke="#FFFFFF" stroke-width="3.273" stroke-miterlimit="10" x1="829" y1="497.5" x2="829" y2="520.2" class="z-869bil_43" style="stroke-dasharray: 22.7px; stroke-dashoffset: 0px;"></line> <rect x="702.2" y="343.1" fill="none" stroke="#FFFFFF" stroke-width="3.273" stroke-miterlimit="10" width="65" height="84" class="z-q1opkh_43" style="stroke-dasharray: 298px; stroke-dashoffset: 0px;"></rect> <rect x="620.2" y="343.1" fill="none" stroke="#FFFFFF" stroke-width="3.273" stroke-miterlimit="10" width="65" height="84" class="z-rexnok_43" style="stroke-dasharray: 298px; stroke-dashoffset: 0px;"></rect> <rect x="784.1" y="343.1" fill="none" stroke="#FFFFFF" stroke-width="3.273" stroke-miterlimit="10" width="65" height="84" class="z-mqvgxw_43" style="stroke-dasharray: 298px; stroke-dashoffset: 0px;"></rect> <line fill="none" stroke="#FFFFFF" stroke-width="3.273" stroke-miterlimit="10" x1="582.3" y1="290.5" x2="887.1" y2="290.5" class="z-0qlqkf_43" style="stroke-dasharray: 304.8px; stroke-dashoffset: 0px;"></line> <path fill="none" stroke="#FFFFFF" stroke-width="3.273" stroke-miterlimit="10" d="M453.8,679.3L453.8,679.3 	c-4.5,0-8.2,3.6-8.2,8.2v0.2c0,4.5,3.6,8.2,8.2,8.2h4.4" class="z-6p8vcf_43" style="stroke-dasharray: 30.3835px; stroke-dashoffset: 0px;"></path> <polygon fill="none" stroke="#FFFFFF" stroke-width="3.273" stroke-miterlimit="10" points="719.1,669.3 451.1,669.3 453.8,679.3  	462.5,713.1 469.5,713.1 469.5,693.7 505.1,693.7 524.6,713.1 619.4,713.1 633,699.6 661.2,699.6 674.7,713.1 704.7,713.1  	702.1,693 " class="z-6vmy76_43" style="stroke-dasharray: 643.455px; stroke-dashoffset: 0px;"></polygon> <line fill="none" stroke="#FFFFFF" stroke-width="3.273" stroke-miterlimit="10" x1="453.8" y1="679.3" x2="489.2" y2="679.3" class="z-7fnthd_43" style="stroke-dasharray: 35.4px; stroke-dashoffset: 0px;"></line> <rect x="543.7" y="669.3" fill="none" stroke="#FFFFFF" stroke-width="3.273" stroke-miterlimit="10" width="56" height="43.9" class="z-wln5bp_43" style="stroke-dasharray: 199.8px; stroke-dashoffset: 0px;"></rect> <path fill="none" stroke="#FFFFFF" stroke-width="3.273" stroke-miterlimit="10" d="M633.1,669.3l-3.9-6.8 	c-5.3-9.2-15.2-14.7-25.7-14.7h-59.8l-21.5,21.5h21.5l0,0H633.1z" class="z-fsxxyu_43" style="stroke-dasharray: 239.948px; stroke-dashoffset: 0px;"></path> <line fill="none" stroke="#FFFFFF" stroke-width="3.273" stroke-miterlimit="10" x1="543.7" y1="669.3" x2="543.7" y2="647.8" class="z-dkrr1k_43" style="stroke-dasharray: 21.5px; stroke-dashoffset: 0px;"></line> <path fill="none" stroke="#FFFFFF" stroke-width="3.273" stroke-miterlimit="10" d="M614.5,669.3v10H504.2l8.2,8.2h141.3 	c5.8,0,11.6,1.6,16.5,4.7l34.5,21.1" class="z-qu7whi_43" style="stroke-dasharray: 331.021px; stroke-dashoffset: 0px;"></path> <g class="z-928ge1_43"> 	<path fill="none" stroke="#FFFFFF" stroke-width="3.273" stroke-miterlimit="10" d="M520.6,708.1c-2.5,12.3-13.3,21.4-26.3,21.4 		c-11.6,0-22-6.9-25.7-17.2" class="z-hjalvs_43" style="stroke-dasharray: 69.6555px; stroke-dashoffset: 0px;"></path> 	<path fill="none" stroke="#FFFFFF" stroke-width="3.273" stroke-miterlimit="10" d="M510.3,699.3c0.2,0.7,0.3,1.5,0.3,2.3 		c0.6,9.1-6.3,17-15.3,17.6c-9.1,0.6-17-6.3-17.6-15.3c-0.2-3.7,0.8-7.3,2.7-10.1" class="z-g33sr8_43" style="stroke-dasharray: 64.7411px; stroke-dashoffset: 0px;"></path> </g> <g class="z-mj1z2t_43"> 	<path fill="none" stroke="#FFFFFF" stroke-width="3.273" stroke-miterlimit="10" d="M672.1,710.3c-3.1,11.1-13.2,19.2-25.3,19.2 		c-11.8,0-21.6-7.7-25.1-18.4" class="z-g5t9kt_43" style="stroke-dasharray: 67.3988px; stroke-dashoffset: 0px;"></path> 	<path fill="none" stroke="#FFFFFF" stroke-width="3.273" stroke-miterlimit="10" d="M662.9,701.3c0.1,0.7,0.1,1.3,0.1,2.1 		c0,8.9-7.3,16-16,16c-8.9,0-16-7.3-16-16c0-0.4,0-0.8,0-1.2" class="z-1g1a8b_43" style="stroke-dasharray: 53.5457px; stroke-dashoffset: 0px;"></path> </g> <line fill="none" stroke="#FFFFFF" stroke-width="3" stroke-miterlimit="10" x1="582.3" y1="714.6" x2="582.3" y2="729.6" class="z-4wv2e9_43" style="stroke-dasharray: 15px; stroke-dashoffset: 0px;"></line> </svg>