<svg xmlns="http://www.w3.org/2000/svg" viewBox="0 0 594 513.4" data-id="44"><g fill="none" class="z-n6k4lw_44"><path d="M20.5-6.8" class="z-qo2n0x_44" style="stroke-dasharray: 0px; stroke-dashoffset: 0px;"></path><path stroke="#FFF" stroke-width="3" stroke-linejoin="bevel" stroke-miterlimit="10" d="M20.5-6.8z" class="z-56hjjr_44" style="stroke-dasharray: 0px; stroke-dashoffset: 0px;"></path></g><g fill="none" class="z-6z91sj_44"><path d="M733 0" class="z-pubp7j_44" style="stroke-dasharray: 0px; stroke-dashoffset: 0px;"></path><path stroke="#FFF" stroke-width="3" stroke-linejoin="bevel" stroke-miterlimit="10" d="M733 0z" class="z-rrogif_44" style="stroke-dasharray: 0px; stroke-dashoffset: 0px;"></path></g><path fill="none" stroke="#FFF" stroke-width="3" stroke-miterlimit="10" d="M127.7 255.4V129.3" class="z-1wa1wl_44" style="stroke-dasharray: 126.1px; stroke-dashoffset: 0px;"></path><path fill="none" stroke="#FFF" stroke-width="3" stroke-miterlimit="10" d="M91.2 237.5l47.5-10.4-.9-57.2-37.6-17.1L87.5 180l-7.8 23.7 5.5 20.6z" class="z-8te5j9_44" style="stroke-dasharray: 237.929px; stroke-dashoffset: 0px;"></path><path fill="none" stroke="#FFF" stroke-width="3" stroke-miterlimit="10" d="M87.5 180l51.2 9.6M79.7 203.7l59-2.2M85.2 224.3l53.2-13.5M446.7 273.1v-242" class="z-omem09_44" style="stroke-dasharray: 408.019px; stroke-dashoffset: 0px;"></path><path fill="none" stroke="#FFF" stroke-width="3" stroke-miterlimit="10" d="M457.8 70.5l-72.6-48.4-25.1 48.4-8.8 48.4 4.1 49 18.3 27.2 92.8-27.2z" class="z-v0z4di_44" style="stroke-dasharray: 467.415px; stroke-dashoffset: 0px;"></path><path fill="none" stroke="#FFF" stroke-width="3" stroke-miterlimit="10" d="M360.1 70.5l99.6 15.9M351.3 118.9l109.7-10M355.4 167.9l108.9-25.5M509.7 261.9V142.5M127.7 127.9l-37.4 15.5h37.4zM509.7 128.4l37.4 15.5h-37.4zM446.7 21.3l37.5 15.5h-37.5z" class="z-zl75vj_44" style="stroke-dasharray: 722.608px; stroke-dashoffset: 0px;"></path><g stroke="#FFF" stroke-width="3" stroke-miterlimit="10" class="z-us3042_44"><path fill="none" d="M520.7 167.3l-20.5-17.6-13.2 17.6-7.2 23.2v20.2l11.3 21 34.5-17.8z" class="z-x7qr7l_44" style="stroke-dasharray: 203.036px; stroke-dashoffset: 0px;"></path><path fill="none" d="M487 167.3l34.8 10.4M479.8 190.5h44M479.8 210.7l45.8-6.4" class="z-btbns9_44" style="stroke-dasharray: 126.566px; stroke-dashoffset: 0px;"></path></g><path fill="none" stroke="#FFF" stroke-width="3" stroke-miterlimit="10" d="M489.4 304.6H126.1l-14.9-57.5c47.3 26 137.7 67.8 446 6.2M431.8 345.1c44.5 0 77.2-87 125.4-91.8M148.1 305.3s18.4 34.9 28.9 40" class="z-i3z41z_44" style="stroke-dasharray: 1086.38px; stroke-dashoffset: 0px;"></path><path fill="none" stroke="#FFF" stroke-width="3" stroke-miterlimit="10" d="M367.4 281.6V223H148.9v42.1" class="z-iutiij_44" style="stroke-dasharray: 319.2px; stroke-dashoffset: 0px;"></path><path fill="none" stroke="#FFF" stroke-width="3" stroke-miterlimit="10" d="M148.9 249.2h217.8l42.1 28.2M195.5 194.5v54M237.9 194.5v54M280.4 194.5v54M321.5 194.5v54" class="z-tntuub_44" style="stroke-dasharray: 484.472px; stroke-dashoffset: 0px;"></path><circle fill="none" stroke="#FFF" stroke-width="3" stroke-miterlimit="10" cx="172.2" cy="249.2" r="14.4" class="z-er1v3m_44" style="stroke-dasharray: 90.4779px; stroke-dashoffset: 0px;"></circle><circle fill="none" stroke="#FFF" stroke-width="3" stroke-miterlimit="10" cx="172.2" cy="249.2" r="8.1" class="z-eqimmx_44" style="stroke-dasharray: 50.8938px; stroke-dashoffset: 0px;"></circle><circle fill="none" stroke="#FFF" stroke-width="3" stroke-miterlimit="10" cx="344.5" cy="249.2" r="14.4" class="z-ldnuct_44" style="stroke-dasharray: 90.4779px; stroke-dashoffset: 0px;"></circle><circle fill="none" stroke="#FFF" stroke-width="3" stroke-miterlimit="10" cx="344.5" cy="249.2" r="8.1" class="z-93vesq_44" style="stroke-dasharray: 50.8938px; stroke-dashoffset: 0px;"></circle><path fill="none" stroke="#FFF" stroke-width="3" stroke-miterlimit="10" d="M367.8 222.8l69.2 51.4M381.1 232.3v26.4M396.2 244v25.7M410.6 254.6v22.6M148.1 186.1h209.7v9H148.1z" class="z-vtt0aw_44" style="stroke-dasharray: 598.301px; stroke-dashoffset: 0px;"></path><path fill="none" stroke="#FFF" stroke-width="3" stroke-linecap="round" stroke-miterlimit="10" d="M96.9 341.6c5 7.1 13.3 11.8 22.7 11.8s17.7-4.7 22.7-11.8M142.3 341.6c5 7.1 13.3 11.8 22.7 11.8 9.4 0 17.7-4.7 22.7-11.8M187.7 341.6c5 7.1 13.3 11.8 22.7 11.8s17.7-4.7 22.7-11.8M233.2 341.6c5 7.1 13.3 11.8 22.7 11.8s17.7-4.7 22.7-11.8M278.6 341.6c5 7.1 13.3 11.8 22.7 11.8 9.4 0 17.7-4.7 22.7-11.8M324.1 341.6c5 7.1 13.3 11.8 22.7 11.8s17.7-4.7 22.7-11.8M369.5 341.6c5 7.1 13.3 11.8 22.7 11.8 9.4 0 17.7-4.7 22.7-11.8M415 341.6c5 7.1 13.3 11.8 22.7 11.8 9.4 0 17.7-4.7 22.7-11.8M460.4 341.6c5 7.1 13.3 11.8 22.7 11.8 9.4 0 17.7-4.7 22.7-11.8M505.9 341.6c5 7.1 13.3 11.8 22.7 11.8s17.7-4.7 22.7-11.8" class="z-9pzys8_44" style="stroke-dasharray: 531.788px; stroke-dashoffset: 0px;"></path><g class="z-6dyafp_44"><path fill="none" stroke="#FFF" stroke-width="3" stroke-linecap="round" stroke-miterlimit="10" d="M299.5 431.6c5 7.1 13.3 11.8 22.7 11.8 9.4 0 17.7-4.7 22.7-11.8M345 431.6c5 7.1 13.3 11.8 22.7 11.8 9.4 0 17.7-4.7 22.7-11.8M390.4 431.6c5 7.1 13.3 11.8 22.7 11.8s17.7-4.7 22.7-11.8M435.9 431.6c5 7.1 13.3 11.8 22.7 11.8 9.4 0 17.7-4.7 22.7-11.8M481.3 431.6c5 7.1 13.3 11.8 22.7 11.8 9.4 0 17.7-4.7 22.7-11.8M526.7 431.6c5 7.1 13.3 11.8 22.7 11.8s17.7-4.7 22.7-11.8" class="z-vh7mzp_44" style="stroke-dasharray: 319.073px; stroke-dashoffset: 0px;"></path></g><g class="z-h8rxpn_44"><path fill="none" stroke="#FFF" stroke-width="3" stroke-linecap="round" stroke-miterlimit="10" d="M32.7 408.6c5 7.1 13.3 11.8 22.7 11.8s17.7-4.7 22.7-11.8M78.2 408.6c5 7.1 13.3 11.8 22.7 11.8s17.7-4.7 22.7-11.8" class="z-77ku5f_44" style="stroke-dasharray: 106.357px; stroke-dashoffset: 0px;"></path><path fill="none" stroke="#FFF" stroke-width="3" stroke-linecap="round" stroke-miterlimit="10" d="M123.6 408.6c5 7.1 13.3 11.8 22.7 11.8s17.7-4.7 22.7-11.8M169.1 408.6c5 7.1 13.3 11.8 22.7 11.8s17.7-4.7 22.7-11.8" class="z-vz1q1w_44" style="stroke-dasharray: 106.357px; stroke-dashoffset: 0px;"></path></g></svg>