<svg version="1.1" id="Layer_1" xmlns="http://www.w3.org/2000/svg" xmlns:xlink="http://www.w3.org/1999/xlink" x="0px" y="0px" width="1266px" height="592px" viewBox="0 0 1266 592" enable-background="new 0 0 1266 592" xml:space="preserve" data-id="47"><path fill="none" stroke="#FFFFFF" stroke-width="3" stroke-miterlimit="10" d="M321.4,588.8c0,0.8,0,1.6,0,2.4h59.4	c0-0.8,0-1.6,0-2.4" class="z-pyozqd_47" style="stroke-dasharray: 64.2px; stroke-dashoffset: 0px;"></path><path fill="none" stroke="#FFFFFF" stroke-width="3" stroke-miterlimit="10" d="M596,183.6c33.8-22.8,70.5-41.6,109.6-55.5	c-11.3-25.4-21.8-51.2-31.5-77.5c-38.3,16.7-74.5,37.3-108,61.4" class="z-uw58wc_47" style="stroke-dasharray: 331.316px; stroke-dashoffset: 0px;"></path><path fill="none" stroke="#FFFFFF" stroke-width="3" stroke-miterlimit="10" d="M380.8,588.8c0,0.8,0,1.6,0,2.4h38.4	c0-0.8,0-1.6,0-2.4" class="z-ql4o1c_47" style="stroke-dasharray: 43.2px; stroke-dashoffset: 0px;"></path><path fill="none" stroke="#FFFFFF" stroke-width="3" stroke-miterlimit="10" d="M605.7,204.5c32.2-25.4,67.7-46.8,105.8-63.5	c34-15,70.1-26.2,107.7-33.1c-0.8-1.7-1.7-3.5-2.5-5.2c-38.5,4.2-75.7,12.8-111.1,25.4c-39.1,13.9-75.8,32.6-109.6,55.5	C506.7,244,438.5,333.2,404.5,437.8" class="z-5vg1xs_47" style="stroke-dasharray: 803.968px; stroke-dashoffset: 0px;"></path><path fill="none" stroke="#FFFFFF" stroke-width="3" stroke-miterlimit="10" d="M419.2,588.8c0,0.8,0,1.6,0,2.4h43.1	c0-0.8,0-1.6,0-2.4" class="z-345in1_47" style="stroke-dasharray: 47.9001px; stroke-dashoffset: 0px;"></path><path fill="none" stroke="#FFFFFF" stroke-width="3" stroke-miterlimit="10" d="M632.3,257.7c33.1-23.8,69.9-42.7,109.3-55.7	c36.7-12.1,75.6-19.2,116.1-20.4c-13.7-24-26.6-48.5-38.5-73.6c-37.6,6.9-73.6,18.1-107.7,33.1c-38,16.7-73.5,38.1-105.8,63.5	c-79.2,62.4-138.6,148.7-167.4,248.1" class="z-e2jx45_47" style="stroke-dasharray: 865.333px; stroke-dashoffset: 0px;"></path><path fill="none" stroke="#FFFFFF" stroke-width="3" stroke-miterlimit="10" d="M462.3,588.8c0,0.8,0,1.6,0,2.4h38.4	c0-0.8,0-1.6,0-2.4" class="z-xgs3sb_47" style="stroke-dasharray: 43.2px; stroke-dashoffset: 0px;"></path><path fill="none" stroke="#FFFFFF" stroke-width="3" stroke-miterlimit="10" d="M643.7,278.8c31.1-26.6,66.2-48.5,104.4-64.8	c34.8-14.9,72.2-25.1,111.2-29.7c-0.5-0.9-1-1.8-1.6-2.7c-40.5,1.2-79.4,8.2-116.1,20.4c-39.5,13.1-76.2,32-109.3,55.7	C566.1,305.2,514.8,372.1,486.5,450" class="z-2a8l4p_47" style="stroke-dasharray: 728.398px; stroke-dashoffset: 0px;"></path><path fill="none" stroke="#FFFFFF" stroke-width="3" stroke-miterlimit="10" d="M988,198.8c-31.6-9.6-64.8-15.4-99.1-17	c-10,0.5-19.9,1.3-29.6,2.5c-39,4.7-76.3,14.8-111.2,29.7c-38.1,16.3-73.3,38.3-104.4,64.8c-58,49.5-101.9,115-125,189.7" class="z-8w8f1o_47" style="stroke-dasharray: 599.568px; stroke-dashoffset: 0px;"></path><path fill="none" stroke="#FFFFFF" stroke-width="3" stroke-miterlimit="10" d="M500.6,588.8c0,0.8,0,1.6,0,2.4h380h185.1h78.4	v-80.3V378.6c-30.3-27.5-58.9-56.9-85.6-87.9" class="z-56ol37_47" style="stroke-dasharray: 981.271px; stroke-dashoffset: 0px;"></path><g class="z-uu9w9r_47">	<path fill="none" stroke="#FFFFFF" stroke-width="3" stroke-linejoin="bevel" stroke-miterlimit="10" d="M283,588.8		c0,0.8,0,1.6,0,2.4h38.4c0-0.8,0-1.6,0-2.4" class="z-ynwlpf_47" style="stroke-dasharray: 43.2px; stroke-dashoffset: 0px;"></path>	<path fill="none" stroke="#FFFFFF" stroke-width="3" stroke-linejoin="bevel" stroke-miterlimit="10" d="M337,453.6		C370,313.8,453,193.3,566.2,112c33.5-24.1,69.7-44.7,108-61.4h-38.3c-26.9,11.7-52.8,25.4-77.4,40.8" class="z-wcrn4s_47" style="stroke-dasharray: 670.627px; stroke-dashoffset: 0px;"></path></g><g class="z-4kdwix_47">	<path fill="none" stroke="#FFFFFF" stroke-width="3" stroke-linejoin="bevel" stroke-miterlimit="10" d="M159,592.5h34" class="z-ve19mh_47" style="stroke-dasharray: 34px; stroke-dashoffset: 0px;"></path>	<path fill="none" stroke="#FFFFFF" stroke-width="3" stroke-linejoin="bevel" stroke-miterlimit="10" d="M380.4,124.4" class="z-wy4g08_47" style="stroke-dasharray: 0px; stroke-dashoffset: 0px;"></path>	<path fill="none" stroke="#FFFFFF" stroke-width="3" stroke-linejoin="bevel" stroke-miterlimit="10" d="M193,592.5h90		c0-2-0.1-2.3-0.1-3.1" class="z-2cfpnh_47" style="stroke-dasharray: 93.1023px; stroke-dashoffset: 0px;"></path>	<path fill="none" stroke="#FFFFFF" stroke-width="3" stroke-linejoin="bevel" stroke-miterlimit="10" d="M299.6,450.4		c36.6-150.7,131.2-278.9,258.9-359c13.7-8.6,27.8-16.6,42.2-24L555,3.9c-64.2,30.8-123,71.8-174.5,119.8		C294.9,215.5,233.8,330.1,207.5,458" class="z-d4iofb_47" style="stroke-dasharray: 1174.23px; stroke-dashoffset: 0px;"></path></g><g class="z-mopulr_47">	<path fill="none" stroke="#FFFFFF" stroke-width="3" stroke-linejoin="bevel" stroke-miterlimit="10" d="M23,592.5h136" class="z-hgvjjo_47" style="stroke-dasharray: 136px; stroke-dashoffset: 0px;"></path>	<path fill="none" stroke="#FFFFFF" stroke-width="3" stroke-linejoin="bevel" stroke-miterlimit="10" d="M377.8,126.7		c0.8-0.9,1.7-2.1,2.6-3c11-10.2,22.3-19.6,34-29.1" class="z-ejive8_47" style="stroke-dasharray: 48.7322px; stroke-dashoffset: 0px;"></path>	<path fill="none" stroke="#FFFFFF" stroke-width="3" stroke-linejoin="bevel" stroke-miterlimit="10" d="M159.3,592.5		C159.3,592.5,159.3,592.5,159.3,592.5h33.9H283h0H159.3z" class="z-b9xkf6_47" style="stroke-dasharray: 247.4px; stroke-dashoffset: 0px;"></path></g><g class="z-x24xmn_47">	<path fill="none" stroke="#FFFFFF" stroke-width="3" stroke-linejoin="bevel" stroke-miterlimit="10" d="M53,592.5h106" class="z-2xdqdj_47" style="stroke-dasharray: 106px; stroke-dashoffset: 0px;"></path>	<path fill="none" stroke="#FFFFFF" stroke-width="3" stroke-linejoin="bevel" stroke-miterlimit="10" d="M181,456.8		c33.9-128.4,103.3-241.9,196.9-330c0.8-0.9,1.7-2.1,2.5-3c15.1-14,30.8-26.9,47-39.6C279,167.2,161.1,297.6,94.9,456.4" class="z-zpsq37_47" style="stroke-dasharray: 963.116px; stroke-dashoffset: 0px;"></path>	<path fill="none" stroke="#FFFFFF" stroke-width="3" stroke-linejoin="bevel" stroke-miterlimit="10" d="M159.3,592.5		C159.3,592.5,159.3,592.5,159.3,592.5h33.9H283h0H159.3z" class="z-jf4eej_47" style="stroke-dasharray: 247.4px; stroke-dashoffset: 0px;"></path></g><g class="z-ws2pvg_47">			<line fill="none" stroke="#FFFFFF" stroke-width="3" stroke-linejoin="bevel" stroke-miterlimit="10" x1="674.2" y1="315.8" x2="674.2" y2="405.7" class="z-wtdh5m_47" style="stroke-dasharray: 89.9px; stroke-dashoffset: 0px;"></line>			<line fill="none" stroke="#FFFFFF" stroke-width="3" stroke-linejoin="bevel" stroke-miterlimit="10" x1="703.7" y1="315.8" x2="703.7" y2="405.7" class="z-2cpe12_47" style="stroke-dasharray: 89.9px; stroke-dashoffset: 0px;"></line>			<line fill="none" stroke="#FFFFFF" stroke-width="3" stroke-linejoin="bevel" stroke-miterlimit="10" x1="733.2" y1="315.8" x2="733.2" y2="405.7" class="z-hsvhag_47" style="stroke-dasharray: 89.9px; stroke-dashoffset: 0px;"></line>			<line fill="none" stroke="#FFFFFF" stroke-width="3" stroke-linejoin="bevel" stroke-miterlimit="10" x1="762.7" y1="315.8" x2="762.7" y2="405.7" class="z-3huig4_47" style="stroke-dasharray: 89.9px; stroke-dashoffset: 0px;"></line>			<line fill="none" stroke="#FFFFFF" stroke-width="3" stroke-linejoin="bevel" stroke-miterlimit="10" x1="792.2" y1="315.8" x2="792.2" y2="405.7" class="z-wvyaq9_47" style="stroke-dasharray: 89.9px; stroke-dashoffset: 0px;"></line></g><g class="z-ijyfns_47">			<line fill="none" stroke="#FFFFFF" stroke-width="3" stroke-linejoin="bevel" stroke-miterlimit="10" x1="940.5" y1="315.8" x2="940.5" y2="405.7" class="z-1rbx1w_47" style="stroke-dasharray: 89.9px; stroke-dashoffset: 0px;"></line>			<line fill="none" stroke="#FFFFFF" stroke-width="3" stroke-linejoin="bevel" stroke-miterlimit="10" x1="970.1" y1="315.8" x2="970.1" y2="405.7" class="z-ki3vjb_47" style="stroke-dasharray: 89.9px; stroke-dashoffset: 0px;"></line>			<line fill="none" stroke="#FFFFFF" stroke-width="3" stroke-linejoin="bevel" stroke-miterlimit="10" x1="999.6" y1="315.8" x2="999.6" y2="405.7" class="z-zr63ki_47" style="stroke-dasharray: 89.9px; stroke-dashoffset: 0px;"></line>			<line fill="none" stroke="#FFFFFF" stroke-width="3" stroke-linejoin="bevel" stroke-miterlimit="10" x1="1029.1" y1="315.8" x2="1029.1" y2="405.7" class="z-fc4yvl_47" style="stroke-dasharray: 89.9px; stroke-dashoffset: 0px;"></line>			<line fill="none" stroke="#FFFFFF" stroke-width="3" stroke-linejoin="bevel" stroke-miterlimit="10" x1="1058.6" y1="315.8" x2="1058.6" y2="405.7" class="z-jiu6s1_47" style="stroke-dasharray: 89.9px; stroke-dashoffset: 0px;"></line></g><polygon fill="none" stroke="#FFFFFF" stroke-width="3" stroke-linejoin="bevel" stroke-miterlimit="10" points="1232.8,452.5 	1144.2,393.5 1144.2,591.1 1218,591.1 " class="z-uymz58_47" style="stroke-dasharray: 517.235px; stroke-dashoffset: 0px;"></polygon><g class="z-xry3wy_47">			<line fill="none" stroke="#FFFFFF" stroke-width="3" stroke-linejoin="bevel" stroke-miterlimit="10" x1="1218" y1="591.1" x2="1232.8" y2="452.5" class="z-5964bl_47" style="stroke-dasharray: 139.388px; stroke-dashoffset: 0px;"></line>			<line fill="none" stroke="#FFFFFF" stroke-width="3" stroke-linejoin="bevel" stroke-miterlimit="10" x1="1193.4" y1="591.1" x2="1203.3" y2="432.8" class="z-iulg6r_47" style="stroke-dasharray: 158.609px; stroke-dashoffset: 0px;"></line>			<line fill="none" stroke="#FFFFFF" stroke-width="3" stroke-linejoin="bevel" stroke-miterlimit="10" x1="1168.8" y1="591.1" x2="1173.8" y2="413.1" class="z-erjq4y_47" style="stroke-dasharray: 178.07px; stroke-dashoffset: 0px;"></line>			<line fill="none" stroke="#FFFFFF" stroke-width="3" stroke-linejoin="bevel" stroke-miterlimit="10" x1="1144.2" y1="591.1" x2="1144.2" y2="393.5" class="z-8ml3yh_47" style="stroke-dasharray: 197.6px; stroke-dashoffset: 0px;"></line></g><g class="z-3sx52p_47">			<line fill="none" stroke="#FFFFFF" stroke-width="3" stroke-linejoin="bevel" stroke-miterlimit="10" x1="1144.2" y1="393.5" x2="1232.8" y2="452.5" class="z-wdamia_47" style="stroke-dasharray: 106.447px; stroke-dashoffset: 0px;"></line>			<line fill="none" stroke="#FFFFFF" stroke-width="3" stroke-linejoin="bevel" stroke-miterlimit="10" x1="1229.1" y1="487.2" x2="1144.2" y2="442.9" class="z-280rrc_47" style="stroke-dasharray: 95.7627px; stroke-dashoffset: 0px;"></line>			<line fill="none" stroke="#FFFFFF" stroke-width="3" stroke-linejoin="bevel" stroke-miterlimit="10" x1="1225.4" y1="521.8" x2="1144.2" y2="492.3" class="z-xcyjvp_47" style="stroke-dasharray: 86.3927px; stroke-dashoffset: 0px;"></line>			<line fill="none" stroke="#FFFFFF" stroke-width="3" stroke-linejoin="bevel" stroke-miterlimit="10" x1="1221.7" y1="556.5" x2="1144.2" y2="541.7" class="z-uo8abu_47" style="stroke-dasharray: 78.9005px; stroke-dashoffset: 0px;"></line>			<line fill="none" stroke="#FFFFFF" stroke-width="3" stroke-linejoin="bevel" stroke-miterlimit="10" x1="1218" y1="591.1" x2="1144.2" y2="591.1" class="z-uvt1ce_47" style="stroke-dasharray: 73.8px; stroke-dashoffset: 0px;"></line></g><path fill="none" stroke="#FFFFFF" stroke-width="3" stroke-miterlimit="10" d="M500.6,588.8c0-124.1,55.5-235.2,143-310" class="z-n93wr5_47" style="stroke-dasharray: 352.291px; stroke-dashoffset: 0px;"></path><path fill="none" stroke="#FFFFFF" stroke-width="3" stroke-miterlimit="10" d="M518.7,468.5c-11.7,38-18,78.4-18,120.3" class="z-ws7po6_47" style="stroke-dasharray: 122.094px; stroke-dashoffset: 0px;"></path><path fill="none" stroke="#FFFFFF" stroke-width="3" stroke-miterlimit="10" d="M462.3,588.8c0-136.4,67.1-257.2,170-331.1" class="z-h1uxxq_47" style="stroke-dasharray: 386.555px; stroke-dashoffset: 0px;"></path><path fill="none" stroke="#FFFFFF" stroke-width="3" stroke-miterlimit="10" d="M486.5,450c-15.7,43.3-24.2,90-24.2,138.8" class="z-br6r4z_47" style="stroke-dasharray: 141.609px; stroke-dashoffset: 0px;"></path><path fill="none" stroke="#FFFFFF" stroke-width="3" stroke-miterlimit="10" d="M419.2,588.8c0-155.9,72.9-294.7,186.6-384.2" class="z-0osi9w_47" style="stroke-dasharray: 442.086px; stroke-dashoffset: 0px;"></path><path fill="none" stroke="#FFFFFF" stroke-width="3" stroke-miterlimit="10" d="M438.4,452.6c-12.5,43.2-19.2,88.9-19.2,136.1" class="z-s1dy5v_47" style="stroke-dasharray: 137.904px; stroke-dashoffset: 0px;"></path><path fill="none" stroke="#FFFFFF" stroke-width="3" stroke-miterlimit="10" d="M380.8,588.8c0-168.6,85.4-317.3,215.2-405.2" class="z-7q0uzj_47" style="stroke-dasharray: 477.576px; stroke-dashoffset: 0px;"></path><path fill="none" stroke="#FFFFFF" stroke-width="3" stroke-miterlimit="10" d="M404.5,437.8c-15.4,47.6-23.8,98.3-23.8,151" class="z-sg2tkk_47" style="stroke-dasharray: 153.492px; stroke-dashoffset: 0px;"></path><path fill="none" stroke="#FFFFFF" stroke-width="3" stroke-miterlimit="10" d="M566.2,112C417.9,218.5,321.4,392.3,321.4,588.8" class="z-pg4ckq_47" style="stroke-dasharray: 556.674px; stroke-dashoffset: 0px;"></path><path fill="none" stroke="#FFFFFF" stroke-width="3" stroke-linejoin="bevel" stroke-miterlimit="10" d="M321.4,588.8	c0-46.5,5.4-91.8,15.7-135.2" class="z-dszs3b_47" style="stroke-dasharray: 136.417px; stroke-dashoffset: 0px;"></path><path fill="none" stroke="#FFFFFF" stroke-width="3" stroke-linejoin="bevel" stroke-miterlimit="10" d="M558.4,91.4	C393,195.2,283,379.1,283,588.8" class="z-nmg77r_47" style="stroke-dasharray: 593.561px; stroke-dashoffset: 0px;"></path><path fill="none" stroke="#FFFFFF" stroke-width="3" stroke-linejoin="bevel" stroke-miterlimit="10" d="M283,589.4	c0-47.9,5.7-94.4,16.6-139" class="z-7ab20i_47" style="stroke-dasharray: 140.324px; stroke-dashoffset: 0px;"></path><path fill="none" stroke="#FFFFFF" stroke-width="3" stroke-linejoin="bevel" stroke-miterlimit="10" d="M193.2,592.5	c2-182,72.7-345.2,187.3-468.1" class="z-wc8i33_47" style="stroke-dasharray: 515.979px; stroke-dashoffset: 0px;"></path><path fill="none" stroke="#FFFFFF" stroke-width="3" stroke-linejoin="bevel" stroke-miterlimit="10" d="M207.5,458	c-8.9,43.4-13.8,88.3-14.3,134.5" class="z-8wy5q0_47" style="stroke-dasharray: 135.465px; stroke-dashoffset: 0px;"></path><path fill="none" stroke="#FFFFFF" stroke-width="3" stroke-linejoin="bevel" stroke-miterlimit="10" d="M380.4,124.4	C253.3,242.8,170.5,406.5,159.3,592.5" class="z-p8lj08_47" style="stroke-dasharray: 530.514px; stroke-dashoffset: 0px;"></path><path fill="none" stroke="#FFFFFF" stroke-width="3" stroke-linejoin="bevel" stroke-miterlimit="10" d="M159.3,592.5	c11.3-184,93.1-347.7,218.7-465.8" class="z-jej5va_47" style="stroke-dasharray: 527.081px; stroke-dashoffset: 0px;"></path><path fill="none" stroke="#FFFFFF" stroke-width="3" stroke-linejoin="bevel" stroke-miterlimit="10" d="M159.3,592.5	c2.9-46.7,10.3-92.1,21.8-135.7" class="z-a4aned_47" style="stroke-dasharray: 137.66px; stroke-dashoffset: 0px;"></path><path fill="none" stroke="#FFFFFF" stroke-width="3" stroke-linejoin="bevel" stroke-miterlimit="10" d="M94.9,456.4	c-18.1,43.4-32.3,88.9-42.2,136.1" class="z-7ep419_47" style="stroke-dasharray: 142.703px; stroke-dashoffset: 0px;"></path><path fill="none" stroke="#FFFFFF" stroke-width="3" stroke-linejoin="bevel" stroke-miterlimit="10" d="M414.3,94.6	C216.9,189.5,69.7,371.5,23.2,592.5" class="z-8tmvra_47" style="stroke-dasharray: 655.788px; stroke-dashoffset: 0px;"></path><path fill="none" stroke="#FFFFFF" stroke-width="3" stroke-miterlimit="10" d="M1058.6,290.7c-25.2-29.2-48.8-59.9-70.6-91.9" class="z-nhgn66_47" style="stroke-dasharray: 115.951px; stroke-dashoffset: 0px;"></path></svg>