<svg version="1.1" id="Layer_1" xmlns="http://www.w3.org/2000/svg" xmlns:xlink="http://www.w3.org/1999/xlink" x="0px" y="0px" width="708px" height="616px" viewBox="0 0 708 616" enable-background="new 0 0 708 616" xml:space="preserve" data-id="1"><path fill="none" stroke="#FFFFFF" stroke-width="3" stroke-miterlimit="10" d="M348.1,135L348.1,135c-51.5,0-93.3,41.8-93.3,93.3	v13.5h186.6v-13.5C441.4,176.7,399.6,135,348.1,135z" class="z-7vie9j_1" style="stroke-dasharray: 506.749px; stroke-dashoffset: 0px;"></path><polyline fill="none" stroke="#FFFFFF" stroke-width="3" stroke-miterlimit="10" points="338.8,135 338.8,128.4 357.4,128.4 	357.4,135 " class="z-imtra9_1"></polyline><path fill="none" stroke="#FFFFFF" stroke-width="3" stroke-miterlimit="10" d="M361.6,123.2v-5.8c0-7.5-13.5-13.5-13.5-13.5	s-13.5,6-13.5,13.5v5.8h-3.7v5.2h3.7h27h3.7v-5.2H361.6z" class="z-19e6al_1" style="stroke-dasharray: 103.704px; stroke-dashoffset: 0px;"></path><path fill="none" stroke="#FFFFFF" stroke-width="3" stroke-miterlimit="10" d="M218.7,337.2v-49.1c0-11.3,9.2-20.5,20.5-20.5	c11.3,0,20.5,9.2,20.5,20.5v49.1H218.7z" class="z-u52oyd_1" style="stroke-dasharray: 203.593px; stroke-dashoffset: 0px;"></path><path fill="none" stroke="#FFFFFF" stroke-width="3" stroke-miterlimit="10" d="M436.6,337.2v-49.1c0-11.3,9.2-20.5,20.5-20.5	c11.3,0,20.5,9.2,20.5,20.5v49.1H436.6z" class="z-j97ir0_1" style="stroke-dasharray: 203.593px; stroke-dashoffset: 0px;"></path><rect x="225" y="369.9" fill="none" stroke="#FFFFFF" stroke-width="3" stroke-miterlimit="10" width="246.1" height="246.1" class="z-j48b6c_1" style="stroke-dasharray: 984.4px; stroke-dashoffset: 0px;"></rect><path fill="none" stroke="#FFFFFF" stroke-width="3" stroke-miterlimit="10" d="M348.1,472.1L348.1,472.1	c-51.5,0-93.3,41.8-93.3,93.3V616h186.6v-50.6C441.4,513.9,399.6,472.1,348.1,472.1z" class="z-7gvkvc_1" style="stroke-dasharray: 580.928px; stroke-dashoffset: 0px;"></path><path fill="none" stroke="#FFFFFF" stroke-width="3" stroke-miterlimit="10" d="M269.4,616v-50.6c0-43.4,35.3-78.7,78.7-78.7	s78.7,35.3,78.7,78.7V616H269.4z" class="z-kkcvts_1" style="stroke-dasharray: 505.822px; stroke-dashoffset: 0px;"></path><rect x="269.4" y="565.2" fill="none" stroke="#FFFFFF" stroke-width="3" stroke-miterlimit="10" width="157.4" height="14.6" class="z-y5933l_1" style="stroke-dasharray: 344px; stroke-dashoffset: 0px;"></rect><line fill="none" stroke="#FFFFFF" stroke-width="3" stroke-miterlimit="10" x1="291.9" y1="565.4" x2="291.9" y2="510.4" class="z-iaiwyn_1" style="stroke-dasharray: 55px; stroke-dashoffset: 0px;"></line><line fill="none" stroke="#FFFFFF" stroke-width="3" stroke-miterlimit="10" x1="314.4" y1="565.4" x2="314.4" y2="494.8" class="z-n509lg_1" style="stroke-dasharray: 70.6px; stroke-dashoffset: 0px;"></line><line fill="none" stroke="#FFFFFF" stroke-width="3" stroke-miterlimit="10" x1="336.9" y1="565.4" x2="336.9" y2="487.3" class="z-txkfi0_1" style="stroke-dasharray: 78.1px; stroke-dashoffset: 0px;"></line><line fill="none" stroke="#FFFFFF" stroke-width="3" stroke-miterlimit="10" x1="359.3" y1="565.4" x2="359.3" y2="487.3" class="z-ejra0c_1" style="stroke-dasharray: 78.1px; stroke-dashoffset: 0px;"></line><line fill="none" stroke="#FFFFFF" stroke-width="3" stroke-miterlimit="10" x1="381.8" y1="565.4" x2="381.8" y2="494.8" class="z-6dbi4k_1" style="stroke-dasharray: 70.6px; stroke-dashoffset: 0px;"></line><line fill="none" stroke="#FFFFFF" stroke-width="3" stroke-miterlimit="10" x1="404.3" y1="565.4" x2="404.3" y2="510.4" class="z-7suxu6_1" style="stroke-dasharray: 55px; stroke-dashoffset: 0px;"></line><line fill="none" stroke="#FFFFFF" stroke-width="3" stroke-miterlimit="10" x1="441.4" y1="616" x2="441.4" y2="369.9" class="z-5t3joo_1" style="stroke-dasharray: 246.1px; stroke-dashoffset: 0px;"></line><line fill="none" stroke="#FFFFFF" stroke-width="3" stroke-miterlimit="10" x1="254.8" y1="616" x2="254.8" y2="369.9" class="z-ihurf6_1" style="stroke-dasharray: 246.1px; stroke-dashoffset: 0px;"></line><g class="z-esjjl3_1">	<rect x="264.8" y="380.3" fill="none" stroke="#FFFFFF" stroke-width="3" stroke-miterlimit="10" width="14.6" height="42.2" class="z-tsf3i6_1" style="stroke-dasharray: 113.6px; stroke-dashoffset: 0px;"></rect>	<rect x="298.7" y="380.3" fill="none" stroke="#FFFFFF" stroke-width="3" stroke-miterlimit="10" width="14.6" height="42.2" class="z-39l8l5_1" style="stroke-dasharray: 113.6px; stroke-dashoffset: 0px;"></rect>	<rect x="279.3" y="387.9" fill="none" stroke="#FFFFFF" stroke-width="3" stroke-miterlimit="10" width="19.4" height="27" class="z-s46sy4_1" style="stroke-dasharray: 92.8px; stroke-dashoffset: 0px;"></rect>	<line fill="none" stroke="#FFFFFF" stroke-width="3" stroke-miterlimit="10" x1="289" y1="387.9" x2="289" y2="414.9" class="z-ptkq9n_1" style="stroke-dasharray: 27px; stroke-dashoffset: 0px;"></line></g><g class="z-lxqrdh_1">	<rect x="323.7" y="380.3" fill="none" stroke="#FFFFFF" stroke-width="3" stroke-miterlimit="10" width="14.6" height="42.2" class="z-j3hj1x_1" style="stroke-dasharray: 113.6px; stroke-dashoffset: 0px;"></rect>	<rect x="357.7" y="380.3" fill="none" stroke="#FFFFFF" stroke-width="3" stroke-miterlimit="10" width="14.6" height="42.2" class="z-qkkidc_1" style="stroke-dasharray: 113.6px; stroke-dashoffset: 0px;"></rect>	<rect x="338.3" y="387.9" fill="none" stroke="#FFFFFF" stroke-width="3" stroke-miterlimit="10" width="19.4" height="27" class="z-edrtbd_1" style="stroke-dasharray: 92.8px; stroke-dashoffset: 0px;"></rect>	<line fill="none" stroke="#FFFFFF" stroke-width="3" stroke-miterlimit="10" x1="348" y1="387.9" x2="348" y2="414.9" class="z-7cjih3_1" style="stroke-dasharray: 27px; stroke-dashoffset: 0px;"></line></g><g class="z-8ewqur_1">	<rect x="382.9" y="380.3" fill="none" stroke="#FFFFFF" stroke-width="3" stroke-miterlimit="10" width="14.6" height="42.2" class="z-tjsaqm_1" style="stroke-dasharray: 113.6px; stroke-dashoffset: 0px;"></rect>	<rect x="416.9" y="380.3" fill="none" stroke="#FFFFFF" stroke-width="3" stroke-miterlimit="10" width="14.6" height="42.2" class="z-rthlqm_1" style="stroke-dasharray: 113.6px; stroke-dashoffset: 0px;"></rect>	<rect x="397.5" y="387.9" fill="none" stroke="#FFFFFF" stroke-width="3" stroke-miterlimit="10" width="19.4" height="27" class="z-261c36_1" style="stroke-dasharray: 92.8px; stroke-dashoffset: 0px;"></rect>	<line fill="none" stroke="#FFFFFF" stroke-width="3" stroke-miterlimit="10" x1="407.2" y1="387.9" x2="407.2" y2="414.9" class="z-n0tnli_1" style="stroke-dasharray: 27px; stroke-dashoffset: 0px;"></line></g><circle fill="none" stroke="#FFFFFF" stroke-width="3" stroke-miterlimit="10" cx="348" cy="336.4" r="22.9" class="z-ogkl5o_1" style="stroke-dasharray: 143.885px; stroke-dashoffset: 0px;"></circle><circle fill="none" stroke="#FFFFFF" stroke-width="3" stroke-miterlimit="10" cx="348" cy="336.4" r="13.5" class="z-kaq4n9_1" style="stroke-dasharray: 84.823px; stroke-dashoffset: 0px;"></circle><path fill="none" stroke="#FFFFFF" stroke-width="3" stroke-miterlimit="10" d="M245.4,310.5v-0.7c0-3.5-2.8-6.3-6.3-6.3	c-3.5,0-6.3,2.8-6.3,6.3v0.7h-5.4v26.7h23.3v-26.7H245.4z" class="z-lmqvn7_1" style="stroke-dasharray: 108.613px; stroke-dashoffset: 0px;"></path><path fill="none" stroke="#FFFFFF" stroke-width="3" stroke-miterlimit="10" d="M463.3,310.5v-0.7c0-3.5-2.8-6.3-6.3-6.3	c-3.5,0-6.3,2.8-6.3,6.3v0.7h-5.4v26.7h23.3v-26.7H463.3z" class="z-8mdfx8_1" style="stroke-dasharray: 108.613px; stroke-dashoffset: 0px;"></path><path fill="none" stroke="#FFFFFF" stroke-width="3" stroke-miterlimit="10" d="M457.1,267.7" class="z-ujjmxn_1" style="stroke-dasharray: 0px; stroke-dashoffset: 0px;"></path><path fill="none" stroke="#FFFFFF" stroke-width="3" stroke-miterlimit="10" d="M239.2,267.7" class="z-7k28uf_1" style="stroke-dasharray: 0px; stroke-dashoffset: 0px;"></path><line fill="none" stroke="#FFFFFF" stroke-width="3" stroke-miterlimit="10" x1="289" y1="241.8" x2="289" y2="313.5" class="z-qn4d8l_1" style="stroke-dasharray: 71.7px; stroke-dashoffset: 0px;"></line><line fill="none" stroke="#FFFFFF" stroke-width="3" stroke-miterlimit="10" x1="407.2" y1="241.8" x2="407.2" y2="313.5" class="z-3ca0xs_1" style="stroke-dasharray: 71.7px; stroke-dashoffset: 0px;"></line><path fill="none" stroke="#FFFFFF" stroke-width="3" stroke-miterlimit="10" d="M348.1,135L348.1,135c-51.5,0-93.3,41.8-93.3,93.3	v13.5h186.6v-13.5C441.4,176.7,399.6,135,348.1,135z" class="z-y1bpyn_1" style="stroke-dasharray: 506.749px; stroke-dashoffset: 0px;"></path><path fill="none" stroke="#FFFFFF" stroke-width="3" stroke-miterlimit="10" d="M477.5,369.9" class="z-znu8fz_1" style="stroke-dasharray: 0px; stroke-dashoffset: 0px;"></path><path fill="none" stroke="#FFFFFF" stroke-width="3" stroke-miterlimit="10" d="M477.5,349.9" class="z-q20duy_1" style="stroke-dasharray: 0px; stroke-dashoffset: 0px;"></path><g class="z-nspz2v_1">	<g class="z-6d9lkn_1">		<rect x="493.3" y="544.1" fill="none" stroke="#FFFFFF" stroke-width="3" stroke-miterlimit="10" width="14.6" height="42.2" class="z-ojo6x6_1" style="stroke-dasharray: 113.6px; stroke-dashoffset: 0px;"></rect>		<rect x="527.3" y="544.1" fill="none" stroke="#FFFFFF" stroke-width="3" stroke-miterlimit="10" width="14.6" height="42.2" class="z-7u9a4h_1" style="stroke-dasharray: 113.6px; stroke-dashoffset: 0px;"></rect>		<rect x="507.9" y="551.7" fill="none" stroke="#FFFFFF" stroke-width="3" stroke-miterlimit="10" width="19.4" height="27" class="z-r7i9uc_1" style="stroke-dasharray: 92.8px; stroke-dashoffset: 0px;"></rect>		<line fill="none" stroke="#FFFFFF" stroke-width="3" stroke-miterlimit="10" x1="517.6" y1="551.7" x2="517.6" y2="578.7" class="z-lu84j8_1" style="stroke-dasharray: 27px; stroke-dashoffset: 0px;"></line>	</g>	<rect x="471.2" y="369.9" fill="none" stroke="#FFFFFF" stroke-width="3" stroke-miterlimit="10" width="92.9" height="32.7" class="z-367r7m_1" style="stroke-dasharray: 251.2px; stroke-dashoffset: 0px;"></rect>	<rect x="471.2" y="402.5" fill="none" stroke="#FFFFFF" stroke-width="3" stroke-miterlimit="10" width="92.9" height="213.5" class="z-vv3l19_1" style="stroke-dasharray: 612.8px; stroke-dashoffset: 0px;"></rect>	<g class="z-t4ievv_1">		<path fill="none" stroke="#FFFFFF" stroke-width="3" stroke-miterlimit="10" d="M480.9,450.9L480.9,450.9			c0-20.3,16.5-36.7,36.7-36.7c20.3,0,36.7,16.5,36.7,36.7v0H480.9z" class="z-i1wp4i_1" style="stroke-dasharray: 188.696px; stroke-dashoffset: 0px;"></path>		<path fill="none" stroke="#FFFFFF" stroke-width="3" stroke-miterlimit="10" d="M517.6,422.5c-15.7,0-28.4,12.7-28.4,28.4H546			C546,435.2,533.3,422.5,517.6,422.5z" class="z-1zj108_1" style="stroke-dasharray: 146.047px; stroke-dashoffset: 0px;"></path>	</g>	<rect x="489.2" y="463.6" fill="none" stroke="#FFFFFF" stroke-width="3" stroke-miterlimit="10" width="56.8" height="57.4" class="z-xk7g59_1" style="stroke-dasharray: 228.4px; stroke-dashoffset: 0px;"></rect>	<line fill="none" stroke="#FFFFFF" stroke-width="3" stroke-miterlimit="10" x1="528.5" y1="463.6" x2="528.5" y2="521" class="z-qxqqko_1" style="stroke-dasharray: 57.4px; stroke-dashoffset: 0px;"></line>	<line fill="none" stroke="#FFFFFF" stroke-width="3" stroke-miterlimit="10" x1="506.7" y1="463.6" x2="506.7" y2="521" class="z-lgynf2_1" style="stroke-dasharray: 57.4px; stroke-dashoffset: 0px;"></line>	<rect x="546" y="330.3" fill="none" stroke="#FFFFFF" stroke-width="3" stroke-miterlimit="10" width="18" height="39.6" class="z-p0stn6_1" style="stroke-dasharray: 115.2px; stroke-dashoffset: 0px;"></rect>	<line fill="none" stroke="#FFFFFF" stroke-width="3" stroke-miterlimit="10" x1="546" y1="349.9" x2="477.5" y2="349.9" class="z-izbact_1" style="stroke-dasharray: 68.5px; stroke-dashoffset: 0px;"></line>	<line fill="none" stroke="#FFFFFF" stroke-width="3" stroke-miterlimit="10" x1="487.9" y1="349.9" x2="487.9" y2="369.9" class="z-1hc47m_1" style="stroke-dasharray: 20px; stroke-dashoffset: 0px;"></line>	<path fill="none" stroke="#FFFFFF" stroke-width="3" stroke-miterlimit="10" d="M498.3,369.9" class="z-b9v5fq_1" style="stroke-dasharray: 0px; stroke-dashoffset: 0px;"></path>	<path fill="none" stroke="#FFFFFF" stroke-width="3" stroke-miterlimit="10" d="M498.3,349.9" class="z-dfqm3k_1" style="stroke-dasharray: 0px; stroke-dashoffset: 0px;"></path>	<line fill="none" stroke="#FFFFFF" stroke-width="3" stroke-miterlimit="10" x1="508.7" y1="349.9" x2="508.7" y2="369.9" class="z-0xum34_1" style="stroke-dasharray: 20px; stroke-dashoffset: 0px;"></line>	<path fill="none" stroke="#FFFFFF" stroke-width="3" stroke-miterlimit="10" d="M519.1,369.9" class="z-l9b68i_1" style="stroke-dasharray: 0px; stroke-dashoffset: 0px;"></path>	<path fill="none" stroke="#FFFFFF" stroke-width="3" stroke-miterlimit="10" d="M519.1,349.9" class="z-vmu2k1_1" style="stroke-dasharray: 0px; stroke-dashoffset: 0px;"></path>	<line fill="none" stroke="#FFFFFF" stroke-width="3" stroke-miterlimit="10" x1="529.5" y1="349.9" x2="529.5" y2="369.9" class="z-2o28hu_1" style="stroke-dasharray: 20px; stroke-dashoffset: 0px;"></line>	<path fill="none" stroke="#FFFFFF" stroke-width="3" stroke-miterlimit="10" d="M539.9,369.9" class="z-a7e56a_1" style="stroke-dasharray: 0px; stroke-dashoffset: 0px;"></path>	<path fill="none" stroke="#FFFFFF" stroke-width="3" stroke-miterlimit="10" d="M539.9,349.9" class="z-j9yp5g_1" style="stroke-dasharray: 0px; stroke-dashoffset: 0px;"></path></g><rect x="132.2" y="369.9" fill="none" stroke="#FFFFFF" stroke-width="3" stroke-miterlimit="10" width="92.9" height="32.7" class="z-ip56lv_1" style="stroke-dasharray: 251.2px; stroke-dashoffset: 0px;"></rect><rect x="132.2" y="402.5" fill="none" stroke="#FFFFFF" stroke-width="3" stroke-miterlimit="10" width="92.9" height="213.5" class="z-26bc2r_1" style="stroke-dasharray: 612.8px; stroke-dashoffset: 0px;"></rect><g class="z-hyu0hh_1">	<path fill="none" stroke="#FFFFFF" stroke-width="3" stroke-miterlimit="10" d="M215.3,450.9L215.3,450.9		c0-20.3-16.5-36.7-36.7-36.7s-36.7,16.5-36.7,36.7v0H215.3z" class="z-t4oa0y_1" style="stroke-dasharray: 188.675px; stroke-dashoffset: 0px;"></path>	<path fill="none" stroke="#FFFFFF" stroke-width="3" stroke-miterlimit="10" d="M178.6,422.5c15.7,0,28.4,12.7,28.4,28.4h-56.8		C150.2,435.2,162.9,422.5,178.6,422.5z" class="z-cirkh9_1" style="stroke-dasharray: 146.047px; stroke-dashoffset: 0px;"></path></g><rect x="150.2" y="463.6" fill="none" stroke="#FFFFFF" stroke-width="3" stroke-miterlimit="10" width="56.8" height="57.4" class="z-gteoin_1" style="stroke-dasharray: 228.4px; stroke-dashoffset: 0px;"></rect><line fill="none" stroke="#FFFFFF" stroke-width="3" stroke-miterlimit="10" x1="167.7" y1="463.6" x2="167.7" y2="521" class="z-evabar_1" style="stroke-dasharray: 57.4px; stroke-dashoffset: 0px;"></line><line fill="none" stroke="#FFFFFF" stroke-width="3" stroke-miterlimit="10" x1="189.5" y1="463.6" x2="189.5" y2="521" class="z-o2lnoe_1" style="stroke-dasharray: 57.4px; stroke-dashoffset: 0px;"></line><rect x="132.2" y="330.3" fill="none" stroke="#FFFFFF" stroke-width="3" stroke-miterlimit="10" width="18" height="39.6" class="z-l1zc14_1" style="stroke-dasharray: 115.2px; stroke-dashoffset: 0px;"></rect><line fill="none" stroke="#FFFFFF" stroke-width="3" stroke-miterlimit="10" x1="150.2" y1="349.9" x2="218.7" y2="349.9" class="z-8l1ixs_1" style="stroke-dasharray: 68.5px; stroke-dashoffset: 0px;"></line><line fill="none" stroke="#FFFFFF" stroke-width="3" stroke-miterlimit="10" x1="208.3" y1="349.9" x2="208.3" y2="369.9" class="z-gro1ru_1" style="stroke-dasharray: 20px; stroke-dashoffset: 0px;"></line><path fill="none" stroke="#FFFFFF" stroke-width="3" stroke-miterlimit="10" d="M197.9,369.9" class="z-mb0fcn_1" style="stroke-dasharray: 0px; stroke-dashoffset: 0px;"></path><path fill="none" stroke="#FFFFFF" stroke-width="3" stroke-miterlimit="10" d="M197.9,349.9" class="z-gzbb37_1" style="stroke-dasharray: 0px; stroke-dashoffset: 0px;"></path><line fill="none" stroke="#FFFFFF" stroke-width="3" stroke-miterlimit="10" x1="187.5" y1="349.9" x2="187.5" y2="369.9" class="z-ycoq44_1" style="stroke-dasharray: 20px; stroke-dashoffset: 0px;"></line><path fill="none" stroke="#FFFFFF" stroke-width="3" stroke-miterlimit="10" d="M177.1,369.9" class="z-k7vu17_1" style="stroke-dasharray: 0px; stroke-dashoffset: 0px;"></path><path fill="none" stroke="#FFFFFF" stroke-width="3" stroke-miterlimit="10" d="M177.1,349.9" class="z-n5or85_1" style="stroke-dasharray: 0px; stroke-dashoffset: 0px;"></path><line fill="none" stroke="#FFFFFF" stroke-width="3" stroke-miterlimit="10" x1="166.7" y1="349.9" x2="166.7" y2="369.9" class="z-p92rqr_1" style="stroke-dasharray: 20px; stroke-dashoffset: 0px;"></line><path fill="none" stroke="#FFFFFF" stroke-width="3" stroke-miterlimit="10" d="M156.3,369.9" class="z-t5f4c3_1" style="stroke-dasharray: 0px; stroke-dashoffset: 0px;"></path><path fill="none" stroke="#FFFFFF" stroke-width="3" stroke-miterlimit="10" d="M156.3,349.9" class="z-4nnsci_1" style="stroke-dasharray: 0px; stroke-dashoffset: 0px;"></path><path fill="none" stroke="#FFFFFF" stroke-width="3" stroke-miterlimit="10" d="M350.2,217.3h-4.4c-6.2,0-11.3,5.1-11.3,11.3v13.2	h27v-13.2C361.5,222.3,356.4,217.3,350.2,217.3z" class="z-fto0tm_1" style="stroke-dasharray: 93.2915px; stroke-dashoffset: 0px;"></path><path fill="none" stroke="#FFFFFF" stroke-width="3" stroke-miterlimit="10" d="M297.3,226.5h-2.3c-3.3,0-5.9,2.6-5.9,5.9v9.3h14.2	v-9.3C303.2,229.2,300.5,226.5,297.3,226.5z" class="z-lds462_1" style="stroke-dasharray: 53.6687px; stroke-dashoffset: 0px;"></path><path fill="none" stroke="#FFFFFF" stroke-width="3" stroke-miterlimit="10" d="M401.3,226.5h-2.3c-3.3,0-5.9,2.6-5.9,5.9v9.3h14.2	v-9.3C407.2,229.2,404.5,226.5,401.3,226.5z" class="z-n3tsrl_1" style="stroke-dasharray: 53.6687px; stroke-dashoffset: 0px;"></path><line fill="none" stroke="#FFFFFF" stroke-width="3" stroke-miterlimit="10" x1="348.1" y1="103.9" x2="348.1" y2="66.7" class="z-2uzory_1" style="stroke-dasharray: 37.2px; stroke-dashoffset: 0px;"></line><circle fill="none" stroke="#FFFFFF" stroke-width="3" stroke-miterlimit="10" cx="348" cy="62.4" r="4.7" class="z-cjorts_1" style="stroke-dasharray: 29.531px; stroke-dashoffset: 0px;"></circle><path fill="none" stroke="#FFFFFF" stroke-width="3" stroke-miterlimit="10" d="M173.9,559.2h9.3c13.1,0,23.8,10.6,23.8,23.8V616	h-56.8v-33.1C150.2,569.8,160.8,559.2,173.9,559.2z" class="z-s9xtgc_1" style="stroke-dasharray: 206.831px; stroke-dashoffset: 0px;"></path><line fill="none" stroke="#FFFFFF" stroke-width="3" stroke-miterlimit="10" x1="259.6" y1="316.7" x2="282" y2="316.7" class="z-5k36f2_1" style="stroke-dasharray: 22.4px; stroke-dashoffset: 0px;"></line><line fill="none" stroke="#FFFFFF" stroke-width="3" stroke-miterlimit="10" x1="413.9" y1="316.7" x2="436.4" y2="316.7" class="z-je04de_1" style="stroke-dasharray: 22.5px; stroke-dashoffset: 0px;"></line><path fill="none" stroke="#FFFFFF" stroke-width="3" stroke-miterlimit="10" d="M259.6,337.2" class="z-tpf7wi_1" style="stroke-dasharray: 0px; stroke-dashoffset: 0px;"></path><path fill="none" stroke="#FFFFFF" stroke-width="3" stroke-miterlimit="10" d="M436.6,337.2" class="z-o9qccm_1" style="stroke-dasharray: 0px; stroke-dashoffset: 0px;"></path><path fill="none" stroke="#FFFFFF" stroke-width="3" stroke-linejoin="bevel" stroke-miterlimit="10" d="M370.8,337.2" class="z-80rz62_1" style="stroke-dasharray: 0px; stroke-dashoffset: 0px;"></path><path fill="none" stroke="#FFFFFF" stroke-width="3" stroke-linejoin="bevel" stroke-miterlimit="10" d="M481.6,337.2" class="z-nuq59r_1" style="stroke-dasharray: 0px; stroke-dashoffset: 0px;"></path><path fill="none" stroke="#FFFFFF" stroke-width="3" stroke-linejoin="bevel" stroke-miterlimit="10" d="M471.2,369.9" class="z-fy6ggy_1" style="stroke-dasharray: 0px; stroke-dashoffset: 0px;"></path><path fill="none" stroke="#FFFFFF" stroke-width="3" stroke-linejoin="bevel" stroke-miterlimit="10" d="M225,369.9" class="z-fsan0x_1" style="stroke-dasharray: 0px; stroke-dashoffset: 0px;"></path><path fill="none" stroke="#FFFFFF" stroke-width="3" stroke-linejoin="bevel" stroke-miterlimit="10" d="M214.6,337.2" class="z-obpp6w_1" style="stroke-dasharray: 0px; stroke-dashoffset: 0px;"></path><path fill="none" stroke="#FFFFFF" stroke-width="3" stroke-linejoin="bevel" stroke-miterlimit="10" d="M325.1,337.2" class="z-mnuqgd_1" style="stroke-dasharray: 0px; stroke-dashoffset: 0px;"></path><path fill="none" stroke="#FFFFFF" stroke-width="3" stroke-miterlimit="10" d="M368.9,345.5" class="z-chiuqx_1" style="stroke-dasharray: 0px; stroke-dashoffset: 0px;"></path><line fill="none" stroke="#FFFFFF" stroke-width="3" stroke-miterlimit="10" x1="436.6" y1="327.9" x2="436.6" y2="345.5" class="z-csa1j3_1" style="stroke-dasharray: 17.6px; stroke-dashoffset: 0px;"></line><line fill="none" stroke="#FFFFFF" stroke-width="3" stroke-miterlimit="10" x1="259.6" y1="345.5" x2="259.6" y2="327.9" class="z-b5scyq_1" style="stroke-dasharray: 17.6px; stroke-dashoffset: 0px;"></line><path fill="none" stroke="#FFFFFF" stroke-width="3" stroke-miterlimit="10" d="M327,345.5" class="z-v36u3w_1" style="stroke-dasharray: 0px; stroke-dashoffset: 0px;"></path><path fill="none" stroke="#FFFFFF" stroke-width="3" stroke-linejoin="bevel" stroke-miterlimit="10" d="M370.8,337.2" class="z-t0s297_1" style="stroke-dasharray: 0px; stroke-dashoffset: 0px;"></path><path fill="none" stroke="#FFFFFF" stroke-width="3" stroke-linejoin="bevel" stroke-miterlimit="10" d="M481.6,337.2" class="z-vcpuu8_1" style="stroke-dasharray: 0px; stroke-dashoffset: 0px;"></path><path fill="none" stroke="#FFFFFF" stroke-width="3" stroke-linejoin="bevel" stroke-miterlimit="10" d="M214.6,337.2" class="z-8iqksv_1" style="stroke-dasharray: 0px; stroke-dashoffset: 0px;"></path><path fill="none" stroke="#FFFFFF" stroke-width="3" stroke-linejoin="bevel" stroke-miterlimit="10" d="M325.1,337.2" class="z-ze26cm_1" style="stroke-dasharray: 0px; stroke-dashoffset: 0px;"></path><path fill="none" stroke="#FFFFFF" stroke-width="3" stroke-miterlimit="10" d="M259.6,337.2" class="z-pef0px_1" style="stroke-dasharray: 0px; stroke-dashoffset: 0px;"></path><path fill="none" stroke="#FFFFFF" stroke-width="3" stroke-miterlimit="10" d="M348.1,293" class="z-3c54a8_1" style="stroke-dasharray: 0px; stroke-dashoffset: 0px;"></path><path fill="none" stroke="#FFFFFF" stroke-width="3" stroke-miterlimit="10" d="M436.6,337.2" class="z-krsnwv_1" style="stroke-dasharray: 0px; stroke-dashoffset: 0px;"></path><path fill="none" stroke="#FFFFFF" stroke-width="3" stroke-miterlimit="10" d="M436.6,327.9" class="z-b0neco_1" style="stroke-dasharray: 0px; stroke-dashoffset: 0px;"></path><path fill="none" stroke="#FFFFFF" stroke-width="3" stroke-miterlimit="10" d="M348.1,283.7" class="z-2f8uhm_1" style="stroke-dasharray: 0px; stroke-dashoffset: 0px;"></path><path fill="none" stroke="#FFFFFF" stroke-width="3" stroke-miterlimit="10" d="M259.6,327.9" class="z-5m1zfz_1" style="stroke-dasharray: 0px; stroke-dashoffset: 0px;"></path><line fill="none" stroke="#FFFFFF" stroke-width="3" stroke-miterlimit="10" x1="436.6" y1="345.5" x2="368.9" y2="345.5" class="z-te357t_1" style="stroke-dasharray: 67.7px; stroke-dashoffset: 0px;"></line><line fill="none" stroke="#FFFFFF" stroke-width="3" stroke-miterlimit="10" x1="327" y1="345.5" x2="259.6" y2="345.5" class="z-a228kp_1" style="stroke-dasharray: 67.4px; stroke-dashoffset: 0px;"></line><path fill="none" stroke="#FFFFFF" stroke-width="3" stroke-miterlimit="10" d="M457.1,267.7" class="z-cqczk3_1" style="stroke-dasharray: 0px; stroke-dashoffset: 0px;"></path><path fill="none" stroke="#FFFFFF" stroke-width="3" stroke-miterlimit="10" d="M457.1,241.8" class="z-k2nd15_1" style="stroke-dasharray: 0px; stroke-dashoffset: 0px;"></path><path fill="none" stroke="#FFFFFF" stroke-width="3" stroke-miterlimit="10" d="M239.2,241.8" class="z-n5nmv8_1" style="stroke-dasharray: 0px; stroke-dashoffset: 0px;"></path><path fill="none" stroke="#FFFFFF" stroke-width="3" stroke-miterlimit="10" d="M239.2,267.7" class="z-5ammgj_1" style="stroke-dasharray: 0px; stroke-dashoffset: 0px;"></path><line fill="none" stroke="#FFFFFF" stroke-width="3" stroke-miterlimit="10" x1="348.1" y1="283.7" x2="436.6" y2="327.9" class="z-agyvdu_1" style="stroke-dasharray: 98.9237px; stroke-dashoffset: 0px;"></line><line fill="none" stroke="#FFFFFF" stroke-width="3" stroke-miterlimit="10" x1="436.6" y1="337.2" x2="348.1" y2="293" class="z-ki2nnt_1" style="stroke-dasharray: 98.9237px; stroke-dashoffset: 0px;"></line><line fill="none" stroke="#FFFFFF" stroke-width="3" stroke-miterlimit="10" x1="259.6" y1="327.9" x2="348.1" y2="283.7" class="z-awlwsy_1" style="stroke-dasharray: 98.9237px; stroke-dashoffset: 0px;"></line><line fill="none" stroke="#FFFFFF" stroke-width="3" stroke-miterlimit="10" x1="348.1" y1="293" x2="259.6" y2="337.2" class="z-hhhd22_1" style="stroke-dasharray: 98.9237px; stroke-dashoffset: 0px;"></line><line fill="none" stroke="#FFFFFF" stroke-width="3" stroke-linejoin="bevel" stroke-miterlimit="10" x1="471.2" y1="369.9" x2="481.6" y2="337.2" class="z-mk0dga_1" style="stroke-dasharray: 34.314px; stroke-dashoffset: 0px;"></line><line fill="none" stroke="#FFFFFF" stroke-width="3" stroke-linejoin="bevel" stroke-miterlimit="10" x1="225" y1="369.9" x2="471.2" y2="369.9" class="z-56vqrj_1" style="stroke-dasharray: 246.2px; stroke-dashoffset: 0px;"></line><line fill="none" stroke="#FFFFFF" stroke-width="3" stroke-linejoin="bevel" stroke-miterlimit="10" x1="214.6" y1="337.2" x2="225" y2="369.9" class="z-839upl_1" style="stroke-dasharray: 34.314px; stroke-dashoffset: 0px;"></line><line fill="none" stroke="#FFFFFF" stroke-width="3" stroke-linejoin="bevel" stroke-miterlimit="10" x1="325.1" y1="337.2" x2="214.6" y2="337.2" class="z-8f6g71_1" style="stroke-dasharray: 110.5px; stroke-dashoffset: 0px;"></line><line fill="none" stroke="#FFFFFF" stroke-width="3" stroke-linejoin="bevel" stroke-miterlimit="10" x1="481.6" y1="337.2" x2="370.8" y2="337.2" class="z-g381cr_1" style="stroke-dasharray: 110.8px; stroke-dashoffset: 0px;"></line><line fill="none" stroke="#FFFFFF" stroke-width="3" stroke-miterlimit="10" x1="457.1" y1="241.8" x2="457.1" y2="267.7" class="z-7hw47f_1" style="stroke-dasharray: 25.9px; stroke-dashoffset: 0px;"></line><line fill="none" stroke="#FFFFFF" stroke-width="3" stroke-miterlimit="10" x1="239.2" y1="241.8" x2="457.1" y2="241.8" class="z-houwk5_1" style="stroke-dasharray: 217.9px; stroke-dashoffset: 0px;"></line><line fill="none" stroke="#FFFFFF" stroke-width="3" stroke-miterlimit="10" x1="239.2" y1="267.7" x2="239.2" y2="241.8" class="z-abkcj1_1" style="stroke-dasharray: 25.9px; stroke-dashoffset: 0px;"></line></svg>