<svg version="1.1" id="Layer_1" xmlns="http://www.w3.org/2000/svg" xmlns:xlink="http://www.w3.org/1999/xlink" x="0px" y="0px" width="444px" height="558.9px" viewBox="0 0 444 558.9" enable-background="new 0 0 444 558.9" xml:space="preserve" data-id="82"><rect x="194.8" y="233.3" fill="none" stroke="#FFFFFF" stroke-width="3" stroke-miterlimit="10" width="51.5" height="64.2" class="z-9hqe9s_82" style="stroke-dasharray: 231.4px; stroke-dashoffset: 0px;"></rect><rect x="246.2" y="215.6" fill="none" stroke="#FFFFFF" stroke-width="3" stroke-miterlimit="10" width="8.9" height="81.9" class="z-sgpe74_82" style="stroke-dasharray: 181.6px; stroke-dashoffset: 0px;"></rect><rect x="255.1" y="224.4" fill="none" stroke="#FFFFFF" stroke-width="3" stroke-miterlimit="10" width="8.9" height="73" class="z-wec0r0_82" style="stroke-dasharray: 163.8px; stroke-dashoffset: 0px;"></rect><rect x="264" y="233.3" fill="none" stroke="#FFFFFF" stroke-width="3" stroke-miterlimit="10" width="8.9" height="64.2" class="z-kb06vm_82" style="stroke-dasharray: 146.2px; stroke-dashoffset: 0px;"></rect><rect x="181.5" y="175.2" fill="none" stroke="#FFFFFF" stroke-width="3" stroke-miterlimit="10" width="78" height="8.9" class="z-de0f02_82" style="stroke-dasharray: 173.8px; stroke-dashoffset: 0px;"></rect><rect x="177.1" y="166.3" fill="none" stroke="#FFFFFF" stroke-width="3" stroke-miterlimit="10" width="86.9" height="8.9" class="z-gp0zhf_82" style="stroke-dasharray: 191.6px; stroke-dashoffset: 0px;"></rect><rect x="172.6" y="157.5" fill="none" stroke="#FFFFFF" stroke-width="3" stroke-miterlimit="10" width="95.8" height="8.9" class="z-2vj0he_82" style="stroke-dasharray: 209.4px; stroke-dashoffset: 0px;"></rect><rect x="185.9" y="215.6" fill="none" stroke="#FFFFFF" stroke-width="3" stroke-miterlimit="10" width="8.9" height="81.9" class="z-c877g4_82" style="stroke-dasharray: 181.6px; stroke-dashoffset: 0px;"></rect><rect x="177" y="224.4" fill="none" stroke="#FFFFFF" stroke-width="3" stroke-miterlimit="10" width="8.9" height="73" class="z-acgln8_82" style="stroke-dasharray: 163.8px; stroke-dashoffset: 0px;"></rect><rect x="168.2" y="233.3" fill="none" stroke="#FFFFFF" stroke-width="3" stroke-miterlimit="10" width="8.9" height="64.2" class="z-giy2j7_82" style="stroke-dasharray: 146.2px; stroke-dashoffset: 0px;"></rect><rect x="168.2" y="451.6" fill="none" stroke="#FFFFFF" stroke-width="3" stroke-miterlimit="10" width="104.7" height="108.3" class="z-52lain_82" style="stroke-dasharray: 426px; stroke-dashoffset: 0px;"></rect><line fill="none" stroke="#FFFFFF" stroke-width="3" stroke-miterlimit="10" x1="264" y1="451.6" x2="264" y2="559.9" class="z-wg6lwr_82" style="stroke-dasharray: 108.3px; stroke-dashoffset: 0px;"></line><line fill="none" stroke="#FFFFFF" stroke-width="3" stroke-miterlimit="10" x1="255.1" y1="451.6" x2="255.1" y2="559.9" class="z-m2obvg_82" style="stroke-dasharray: 108.3px; stroke-dashoffset: 0px;"></line><line fill="none" stroke="#FFFFFF" stroke-width="3" stroke-miterlimit="10" x1="246.2" y1="451.6" x2="246.2" y2="559.9" class="z-qd8325_82" style="stroke-dasharray: 108.3px; stroke-dashoffset: 0px;"></line><line fill="none" stroke="#FFFFFF" stroke-width="3" stroke-miterlimit="10" x1="194.8" y1="451.6" x2="194.8" y2="559.9" class="z-jd9qct_82" style="stroke-dasharray: 108.3px; stroke-dashoffset: 0px;"></line><line fill="none" stroke="#FFFFFF" stroke-width="3" stroke-miterlimit="10" x1="185.9" y1="451.6" x2="185.9" y2="559.9" class="z-cwwwv0_82" style="stroke-dasharray: 108.3px; stroke-dashoffset: 0px;"></line><line fill="none" stroke="#FFFFFF" stroke-width="3" stroke-miterlimit="10" x1="177" y1="451.6" x2="177" y2="559.9" class="z-u6enu3_82" style="stroke-dasharray: 108.3px; stroke-dashoffset: 0px;"></line><rect x="168.2" y="387.8" fill="none" stroke="#FFFFFF" stroke-width="3" stroke-miterlimit="10" width="104.7" height="54.9" class="z-8arxo6_82" style="stroke-dasharray: 319.2px; stroke-dashoffset: 0px;"></rect><line fill="none" stroke="#FFFFFF" stroke-width="3" stroke-miterlimit="10" x1="264" y1="387.8" x2="264" y2="442.7" class="z-sevgle_82" style="stroke-dasharray: 54.9px; stroke-dashoffset: 0px;"></line><line fill="none" stroke="#FFFFFF" stroke-width="3" stroke-miterlimit="10" x1="255.1" y1="387.8" x2="255.1" y2="442.7" class="z-lbv2or_82" style="stroke-dasharray: 54.9px; stroke-dashoffset: 0px;"></line><line fill="none" stroke="#FFFFFF" stroke-width="3" stroke-miterlimit="10" x1="246.2" y1="387.8" x2="246.2" y2="442.7" class="z-hd9q7d_82" style="stroke-dasharray: 54.9px; stroke-dashoffset: 0px;"></line><line fill="none" stroke="#FFFFFF" stroke-width="3" stroke-miterlimit="10" x1="194.8" y1="387.8" x2="194.8" y2="442.7" class="z-qo1is9_82" style="stroke-dasharray: 54.9px; stroke-dashoffset: 0px;"></line><line fill="none" stroke="#FFFFFF" stroke-width="3" stroke-miterlimit="10" x1="185.9" y1="387.8" x2="185.9" y2="442.7" class="z-29vfud_82" style="stroke-dasharray: 54.9px; stroke-dashoffset: 0px;"></line><line fill="none" stroke="#FFFFFF" stroke-width="3" stroke-miterlimit="10" x1="177" y1="387.8" x2="177" y2="442.7" class="z-eruare_82" style="stroke-dasharray: 54.9px; stroke-dashoffset: 0px;"></line><rect x="168.2" y="297.5" fill="none" stroke="#FFFFFF" stroke-width="3" stroke-miterlimit="10" width="104.7" height="81.4" class="z-4rzxa7_82" style="stroke-dasharray: 372.2px; stroke-dashoffset: 0px;"></rect><line fill="none" stroke="#FFFFFF" stroke-width="3" stroke-miterlimit="10" x1="264" y1="297.5" x2="264" y2="378.9" class="z-j791rs_82" style="stroke-dasharray: 81.4px; stroke-dashoffset: 0px;"></line><line fill="none" stroke="#FFFFFF" stroke-width="3" stroke-miterlimit="10" x1="255.1" y1="297.5" x2="255.1" y2="378.9" class="z-awpj0g_82" style="stroke-dasharray: 81.4px; stroke-dashoffset: 0px;"></line><line fill="none" stroke="#FFFFFF" stroke-width="3" stroke-miterlimit="10" x1="246.2" y1="297.5" x2="246.2" y2="378.9" class="z-qtq0x6_82" style="stroke-dasharray: 81.4px; stroke-dashoffset: 0px;"></line><line fill="none" stroke="#FFFFFF" stroke-width="3" stroke-miterlimit="10" x1="194.8" y1="297.5" x2="194.8" y2="378.9" class="z-xrui1h_82" style="stroke-dasharray: 81.4px; stroke-dashoffset: 0px;"></line><line fill="none" stroke="#FFFFFF" stroke-width="3" stroke-miterlimit="10" x1="185.9" y1="297.5" x2="185.9" y2="378.9" class="z-g4ixtg_82" style="stroke-dasharray: 81.4px; stroke-dashoffset: 0px;"></line><line fill="none" stroke="#FFFFFF" stroke-width="3" stroke-miterlimit="10" x1="177" y1="297.5" x2="177" y2="378.9" class="z-5chspb_82" style="stroke-dasharray: 81.4px; stroke-dashoffset: 0px;"></line><polygon fill="none" stroke="#FFFFFF" stroke-width="3" stroke-miterlimit="10" points="235.9,559.9 205.1,559.9 205.1,480.4 	220.5,467.8 235.9,480.4 " class="z-huth25_82" style="stroke-dasharray: 229.595px; stroke-dashoffset: 0px;"></polygon><path fill="none" stroke="#FFFFFF" stroke-width="3" stroke-miterlimit="10" d="M217.4,529h6.3c0,3.3,2.7,6,6,6v24.9h-18.3V535	C214.7,535,217.4,532.3,217.4,529z" class="z-30kdr6_82" style="stroke-dasharray: 93.2405px; stroke-dashoffset: 0px;"></path><path fill="none" stroke="#FFFFFF" stroke-width="3" stroke-miterlimit="10" d="M217.4,399.8h6.3c0,3.3,2.7,6,6,6v18.9	c-3.3,0-6,2.7-6,6h-6.3c0-3.3-2.7-6-6-6v-18.9C214.7,405.8,217.4,403.1,217.4,399.8z" class="z-7kdl0j_82" style="stroke-dasharray: 88.0809px; stroke-dashoffset: 0px;"></path><rect x="159.3" y="442.7" fill="none" stroke="#FFFFFF" stroke-width="3" stroke-miterlimit="10" width="122.4" height="8.9" class="z-dph6dp_82" style="stroke-dasharray: 262.6px; stroke-dashoffset: 0px;"></rect><rect x="159.3" y="378.9" fill="none" stroke="#FFFFFF" stroke-width="3" stroke-miterlimit="10" width="122.4" height="8.9" class="z-xupkr2_82" style="stroke-dasharray: 262.6px; stroke-dashoffset: 0px;"></rect><path fill="none" stroke="#FFFFFF" stroke-width="3" stroke-miterlimit="10" d="M185.9,378.9v-82.3c0-19.1,15.5-34.6,34.6-34.6	s34.6,15.5,34.6,34.6v82.3H185.9z" class="z-11t4s8_82" style="stroke-dasharray: 342.507px; stroke-dashoffset: 0px;"></path><path fill="none" stroke="#FFFFFF" stroke-width="3" stroke-miterlimit="10" d="M220.5,270.9L220.5,270.9	c14.2,0,25.7,11.5,25.7,25.7v82.3h-51.5v-82.3C194.8,282.4,206.3,270.9,220.5,270.9z" class="z-30rn5z_82" style="stroke-dasharray: 296.893px; stroke-dashoffset: 0px;"></path><path fill="none" stroke="#FFFFFF" stroke-width="3" stroke-miterlimit="10" d="M211.3,323.3h18.5c0,3.3,2.7,6,6,6v36.8h-30.5v-36.8	C208.6,329.3,211.3,326.6,211.3,323.3z" class="z-bl5905_82" style="stroke-dasharray: 141.44px; stroke-dashoffset: 0px;"></path><rect x="203.7" y="366.1" fill="none" stroke="#FFFFFF" stroke-width="3" stroke-miterlimit="10" width="33.7" height="12.8" class="z-6x2bcu_82" style="stroke-dasharray: 93px; stroke-dashoffset: 0px;"></rect><line fill="none" stroke="#FFFFFF" stroke-width="3" stroke-miterlimit="10" x1="194.8" y1="316.4" x2="168.2" y2="316.4" class="z-yo4dj5_82" style="stroke-dasharray: 26.6px; stroke-dashoffset: 0px;"></line><line fill="none" stroke="#FFFFFF" stroke-width="3" stroke-miterlimit="10" x1="246.2" y1="316.4" x2="272.9" y2="316.4" class="z-9u02r8_82" style="stroke-dasharray: 26.7px; stroke-dashoffset: 0px;"></line><line fill="none" stroke="#FFFFFF" stroke-width="3" stroke-miterlimit="10" x1="272.9" y1="366.1" x2="246.2" y2="366.1" class="z-fsnj63_82" style="stroke-dasharray: 26.7px; stroke-dashoffset: 0px;"></line><line fill="none" stroke="#FFFFFF" stroke-width="3" stroke-miterlimit="10" x1="194.8" y1="366.1" x2="168.2" y2="366.1" class="z-abeoe7_82" style="stroke-dasharray: 26.6px; stroke-dashoffset: 0px;"></line><circle fill="none" stroke="#FFFFFF" stroke-width="3" stroke-miterlimit="10" cx="221.8" cy="208.9" r="16" class="z-5vtmfv_82" style="stroke-dasharray: 100.531px; stroke-dashoffset: 0px;"></circle><rect x="185.9" y="184.1" fill="none" stroke="#FFFFFF" stroke-width="3" stroke-miterlimit="10" width="69.2" height="49.2" class="z-fsxtuj_82" style="stroke-dasharray: 236.8px; stroke-dashoffset: 0px;"></rect><rect x="172.6" y="126.6" fill="none" stroke="#FFFFFF" stroke-width="3" stroke-miterlimit="10" width="95.8" height="30.9" class="z-8pjh6u_82" style="stroke-dasharray: 253.4px; stroke-dashoffset: 0px;"></rect><path fill="none" stroke="#FFFFFF" stroke-width="3" stroke-miterlimit="10" d="M202.1,157.5h-7.4v-19.2c0-2,1.6-3.7,3.7-3.7h0	c2,0,3.7,1.6,3.7,3.7V157.5z" class="z-uyt427_82" style="stroke-dasharray: 57.4315px; stroke-dashoffset: 0px;"></path><path fill="none" stroke="#FFFFFF" stroke-width="3" stroke-miterlimit="10" d="M216.8,157.5h-7.4v-19.2c0-2,1.6-3.7,3.7-3.7l0,0	c2,0,3.7,1.6,3.7,3.7V157.5z" class="z-crb7qg_82" style="stroke-dasharray: 57.4315px; stroke-dashoffset: 0px;"></path><path fill="none" stroke="#FFFFFF" stroke-width="3" stroke-miterlimit="10" d="M231.5,157.5h-7.4v-19.2c0-2,1.6-3.7,3.7-3.7h0	c2,0,3.7,1.6,3.7,3.7V157.5z" class="z-j4r3dp_82" style="stroke-dasharray: 57.4315px; stroke-dashoffset: 0px;"></path><path fill="none" stroke="#FFFFFF" stroke-width="3" stroke-miterlimit="10" d="M246.2,157.5h-7.4v-19.2c0-2,1.6-3.7,3.7-3.7h0	c2,0,3.7,1.6,3.7,3.7V157.5z" class="z-98kkn6_82" style="stroke-dasharray: 57.4315px; stroke-dashoffset: 0px;"></path><rect x="255.1" y="94.5" fill="none" stroke="#FFFFFF" stroke-width="3" stroke-miterlimit="10" width="8.9" height="32.1" class="z-iv8p4n_82" style="stroke-dasharray: 82px; stroke-dashoffset: 0px;"></rect><rect x="177" y="94.5" fill="none" stroke="#FFFFFF" stroke-width="3" stroke-miterlimit="10" width="8.9" height="32.1" class="z-bmwdfl_82" style="stroke-dasharray: 82px; stroke-dashoffset: 0px;"></rect><polygon fill="none" stroke="#FFFFFF" stroke-width="3" stroke-miterlimit="10" points="194.8,73.3 220.5,55.6 246.2,73.3 	246.2,126.6 194.8,126.6 " class="z-yn0h7z_82" style="stroke-dasharray: 220.411px; stroke-dashoffset: 0px;"></polygon><polygon fill="none" stroke="#FFFFFF" stroke-width="3" stroke-miterlimit="10" points="212.1,126.6 212.1,95.6 220.5,89.8 	228.9,95.6 228.9,126.6 " class="z-c07ik6_82" style="stroke-dasharray: 99.2157px; stroke-dashoffset: 0px;"></polygon><line fill="none" stroke="#FFFFFF" stroke-width="3" stroke-miterlimit="10" x1="212.1" y1="113.5" x2="228.9" y2="113.5" class="z-kjjbn1_82" style="stroke-dasharray: 16.8px; stroke-dashoffset: 0px;"></line><rect x="213.6" y="46" fill="none" stroke="#FFFFFF" stroke-width="3" stroke-miterlimit="10" width="13.9" height="13.9" class="z-ndoulj_82" style="stroke-dasharray: 55.6px; stroke-dashoffset: 0px;"></rect><path fill="none" stroke="#FFFFFF" stroke-width="3" stroke-miterlimit="10" d="M218,36.8h5.1c0,2.4,2,4.4,4.4,4.4V46h-13.9v-4.7	C216,41.2,218,39.3,218,36.8z" class="z-bf113a_82" style="stroke-dasharray: 42.358px; stroke-dashoffset: 0px;"></path><circle fill="none" stroke="#FFFFFF" stroke-width="3" stroke-miterlimit="10" cx="220.5" cy="31.1" r="6.3" class="z-f8uidx_82" style="stroke-dasharray: 39.5841px; stroke-dashoffset: 0px;"></circle><polyline fill="none" stroke="#FFFFFF" stroke-width="3" stroke-miterlimit="10" points="221.8,198.1 220.5,208.7 229.6,215.6 " class="z-ni738b_82"></polyline><g class="z-nt4u69_82">	<g class="z-x0krjz_82">		<path fill="none" stroke="#FFFFFF" stroke-width="3" stroke-miterlimit="10" d="M406.4,102.9c-6.2-6.2-14.4-9-22.5-8.4" class="z-5330hz_82" style="stroke-dasharray: 24.7807px; stroke-dashoffset: 0px;"></path>	</g>	<g class="z-s8mq1k_82">		<path fill="none" stroke="#FFFFFF" stroke-width="3" stroke-miterlimit="10" d="M428.9,94.5c-8.1-0.6-16.3,2.2-22.5,8.4" class="z-inlkdk_82" style="stroke-dasharray: 24.7807px; stroke-dashoffset: 0px;"></path>	</g></g><g class="z-p5nr87_82">	<g class="z-founj2_82">		<path fill="none" stroke="#FFFFFF" stroke-width="3" stroke-miterlimit="10" d="M342.6,188.3c-6.2-6.2-14.4-9-22.5-8.4" class="z-md3sao_82" style="stroke-dasharray: 24.7807px; stroke-dashoffset: 0px;"></path>	</g>	<g class="z-6auykv_82">		<path fill="none" stroke="#FFFFFF" stroke-width="3" stroke-miterlimit="10" d="M365.1,179.9c-8.1-0.6-16.3,2.2-22.5,8.4" class="z-c40rbn_82" style="stroke-dasharray: 24.7807px; stroke-dashoffset: 0px;"></path>	</g></g><g class="z-anwo3d_82">	<g class="z-akl84y_82">		<path fill="none" stroke="#FFFFFF" stroke-width="3" stroke-miterlimit="10" d="M102.4,107.2c-6.2-6.2-14.4-9-22.5-8.4" class="z-kd0ms9_82" style="stroke-dasharray: 24.7807px; stroke-dashoffset: 0px;"></path>	</g>	<g class="z-4y37b8_82">		<path fill="none" stroke="#FFFFFF" stroke-width="3" stroke-miterlimit="10" d="M124.9,98.8c-8.1-0.6-16.3,2.2-22.5,8.4" class="z-penzed_82" style="stroke-dasharray: 24.7807px; stroke-dashoffset: 0px;"></path>	</g></g></svg>