<svg version="1.1" id="Layer_1" xmlns="http://www.w3.org/2000/svg" xmlns:xlink="http://www.w3.org/1999/xlink" x="0px" y="0px" width="860px" height="809px" viewBox="0 0 860 809" enable-background="new 0 0 860 809" xml:space="preserve" data-id="92"><rect x="100.8" y="505.2" fill="none" stroke="#FFFFFF" stroke-width="3" stroke-miterlimit="10" width="659.7" height="41.4" class="z-41pfm2_92" style="stroke-dasharray: 1402.2px; stroke-dashoffset: 0px;"></rect><rect x="253.5" y="251.8" fill="none" stroke="#FFFFFF" stroke-width="3" stroke-miterlimit="10" width="354.5" height="120.5" class="z-1bwumz_92" style="stroke-dasharray: 950px; stroke-dashoffset: 0px;"></rect><line fill="none" stroke="#FFFFFF" stroke-width="3" stroke-miterlimit="10" x1="253.5" y1="258" x2="608" y2="258" class="z-b6kyjb_92" style="stroke-dasharray: 354.5px; stroke-dashoffset: 0px;"></line><rect x="266" y="258" fill="none" stroke="#FFFFFF" stroke-width="3" stroke-miterlimit="10" width="24.3" height="6.2" class="z-0x8f11_92" style="stroke-dasharray: 61px; stroke-dashoffset: 0px;"></rect><rect x="266" y="366" fill="none" stroke="#FFFFFF" stroke-width="3" stroke-miterlimit="10" width="24.3" height="6.2" class="z-bnflpw_92" style="stroke-dasharray: 61px; stroke-dashoffset: 0px;"></rect><rect x="269.1" y="264.3" fill="none" stroke="#FFFFFF" stroke-width="3" stroke-miterlimit="10" width="18.1" height="101.7" class="z-yru96e_92" style="stroke-dasharray: 239.6px; stroke-dashoffset: 0px;"></rect><rect x="302.8" y="258" fill="none" stroke="#FFFFFF" stroke-width="3" stroke-miterlimit="10" width="24.3" height="6.2" class="z-nuhfoh_92" style="stroke-dasharray: 61px; stroke-dashoffset: 0px;"></rect><rect x="302.8" y="366" fill="none" stroke="#FFFFFF" stroke-width="3" stroke-miterlimit="10" width="24.3" height="6.2" class="z-mm25bz_92" style="stroke-dasharray: 61px; stroke-dashoffset: 0px;"></rect><rect x="305.9" y="264.3" fill="none" stroke="#FFFFFF" stroke-width="3" stroke-miterlimit="10" width="18.1" height="101.7" class="z-frpc4g_92" style="stroke-dasharray: 239.6px; stroke-dashoffset: 0px;"></rect><rect x="534.3" y="258" fill="none" stroke="#FFFFFF" stroke-width="3" stroke-miterlimit="10" width="24.3" height="6.2" class="z-j25on7_92" style="stroke-dasharray: 61px; stroke-dashoffset: 0px;"></rect><rect x="534.3" y="366" fill="none" stroke="#FFFFFF" stroke-width="3" stroke-miterlimit="10" width="24.3" height="6.2" class="z-6cq616_92" style="stroke-dasharray: 61px; stroke-dashoffset: 0px;"></rect><rect x="537.5" y="264.3" fill="none" stroke="#FFFFFF" stroke-width="3" stroke-miterlimit="10" width="18.1" height="101.7" class="z-dywj4j_92" style="stroke-dasharray: 239.6px; stroke-dashoffset: 0px;"></rect><rect x="571.2" y="258" fill="none" stroke="#FFFFFF" stroke-width="3" stroke-miterlimit="10" width="24.3" height="6.2" class="z-0hb55u_92" style="stroke-dasharray: 61px; stroke-dashoffset: 0px;"></rect><rect x="571.2" y="366" fill="none" stroke="#FFFFFF" stroke-width="3" stroke-miterlimit="10" width="24.3" height="6.2" class="z-x00ya3_92" style="stroke-dasharray: 61px; stroke-dashoffset: 0px;"></rect><rect x="574.3" y="264.3" fill="none" stroke="#FFFFFF" stroke-width="3" stroke-miterlimit="10" width="18.1" height="101.7" class="z-yzsoak_92" style="stroke-dasharray: 239.6px; stroke-dashoffset: 0px;"></rect><path fill="none" stroke="#FFFFFF" stroke-width="3" stroke-miterlimit="10" d="M430.7,270.5L430.7,270.5	c-17.6,0-31.8,14.3-31.8,31.8v69.9h63.7v-69.9C462.6,284.8,448.3,270.5,430.7,270.5z" class="z-d1gea0_92" style="stroke-dasharray: 303.472px; stroke-dashoffset: 0px;"></path><path fill="none" stroke="#FFFFFF" stroke-width="3" stroke-miterlimit="10" d="M405.2,372.3v-69.9c0-14.1,11.5-25.6,25.6-25.6	s25.6,11.5,25.6,25.6v69.9H405.2z" class="z-89m2yc_92" style="stroke-dasharray: 271.403px; stroke-dashoffset: 0px;"></path><line fill="none" stroke="#FFFFFF" stroke-width="3" stroke-miterlimit="10" x1="595.6" y1="492.7" x2="265.9" y2="492.7" class="z-qdyn5r_92" style="stroke-dasharray: 329.7px; stroke-dashoffset: 0px;"></line><line fill="none" stroke="#FFFFFF" stroke-width="3" stroke-miterlimit="10" x1="265.9" y1="372.3" x2="595.6" y2="372.3" class="z-kvvogm_92" style="stroke-dasharray: 329.7px; stroke-dashoffset: 0px;"></line><line fill="none" stroke="#FFFFFF" stroke-width="3" stroke-miterlimit="10" x1="253.5" y1="378.5" x2="608" y2="378.5" class="z-xmf1nh_92" style="stroke-dasharray: 354.5px; stroke-dashoffset: 0px;"></line><line fill="none" stroke="#FFFFFF" stroke-width="3" stroke-miterlimit="10" x1="100.8" y1="538.3" x2="760.6" y2="538.3" class="z-vkzlou_92" style="stroke-dasharray: 659.8px; stroke-dashoffset: 0px;"></line><rect x="266" y="378.5" fill="none" stroke="#FFFFFF" stroke-width="3" stroke-miterlimit="10" width="24.3" height="6.2" class="z-mjj0rr_92" style="stroke-dasharray: 61px; stroke-dashoffset: 0px;"></rect><rect x="266" y="486.5" fill="none" stroke="#FFFFFF" stroke-width="3" stroke-miterlimit="10" width="24.3" height="6.2" class="z-wpjjz9_92" style="stroke-dasharray: 61px; stroke-dashoffset: 0px;"></rect><rect x="269.1" y="384.7" fill="none" stroke="#FFFFFF" stroke-width="3" stroke-miterlimit="10" width="18.1" height="101.7" class="z-1jxl7m_92" style="stroke-dasharray: 239.6px; stroke-dashoffset: 0px;"></rect><rect x="302.8" y="378.5" fill="none" stroke="#FFFFFF" stroke-width="3" stroke-miterlimit="10" width="24.3" height="6.2" class="z-gr4tqf_92" style="stroke-dasharray: 61px; stroke-dashoffset: 0px;"></rect><rect x="302.8" y="486.5" fill="none" stroke="#FFFFFF" stroke-width="3" stroke-miterlimit="10" width="24.3" height="6.2" class="z-dhve1g_92" style="stroke-dasharray: 61px; stroke-dashoffset: 0px;"></rect><rect x="305.9" y="384.7" fill="none" stroke="#FFFFFF" stroke-width="3" stroke-miterlimit="10" width="18.1" height="101.7" class="z-4osoqq_92" style="stroke-dasharray: 239.6px; stroke-dashoffset: 0px;"></rect><rect x="534.3" y="378.5" fill="none" stroke="#FFFFFF" stroke-width="3" stroke-miterlimit="10" width="24.3" height="6.2" class="z-pf3ol7_92" style="stroke-dasharray: 61px; stroke-dashoffset: 0px;"></rect><rect x="534.3" y="486.5" fill="none" stroke="#FFFFFF" stroke-width="3" stroke-miterlimit="10" width="24.3" height="6.2" class="z-8nwfn8_92" style="stroke-dasharray: 61px; stroke-dashoffset: 0px;"></rect><rect x="537.5" y="384.7" fill="none" stroke="#FFFFFF" stroke-width="3" stroke-miterlimit="10" width="18.1" height="101.7" class="z-ne0c84_92" style="stroke-dasharray: 239.6px; stroke-dashoffset: 0px;"></rect><rect x="571.2" y="378.5" fill="none" stroke="#FFFFFF" stroke-width="3" stroke-miterlimit="10" width="24.3" height="6.2" class="z-inffo5_92" style="stroke-dasharray: 61px; stroke-dashoffset: 0px;"></rect><rect x="571.2" y="486.5" fill="none" stroke="#FFFFFF" stroke-width="3" stroke-miterlimit="10" width="24.3" height="6.2" class="z-4s55fd_92" style="stroke-dasharray: 61px; stroke-dashoffset: 0px;"></rect><rect x="574.3" y="384.7" fill="none" stroke="#FFFFFF" stroke-width="3" stroke-miterlimit="10" width="18.1" height="101.7" class="z-mqa03s_92" style="stroke-dasharray: 239.6px; stroke-dashoffset: 0px;"></rect><path fill="none" stroke="#FFFFFF" stroke-width="3" stroke-miterlimit="10" d="M430.7,391L430.7,391c-17.6,0-31.8,14.3-31.8,31.8	v57.4h63.7v-57.4C462.6,405.2,448.3,391,430.7,391z" class="z-0c5x2y_92" style="stroke-dasharray: 278.494px; stroke-dashoffset: 0px;"></path><polygon fill="none" stroke="#FFFFFF" stroke-width="3" stroke-miterlimit="10" points="614.2,239.3 247.3,239.3 253.5,251.8 	608,251.8 " class="z-yll4z6_92" style="stroke-dasharray: 749.306px; stroke-dashoffset: 0px;"></polygon><polygon fill="none" stroke="#FFFFFF" stroke-width="3" stroke-miterlimit="10" points="766.8,492.7 94.6,492.7 100.8,505.2 	760.5,505.2 " class="z-qawue2_92" style="stroke-dasharray: 1359.85px; stroke-dashoffset: 0px;"></polygon><polygon fill="none" stroke="#FFFFFF" stroke-width="3" stroke-miterlimit="10" points="430.7,171.9 253.5,239.3 608,239.3 " class="z-8eay6g_92" style="stroke-dasharray: 733.764px; stroke-dashoffset: 0px;"></polygon><polygon fill="none" stroke="#FFFFFF" stroke-width="3" stroke-miterlimit="10" points="304.5,239.3 430.7,191.3 557,239.3 " class="z-f96wcq_92" style="stroke-dasharray: 522.634px; stroke-dashoffset: 0px;"></polygon><line fill="none" stroke="#FFFFFF" stroke-width="3" stroke-miterlimit="10" x1="430.7" y1="171.9" x2="430.7" y2="128.8" class="z-o9fuj1_92" style="stroke-dasharray: 43.1px; stroke-dashoffset: 0px;"></line><line fill="none" stroke="#FFFFFF" stroke-width="3" stroke-miterlimit="10" x1="443.7" y1="143.2" x2="417.5" y2="143.2" class="z-pq21c2_92" style="stroke-dasharray: 26.2px; stroke-dashoffset: 0px;"></line><rect x="405.2" y="422.8" fill="none" stroke="#FFFFFF" stroke-width="3" stroke-miterlimit="10" width="51.2" height="51.2" class="z-o3x6lr_92" style="stroke-dasharray: 204.8px; stroke-dashoffset: 0px;"></rect><path fill="none" stroke="#FFFFFF" stroke-width="3" stroke-miterlimit="10" d="M266,492.7H156.3v-23.3h0	c53.7,0,97.2-43.5,97.2-97.2v0" class="z-px8f2a_92" style="stroke-dasharray: 285.711px; stroke-dashoffset: 0px;"></path><rect x="266" y="546.6" fill="none" stroke="#FFFFFF" stroke-width="3" stroke-miterlimit="10" width="24.3" height="6.2" class="z-6hubgm_92" style="stroke-dasharray: 61px; stroke-dashoffset: 0px;"></rect><rect x="266" y="787.2" fill="none" stroke="#FFFFFF" stroke-width="3" stroke-miterlimit="10" width="24.3" height="22.8" class="z-ro6571_92" style="stroke-dasharray: 94.2px; stroke-dashoffset: 0px;"></rect><rect x="269.1" y="552.9" fill="none" stroke="#FFFFFF" stroke-width="3" stroke-miterlimit="10" width="18.1" height="234.3" class="z-1ui6zs_92" style="stroke-dasharray: 504.8px; stroke-dashoffset: 0px;"></rect><rect x="302.8" y="546.6" fill="none" stroke="#FFFFFF" stroke-width="3" stroke-miterlimit="10" width="24.3" height="6.2" class="z-iroab9_92" style="stroke-dasharray: 61px; stroke-dashoffset: 0px;"></rect><rect x="302.8" y="787.2" fill="none" stroke="#FFFFFF" stroke-width="3" stroke-miterlimit="10" width="24.3" height="22.8" class="z-3rlmq5_92" style="stroke-dasharray: 94.2px; stroke-dashoffset: 0px;"></rect><rect x="305.9" y="552.9" fill="none" stroke="#FFFFFF" stroke-width="3" stroke-miterlimit="10" width="18.1" height="234.3" class="z-gfdq0t_92" style="stroke-dasharray: 504.8px; stroke-dashoffset: 0px;"></rect><rect x="100.8" y="546.6" fill="none" stroke="#FFFFFF" stroke-width="3" stroke-miterlimit="10" width="24.3" height="6.2" class="z-90467e_92" style="stroke-dasharray: 61px; stroke-dashoffset: 0px;"></rect><rect x="100.8" y="787.2" fill="none" stroke="#FFFFFF" stroke-width="3" stroke-miterlimit="10" width="24.3" height="22.8" class="z-05o9xp_92" style="stroke-dasharray: 94.2px; stroke-dashoffset: 0px;"></rect><rect x="104" y="552.9" fill="none" stroke="#FFFFFF" stroke-width="3" stroke-miterlimit="10" width="18.1" height="234.3" class="z-9sr8u6_92" style="stroke-dasharray: 504.8px; stroke-dashoffset: 0px;"></rect><rect x="137.7" y="546.6" fill="none" stroke="#FFFFFF" stroke-width="3" stroke-miterlimit="10" width="24.3" height="6.2" class="z-gybg5z_92" style="stroke-dasharray: 61px; stroke-dashoffset: 0px;"></rect><rect x="137.7" y="787.2" fill="none" stroke="#FFFFFF" stroke-width="3" stroke-miterlimit="10" width="24.3" height="22.8" class="z-uhq6k4_92" style="stroke-dasharray: 94.2px; stroke-dashoffset: 0px;"></rect><rect x="140.8" y="552.9" fill="none" stroke="#FFFFFF" stroke-width="3" stroke-miterlimit="10" width="18.1" height="234.3" class="z-zqsael_92" style="stroke-dasharray: 504.8px; stroke-dashoffset: 0px;"></rect><rect x="534.3" y="546.6" fill="none" stroke="#FFFFFF" stroke-width="3" stroke-miterlimit="10" width="24.3" height="6.2" class="z-f2kfch_92" style="stroke-dasharray: 61px; stroke-dashoffset: 0px;"></rect><rect x="534.3" y="787.2" fill="none" stroke="#FFFFFF" stroke-width="3" stroke-miterlimit="10" width="24.3" height="22.8" class="z-feqjo3_92" style="stroke-dasharray: 94.2px; stroke-dashoffset: 0px;"></rect><rect x="537.5" y="552.9" fill="none" stroke="#FFFFFF" stroke-width="3" stroke-miterlimit="10" width="18.1" height="234.3" class="z-cvuvpg_92" style="stroke-dasharray: 504.8px; stroke-dashoffset: 0px;"></rect><rect x="571.2" y="546.6" fill="none" stroke="#FFFFFF" stroke-width="3" stroke-miterlimit="10" width="24.3" height="6.2" class="z-gqwe4k_92" style="stroke-dasharray: 61px; stroke-dashoffset: 0px;"></rect><rect x="571.2" y="787.2" fill="none" stroke="#FFFFFF" stroke-width="3" stroke-miterlimit="10" width="24.3" height="22.8" class="z-yonqdc_92" style="stroke-dasharray: 94.2px; stroke-dashoffset: 0px;"></rect><rect x="574.3" y="552.9" fill="none" stroke="#FFFFFF" stroke-width="3" stroke-miterlimit="10" width="18.1" height="234.3" class="z-qqdtld_92" style="stroke-dasharray: 504.8px; stroke-dashoffset: 0px;"></rect><rect x="699.4" y="546.6" fill="none" stroke="#FFFFFF" stroke-width="3" stroke-miterlimit="10" width="24.3" height="6.2" class="z-13iimd_92" style="stroke-dasharray: 61px; stroke-dashoffset: 0px;"></rect><rect x="699.4" y="787.2" fill="none" stroke="#FFFFFF" stroke-width="3" stroke-miterlimit="10" width="24.3" height="22.8" class="z-0t22tk_92" style="stroke-dasharray: 94.2px; stroke-dashoffset: 0px;"></rect><rect x="702.5" y="552.9" fill="none" stroke="#FFFFFF" stroke-width="3" stroke-miterlimit="10" width="18.1" height="234.3" class="z-oik9eg_92" style="stroke-dasharray: 504.8px; stroke-dashoffset: 0px;"></rect><rect x="736.2" y="546.6" fill="none" stroke="#FFFFFF" stroke-width="3" stroke-miterlimit="10" width="24.3" height="6.2" class="z-czuh23_92" style="stroke-dasharray: 61px; stroke-dashoffset: 0px;"></rect><rect x="736.2" y="787.2" fill="none" stroke="#FFFFFF" stroke-width="3" stroke-miterlimit="10" width="24.3" height="22.8" class="z-4iksep_92" style="stroke-dasharray: 94.2px; stroke-dashoffset: 0px;"></rect><rect x="739.3" y="552.9" fill="none" stroke="#FFFFFF" stroke-width="3" stroke-miterlimit="10" width="18.1" height="234.3" class="z-ekkfsp_92" style="stroke-dasharray: 504.8px; stroke-dashoffset: 0px;"></rect><rect x="94.3" y="458.7" fill="none" stroke="#FFFFFF" stroke-width="3" stroke-miterlimit="10" width="62" height="34.1" class="z-kdaq1t_92" style="stroke-dasharray: 192.2px; stroke-dashoffset: 0px;"></rect><polygon fill="none" stroke="#FFFFFF" stroke-width="3" stroke-miterlimit="10" points="160.5,448.4 90.2,448.4 94.3,458.7 	156.3,458.7 " class="z-o5czub_92" style="stroke-dasharray: 154.509px; stroke-dashoffset: 0px;"></polygon><rect x="94.3" y="438.8" fill="none" stroke="#FFFFFF" stroke-width="3" stroke-miterlimit="10" width="62" height="9.6" class="z-am31sh_92" style="stroke-dasharray: 143.2px; stroke-dashoffset: 0px;"></rect><path fill="none" stroke="#FFFFFF" stroke-width="3" stroke-miterlimit="10" d="M595.6,492.7h109.7v-23.3h0	c-53.7,0-97.2-43.5-97.2-97.2v0" class="z-gef1qv_92" style="stroke-dasharray: 285.711px; stroke-dashoffset: 0px;"></path><rect x="705.2" y="458.7" fill="none" stroke="#FFFFFF" stroke-width="3" stroke-miterlimit="10" width="62" height="34.1" class="z-jt5zzu_92" style="stroke-dasharray: 192.2px; stroke-dashoffset: 0px;"></rect><polygon fill="none" stroke="#FFFFFF" stroke-width="3" stroke-miterlimit="10" points="701.1,448.4 771.4,448.4 767.2,458.7 	705.2,458.7 " class="z-s200so_92" style="stroke-dasharray: 154.509px; stroke-dashoffset: 0px;"></polygon><rect x="705.2" y="438.8" fill="none" stroke="#FFFFFF" stroke-width="3" stroke-miterlimit="10" width="62" height="9.6" class="z-lr1nd4_92" style="stroke-dasharray: 143.2px; stroke-dashoffset: 0px;"></rect><path fill="none" stroke="#FFFFFF" stroke-width="3" stroke-miterlimit="10" d="M430.7,577.2L430.7,577.2	c-29.8,0-53.9,24.1-53.9,53.9v179h107.8V631C484.6,601.3,460.5,577.2,430.7,577.2z" class="z-c9wbxy_92" style="stroke-dasharray: 635.195px; stroke-dashoffset: 0px;"></path><line fill="none" stroke="#FFFFFF" stroke-width="3" stroke-miterlimit="10" x1="484.6" y1="631" x2="376.9" y2="631" class="z-5j7e1k_92" style="stroke-dasharray: 107.7px; stroke-dashoffset: 0px;"></line><rect x="385.1" y="639.3" fill="none" stroke="#FFFFFF" stroke-width="3" stroke-miterlimit="10" width="91.2" height="170.7" class="z-2p35d4_92" style="stroke-dasharray: 523.8px; stroke-dashoffset: 0px;"></rect><path fill="none" stroke="#FFFFFF" stroke-width="3" stroke-miterlimit="10" d="M211.2,635.8L211.2,635.8c-22.3,0-40.3,18-40.3,40.3	V810h80.6V676.1C251.5,653.8,233.4,635.8,211.2,635.8z" class="z-9m50g6_92" style="stroke-dasharray: 475.04px; stroke-dashoffset: 0px;"></path><line fill="none" stroke="#FFFFFF" stroke-width="3" stroke-miterlimit="10" x1="251.5" y1="676.1" x2="170.8" y2="676.1" class="z-h986i1_92" style="stroke-dasharray: 80.7px; stroke-dashoffset: 0px;"></line><rect x="177" y="682.3" fill="none" stroke="#FFFFFF" stroke-width="3" stroke-miterlimit="10" width="68.2" height="127.7" class="z-ss5eyj_92" style="stroke-dasharray: 391.8px; stroke-dashoffset: 0px;"></rect><path fill="none" stroke="#FFFFFF" stroke-width="3" stroke-miterlimit="10" d="M644.7,635.8L644.7,635.8c-22.3,0-40.3,18-40.3,40.3	V810H685V676.1C685,653.8,666.9,635.8,644.7,635.8z" class="z-7wtrum_92" style="stroke-dasharray: 475.04px; stroke-dashoffset: 0px;"></path><line fill="none" stroke="#FFFFFF" stroke-width="3" stroke-miterlimit="10" x1="685" y1="676.1" x2="604.3" y2="676.1" class="z-m6adyo_92" style="stroke-dasharray: 80.7px; stroke-dashoffset: 0px;"></line><rect x="610.5" y="682.3" fill="none" stroke="#FFFFFF" stroke-width="3" stroke-miterlimit="10" width="68.2" height="127.7" class="z-9jvtue_92" style="stroke-dasharray: 391.8px; stroke-dashoffset: 0px;"></rect><line fill="none" stroke="#FFFFFF" stroke-width="3" stroke-miterlimit="10" x1="100.8" y1="810" x2="760.6" y2="810" class="z-la4bps_92" style="stroke-dasharray: 659.8px; stroke-dashoffset: 0px;"></line><line fill="none" stroke="#FFFFFF" stroke-width="3" stroke-miterlimit="10" x1="430.7" y1="810" x2="430.7" y2="639.3" class="z-weew7w_92" style="stroke-dasharray: 170.7px; stroke-dashoffset: 0px;"></line><line fill="none" stroke="#FFFFFF" stroke-width="3" stroke-miterlimit="10" x1="422.4" y1="810" x2="422.4" y2="639.3" class="z-r617k1_92" style="stroke-dasharray: 170.7px; stroke-dashoffset: 0px;"></line><line fill="none" stroke="#FFFFFF" stroke-width="3" stroke-miterlimit="10" x1="414.1" y1="810" x2="414.1" y2="639.3" class="z-8ay3ln_92" style="stroke-dasharray: 170.7px; stroke-dashoffset: 0px;"></line><line fill="none" stroke="#FFFFFF" stroke-width="3" stroke-miterlimit="10" x1="405.8" y1="810" x2="405.8" y2="639.3" class="z-8vgkbg_92" style="stroke-dasharray: 170.7px; stroke-dashoffset: 0px;"></line><line fill="none" stroke="#FFFFFF" stroke-width="3" stroke-miterlimit="10" x1="397.5" y1="810" x2="397.5" y2="639.3" class="z-efgj6o_92" style="stroke-dasharray: 170.7px; stroke-dashoffset: 0px;"></line><line fill="none" stroke="#FFFFFF" stroke-width="3" stroke-miterlimit="10" x1="389.3" y1="810" x2="389.3" y2="639.3" class="z-dxdibi_92" style="stroke-dasharray: 170.7px; stroke-dashoffset: 0px;"></line><line fill="none" stroke="#FFFFFF" stroke-width="3" stroke-miterlimit="10" x1="439" y1="810" x2="439" y2="639.3" class="z-o50kln_92" style="stroke-dasharray: 170.7px; stroke-dashoffset: 0px;"></line><line fill="none" stroke="#FFFFFF" stroke-width="3" stroke-miterlimit="10" x1="447.3" y1="810" x2="447.3" y2="639.3" class="z-mcz0bi_92" style="stroke-dasharray: 170.7px; stroke-dashoffset: 0px;"></line><line fill="none" stroke="#FFFFFF" stroke-width="3" stroke-miterlimit="10" x1="455.5" y1="810" x2="455.5" y2="639.3" class="z-uiv6tv_92" style="stroke-dasharray: 170.7px; stroke-dashoffset: 0px;"></line><line fill="none" stroke="#FFFFFF" stroke-width="3" stroke-miterlimit="10" x1="463.8" y1="810" x2="463.8" y2="639.3" class="z-s99ao0_92" style="stroke-dasharray: 170.7px; stroke-dashoffset: 0px;"></line><line fill="none" stroke="#FFFFFF" stroke-width="3" stroke-miterlimit="10" x1="472.1" y1="810" x2="472.1" y2="639.3" class="z-5tkndt_92" style="stroke-dasharray: 170.7px; stroke-dashoffset: 0px;"></line><line fill="none" stroke="#FFFFFF" stroke-width="3" stroke-miterlimit="10" x1="385.1" y1="664.2" x2="476.3" y2="664.2" class="z-0udxzy_92" style="stroke-dasharray: 91.2px; stroke-dashoffset: 0px;"></line><line fill="none" stroke="#FFFFFF" stroke-width="3" stroke-miterlimit="10" x1="385.1" y1="689" x2="476.3" y2="689" class="z-h5h11n_92" style="stroke-dasharray: 91.2px; stroke-dashoffset: 0px;"></line><line fill="none" stroke="#FFFFFF" stroke-width="3" stroke-miterlimit="10" x1="385.1" y1="713.9" x2="476.3" y2="713.9" class="z-c531bx_92" style="stroke-dasharray: 91.2px; stroke-dashoffset: 0px;"></line><line fill="none" stroke="#FFFFFF" stroke-width="3" stroke-miterlimit="10" x1="385.1" y1="738.8" x2="476.3" y2="738.8" class="z-2b5bl7_92" style="stroke-dasharray: 91.2px; stroke-dashoffset: 0px;"></line><line fill="none" stroke="#FFFFFF" stroke-width="3" stroke-miterlimit="10" x1="385.1" y1="763.6" x2="476.3" y2="763.6" class="z-ekkxf6_92" style="stroke-dasharray: 91.2px; stroke-dashoffset: 0px;"></line><line fill="none" stroke="#FFFFFF" stroke-width="3" stroke-miterlimit="10" x1="385.1" y1="788.5" x2="476.3" y2="788.5" class="z-nk5kxn_92" style="stroke-dasharray: 91.2px; stroke-dashoffset: 0px;"></line><path fill="none" stroke="#FFFFFF" stroke-width="3" stroke-linejoin="round" stroke-miterlimit="10" d="M448.1,369.5	c1.4,0.7,0.6,1.9,0.9,2.9c-9.5,0-18.9,0-28.4,0c0-0.9-0.5-1.8,0.2-2.6c0.2-0.3,0.5-0.6,0.8-0.7c1.1-0.3,1.9-1.1,2-2.2	c0.2-1.5,0.4-3,0.2-4.4c-0.1-0.7-1-1.4-1.6-2.3c0.3-0.6,0.6-1.5,1.1-2.5c0.5,0.2,0.9,0.3,1.4,0.5c-0.5-1.3-0.9-2.5-1.4-3.6	c-0.9-2.2-1.2-4.5-1.3-6.8c0-1.2-0.1-2.5-0.1-3.7c-0.1-2.3-1.3-4.3-2.1-6.4c-0.1-0.2-0.5-0.4-0.8-0.3c-1.4,0.2-2.3-0.2-3.3-1.4	c-1.5-1.6-2.6-3.3-3.2-5.4c-0.2-0.8-0.1-1.7-0.1-2.6c0-0.7,0.1-1.3,0.1-2c0-2.8-0.1-5.7,1-8.4c0.1-0.3,0-0.6,0.1-0.9	c0.3-2.9,0.4-5.8,0.8-8.7c0.4-2.7,1.7-4.7,4.4-5.6c0.8-0.3,1.5-0.8,2.3-1.2c1.6-0.9,1.5-2.8,0.6-4.1c-0.8-1.1-1.4-2.2-1.3-3.6	c0-0.2,0-0.5-0.2-0.7c-1.4-1.4-0.6-2.9-0.1-4.2c0.6-1.4,1.5-2.7,3.2-3.1c1.5-0.3,3-0.5,4.5-0.7c0.9-0.1,1.6,0.3,2.1,1	c0.4,0.5,0.7,1.1,1,1.6c0.4,0.7,0.4,1.4-0.1,2.1c-0.6,0.8-0.9,1.8-1.1,2.8c-0.2,1.1-0.9,2.2-1.1,3.4c-0.2,0.9,0.1,1.9,0.2,2.8	c0.3,0,0.6,0,0.8-0.1c0.3-0.3,0.6-0.8,0.9-1.3c0,0.1,0,0,0,0c-0.3-0.4-0.5-0.8-0.8-1.2c0.6-0.2,1.1-0.6,1.7-0.7	c1-0.1,1.7,0.5,2.2,1.4c0.6,1,1.4,2,2.1,2.9c1.1,1.4,2.1,2.8,3.3,4.1c0.7,0.8,1.6,1.5,2.4,2.2c1.3,1.2,2.2,2.6,2,4.4	c-0.1,0.6-0.4,1.5-0.9,1.7c-0.8,0.4-1.8,0.5-2.6-0.3c-1.1-1.1-2.2-2.3-3.3-3.5c-0.4-0.4-0.7-0.8-1.1-1.4c-0.2,1.8-0.4,3.5-0.6,5.2	c0,0.4-0.1,0.8-0.2,1.2c-1.2,3-0.1,5.9,0,8.9c0.1,1.9,0,3.8,0,5.7c0,0.2,0,0.4,0,0.6c1.2,3.6,1.2,7.4,1.5,11.1	c0.1,0.7,0.4,1.4,0.6,2c0.1,0.2,0.3,0.5,0.4,0.7c0.4,2.1,1.6,3.6,2.9,5.1c1.6,1.8,1.9,4.1,2.2,6.3c0.2,1.4,0.4,2.9,0.7,4.3	c0.3,1.2,0.7,2.4,1.1,3.6c0,0.1,0.1,0.1,0.1,0.2c0.3,2.2,1.9,3.5,3.3,4.9C448.4,367.5,448.7,368.3,448.1,369.5z M442.5,368.1	c-1.6-1.6-1.7-3.7-2-5.5c-0.3-1.4-0.7-2.7-1.3-4c-0.5-1.1-0.8-2.4-1.6-3.3c-1.5-1.7-2.4-3.8-2.9-5.9c-0.3-1.2-0.7-2.3-1.6-3.2	c-0.4-0.5-0.8-1.1-1-1.7c-1.2-2.7-2-5.6-3.7-8.1c-0.7-1-0.9-2.3-1.3-3.4c-0.1-0.2-0.1-0.4-0.2-0.6c-0.1,0-0.1,0-0.2,0	c0.3,5.1,0.6,10.2,0.8,15.2c0.4-0.7,0.5-1.5,0.8-2.2c0.2-0.4,0.6-0.6,0.9-1c0.3,0.3,0.8,0.6,0.9,1c0.2,0.7,0.1,1.4,0.1,2.1	c0,1.4,0.1,2.9,0.1,4.3c0,1.3,0,2.6,0.8,3.7c0.2,0.3,0.2,0.9,0.1,1.3c-0.4,1.5-0.8,2.9,0.3,4.3c0.2,0.2,0.2,0.5,0.3,0.7	c0.8,1.8,1.5,3.7,2.4,5.5c0.1,0.3,0.7,0.6,1.1,0.6c1.4,0.1,2.9,0,4.3,0.1C440.6,368.1,441.6,368.1,442.5,368.1z M418.6,332.2	c0-2.1-0.1-4.2,0-6.3c0-1.2,0.4-2.3,0.5-3.4c0.1-1.7,0.4-3.2,1.2-4.7c0.3-0.5,0.5-1.1,0.3-1.6c-0.4-1.4-1-2.8-1.6-4.2	c-0.1,0-0.3,0.1-0.4,0.1c-0.4,3.2-1.9,6.2-1.7,9.5c0.2,2.2-0.8,4.1-1.5,6.2c-0.2,0.5-0.1,1.3,0.1,1.5	C416.9,330,418.1,330.8,418.6,332.2z" class="z-63b9cx_92" style="stroke-dasharray: 392.33px; stroke-dashoffset: 0px;"></path><g class="z-evfdfe_92">	<path fill="none" d="M103.1,373.6c-0.1,0-0.2,0-0.3,0c-0.3,3.5-2.1,6.7-1.9,10.3c0.1,1,0,2-0.2,2.9c-0.4,1.8-1.1,3.5-1.5,5.2		c-0.1,0.5,0,1.5,0.3,1.7c1.4,0.8,2.7,1.8,3.4,3.3c0-0.9-0.2-1.7-0.1-2.5c0.2-3.5,0.4-6.9,0.8-10.4c0.1-1.2,0.5-2.4,1.1-3.5		c0.8-1.5,0.7-2.8,0-4.2C104.2,375.5,103.6,374.5,103.1,373.6z" class="z-fs3gfw_92" style="stroke-dasharray: 49.9927px; stroke-dashoffset: 0px;"></path>	<path fill="none" d="M129.3,436.5c-0.5-1.9-0.8-3.8-1.3-5.7c-0.2-0.7-0.4-1.4-0.7-2.1c-1.1-2.2-2.1-4.4-3.5-6.5		c-1.3-2-1.9-4.5-2.8-6.8c-0.1-0.3-0.2-0.7-0.4-0.9c-2.3-2.4-3.3-5.4-4.1-8.5c-0.1-0.3-0.1-0.6-0.3-0.8c-2.1-2.5-3.3-1.9-4.2-5		c0.3,4.2,0.6,4.9,0.9,9.1c0,0,0,0.1,0,0.1c-0.5,5.5,2,10.6,1.9,16c0,0.8,0,1.7,0.1,2.5c0.2,1.4,0.5,2.8,1,4.2c0.7,1.9,0.8,4,1.2,6		c0,0.2,0,0.4-0.1,0.6h13.4c-0.2-0.4-0.4-0.7-0.6-1.1C129.7,437.3,129.4,436.9,129.3,436.5z" class="z-6ew0c6_92" style="stroke-dasharray: 95.7454px; stroke-dashoffset: 0px;"></path>	<path fill="none" stroke="#FFFFFF" stroke-width="3" stroke-linejoin="round" stroke-miterlimit="10" d="M122.3,367.6		c0.6,0.7,1.1,1.3,1.6,1.9c1.2,1.2,2.3,2.6,3.5,3.7c1.7,1.5,3.8,0.6,4.1-1.5c0.1-0.6,0-1.2-0.1-1.8c-0.4-1.6-1.3-2.8-2.7-3.8		c-0.9-0.7-1.9-1.3-2.4-2.3c-1-1.8-2.3-3.3-3.7-4.7c-1-1-1.8-2.2-2.6-3.4c-0.6-1-1.4-1.7-2.6-1.6c-0.6,0.1-1.2,0.5-1.8,0.8		c0.3,0.4,0.6,0.9,0.8,1.3c0,0.1,0.1,0.1,0.1,0.1c-0.5,0.6-0.9,1.1-1.4,1.8c-0.1,0-0.5-0.1-0.6-0.2c-0.1-1.1-0.4-2.3-0.2-3.3		c0.2-1.3,1-2.4,1.2-3.7c0.2-1.3,0.7-2.3,1.3-3.4c0.3-0.6,0.5-1.5,0.3-2.1c-0.2-0.9-0.8-1.7-1.4-2.4c-0.5-0.5-1.4-1-2.1-0.9		c-1.8,0.1-3.6,0.3-5.4,0.7c-1.9,0.4-3.1,1.9-3.7,3.6c-0.6,1.5-1.5,3.3,0.1,4.9c0.2,0.2,0.2,0.5,0.2,0.8c0,1.6,0.6,2.9,1.6,4.1		c1.1,1.4,1.2,3.7-0.8,4.8c-0.8,0.5-1.5,1-2.3,1.3c-3.8,1.2-5.3,4.1-5.5,7.8c-0.1,2.2-0.2,4.4-0.6,6.5c-0.3,1.2-0.2,2.5-0.4,3.8		c-0.2,1.5-0.7,3-0.9,4.5c-0.2,2.3,0,4.6-0.3,6.8c-0.3,1.9,0.1,3.5,0.7,5.2c0.7,1.9,2.2,3.2,3.4,4.8c0.8,1.1,1.8,1.4,3,1.3		c0.4,0,0.8-0.1,1.3-0.1 M104.6,380.7c-0.6,1.1-0.9,2.3-1.1,3.5c-0.4,3.5-0.6,6.9-0.8,10.4c-0.1,0.8,0.1,1.6,0.1,2.5		c-0.7-1.6-2-2.5-3.4-3.3c-0.3-0.2-0.4-1.2-0.3-1.7c0.4-1.8,1.1-3.5,1.5-5.2c0.2-0.9,0.3-1.9,0.2-2.9c-0.2-3.6,1.6-6.8,1.9-10.3		c0.1,0,0.2,0,0.3,0c0.5,0.9,1.1,1.9,1.5,2.9C105.2,377.8,105.4,379.2,104.6,380.7z" class="z-ec5oq5_92" style="stroke-dasharray: 188.986px; stroke-dashoffset: 0px;"></path></g><path fill="none" stroke="#FFFFFF" stroke-width="3" stroke-linejoin="round" stroke-miterlimit="10" d="M99.7,401.6v31.7l12.6,1.1	c0.2,1.5-0.3,2.4-1.3,3.3c-0.2,0.2-0.6,0.4-0.7,0.6c0,0.1-0.1,0.2-0.1,0.3h6.9c0.1-0.1,0.1-0.4,0.1-0.6c-0.4-2-0.5-4.1-1.2-6	c-0.5-1.4-0.9-2.8-1-4.2c-0.1-0.8-0.2-1.7-0.1-2.5c0.1-5.4-2.4-10.5-1.9-16c0,0,0-0.1,0-0.1c-0.3-4.2-0.6-4.9-0.9-9.1	c0.9,3.1,2.1,2.5,4.2,5c0.2,0.2,0.2,0.5,0.3,0.8c0.9,3.1,1.9,6.1,4.1,8.5c0.2,0.2,0.2,0.6,0.4,0.9c0.9,2.3,1.4,4.8,2.8,6.8	c1.3,2.1,2.3,4.3,3.5,6.5c0.3,0.6,0.6,1.3,0.7,2.1c0.5,1.9,0.8,3.8,1.3,5.7c0.1,0.4,0.4,0.8,0.6,1.1c0.2,0.4,0.4,0.7,0.6,1.1h6.9	c-0.1-0.5-0.4-0.9-0.8-1.4c-1.7-1.8-3.7-3.4-4.2-6c-0.1-0.8-0.8-1.5-1-2.3c-0.4-2-0.6-4-1-6.1c-0.5-2.9-0.6-5.9-2.7-8.2	c-1.6-1.7-3-3.6-3.5-6c-0.1-0.3-0.3-0.6-0.4-0.8c-0.2-0.7-0.5-1.4-0.6-2.2c-0.4-4.4-0.5-8.8-1.9-13.1c-0.1-0.2,0-0.5,0-0.7" class="z-8p57to_92" style="stroke-dasharray: 196.268px; stroke-dashoffset: 0px;"></path><line fill="none" stroke="#FFFFFF" stroke-width="3" stroke-linejoin="round" stroke-miterlimit="10" x1="116.6" y1="434.5" x2="128.6" y2="433.3" class="z-4hkk11_92" style="stroke-dasharray: 12.0599px; stroke-dashoffset: 0px;"></line><path fill="none" stroke="#FFFFFF" stroke-width="3" stroke-linejoin="round" stroke-miterlimit="10" d="M122.3,367.6" class="z-empoyx_92" style="stroke-dasharray: 0px; stroke-dashoffset: 0px;"></path><polyline fill="none" stroke="#FFFFFF" stroke-width="3" stroke-linejoin="round" stroke-miterlimit="10" points="113.5,379.1 	113.5,391.3 134.8,396.2 131.4,369.9 " class="z-n08v1b_92"></polyline><g class="z-a8xfz5_92">	<path fill="none" d="M724,365.9c0.1,0,0.2,0.1,0.4,0.1c0.7-1.2,1.4-2.4,2.2-3.8C723.6,363.4,723.4,363.8,724,365.9z" class="z-1rg5ix_92" style="stroke-dasharray: 10.1549px; stroke-dashoffset: 0px;"></path>	<path fill="none" d="M745.8,381.5c0.6,2.5,1.2,5,1.9,7.8c0.3-1.3,0.7-2.4,0.7-3.6c0.1-2.5-0.2-4.9,0.6-7.3c0.3-0.8,0.1-1.7-0.4-2.5		c-0.8-1.4-1.1-2.9-1.6-4.1c-0.6,1.5-1.4,3.3-2.1,5.1c-0.1,0.1-0.1,0.3,0,0.5C745.2,378.7,745.5,380.1,745.8,381.5z" class="z-y7lae8_92" style="stroke-dasharray: 36.3391px; stroke-dashoffset: 0px;"></path>	<path fill="none" stroke="#FFFFFF" stroke-width="3" stroke-miterlimit="10" d="M728.6,370.4 M736.1,399.8c0.2-0.3,0.4-0.7,0.5-1.1		c0.1,0,0.2,0,0.3,0c0,1.9,0,3.8,0,5.7c0,0.7-0.1,1.3,0.1,2c0.5,2.3,1.1,4.5,1.7,6.8c0.1,0.4,0.1,0.9,0.1,1.3c0,2.9,0.2,5.8-0.1,8.6		c-0.4,3.7-1.2,7.3-1.8,10.9c-0.3,1.9-1.4,3.3-2.7,4.6h7.5c0,0,0-0.1,0-0.1c-0.5-2.9-0.3-5.7,0.7-8.4c1.1-3.4,2.3-6.7,3-10.2		c0.4-2.3,0.1-4.8-0.2-7.2c-0.5-3.7-0.4-7.4,0.3-11c0.1-0.5,0.7-0.9,1-1.4c0.7-1.2,2.8-1.3,2.8-3.1c0-0.1,0.1-0.2,0.1-0.2		c2-0.8,2.1-2.6,2.1-4.2c0.1-3.5,1.1-6.8,2-10.1c1-3.5,0.2-7.1-0.1-10.7c-0.2-2.3-0.4-4.7-0.7-7c-0.2-1.4-0.6-2.8-1.1-4.2		c-0.5-1.4-1.8-2.1-3.2-2.5c-1.3-0.3-2.5-0.7-3.8-0.9c-2.5-0.5-3.5-4.2-2.2-6c1.7-2.4,1.7-5.1,0.8-7.8c-0.7-2.1-2.4-3.3-4.6-3.7		c-2.4-0.5-4.8-0.3-7.2,0.3c-1.2,0.3-2.1,0.9-2.3,2.1c-0.1,0.4,0.1,1.1,0.3,1.4c1.2,1.3,1.4,2.8,1.2,4.5c-0.1,0.8-0.7,1.7,0.8,2		c0.3,0.1,0.7,1.2,0.6,1.8c-0.2,1.5,0.7,2,1.9,2.2c0.2,0,0.3,0.1,0.5,0.2c-0.1,0.8-0.1,1.5-0.3,2.2c-0.1,0.3-0.5,0.6-0.7,0.6		c-1.1,0.2-2-0.2-2.8-0.9c-1-0.9-2.1-1.7-3.3-2.3c-1.7-0.8-3-0.1-3.6,1.6c-0.1,0.2-0.2,0.4-0.4,0.6c-3,3.1-4.2,6.9-4.4,11.1		c-0.1,2.1-0.3,4.2-0.2,6.3c0,0.9,0.5,2.1,1.1,2.7c0.9,0.8,2.1,0.1,2.9-0.6 M744.9,376.8c0.7-1.8,1.5-3.6,2.1-5.1		c0.4,1.2,0.8,2.8,1.6,4.1c0.5,0.9,0.7,1.7,0.4,2.5c-0.8,2.4-0.6,4.9-0.6,7.3c0,1.1-0.4,2.3-0.7,3.6c-0.7-2.8-1.3-5.3-1.9-7.8		c-0.3-1.4-0.6-2.8-0.9-4.2C744.9,377.1,744.9,377,744.9,376.8z M724.4,366c-0.1,0-0.2-0.1-0.4-0.1c-0.6-2.1-0.4-2.4,2.6-3.6		C725.8,363.6,725.1,364.8,724.4,366z" class="z-h0oo31_92" style="stroke-dasharray: 273.381px; stroke-dashoffset: 0px;"></path></g><polyline fill="none" stroke="#FFFFFF" stroke-width="3" stroke-miterlimit="10" points="722.9,375.7 713.7,438.8 732.3,438.8 " class="z-8uit4u_92"></polyline><polyline fill="none" stroke="#FFFFFF" stroke-width="3" stroke-miterlimit="10" points="749.3,397.3 757.2,438.8 741.7,438.6 " class="z-4mgm79_92"></polyline><line fill="none" stroke="#FFFFFF" stroke-width="3" stroke-miterlimit="10" x1="734.3" y1="438.8" x2="733.6" y2="357.3" class="z-g9s6jh_92" style="stroke-dasharray: 81.503px; stroke-dashoffset: 0px;"></line><path fill="none" stroke="#FFFFFF" stroke-width="3" stroke-linejoin="round" stroke-miterlimit="10" d="M412.5,327.9	c0.1,2.6-1.4,42.8-1.4,42.8l9.8-0.9" class="z-j7b9he_92" style="stroke-dasharray: 52.6651px; stroke-dashoffset: 0px;"></path><polyline fill="none" stroke="#FFFFFF" stroke-width="3" stroke-linejoin="round" stroke-miterlimit="10" points="442.5,312 	449,350.2 442.3,353.7 " class="z-4bal6d_92"></polyline></svg>