<svg version="1.1" id="Layer_1" xmlns="http://www.w3.org/2000/svg" xmlns:xlink="http://www.w3.org/1999/xlink" x="0px" y="0px" viewBox="0 0 718.5 463.5" enable-background="new 0 0 718.5 463.5" xml:space="preserve" data-id="94"><g class="z-4h6lhu_94">	<g class="z-g13571_94">		<g class="z-h86rd1_94">			<rect x="571.4" y="258.9" fill="none" stroke="#FFFFFF" stroke-width="3" stroke-miterlimit="10" width="19.8" height="182.3" class="z-h4olb9_94" style="stroke-dasharray: 404.2px; stroke-dashoffset: 0px;"></rect>			<rect x="552.3" y="229.3" fill="none" stroke="#FFFFFF" stroke-width="3" stroke-miterlimit="10" width="58.1" height="29.7" class="z-cd45i5_94" style="stroke-dasharray: 175.6px; stroke-dashoffset: 0px;"></rect>			<rect x="558" y="208.1" fill="none" stroke="#FFFFFF" stroke-width="3" stroke-miterlimit="10" width="46.6" height="21.2" class="z-oq7xrf_94" style="stroke-dasharray: 135.6px; stroke-dashoffset: 0px;"></rect>			<line fill="none" stroke="#FFFFFF" stroke-width="3" stroke-miterlimit="10" x1="604.6" y1="215.2" x2="557.8" y2="215.2" class="z-r37cxe_94" style="stroke-dasharray: 46.8px; stroke-dashoffset: 0px;"></line>			<line fill="none" stroke="#FFFFFF" stroke-width="3" stroke-miterlimit="10" x1="604.6" y1="222.4" x2="557.8" y2="222.4" class="z-krf34d_94" style="stroke-dasharray: 46.8px; stroke-dashoffset: 0px;"></line>			<polygon fill="none" stroke="#FFFFFF" stroke-width="3" stroke-miterlimit="10" points="592.4,208.1 570,208.1 571.2,185.6 				591.2,185.6 			" class="z-7oesbe_94" style="stroke-dasharray: 87.464px; stroke-dashoffset: 0px;"></polygon>			<rect x="575.2" y="131.3" fill="none" stroke="#FFFFFF" stroke-width="3" stroke-miterlimit="10" width="12" height="54.3" class="z-witc9k_94" style="stroke-dasharray: 132.6px; stroke-dashoffset: 0px;"></rect>			<line fill="none" stroke="#FFFFFF" stroke-width="3" stroke-miterlimit="10" x1="571.4" y1="131.3" x2="591.2" y2="131.3" class="z-y55r4i_94" style="stroke-dasharray: 19.8px; stroke-dashoffset: 0px;"></line>			<rect x="576.8" y="89.9" fill="none" stroke="#FFFFFF" stroke-width="3" stroke-miterlimit="10" width="8.9" height="41.4" class="z-5m5cxc_94" style="stroke-dasharray: 100.6px; stroke-dashoffset: 0px;"></rect>			<line fill="none" stroke="#FFFFFF" stroke-width="3" stroke-miterlimit="10" x1="573.5" y1="89.9" x2="589.1" y2="89.9" class="z-errhn2_94" style="stroke-dasharray: 15.6px; stroke-dashoffset: 0px;"></line>			<line fill="none" stroke="#FFFFFF" stroke-width="3" stroke-miterlimit="10" x1="581.3" y1="24.9" x2="581.3" y2="89.9" class="z-l0wprl_94" style="stroke-dasharray: 65px; stroke-dashoffset: 0px;"></line>		</g>		<rect x="557.9" y="234.5" fill="none" stroke="#FFFFFF" stroke-width="3" stroke-miterlimit="10" width="5.4" height="7.3" class="z-vad92k_94" style="stroke-dasharray: 25.4px; stroke-dashoffset: 0px;"></rect>		<rect x="568.2" y="234.5" fill="none" stroke="#FFFFFF" stroke-width="3" stroke-miterlimit="10" width="5.4" height="7.3" class="z-ngyia9_94" style="stroke-dasharray: 25.4px; stroke-dashoffset: 0px;"></rect>		<rect x="578.6" y="234.5" fill="none" stroke="#FFFFFF" stroke-width="3" stroke-miterlimit="10" width="5.4" height="7.3" class="z-6qizdl_94" style="stroke-dasharray: 25.4px; stroke-dashoffset: 0px;"></rect>		<rect x="589" y="234.5" fill="none" stroke="#FFFFFF" stroke-width="3" stroke-miterlimit="10" width="5.4" height="7.3" class="z-q3nfr3_94" style="stroke-dasharray: 25.4px; stroke-dashoffset: 0px;"></rect>		<rect x="599.4" y="234.5" fill="none" stroke="#FFFFFF" stroke-width="3" stroke-miterlimit="10" width="5.4" height="7.3" class="z-j8v075_94" style="stroke-dasharray: 25.4px; stroke-dashoffset: 0px;"></rect>		<rect x="557.9" y="246.8" fill="none" stroke="#FFFFFF" stroke-width="3" stroke-miterlimit="10" width="5.4" height="7.3" class="z-09m237_94" style="stroke-dasharray: 25.4px; stroke-dashoffset: 0px;"></rect>		<rect x="568.2" y="246.8" fill="none" stroke="#FFFFFF" stroke-width="3" stroke-miterlimit="10" width="5.4" height="7.3" class="z-vvkix4_94" style="stroke-dasharray: 25.4px; stroke-dashoffset: 0px;"></rect>		<rect x="578.6" y="246.8" fill="none" stroke="#FFFFFF" stroke-width="3" stroke-miterlimit="10" width="5.4" height="7.3" class="z-2snpiu_94" style="stroke-dasharray: 25.4px; stroke-dashoffset: 0px;"></rect>		<rect x="589" y="246.8" fill="none" stroke="#FFFFFF" stroke-width="3" stroke-miterlimit="10" width="5.4" height="7.3" class="z-qugdcu_94" style="stroke-dasharray: 25.4px; stroke-dashoffset: 0px;"></rect>		<rect x="599.4" y="246.8" fill="none" stroke="#FFFFFF" stroke-width="3" stroke-miterlimit="10" width="5.4" height="7.3" class="z-nja0p5_94" style="stroke-dasharray: 25.4px; stroke-dashoffset: 0px;"></rect>	</g>	<rect x="564.7" y="378.7" fill="#120079" width="35.8" height="76.2" class="z-t7arvq_94" style="stroke-dasharray: 224px; stroke-dashoffset: 0px;"></rect>	<rect x="349.7" y="335" fill="none" stroke="#FFFFFF" stroke-width="3" stroke-miterlimit="10" width="5.3" height="10.5" class="z-9d7bqe_94" style="stroke-dasharray: 31.6px; stroke-dashoffset: 0px;"></rect>	<rect x="373" y="335" fill="none" stroke="#FFFFFF" stroke-width="3" stroke-miterlimit="10" width="5.3" height="10.5" class="z-vnepe1_94" style="stroke-dasharray: 31.6px; stroke-dashoffset: 0px;"></rect>	<rect x="396.3" y="335" fill="none" stroke="#FFFFFF" stroke-width="3" stroke-miterlimit="10" width="5.3" height="10.5" class="z-rfm6av_94" style="stroke-dasharray: 31.6px; stroke-dashoffset: 0px;"></rect>	<rect x="419.7" y="335" fill="none" stroke="#FFFFFF" stroke-width="3" stroke-miterlimit="10" width="5.3" height="10.5" class="z-faup9b_94" style="stroke-dasharray: 31.6px; stroke-dashoffset: 0px;"></rect>	<rect x="443" y="331.4" fill="none" stroke="#FFFFFF" stroke-width="3" stroke-miterlimit="10" width="5.3" height="14.1" class="z-o2aca3_94" style="stroke-dasharray: 38.8px; stroke-dashoffset: 0px;"></rect>	<rect x="466.3" y="329.5" fill="none" stroke="#FFFFFF" stroke-width="3" stroke-miterlimit="10" width="5.3" height="16" class="z-wsbtr8_94" style="stroke-dasharray: 42.6px; stroke-dashoffset: 0px;"></rect>	<rect x="233.1" y="330.4" fill="none" stroke="#FFFFFF" stroke-width="3" stroke-miterlimit="10" width="5.3" height="15" class="z-516ai6_94" style="stroke-dasharray: 40.6px; stroke-dashoffset: 0px;"></rect>	<rect x="256.5" y="331.4" fill="none" stroke="#FFFFFF" stroke-width="3" stroke-miterlimit="10" width="5.3" height="14.1" class="z-9fouuc_94" style="stroke-dasharray: 38.8px; stroke-dashoffset: 0px;"></rect>	<rect x="279.8" y="335" fill="none" stroke="#FFFFFF" stroke-width="3" stroke-miterlimit="10" width="5.3" height="10.5" class="z-y5endf_94" style="stroke-dasharray: 31.6px; stroke-dashoffset: 0px;"></rect>	<rect x="303.1" y="335" fill="none" stroke="#FFFFFF" stroke-width="3" stroke-miterlimit="10" width="5.3" height="10.5" class="z-zb9d3f_94" style="stroke-dasharray: 31.6px; stroke-dashoffset: 0px;"></rect>	<rect x="326.4" y="335" fill="none" stroke="#FFFFFF" stroke-width="3" stroke-miterlimit="10" width="5.3" height="10.5" class="z-5aqg8j_94" style="stroke-dasharray: 31.6px; stroke-dashoffset: 0px;"></rect>	<polyline fill="none" stroke="#FFFFFF" stroke-width="3" stroke-miterlimit="10" points="497.8,330.5 497.8,351.3 216.9,351.3 		216.9,330.5 	" class="z-sd214i_94"></polyline>	<path fill="none" stroke="#FFFFFF" stroke-width="3" stroke-linejoin="round" stroke-miterlimit="10" d="M497.8,351.3		c-9.3,0-271.6,0-280.9,0c-1.9,5-7.8,9.9-14.7,13.9c11.5,0,298.9,0,310.4,0C505.6,361.2,499.7,356.3,497.8,351.3z" class="z-4uo1a0_94" style="stroke-dasharray: 632.531px; stroke-dashoffset: 0px;"></path>	<polygon fill="none" stroke="#FFFFFF" stroke-width="3" stroke-miterlimit="10" points="512.6,391 512.6,365.2 202.2,365.2 		202.2,391 187.4,391 187.4,463.5 527.3,463.5 527.3,391 	" class="z-iwqvjv_94" style="stroke-dasharray: 876.4px; stroke-dashoffset: 0px;"></polygon>	<rect x="212.1" y="365.2" fill="none" stroke="#FFFFFF" stroke-width="3" stroke-miterlimit="10" width="9.3" height="11.9" class="z-s1u1kx_94" style="stroke-dasharray: 42.4px; stroke-dashoffset: 0px;"></rect>	<rect x="233.8" y="365.2" fill="none" stroke="#FFFFFF" stroke-width="3" stroke-miterlimit="10" width="9.3" height="11.9" class="z-k4mvdp_94" style="stroke-dasharray: 42.4px; stroke-dashoffset: 0px;"></rect>	<rect x="255.4" y="365.2" fill="none" stroke="#FFFFFF" stroke-width="3" stroke-miterlimit="10" width="9.3" height="11.9" class="z-q5afwd_94" style="stroke-dasharray: 42.4px; stroke-dashoffset: 0px;"></rect>	<rect x="277" y="365.2" fill="none" stroke="#FFFFFF" stroke-width="3" stroke-miterlimit="10" width="9.3" height="11.9" class="z-hv5zzq_94" style="stroke-dasharray: 42.4px; stroke-dashoffset: 0px;"></rect>	<rect x="298.6" y="365.2" fill="none" stroke="#FFFFFF" stroke-width="3" stroke-miterlimit="10" width="9.3" height="11.9" class="z-igc34s_94" style="stroke-dasharray: 42.4px; stroke-dashoffset: 0px;"></rect>	<rect x="320.3" y="365.2" fill="none" stroke="#FFFFFF" stroke-width="3" stroke-miterlimit="10" width="9.3" height="11.9" class="z-hnsg1x_94" style="stroke-dasharray: 42.4px; stroke-dashoffset: 0px;"></rect>	<rect x="341.9" y="365.2" fill="none" stroke="#FFFFFF" stroke-width="3" stroke-miterlimit="10" width="9.3" height="11.9" class="z-acq8rr_94" style="stroke-dasharray: 42.4px; stroke-dashoffset: 0px;"></rect>	<rect x="363.5" y="365.2" fill="none" stroke="#FFFFFF" stroke-width="3" stroke-miterlimit="10" width="9.3" height="11.9" class="z-7wkgdc_94" style="stroke-dasharray: 42.4px; stroke-dashoffset: 0px;"></rect>	<rect x="385.2" y="365.2" fill="none" stroke="#FFFFFF" stroke-width="3" stroke-miterlimit="10" width="9.3" height="11.9" class="z-dltklk_94" style="stroke-dasharray: 42.4px; stroke-dashoffset: 0px;"></rect>	<rect x="406.8" y="365.2" fill="none" stroke="#FFFFFF" stroke-width="3" stroke-miterlimit="10" width="9.3" height="11.9" class="z-9b84fg_94" style="stroke-dasharray: 42.4px; stroke-dashoffset: 0px;"></rect>	<rect x="428.4" y="365.2" fill="none" stroke="#FFFFFF" stroke-width="3" stroke-miterlimit="10" width="9.3" height="11.9" class="z-hms4jw_94" style="stroke-dasharray: 42.4px; stroke-dashoffset: 0px;"></rect>	<rect x="450" y="365.2" fill="none" stroke="#FFFFFF" stroke-width="3" stroke-miterlimit="10" width="9.3" height="11.9" class="z-dnmhw8_94" style="stroke-dasharray: 42.4px; stroke-dashoffset: 0px;"></rect>	<rect x="471.7" y="365.2" fill="none" stroke="#FFFFFF" stroke-width="3" stroke-miterlimit="10" width="9.3" height="11.9" class="z-n97e40_94" style="stroke-dasharray: 42.4px; stroke-dashoffset: 0px;"></rect>	<rect x="493.3" y="365.2" fill="none" stroke="#FFFFFF" stroke-width="3" stroke-miterlimit="10" width="9.3" height="11.9" class="z-xt9a52_94" style="stroke-dasharray: 42.4px; stroke-dashoffset: 0px;"></rect>	<path fill="none" stroke="#FFFFFF" stroke-width="3" stroke-miterlimit="10" d="M357.2,398.1c-15.4,0-27.9,12.5-27.9,27.9v37.5H385		v-37.5C385,410.5,372.5,398.1,357.2,398.1z" class="z-625we7_94" style="stroke-dasharray: 218.289px; stroke-dashoffset: 0px;"></path>	<path fill="none" stroke="#FFFFFF" stroke-width="3" stroke-miterlimit="10" d="M265.2,403.8c-12.7,0-23,10.3-23,23v36.7h45.9		v-36.7C288.2,414.1,277.9,403.8,265.2,403.8z" class="z-6ag373_94" style="stroke-dasharray: 191.528px; stroke-dashoffset: 0px;"></path>	<path fill="none" stroke="#FFFFFF" stroke-width="3" stroke-miterlimit="10" d="M449.3,403.8c-12.7,0-23,10.3-23,23v36.7h45.9		v-36.7C472.3,414.1,462,403.8,449.3,403.8z" class="z-jkkmsy_94" style="stroke-dasharray: 191.528px; stroke-dashoffset: 0px;"></path>	<polyline fill="none" stroke="#FFFFFF" stroke-width="3" stroke-miterlimit="10" points="158.4,383.2 158.4,391 111.6,391 		111.6,396.8 67.1,396.8 67.1,402.8 22.5,402.8 	" class="z-wtv86j_94"></polyline>	<polyline fill="none" stroke="#FFFFFF" stroke-width="3" stroke-miterlimit="10" points="154.9,378.7 114.5,378.7 108,391 		158.4,391 	" class="z-2u1y80_94"></polyline>	<polyline fill="none" stroke="#FFFFFF" stroke-width="3" stroke-miterlimit="10" points="202.4,370.9 159.2,370.9 152.7,383.2 		202.4,383.2 	" class="z-5yz5el_94"></polyline>	<polyline fill="none" stroke="#FFFFFF" stroke-width="3" stroke-miterlimit="10" points="111.5,384.5 67.6,384.5 61.1,396.8 		111.5,396.8 	" class="z-1x2z7y_94"></polyline>	<polyline fill="none" stroke="#FFFFFF" stroke-width="3" stroke-miterlimit="10" points="65.6,388.5 23,388.5 16.5,402.8 		66.9,402.8 	" class="z-a91wca_94"></polyline>	<polyline fill="none" stroke="#FFFFFF" stroke-width="3" stroke-miterlimit="10" points="556.4,383.2 556.4,391 603.2,391 		603.2,396.8 647.8,396.8 647.8,402.8 692.4,402.8 	" class="z-qr0iv1_94"></polyline>	<polyline fill="none" stroke="#FFFFFF" stroke-width="3" stroke-miterlimit="10" points="559.9,378.7 600.4,378.7 606.9,391 		556.4,391 	" class="z-mwbrt2_94"></polyline>	<polyline fill="none" stroke="#FFFFFF" stroke-width="3" stroke-miterlimit="10" points="512.4,370.9 555.6,370.9 562.2,383.2 		512.4,383.2 	" class="z-uyb6kj_94"></polyline>	<polyline fill="none" stroke="#FFFFFF" stroke-width="3" stroke-miterlimit="10" points="603.3,384.5 647.3,384.5 653.8,396.8 		603.3,396.8 	" class="z-n5z9tm_94"></polyline>	<polyline fill="none" stroke="#FFFFFF" stroke-width="3" stroke-miterlimit="10" points="649.2,388.5 691.8,388.5 698.4,402.8 		647.9,402.8 	" class="z-saa9lf_94"></polyline>	<path fill="#120079" stroke="#FFFFFF" stroke-width="3" stroke-miterlimit="10" d="M464.6,299.7c-19,7.3-210.4,7.3-229.4,0		c-18.4,7.3-70,17.4-76.8,17.4c37.9,17.7,156.5,21.6,193.9,21.6s151.1-4,189-21.6C534.6,317.1,483,307,464.6,299.7z" class="z-j7wnk4_94" style="stroke-dasharray: 774.665px; stroke-dashoffset: 0px;"></path>	<polyline fill="#120079" stroke="#FFFFFF" stroke-width="3" stroke-miterlimit="10" points="236.2,268.9 236.2,316.3 478.1,316.3 		478.1,268.9 	" class="z-he8mu6_94"></polyline>	<rect x="244.4" y="305" fill="none" stroke="#FFFFFF" stroke-width="3" stroke-miterlimit="10" width="14.7" height="5" class="z-s9jd7l_94" style="stroke-dasharray: 39.4px; stroke-dashoffset: 0px;"></rect>	<rect x="267.7" y="305" fill="none" stroke="#FFFFFF" stroke-width="3" stroke-miterlimit="10" width="14.7" height="5" class="z-jri0gx_94" style="stroke-dasharray: 39.4px; stroke-dashoffset: 0px;"></rect>	<rect x="291" y="305" fill="none" stroke="#FFFFFF" stroke-width="3" stroke-miterlimit="10" width="14.7" height="5" class="z-vqkx9t_94" style="stroke-dasharray: 39.4px; stroke-dashoffset: 0px;"></rect>	<rect x="314.3" y="305" fill="none" stroke="#FFFFFF" stroke-width="3" stroke-miterlimit="10" width="14.7" height="5" class="z-5unkz2_94" style="stroke-dasharray: 39.4px; stroke-dashoffset: 0px;"></rect>	<rect x="337.6" y="305" fill="none" stroke="#FFFFFF" stroke-width="3" stroke-miterlimit="10" width="14.7" height="5" class="z-w4gb1y_94" style="stroke-dasharray: 39.4px; stroke-dashoffset: 0px;"></rect>	<rect x="361" y="305" fill="none" stroke="#FFFFFF" stroke-width="3" stroke-miterlimit="10" width="14.7" height="5" class="z-rjb4fo_94" style="stroke-dasharray: 39.4px; stroke-dashoffset: 0px;"></rect>	<rect x="384.3" y="305" fill="none" stroke="#FFFFFF" stroke-width="3" stroke-miterlimit="10" width="14.7" height="5" class="z-vof6xx_94" style="stroke-dasharray: 39.4px; stroke-dashoffset: 0px;"></rect>	<rect x="407.6" y="305" fill="none" stroke="#FFFFFF" stroke-width="3" stroke-miterlimit="10" width="14.7" height="5" class="z-t1dquk_94" style="stroke-dasharray: 39.4px; stroke-dashoffset: 0px;"></rect>	<rect x="430.9" y="305" fill="none" stroke="#FFFFFF" stroke-width="3" stroke-miterlimit="10" width="14.7" height="5" class="z-6v3hev_94" style="stroke-dasharray: 39.4px; stroke-dashoffset: 0px;"></rect>	<rect x="454.2" y="305" fill="none" stroke="#FFFFFF" stroke-width="3" stroke-miterlimit="10" width="14.7" height="5" class="z-4zi45p_94" style="stroke-dasharray: 39.4px; stroke-dashoffset: 0px;"></rect>	<line fill="none" stroke="#FFFFFF" stroke-width="3" stroke-miterlimit="10" x1="236.2" y1="295.9" x2="478.1" y2="295.9" class="z-y4tte0_94" style="stroke-dasharray: 241.9px; stroke-dashoffset: 0px;"></line>	<rect x="314.3" y="275.7" fill="none" stroke="#FFFFFF" stroke-width="3" stroke-miterlimit="10" width="5.3" height="10.1" class="z-plkzl2_94" style="stroke-dasharray: 30.8px; stroke-dashoffset: 0px;"></rect>	<rect x="298" y="275.7" fill="none" stroke="#FFFFFF" stroke-width="3" stroke-miterlimit="10" width="5.3" height="10.1" class="z-but5w6_94" style="stroke-dasharray: 30.8px; stroke-dashoffset: 0px;"></rect>	<rect x="281.6" y="270.3" fill="none" stroke="#FFFFFF" stroke-width="3" stroke-miterlimit="10" width="5.3" height="15.5" class="z-zbowvz_94" style="stroke-dasharray: 41.6px; stroke-dashoffset: 0px;"></rect>	<rect x="265.2" y="267.9" fill="none" stroke="#FFFFFF" stroke-width="3" stroke-miterlimit="10" width="5.3" height="17.9" class="z-i4wztn_94" style="stroke-dasharray: 46.4px; stroke-dashoffset: 0px;"></rect>	<rect x="248.9" y="266.9" fill="none" stroke="#FFFFFF" stroke-width="3" stroke-miterlimit="10" width="5.3" height="18.8" class="z-9lp35x_94" style="stroke-dasharray: 48.2px; stroke-dashoffset: 0px;"></rect>	<rect x="449.7" y="267.4" fill="none" stroke="#FFFFFF" stroke-width="3" stroke-miterlimit="10" width="5.3" height="18.4" class="z-e79bui_94" style="stroke-dasharray: 47.4px; stroke-dashoffset: 0px;"></rect>	<rect x="433.4" y="268.9" fill="none" stroke="#FFFFFF" stroke-width="3" stroke-miterlimit="10" width="5.3" height="16.9" class="z-ngnjcx_94" style="stroke-dasharray: 44.4px; stroke-dashoffset: 0px;"></rect>	<rect x="417" y="271.7" fill="none" stroke="#FFFFFF" stroke-width="3" stroke-miterlimit="10" width="5.3" height="14" class="z-sorlfo_94" style="stroke-dasharray: 38.6px; stroke-dashoffset: 0px;"></rect>	<rect x="400.6" y="275.7" fill="none" stroke="#FFFFFF" stroke-width="3" stroke-miterlimit="10" width="5.3" height="10.1" class="z-cif8u3_94" style="stroke-dasharray: 30.8px; stroke-dashoffset: 0px;"></rect>	<rect x="384.3" y="275.7" fill="none" stroke="#FFFFFF" stroke-width="3" stroke-miterlimit="10" width="5.3" height="10.1" class="z-zase8h_94" style="stroke-dasharray: 30.8px; stroke-dashoffset: 0px;"></rect>	<rect x="330.1" y="285.5" fill="#120079" stroke="#FFFFFF" stroke-width="3" stroke-miterlimit="10" width="44.6" height="14.1" class="z-yg7npz_94" style="stroke-dasharray: 117.4px; stroke-dashoffset: 0px;"></rect>	<path fill="#120079" stroke="#FFFFFF" stroke-width="3" stroke-miterlimit="10" d="M437.6,237.6c-19,7.3-151.5,7.3-170.6,0		c-18.4,7.3-81,17.4-87.8,17.4c37.9,17.7,135.7,21.6,173.1,21.6s135.2-4,173.1-21.6C518.7,254.9,456.1,244.9,437.6,237.6z" class="z-gr9xpx_94" style="stroke-dasharray: 701.222px; stroke-dashoffset: 0px;"></path></g><line fill="none" stroke="#FFFFFF" stroke-width="3" stroke-miterlimit="10" x1="688.4" y1="402.8" x2="688.4" y2="463.5" class="z-73xrg7_94" style="stroke-dasharray: 60.7px; stroke-dashoffset: 0px;"></line><line fill="none" stroke="#FFFFFF" stroke-width="3" stroke-miterlimit="10" x1="26.5" y1="402.8" x2="26.5" y2="463.5" class="z-96zbt3_94" style="stroke-dasharray: 60.7px; stroke-dashoffset: 0px;"></line></svg>