<svg version="1.1" id="Layer_1" xmlns="http://www.w3.org/2000/svg" xmlns:xlink="http://www.w3.org/1999/xlink" x="0px" y="0px" viewBox="0 0 560 498.6" enable-background="new 0 0 560 498.6" xml:space="preserve" data-id="96"><path fill="none" stroke="#FFFFFF" stroke-width="3" stroke-miterlimit="10" d="M211.9,62.7c-20.6,0-183.3,0-191.6,0	s-9.3,3.3-3.1,10C36.6,89,94.1,87.5,125.4,87.5s382.1,0,391.2,0c9.5,0,24.3-5.6,24.3-24.8c-4.5,0-14.8,0-42.8,0	C490.2,62.7,226.7,62.7,211.9,62.7z" class="z-3we9q9_96" style="stroke-dasharray: 1078.18px; stroke-dashoffset: 0px;"></path><rect x="31.7" y="48.9" fill="none" stroke="#FFFFFF" stroke-width="3" stroke-miterlimit="10" width="148.1" height="5.6" class="z-jo4vqu_96" style="stroke-dasharray: 307.4px; stroke-dashoffset: 0px;"></rect><rect x="98.3" y="15.1" fill="none" stroke="#FFFFFF" stroke-width="3" stroke-miterlimit="10" width="58" height="33.6" class="z-tdyxpr_96" style="stroke-dasharray: 183.2px; stroke-dashoffset: 0px;"></rect><rect x="392.3" y="48.9" fill="none" stroke="#FFFFFF" stroke-width="3" stroke-miterlimit="10" width="148.1" height="5.6" class="z-k5hxna_96" style="stroke-dasharray: 307.4px; stroke-dashoffset: 0px;"></rect><rect x="458.9" y="15.1" fill="none" stroke="#FFFFFF" stroke-width="3" stroke-miterlimit="10" width="58" height="33.6" class="z-342kh4_96" style="stroke-dasharray: 183.2px; stroke-dashoffset: 0px;"></rect><line fill="none" stroke="#FFFFFF" stroke-width="3" stroke-miterlimit="10" x1="209.1" y1="55.1" x2="209.1" y2="63.3" class="z-g5wgys_96" style="stroke-dasharray: 8.2px; stroke-dashoffset: 0px;"></line><line fill="none" stroke="#FFFFFF" stroke-width="3" stroke-miterlimit="10" x1="240.4" y1="55.1" x2="240.4" y2="63.3" class="z-75dxao_96" style="stroke-dasharray: 8.2px; stroke-dashoffset: 0px;"></line><line fill="none" stroke="#FFFFFF" stroke-width="3" stroke-miterlimit="10" x1="271.6" y1="55.1" x2="271.6" y2="63.3" class="z-o4h6nu_96" style="stroke-dasharray: 8.2px; stroke-dashoffset: 0px;"></line><line fill="none" stroke="#FFFFFF" stroke-width="3" stroke-miterlimit="10" x1="302.9" y1="55.1" x2="302.9" y2="63.3" class="z-cali49_96" style="stroke-dasharray: 8.2px; stroke-dashoffset: 0px;"></line><line fill="none" stroke="#FFFFFF" stroke-width="3" stroke-miterlimit="10" x1="334.2" y1="55.1" x2="334.2" y2="63.3" class="z-4s73a2_96" style="stroke-dasharray: 8.2px; stroke-dashoffset: 0px;"></line><line fill="none" stroke="#FFFFFF" stroke-width="3" stroke-miterlimit="10" x1="365.5" y1="55.1" x2="365.5" y2="63.3" class="z-7tq220_96" style="stroke-dasharray: 8.2px; stroke-dashoffset: 0px;"></line><polygon fill="none" stroke="#FFFFFF" stroke-width="3" stroke-miterlimit="10" points="211.7,51.2 214.8,51.2 212,46.3 209.2,41.5 	206.4,46.3 203.6,51.2 206.7,51.2 206.4,51.8 203.6,56.6 209.2,56.6 214.8,56.6 212,51.8 " class="z-5ahp31_96" style="stroke-dasharray: 52.2567px; stroke-dashoffset: 0px;"></polygon><polygon fill="none" stroke="#FFFFFF" stroke-width="3" stroke-miterlimit="10" points="242.8,51.2 246,51.2 243.2,46.3 240.4,41.5 	237.6,46.3 234.8,51.2 237.9,51.2 237.6,51.8 234.8,56.6 240.4,56.6 246,56.6 243.2,51.8 " class="z-zo1awd_96" style="stroke-dasharray: 52.407px; stroke-dashoffset: 0px;"></polygon><polygon fill="none" stroke="#FFFFFF" stroke-width="3" stroke-miterlimit="10" points="274,51.2 277.1,51.2 274.3,46.3 271.5,41.5 	268.7,46.3 265.9,51.2 269,51.2 268.7,51.8 265.9,56.6 271.5,56.6 277.1,56.6 274.3,51.8 " class="z-r6afev_96" style="stroke-dasharray: 52.2567px; stroke-dashoffset: 0px;"></polygon><polygon fill="none" stroke="#FFFFFF" stroke-width="3" stroke-miterlimit="10" points="305.2,51.2 308.3,51.2 305.5,46.3 	302.7,41.5 299.9,46.3 297.1,51.2 300.2,51.2 299.9,51.8 297.1,56.6 302.7,56.6 308.3,56.6 305.5,51.8 " class="z-nssvxg_96" style="stroke-dasharray: 52.2567px; stroke-dashoffset: 0px;"></polygon><polygon fill="none" stroke="#FFFFFF" stroke-width="3" stroke-miterlimit="10" points="336.8,51.2 339.9,51.2 337.1,46.3 	334.3,41.5 331.5,46.3 328.7,51.2 331.8,51.2 331.5,51.8 328.7,56.6 334.3,56.6 339.9,56.6 337.1,51.8 " class="z-4jno2u_96" style="stroke-dasharray: 52.2567px; stroke-dashoffset: 0px;"></polygon><polygon fill="none" stroke="#FFFFFF" stroke-width="3" stroke-miterlimit="10" points="368,51.2 371.1,51.2 368.3,46.3 365.5,41.5 	362.7,46.3 359.9,51.2 363,51.2 362.7,51.8 359.9,56.6 365.5,56.6 371.1,56.6 368.3,51.8 " class="z-504kmo_96" style="stroke-dasharray: 52.2567px; stroke-dashoffset: 0px;"></polygon><line fill="none" stroke="#FFFFFF" stroke-width="3" stroke-miterlimit="10" x1="526.2" y1="55.4" x2="526.2" y2="62.1" class="z-h23wye_96" style="stroke-dasharray: 6.7px; stroke-dashoffset: 0px;"></line><line fill="none" stroke="#FFFFFF" stroke-width="3" stroke-miterlimit="10" x1="405.9" y1="55.4" x2="405.9" y2="62.1" class="z-0mlxit_96" style="stroke-dasharray: 6.7px; stroke-dashoffset: 0px;"></line><line fill="none" stroke="#FFFFFF" stroke-width="3" stroke-miterlimit="10" x1="46.3" y1="56" x2="46.3" y2="64.2" class="z-7xy88i_96" style="stroke-dasharray: 8.2px; stroke-dashoffset: 0px;"></line><line fill="none" stroke="#FFFFFF" stroke-width="3" stroke-miterlimit="10" x1="161.7" y1="54.5" x2="161.7" y2="62.7" class="z-4jcakz_96" style="stroke-dasharray: 8.2px; stroke-dashoffset: 0px;"></line><line fill="none" stroke="#FFFFFF" stroke-width="3" stroke-miterlimit="10" x1="98.3" y1="23.2" x2="156.3" y2="23.2" class="z-rxmcin_96" style="stroke-dasharray: 58px; stroke-dashoffset: 0px;"></line><line fill="none" stroke="#FFFFFF" stroke-width="3" stroke-miterlimit="10" x1="98.3" y1="31.9" x2="156.3" y2="31.9" class="z-lh6xv5_96" style="stroke-dasharray: 58px; stroke-dashoffset: 0px;"></line><line fill="none" stroke="#FFFFFF" stroke-width="3" stroke-miterlimit="10" x1="98.3" y1="40.6" x2="156.3" y2="40.6" class="z-z0jf0a_96" style="stroke-dasharray: 58px; stroke-dashoffset: 0px;"></line><line fill="none" stroke="#FFFFFF" stroke-width="3" stroke-miterlimit="10" x1="458.9" y1="23.2" x2="516.9" y2="23.2" class="z-x58a35_96" style="stroke-dasharray: 58px; stroke-dashoffset: 0px;"></line><line fill="none" stroke="#FFFFFF" stroke-width="3" stroke-miterlimit="10" x1="458.9" y1="31.9" x2="516.9" y2="31.9" class="z-krbrhm_96" style="stroke-dasharray: 58px; stroke-dashoffset: 0px;"></line><line fill="none" stroke="#FFFFFF" stroke-width="3" stroke-miterlimit="10" x1="458.9" y1="40.6" x2="516.9" y2="40.6" class="z-0i5dfc_96" style="stroke-dasharray: 58px; stroke-dashoffset: 0px;"></line><g class="z-sj275l_96">	<rect x="105.9" y="87.6" fill="none" stroke="#FFFFFF" stroke-width="3" stroke-miterlimit="10" width="77.4" height="15.8" class="z-2ec2yu_96" style="stroke-dasharray: 186.4px; stroke-dashoffset: 0px;"></rect>	<g class="z-poujyo_96">		<line fill="none" stroke="#FFFFFF" stroke-width="3" stroke-miterlimit="10" x1="92.3" y1="134.2" x2="200.1" y2="134.2" class="z-2kfugq_96" style="stroke-dasharray: 107.8px; stroke-dashoffset: 0px;"></line>		<line fill="none" stroke="#FFFFFF" stroke-width="3" stroke-miterlimit="10" x1="94.9" y1="163.4" x2="200.1" y2="163.4" class="z-u8aqoo_96" style="stroke-dasharray: 105.2px; stroke-dashoffset: 0px;"></line>		<line fill="none" stroke="#FFFFFF" stroke-width="3" stroke-miterlimit="10" x1="97.1" y1="192.6" x2="200.1" y2="192.6" class="z-vg6cr7_96" style="stroke-dasharray: 103px; stroke-dashoffset: 0px;"></line>		<line fill="none" stroke="#FFFFFF" stroke-width="3" stroke-miterlimit="10" x1="98.9" y1="221.8" x2="200.1" y2="221.8" class="z-yyhi5j_96" style="stroke-dasharray: 101.2px; stroke-dashoffset: 0px;"></line>		<line fill="none" stroke="#FFFFFF" stroke-width="3" stroke-miterlimit="10" x1="100.6" y1="251" x2="200.1" y2="251" class="z-04vbck_96" style="stroke-dasharray: 99.5px; stroke-dashoffset: 0px;"></line>		<line fill="none" stroke="#FFFFFF" stroke-width="3" stroke-miterlimit="10" x1="101.8" y1="280.2" x2="200.1" y2="280.2" class="z-b8m2z7_96" style="stroke-dasharray: 98.3px; stroke-dashoffset: 0px;"></line>		<line fill="none" stroke="#FFFFFF" stroke-width="3" stroke-miterlimit="10" x1="102.9" y1="309.4" x2="200.1" y2="309.4" class="z-jxmkbs_96" style="stroke-dasharray: 97.2px; stroke-dashoffset: 0px;"></line>		<line fill="none" stroke="#FFFFFF" stroke-width="3" stroke-miterlimit="10" x1="103.9" y1="338.6" x2="200.1" y2="338.6" class="z-58vl9n_96" style="stroke-dasharray: 96.2px; stroke-dashoffset: 0px;"></line>		<line fill="none" stroke="#FFFFFF" stroke-width="3" stroke-miterlimit="10" x1="104.6" y1="367.8" x2="200.1" y2="367.8" class="z-qsy9bb_96" style="stroke-dasharray: 95.5px; stroke-dashoffset: 0px;"></line>		<line fill="none" stroke="#FFFFFF" stroke-width="3" stroke-miterlimit="10" x1="105.3" y1="397" x2="200.1" y2="397" class="z-6sqivf_96" style="stroke-dasharray: 94.8px; stroke-dashoffset: 0px;"></line>		<line fill="none" stroke="#FFFFFF" stroke-width="3" stroke-miterlimit="10" x1="105.8" y1="426.2" x2="200.1" y2="426.2" class="z-7ywv4q_96" style="stroke-dasharray: 94.3px; stroke-dashoffset: 0px;"></line>		<line fill="none" stroke="#FFFFFF" stroke-width="3" stroke-miterlimit="10" x1="106.2" y1="455.3" x2="200.1" y2="455.3" class="z-gi3upy_96" style="stroke-dasharray: 93.9px; stroke-dashoffset: 0px;"></line>		<line fill="none" stroke="#FFFFFF" stroke-width="3" stroke-miterlimit="10" x1="106.5" y1="484.5" x2="200.1" y2="484.5" class="z-s25y3f_96" style="stroke-dasharray: 93.6px; stroke-dashoffset: 0px;"></line>		<line fill="none" stroke="#FFFFFF" stroke-width="3" stroke-miterlimit="10" x1="174.1" y1="103.5" x2="174.1" y2="498.6" class="z-j57ah0_96" style="stroke-dasharray: 395.1px; stroke-dashoffset: 0px;"></line>		<line fill="none" stroke="#FFFFFF" stroke-width="3" stroke-miterlimit="10" x1="148.7" y1="103.5" x2="148.7" y2="498.6" class="z-ymtz9x_96" style="stroke-dasharray: 395.1px; stroke-dashoffset: 0px;"></line>		<line fill="none" stroke="#FFFFFF" stroke-width="3" stroke-miterlimit="10" x1="123.2" y1="103.5" x2="123.2" y2="498.6" class="z-amq8or_96" style="stroke-dasharray: 395.1px; stroke-dashoffset: 0px;"></line>		<line fill="none" stroke="#FFFFFF" stroke-width="3" stroke-miterlimit="10" x1="97.7" y1="103.5" x2="97.7" y2="207.2" class="z-2d1510_96" style="stroke-dasharray: 103.7px; stroke-dashoffset: 0px;"></line>		<path fill="none" stroke="#FFFFFF" stroke-width="3" stroke-miterlimit="10" d="M200.1,103.5H88.7c0,0,16,97.9,18,395.1			c10.8,0,68.3,0,93.5,0C200.1,452.4,200.1,103.5,200.1,103.5z" class="z-2ir1pm_96" style="stroke-dasharray: 995.713px; stroke-dashoffset: 0px;"></path>	</g></g><g class="z-c7vl90_96">	<rect x="255.1" y="87.6" fill="none" stroke="#FFFFFF" stroke-width="3" stroke-miterlimit="10" width="77.4" height="15.8" class="z-iv9qgj_96" style="stroke-dasharray: 186.4px; stroke-dashoffset: 0px;"></rect>	<g class="z-kqj4vn_96">		<line fill="none" stroke="#FFFFFF" stroke-width="3" stroke-miterlimit="10" x1="241.5" y1="134.2" x2="349.3" y2="134.2" class="z-81dkfa_96" style="stroke-dasharray: 107.8px; stroke-dashoffset: 0px;"></line>		<line fill="none" stroke="#FFFFFF" stroke-width="3" stroke-miterlimit="10" x1="244.1" y1="163.4" x2="349.3" y2="163.4" class="z-enshft_96" style="stroke-dasharray: 105.2px; stroke-dashoffset: 0px;"></line>		<line fill="none" stroke="#FFFFFF" stroke-width="3" stroke-miterlimit="10" x1="246.3" y1="192.6" x2="349.3" y2="192.6" class="z-usc1zr_96" style="stroke-dasharray: 103px; stroke-dashoffset: 0px;"></line>		<line fill="none" stroke="#FFFFFF" stroke-width="3" stroke-miterlimit="10" x1="248.1" y1="221.8" x2="349.3" y2="221.8" class="z-pv7rdz_96" style="stroke-dasharray: 101.2px; stroke-dashoffset: 0px;"></line>		<line fill="none" stroke="#FFFFFF" stroke-width="3" stroke-miterlimit="10" x1="249.7" y1="251" x2="349.3" y2="251" class="z-fdfcrc_96" style="stroke-dasharray: 99.6px; stroke-dashoffset: 0px;"></line>		<line fill="none" stroke="#FFFFFF" stroke-width="3" stroke-miterlimit="10" x1="251" y1="280.2" x2="349.3" y2="280.2" class="z-khayzx_96" style="stroke-dasharray: 98.3px; stroke-dashoffset: 0px;"></line>		<line fill="none" stroke="#FFFFFF" stroke-width="3" stroke-miterlimit="10" x1="252.1" y1="309.4" x2="349.3" y2="309.4" class="z-lv1dbe_96" style="stroke-dasharray: 97.2px; stroke-dashoffset: 0px;"></line>		<line fill="none" stroke="#FFFFFF" stroke-width="3" stroke-miterlimit="10" x1="253" y1="338.6" x2="349.3" y2="338.6" class="z-1yjbb6_96" style="stroke-dasharray: 96.3px; stroke-dashoffset: 0px;"></line>		<line fill="none" stroke="#FFFFFF" stroke-width="3" stroke-miterlimit="10" x1="253.8" y1="367.8" x2="349.3" y2="367.8" class="z-82rnym_96" style="stroke-dasharray: 95.5px; stroke-dashoffset: 0px;"></line>		<line fill="none" stroke="#FFFFFF" stroke-width="3" stroke-miterlimit="10" x1="254.5" y1="397" x2="349.3" y2="397" class="z-e55337_96" style="stroke-dasharray: 94.8px; stroke-dashoffset: 0px;"></line>		<line fill="none" stroke="#FFFFFF" stroke-width="3" stroke-miterlimit="10" x1="255" y1="426.2" x2="349.3" y2="426.2" class="z-5oi17s_96" style="stroke-dasharray: 94.3px; stroke-dashoffset: 0px;"></line>		<line fill="none" stroke="#FFFFFF" stroke-width="3" stroke-miterlimit="10" x1="255.4" y1="455.3" x2="349.3" y2="455.3" class="z-skw4o1_96" style="stroke-dasharray: 93.9px; stroke-dashoffset: 0px;"></line>		<line fill="none" stroke="#FFFFFF" stroke-width="3" stroke-miterlimit="10" x1="255.7" y1="484.5" x2="349.3" y2="484.5" class="z-3wot1k_96" style="stroke-dasharray: 93.6px; stroke-dashoffset: 0px;"></line>		<line fill="none" stroke="#FFFFFF" stroke-width="3" stroke-miterlimit="10" x1="323.3" y1="103.5" x2="323.3" y2="498.6" class="z-7e2hp6_96" style="stroke-dasharray: 395.1px; stroke-dashoffset: 0px;"></line>		<line fill="none" stroke="#FFFFFF" stroke-width="3" stroke-miterlimit="10" x1="297.8" y1="103.5" x2="297.8" y2="498.6" class="z-nxeh8n_96" style="stroke-dasharray: 395.1px; stroke-dashoffset: 0px;"></line>		<line fill="none" stroke="#FFFFFF" stroke-width="3" stroke-miterlimit="10" x1="272.3" y1="103.5" x2="272.3" y2="498.6" class="z-yfuelk_96" style="stroke-dasharray: 395.1px; stroke-dashoffset: 0px;"></line>		<line fill="none" stroke="#FFFFFF" stroke-width="3" stroke-miterlimit="10" x1="246.9" y1="103.5" x2="246.9" y2="207.2" class="z-39o39a_96" style="stroke-dasharray: 103.7px; stroke-dashoffset: 0px;"></line>		<path fill="none" stroke="#FFFFFF" stroke-width="3" stroke-miterlimit="10" d="M349.3,103.5H237.8c0,0,16,97.9,18,395.1			c10.8,0,68.3,0,93.5,0C349.3,452.4,349.3,103.5,349.3,103.5z" class="z-763hmp_96" style="stroke-dasharray: 995.812px; stroke-dashoffset: 0px;"></path>	</g></g><g class="z-jwrwv1_96">	<rect x="396.4" y="87.6" fill="none" stroke="#FFFFFF" stroke-width="3" stroke-miterlimit="10" width="77.4" height="15.8" class="z-ngfjcl_96" style="stroke-dasharray: 186.4px; stroke-dashoffset: 0px;"></rect>	<g class="z-bngo8i_96">		<line fill="none" stroke="#FFFFFF" stroke-width="3" stroke-miterlimit="10" x1="382.8" y1="134.2" x2="490.6" y2="134.2" class="z-5xlo01_96" style="stroke-dasharray: 107.8px; stroke-dashoffset: 0px;"></line>		<line fill="none" stroke="#FFFFFF" stroke-width="3" stroke-miterlimit="10" x1="385.4" y1="163.4" x2="490.6" y2="163.4" class="z-3hl08s_96" style="stroke-dasharray: 105.2px; stroke-dashoffset: 0px;"></line>		<line fill="none" stroke="#FFFFFF" stroke-width="3" stroke-miterlimit="10" x1="387.6" y1="192.6" x2="490.6" y2="192.6" class="z-4y3qjx_96" style="stroke-dasharray: 103px; stroke-dashoffset: 0px;"></line>		<line fill="none" stroke="#FFFFFF" stroke-width="3" stroke-miterlimit="10" x1="389.4" y1="221.8" x2="490.6" y2="221.8" class="z-cfgw5m_96" style="stroke-dasharray: 101.2px; stroke-dashoffset: 0px;"></line>		<line fill="none" stroke="#FFFFFF" stroke-width="3" stroke-miterlimit="10" x1="391" y1="251" x2="490.6" y2="251" class="z-wociey_96" style="stroke-dasharray: 99.6px; stroke-dashoffset: 0px;"></line>		<line fill="none" stroke="#FFFFFF" stroke-width="3" stroke-miterlimit="10" x1="392.2" y1="280.2" x2="490.6" y2="280.2" class="z-uv2ed0_96" style="stroke-dasharray: 98.4px; stroke-dashoffset: 0px;"></line>		<line fill="none" stroke="#FFFFFF" stroke-width="3" stroke-miterlimit="10" x1="393.4" y1="309.4" x2="490.6" y2="309.4" class="z-ul7d8u_96" style="stroke-dasharray: 97.2px; stroke-dashoffset: 0px;"></line>		<line fill="none" stroke="#FFFFFF" stroke-width="3" stroke-miterlimit="10" x1="394.3" y1="338.6" x2="490.6" y2="338.6" class="z-qca82u_96" style="stroke-dasharray: 96.3px; stroke-dashoffset: 0px;"></line>		<line fill="none" stroke="#FFFFFF" stroke-width="3" stroke-miterlimit="10" x1="395.1" y1="367.8" x2="490.6" y2="367.8" class="z-6vsrvn_96" style="stroke-dasharray: 95.5px; stroke-dashoffset: 0px;"></line>		<line fill="none" stroke="#FFFFFF" stroke-width="3" stroke-miterlimit="10" x1="395.7" y1="397" x2="490.6" y2="397" class="z-z6iy7f_96" style="stroke-dasharray: 94.9px; stroke-dashoffset: 0px;"></line>		<line fill="none" stroke="#FFFFFF" stroke-width="3" stroke-miterlimit="10" x1="396.3" y1="426.2" x2="490.6" y2="426.2" class="z-39n1bw_96" style="stroke-dasharray: 94.3px; stroke-dashoffset: 0px;"></line>		<line fill="none" stroke="#FFFFFF" stroke-width="3" stroke-miterlimit="10" x1="396.7" y1="455.3" x2="490.6" y2="455.3" class="z-azxagm_96" style="stroke-dasharray: 93.9px; stroke-dashoffset: 0px;"></line>		<line fill="none" stroke="#FFFFFF" stroke-width="3" stroke-miterlimit="10" x1="397" y1="484.5" x2="490.6" y2="484.5" class="z-gwb67k_96" style="stroke-dasharray: 93.6px; stroke-dashoffset: 0px;"></line>		<line fill="none" stroke="#FFFFFF" stroke-width="3" stroke-miterlimit="10" x1="464.6" y1="103.5" x2="464.6" y2="498.6" class="z-cr8bk0_96" style="stroke-dasharray: 395.1px; stroke-dashoffset: 0px;"></line>		<line fill="none" stroke="#FFFFFF" stroke-width="3" stroke-miterlimit="10" x1="439.1" y1="103.5" x2="439.1" y2="498.6" class="z-x9gfrr_96" style="stroke-dasharray: 395.1px; stroke-dashoffset: 0px;"></line>		<line fill="none" stroke="#FFFFFF" stroke-width="3" stroke-miterlimit="10" x1="413.6" y1="103.5" x2="413.6" y2="498.6" class="z-8ewv9l_96" style="stroke-dasharray: 395.1px; stroke-dashoffset: 0px;"></line>		<line fill="none" stroke="#FFFFFF" stroke-width="3" stroke-miterlimit="10" x1="388.1" y1="103.5" x2="388.1" y2="207.2" class="z-q8wdgz_96" style="stroke-dasharray: 103.7px; stroke-dashoffset: 0px;"></line>		<path fill="none" stroke="#FFFFFF" stroke-width="3" stroke-miterlimit="10" d="M490.6,103.5H379.1c0,0,16,97.9,18,395.1			c10.8,0,68.3,0,93.5,0C490.6,452.4,490.6,103.5,490.6,103.5z" class="z-5h99o1_96" style="stroke-dasharray: 995.812px; stroke-dashoffset: 0px;"></path>	</g></g></svg>