<svg version="1.1" id="Layer_1" xmlns="http://www.w3.org/2000/svg" xmlns:xlink="http://www.w3.org/1999/xlink" x="0px" y="0px" width="832px" height="659.4px" viewBox="0 0 832 659.4" enable-background="new 0 0 832 659.4" xml:space="preserve" data-id="108"><rect x="281.8" y="347.2" fill="none" stroke="#FFFFFF" stroke-width="3" stroke-miterlimit="10" width="228.3" height="101.4" class="z-8h27fy_108" style="stroke-dasharray: 659.4px; stroke-dashoffset: 0px;"></rect><rect x="220.1" y="521.6" fill="none" stroke="#FFFFFF" stroke-width="3" stroke-miterlimit="10" width="14.2" height="137.5" class="z-ohg5im_108" style="stroke-dasharray: 303.4px; stroke-dashoffset: 0px;"></rect><rect x="220.1" y="644.8" fill="none" stroke="#FFFFFF" stroke-width="3" stroke-miterlimit="10" width="14.2" height="14.2" class="z-htc18p_108" style="stroke-dasharray: 56.8px; stroke-dashoffset: 0px;"></rect><rect x="287.6" y="521.6" fill="none" stroke="#FFFFFF" stroke-width="3" stroke-miterlimit="10" width="14.2" height="137.5" class="z-fb6y1h_108" style="stroke-dasharray: 303.4px; stroke-dashoffset: 0px;"></rect><rect x="287.6" y="644.8" fill="none" stroke="#FFFFFF" stroke-width="3" stroke-miterlimit="10" width="14.2" height="14.2" class="z-hvqqnu_108" style="stroke-dasharray: 56.8px; stroke-dashoffset: 0px;"></rect><rect x="355.2" y="521.6" fill="none" stroke="#FFFFFF" stroke-width="3" stroke-miterlimit="10" width="14.2" height="137.5" class="z-76g6lw_108" style="stroke-dasharray: 303.4px; stroke-dashoffset: 0px;"></rect><rect x="355.2" y="644.8" fill="none" stroke="#FFFFFF" stroke-width="3" stroke-miterlimit="10" width="14.2" height="14.2" class="z-294kxg_108" style="stroke-dasharray: 56.8px; stroke-dashoffset: 0px;"></rect><rect x="422.7" y="521.6" fill="none" stroke="#FFFFFF" stroke-width="3" stroke-miterlimit="10" width="14.2" height="137.5" class="z-rhn1gl_108" style="stroke-dasharray: 303.4px; stroke-dashoffset: 0px;"></rect><rect x="422.7" y="644.8" fill="none" stroke="#FFFFFF" stroke-width="3" stroke-miterlimit="10" width="14.2" height="14.2" class="z-at1ee6_108" style="stroke-dasharray: 56.8px; stroke-dashoffset: 0px;"></rect><rect x="490.3" y="521.6" fill="none" stroke="#FFFFFF" stroke-width="3" stroke-miterlimit="10" width="14.2" height="137.5" class="z-yaoh9i_108" style="stroke-dasharray: 303.4px; stroke-dashoffset: 0px;"></rect><rect x="490.3" y="644.8" fill="none" stroke="#FFFFFF" stroke-width="3" stroke-miterlimit="10" width="14.2" height="14.2" class="z-g06iky_108" style="stroke-dasharray: 56.8px; stroke-dashoffset: 0px;"></rect><rect x="557.8" y="521.6" fill="none" stroke="#FFFFFF" stroke-width="3" stroke-miterlimit="10" width="14.2" height="137.5" class="z-0hhyh9_108" style="stroke-dasharray: 303.4px; stroke-dashoffset: 0px;"></rect><rect x="557.8" y="644.8" fill="none" stroke="#FFFFFF" stroke-width="3" stroke-miterlimit="10" width="14.2" height="14.2" class="z-g0yx6c_108" style="stroke-dasharray: 56.8px; stroke-dashoffset: 0px;"></rect><rect x="234.3" y="651.9" fill="none" stroke="#FFFFFF" stroke-width="3" stroke-miterlimit="10" width="53.3" height="7.1" class="z-fnymky_108" style="stroke-dasharray: 120.8px; stroke-dashoffset: 0px;"></rect><rect x="234.3" y="536.7" fill="none" stroke="#FFFFFF" stroke-width="3" stroke-miterlimit="10" width="53.3" height="7.1" class="z-ope4se_108" style="stroke-dasharray: 120.8px; stroke-dashoffset: 0px;"></rect><rect x="234.3" y="557.9" fill="none" stroke="#FFFFFF" stroke-width="3" stroke-miterlimit="10" width="53.3" height="7.1" class="z-sclc1b_108" style="stroke-dasharray: 120.8px; stroke-dashoffset: 0px;"></rect><rect x="301.9" y="557.9" fill="none" stroke="#FFFFFF" stroke-width="3" stroke-miterlimit="10" width="53.3" height="7.1" class="z-9hmmli_108" style="stroke-dasharray: 120.8px; stroke-dashoffset: 0px;"></rect><rect x="369.4" y="557.9" fill="none" stroke="#FFFFFF" stroke-width="3" stroke-miterlimit="10" width="53.3" height="7.1" class="z-n97tmd_108" style="stroke-dasharray: 120.8px; stroke-dashoffset: 0px;"></rect><rect x="437" y="557.9" fill="none" stroke="#FFFFFF" stroke-width="3" stroke-miterlimit="10" width="53.3" height="7.1" class="z-squh3i_108" style="stroke-dasharray: 120.8px; stroke-dashoffset: 0px;"></rect><polygon fill="none" stroke="#FFFFFF" stroke-width="3" stroke-miterlimit="10" points="510,347.2 510,354.3 497.6,354.3 	497.6,347.2 490.5,347.2 490.5,361.4 517.2,361.4 517.2,347.2 " class="z-si39zs_108" style="stroke-dasharray: 96px; stroke-dashoffset: 0px;"></polygon><polygon fill="none" stroke="#FFFFFF" stroke-width="3" stroke-miterlimit="10" points="438.1,347.2 438.1,354.3 425.7,354.3 	425.7,347.2 418.6,347.2 418.6,361.4 445.2,361.4 445.2,347.2 " class="z-a7s79d_108" style="stroke-dasharray: 95.8px; stroke-dashoffset: 0px;"></polygon><polygon fill="none" stroke="#FFFFFF" stroke-width="3" stroke-miterlimit="10" points="366.1,347.2 366.1,354.3 353.7,354.3 	353.7,347.2 346.6,347.2 346.6,361.4 373.3,361.4 373.3,347.2 " class="z-cwj9sl_108" style="stroke-dasharray: 96px; stroke-dashoffset: 0px;"></polygon><polygon fill="none" stroke="#FFFFFF" stroke-width="3" stroke-miterlimit="10" points="294.2,347.2 294.2,354.3 281.8,354.3 	281.8,347.2 274.7,347.2 274.7,361.4 301.3,361.4 301.3,347.2 " class="z-r1fy2o_108" style="stroke-dasharray: 95.8px; stroke-dashoffset: 0px;"></polygon><rect x="234.3" y="617.7" fill="none" stroke="#FFFFFF" stroke-width="3" stroke-miterlimit="10" width="53.3" height="7.1" class="z-4nzbos_108" style="stroke-dasharray: 120.8px; stroke-dashoffset: 0px;"></rect><g class="z-cpjgqv_108">	<line fill="none" stroke="#FFFFFF" stroke-width="3" stroke-miterlimit="10" x1="245" y1="624.8" x2="245" y2="651.9" class="z-rbs661_108" style="stroke-dasharray: 27.1px; stroke-dashoffset: 0px;"></line>	<line fill="none" stroke="#FFFFFF" stroke-width="3" stroke-miterlimit="10" x1="255.6" y1="624.8" x2="255.6" y2="651.9" class="z-u6zbby_108" style="stroke-dasharray: 27.1px; stroke-dashoffset: 0px;"></line>	<line fill="none" stroke="#FFFFFF" stroke-width="3" stroke-miterlimit="10" x1="266.3" y1="624.8" x2="266.3" y2="651.9" class="z-h9v7ab_108" style="stroke-dasharray: 27.1px; stroke-dashoffset: 0px;"></line>	<line fill="none" stroke="#FFFFFF" stroke-width="3" stroke-miterlimit="10" x1="277" y1="624.8" x2="277" y2="651.9" class="z-enu8pm_108" style="stroke-dasharray: 27.1px; stroke-dashoffset: 0px;"></line></g><g class="z-zkbgnw_108">	<line fill="none" stroke="#FFFFFF" stroke-width="3" stroke-miterlimit="10" x1="245" y1="543.9" x2="245" y2="557.9" class="z-kgtami_108" style="stroke-dasharray: 14px; stroke-dashoffset: 0px;"></line>	<line fill="none" stroke="#FFFFFF" stroke-width="3" stroke-miterlimit="10" x1="255.6" y1="543.9" x2="255.6" y2="557.9" class="z-miwka6_108" style="stroke-dasharray: 14px; stroke-dashoffset: 0px;"></line>	<line fill="none" stroke="#FFFFFF" stroke-width="3" stroke-miterlimit="10" x1="266.3" y1="543.9" x2="266.3" y2="557.9" class="z-clkeh0_108" style="stroke-dasharray: 14px; stroke-dashoffset: 0px;"></line>	<line fill="none" stroke="#FFFFFF" stroke-width="3" stroke-miterlimit="10" x1="277" y1="543.9" x2="277" y2="557.9" class="z-2w4jl8_108" style="stroke-dasharray: 14px; stroke-dashoffset: 0px;"></line></g><g class="z-xn93ul_108">	<line fill="none" stroke="#FFFFFF" stroke-width="3" stroke-miterlimit="10" x1="515.2" y1="543.9" x2="515.2" y2="557.9" class="z-ujby5g_108" style="stroke-dasharray: 14px; stroke-dashoffset: 0px;"></line>	<line fill="none" stroke="#FFFFFF" stroke-width="3" stroke-miterlimit="10" x1="525.8" y1="543.9" x2="525.8" y2="557.9" class="z-y2eqmp_108" style="stroke-dasharray: 14px; stroke-dashoffset: 0px;"></line>	<line fill="none" stroke="#FFFFFF" stroke-width="3" stroke-miterlimit="10" x1="536.5" y1="543.9" x2="536.5" y2="557.9" class="z-7n91yr_108" style="stroke-dasharray: 14px; stroke-dashoffset: 0px;"></line>	<line fill="none" stroke="#FFFFFF" stroke-width="3" stroke-miterlimit="10" x1="547.2" y1="543.9" x2="547.2" y2="557.9" class="z-pufuqp_108" style="stroke-dasharray: 14px; stroke-dashoffset: 0px;"></line></g><rect x="504.5" y="651.9" fill="none" stroke="#FFFFFF" stroke-width="3" stroke-miterlimit="10" width="53.3" height="7.1" class="z-xbos3q_108" style="stroke-dasharray: 120.8px; stroke-dashoffset: 0px;"></rect><rect x="504.5" y="536.7" fill="none" stroke="#FFFFFF" stroke-width="3" stroke-miterlimit="10" width="53.3" height="7.1" class="z-7g8f67_108" style="stroke-dasharray: 120.8px; stroke-dashoffset: 0px;"></rect><rect x="504.5" y="557.9" fill="none" stroke="#FFFFFF" stroke-width="3" stroke-miterlimit="10" width="53.3" height="7.1" class="z-73w2tr_108" style="stroke-dasharray: 120.8px; stroke-dashoffset: 0px;"></rect><rect x="504.5" y="617.7" fill="none" stroke="#FFFFFF" stroke-width="3" stroke-miterlimit="10" width="53.3" height="7.1" class="z-2r2l16_108" style="stroke-dasharray: 120.8px; stroke-dashoffset: 0px;"></rect><line fill="none" stroke="#FFFFFF" stroke-width="3" stroke-miterlimit="10" x1="515.2" y1="624.8" x2="515.2" y2="651.9" class="z-8bf338_108" style="stroke-dasharray: 27.1px; stroke-dashoffset: 0px;"></line><line fill="none" stroke="#FFFFFF" stroke-width="3" stroke-miterlimit="10" x1="525.8" y1="624.8" x2="525.8" y2="651.9" class="z-7z6u07_108" style="stroke-dasharray: 27.1px; stroke-dashoffset: 0px;"></line><line fill="none" stroke="#FFFFFF" stroke-width="3" stroke-miterlimit="10" x1="536.5" y1="624.8" x2="536.5" y2="651.9" class="z-ot1c49_108" style="stroke-dasharray: 27.1px; stroke-dashoffset: 0px;"></line><line fill="none" stroke="#FFFFFF" stroke-width="3" stroke-miterlimit="10" x1="547.2" y1="624.8" x2="547.2" y2="651.9" class="z-y6g6a2_108" style="stroke-dasharray: 27.1px; stroke-dashoffset: 0px;"></line><rect x="389.3" y="622" fill="none" stroke="#FFFFFF" stroke-width="3" stroke-miterlimit="10" width="13.6" height="9.7" class="z-2p3as8_108" style="stroke-dasharray: 46.6px; stroke-dashoffset: 0px;"></rect><rect x="244.7" y="426.2" fill="none" stroke="#FFFFFF" stroke-width="3" stroke-miterlimit="10" width="302.5" height="22.4" class="z-m6tay3_108" style="stroke-dasharray: 649.8px; stroke-dashoffset: 0px;"></rect><rect x="244.7" y="420.5" fill="none" stroke="#FFFFFF" stroke-width="3" stroke-miterlimit="10" width="302.5" height="5.7" class="z-h2o69x_108" style="stroke-dasharray: 616.4px; stroke-dashoffset: 0px;"></rect><rect x="244.7" y="404.6" fill="none" stroke="#FFFFFF" stroke-width="3" stroke-miterlimit="10" width="302.5" height="5.7" class="z-dntxmm_108" style="stroke-dasharray: 616.4px; stroke-dashoffset: 0px;"></rect><rect x="244.7" y="388.7" fill="none" stroke="#FFFFFF" stroke-width="3" stroke-miterlimit="10" width="302.5" height="5.7" class="z-bjqsd2_108" style="stroke-dasharray: 616.4px; stroke-dashoffset: 0px;"></rect><rect x="244.7" y="388.7" fill="none" stroke="#FFFFFF" stroke-width="3" stroke-miterlimit="10" width="5.7" height="37.5" class="z-4mlaq6_108" style="stroke-dasharray: 86.4px; stroke-dashoffset: 0px;"></rect><rect x="281.8" y="388.7" fill="none" stroke="#FFFFFF" stroke-width="3" stroke-miterlimit="10" width="5.7" height="37.5" class="z-qga04s_108" style="stroke-dasharray: 86.4px; stroke-dashoffset: 0px;"></rect><rect x="318.9" y="388.7" fill="none" stroke="#FFFFFF" stroke-width="3" stroke-miterlimit="10" width="5.7" height="37.5" class="z-rxhumr_108" style="stroke-dasharray: 86.4px; stroke-dashoffset: 0px;"></rect><rect x="356" y="388.7" fill="none" stroke="#FFFFFF" stroke-width="3" stroke-miterlimit="10" width="5.7" height="37.5" class="z-qvj00m_108" style="stroke-dasharray: 86.4px; stroke-dashoffset: 0px;"></rect><rect x="393.1" y="388.7" fill="none" stroke="#FFFFFF" stroke-width="3" stroke-miterlimit="10" width="5.7" height="37.5" class="z-am9keo_108" style="stroke-dasharray: 86.4px; stroke-dashoffset: 0px;"></rect><rect x="430.2" y="388.7" fill="none" stroke="#FFFFFF" stroke-width="3" stroke-miterlimit="10" width="5.7" height="37.5" class="z-dhbxr8_108" style="stroke-dasharray: 86.4px; stroke-dashoffset: 0px;"></rect><rect x="467.3" y="388.7" fill="none" stroke="#FFFFFF" stroke-width="3" stroke-miterlimit="10" width="5.7" height="37.5" class="z-ej2n2x_108" style="stroke-dasharray: 86.4px; stroke-dashoffset: 0px;"></rect><rect x="504.4" y="388.7" fill="none" stroke="#FFFFFF" stroke-width="3" stroke-miterlimit="10" width="5.7" height="37.5" class="z-5b111y_108" style="stroke-dasharray: 86.4px; stroke-dashoffset: 0px;"></rect><rect x="541.5" y="388.7" fill="none" stroke="#FFFFFF" stroke-width="3" stroke-miterlimit="10" width="5.7" height="37.5" class="z-3iqn4q_108" style="stroke-dasharray: 86.4px; stroke-dashoffset: 0px;"></rect><rect x="522.9" y="410.2" fill="none" stroke="#FFFFFF" stroke-width="3" stroke-miterlimit="10" width="5.7" height="15.9" class="z-tl74ez_108" style="stroke-dasharray: 43.2px; stroke-dashoffset: 0px;"></rect><rect x="485.8" y="410.2" fill="none" stroke="#FFFFFF" stroke-width="3" stroke-miterlimit="10" width="5.7" height="15.9" class="z-gchaqx_108" style="stroke-dasharray: 43.2px; stroke-dashoffset: 0px;"></rect><rect x="448.7" y="410.2" fill="none" stroke="#FFFFFF" stroke-width="3" stroke-miterlimit="10" width="5.7" height="15.9" class="z-4hht08_108" style="stroke-dasharray: 43.2px; stroke-dashoffset: 0px;"></rect><rect x="411.6" y="410.2" fill="none" stroke="#FFFFFF" stroke-width="3" stroke-miterlimit="10" width="5.7" height="15.9" class="z-yt40fi_108" style="stroke-dasharray: 43.2px; stroke-dashoffset: 0px;"></rect><rect x="374.5" y="410.2" fill="none" stroke="#FFFFFF" stroke-width="3" stroke-miterlimit="10" width="5.7" height="15.9" class="z-fr7o13_108" style="stroke-dasharray: 43.2px; stroke-dashoffset: 0px;"></rect><rect x="337.4" y="410.2" fill="none" stroke="#FFFFFF" stroke-width="3" stroke-miterlimit="10" width="5.7" height="15.9" class="z-qz72vb_108" style="stroke-dasharray: 43.2px; stroke-dashoffset: 0px;"></rect><rect x="300.3" y="410.2" fill="none" stroke="#FFFFFF" stroke-width="3" stroke-miterlimit="10" width="5.7" height="15.9" class="z-sris1x_108" style="stroke-dasharray: 43.2px; stroke-dashoffset: 0px;"></rect><rect x="263.2" y="410.2" fill="none" stroke="#FFFFFF" stroke-width="3" stroke-miterlimit="10" width="5.7" height="15.9" class="z-il6sd5_108" style="stroke-dasharray: 43.2px; stroke-dashoffset: 0px;"></rect><g class="z-irko9l_108">	<circle fill="none" stroke="#FFFFFF" stroke-width="3" stroke-miterlimit="10" cx="328.5" cy="590.6" r="20.3" class="z-h4qgap_108" style="stroke-dasharray: 127.549px; stroke-dashoffset: 0px;"></circle>	<g class="z-px4zb4_108">		<path fill="none" stroke="#FFFFFF" stroke-width="3" stroke-miterlimit="10" d="M335,609.9c8.1-2.7,13.9-10.3,13.9-19.3			s-5.8-16.6-13.9-19.3c4.3,5.2,6.9,12,6.9,19.3S339.3,604.7,335,609.9z" class="z-52rjxk_108" style="stroke-dasharray: 92.6358px; stroke-dashoffset: 0px;"></path>		<path fill="none" stroke="#FFFFFF" stroke-width="3" stroke-miterlimit="10" d="M322.1,571.3c-8.1,2.7-13.9,10.3-13.9,19.3			s5.8,16.6,13.9,19.3c-4.3-5.2-6.9-12-6.9-19.3S317.7,576.6,322.1,571.3z" class="z-vsmz1r_108" style="stroke-dasharray: 92.6445px; stroke-dashoffset: 0px;"></path>	</g>	<rect x="322.1" y="565" fill="none" stroke="#FFFFFF" stroke-width="3" stroke-miterlimit="10" width="12.9" height="6.3" class="z-u9wmcy_108" style="stroke-dasharray: 38.4px; stroke-dashoffset: 0px;"></rect>	<rect x="322.1" y="609.8" fill="none" stroke="#FFFFFF" stroke-width="3" stroke-miterlimit="10" width="12.9" height="6.3" class="z-3n58xn_108" style="stroke-dasharray: 38.4px; stroke-dashoffset: 0px;"></rect></g><g class="z-f2jgz5_108">	<circle fill="none" stroke="#FFFFFF" stroke-width="3" stroke-miterlimit="10" cx="463.6" cy="590.6" r="20.3" class="z-txizky_108" style="stroke-dasharray: 127.549px; stroke-dashoffset: 0px;"></circle>	<g class="z-dbgfes_108">		<path fill="none" stroke="#FFFFFF" stroke-width="3" stroke-miterlimit="10" d="M470.1,609.9c8.1-2.7,13.9-10.3,13.9-19.3			s-5.8-16.6-13.9-19.3c4.3,5.2,6.9,12,6.9,19.3S474.4,604.7,470.1,609.9z" class="z-n4frfm_108" style="stroke-dasharray: 92.6358px; stroke-dashoffset: 0px;"></path>		<path fill="none" stroke="#FFFFFF" stroke-width="3" stroke-miterlimit="10" d="M457.1,571.3c-8.1,2.7-13.9,10.3-13.9,19.3			s5.8,16.6,13.9,19.3c-4.3-5.2-6.9-12-6.9-19.3S452.8,576.6,457.1,571.3z" class="z-05mvu1_108" style="stroke-dasharray: 92.629px; stroke-dashoffset: 0px;"></path>	</g>	<rect x="457.1" y="565" fill="none" stroke="#FFFFFF" stroke-width="3" stroke-miterlimit="10" width="12.9" height="6.3" class="z-n839xr_108" style="stroke-dasharray: 38.4px; stroke-dashoffset: 0px;"></rect>	<rect x="457.1" y="609.8" fill="none" stroke="#FFFFFF" stroke-width="3" stroke-miterlimit="10" width="12.9" height="6.3" class="z-s93j7f_108" style="stroke-dasharray: 38.4px; stroke-dashoffset: 0px;"></rect></g><path fill="none" stroke="#FFFFFF" stroke-width="3" stroke-miterlimit="10" d="M396.1,622L396.1,622c-11.8,0-21.4-9.6-21.4-21.4	v-14.2c0-11.8,9.6-21.4,21.4-21.4h0c11.8,0,21.4,9.6,21.4,21.4v14.2C417.5,612.4,407.9,622,396.1,622z" class="z-q5y51h_108" style="stroke-dasharray: 162.847px; stroke-dashoffset: 0px;"></path><path fill="none" stroke="#FFFFFF" stroke-width="3" stroke-miterlimit="10" d="M573.7,322.8c-30.1,5.6-57.9-17.5-57.9-48.2v0	c-3.5,6.5-10.2,10.5-17.5,10.5H293.9c-7.3,0-14.1-4-17.5-10.5v0c0,30.6-27.8,53.7-57.9,48.2l-1.7-0.3v0c0,13.8,11.2,25,25,25h308.7	c13.8,0,25-11.2,25-25v0L573.7,322.8z" class="z-8bd81u_108" style="stroke-dasharray: 809.977px; stroke-dashoffset: 0px;"></path><path fill="none" stroke="#FFFFFF" stroke-width="3" stroke-miterlimit="10" d="M627.7,486.2c-30.1,5.6-57.9-17.5-57.9-48.2v0	c-3.5,6.5-10.2,10.5-17.5,10.5H240c-7.3,0-14.1-4-17.5-10.5v0c0,30.6-27.8,53.7-57.9,48.2l-1.7-0.3v0c0,13.8,11.2,25,25,25h416.6	c13.8,0,25-11.2,25-25v0L627.7,486.2z" class="z-nn5me3_108" style="stroke-dasharray: 1025.78px; stroke-dashoffset: 0px;"></path><g class="z-5jhdj3_108">	<line fill="none" stroke="#FFFFFF" stroke-width="3" stroke-miterlimit="10" x1="387.8" y1="570.5" x2="404.4" y2="570.5" class="z-jhccdl_108" style="stroke-dasharray: 16.6px; stroke-dashoffset: 0px;"></line>	<line fill="none" stroke="#FFFFFF" stroke-width="3" stroke-miterlimit="10" x1="398.1" y1="578.8" x2="402.3" y2="578.8" class="z-vm87u9_108" style="stroke-dasharray: 4.2px; stroke-dashoffset: 0px;"></line>	<line fill="none" stroke="#FFFFFF" stroke-width="3" stroke-miterlimit="10" x1="389.8" y1="578.8" x2="394" y2="578.8" class="z-jbzwqi_108" style="stroke-dasharray: 4.2px; stroke-dashoffset: 0px;"></line>	<line fill="none" stroke="#FFFFFF" stroke-width="3" stroke-miterlimit="10" x1="398.1" y1="582.9" x2="404.4" y2="582.9" class="z-7sym5v_108" style="stroke-dasharray: 6.3px; stroke-dashoffset: 0px;"></line>	<line fill="none" stroke="#FFFFFF" stroke-width="3" stroke-miterlimit="10" x1="387.8" y1="582.9" x2="394" y2="582.9" class="z-k2pd1a_108" style="stroke-dasharray: 6.2px; stroke-dashoffset: 0px;"></line>	<line fill="none" stroke="#FFFFFF" stroke-width="3" stroke-miterlimit="10" x1="387.8" y1="591.2" x2="404.4" y2="591.2" class="z-cmlzw5_108" style="stroke-dasharray: 16.6px; stroke-dashoffset: 0px;"></line>	<line fill="none" stroke="#FFFFFF" stroke-width="3" stroke-miterlimit="10" x1="387.8" y1="595.4" x2="404.4" y2="595.4" class="z-m6zys0_108" style="stroke-dasharray: 16.6px; stroke-dashoffset: 0px;"></line>	<line fill="none" stroke="#FFFFFF" stroke-width="3" stroke-miterlimit="10" x1="383.6" y1="607.8" x2="394" y2="607.8" class="z-4w79jf_108" style="stroke-dasharray: 10.4px; stroke-dashoffset: 0px;"></line>	<line fill="none" stroke="#FFFFFF" stroke-width="3" stroke-miterlimit="10" x1="398.1" y1="607.8" x2="408.5" y2="607.8" class="z-fpd8rz_108" style="stroke-dasharray: 10.4px; stroke-dashoffset: 0px;"></line>	<line fill="none" stroke="#FFFFFF" stroke-width="3" stroke-miterlimit="10" x1="396.1" y1="570.5" x2="396.1" y2="595.4" class="z-dr5c09_108" style="stroke-dasharray: 24.9px; stroke-dashoffset: 0px;"></line>	<line fill="none" stroke="#FFFFFF" stroke-width="3" stroke-miterlimit="10" x1="396.1" y1="570.5" x2="396.1" y2="584.6" class="z-0oh2ds_108" style="stroke-dasharray: 14.1px; stroke-dashoffset: 0px;"></line>	<polyline fill="none" stroke="#FFFFFF" stroke-width="3" stroke-miterlimit="10" points="387.8,598.7 387.8,587.1 404.4,587.1 		404.4,598.7 	" class="z-lsagmb_108"></polyline>	<polyline fill="none" stroke="#FFFFFF" stroke-width="3" stroke-miterlimit="10" points="383.6,582.9 383.6,574.6 408.5,574.6 		408.5,582.9 	" class="z-ovxj1m_108"></polyline>	<path fill="none" stroke="#FFFFFF" stroke-width="3" stroke-miterlimit="10" d="M408.5,612h-10.4v-8.3h10.4V615		c0,1.4-1.2,2.6-2.6,2.6h-5.7" class="z-pfuefu_108" style="stroke-dasharray: 50.1692px; stroke-dashoffset: 0px;"></path>	<polyline fill="none" stroke="#FFFFFF" stroke-width="3" stroke-miterlimit="10" points="383.6,612 394,612 394,603.7 383.6,603.7 		383.6,617.7 	" class="z-uc1imu_108"></polyline></g><path fill="none" stroke="#FFFFFF" stroke-width="3" stroke-miterlimit="10" d="M232.5,204.1L232.5,204.1c0-2.4-1.9-4.3-4.3-4.3	h-50.1c-2.4,0-4.3,1.9-4.3,4.3v0c0,2.4,1.9,4.3,4.3,4.3h11.4c2.4,0,4.3,1.9,4.3,4.3l0,0c0,2.4-1.9,4.3-4.3,4.3h-48.7	c-2.4,0-4.3,1.9-4.3,4.3l0,0c0,2.4,1.9,4.3,4.3,4.3h80.8c2.4,0,4.3-1.9,4.3-4.3l0,0c0-2.4-1.9-4.3-4.3-4.3h-4.8	c-2.4,0-4.3-1.9-4.3-4.3l0,0c0-2.4,1.9-4.3,4.3-4.3h11.4C230.6,208.5,232.5,206.5,232.5,204.1z" class="z-8p4os9_108" style="stroke-dasharray: 288.427px; stroke-dashoffset: 0px;"></path><path fill="none" stroke="#FFFFFF" stroke-width="3" stroke-miterlimit="10" d="M676.3,178.1H520.5c-2.3,0-4.3,1.7-4.5,4.1	c-0.2,2.5,1.8,4.6,4.3,4.6h17c2.3,0,4.3,1.7,4.5,4.1c0.2,2.5-1.8,4.6-4.3,4.6h-35.9h-54.4c-2.3,0-4.3,1.7-4.5,4.1	c-0.2,2.5,1.8,4.6,4.3,4.6h54.6h7.6c2.4,0,4.3,1.9,4.3,4.3v0c0,2.4-1.9,4.3-4.3,4.3h-17.5c-2.3,0-4.3,1.7-4.5,4.1	c-0.2,2.5,1.8,4.6,4.3,4.6H600h12.1c2.4,0,4.4-1.9,4.4-4.4c0-2.4-1.9-4.3-4.3-4.3c0,0-0.1,0-0.1,0h-72.8c-2.4-0.1-4.3-2-4.3-4.3v0	c0-2.4,1.9-4.3,4.3-4.3h98.3c2.3,0,4.3-1.7,4.5-4.1c0.2-2.5-1.8-4.6-4.3-4.6h-60.3c-2.3,0-4.3-1.7-4.5-4.1c-0.2-2.5,1.8-4.6,4.3-4.6	h88.8h9.9c2.3,0,4.3-1.7,4.5-4.1C680.8,180.2,678.8,178.1,676.3,178.1z" class="z-dfi0vz_108" style="stroke-dasharray: 930.665px; stroke-dashoffset: 0px;"></path><g class="z-4ptdoe_108">	<path fill="none" stroke="#FFFFFF" stroke-width="3" stroke-miterlimit="10" d="M422,140.2H287.4h-26.3c-2.4,0-4.3-1.9-4.3-4.3		s1.9-4.3,4.3-4.3H286c2.4,0,4.3-1.9,4.3-4.3c0-2.4-1.9-4.3-4.3-4.3h-8.1h-53.2c-2.4,0-4.3-1.9-4.3-4.3s1.9-4.3,4.3-4.3h48.9		c2.4,0,4.3-1.9,4.3-4.3c0-2.4-1.9-4.3-4.3-4.3H152.9c-2.4,0-4.3,1.9-4.3,4.3c0,2.4,1.9,4.3,4.3,4.3h26.9c2.4,0,4.3,1.9,4.3,4.3		s-1.9,4.3-4.3,4.3h-31.3H104c-2.4,0-4.3,1.9-4.3,4.3c0,2.4,1.9,4.3,4.3,4.3h54h53.4c2.4,0,4.3,1.9,4.3,4.3s-1.9,4.3-4.3,4.3H211		h-5.2c-2.4,0-4.3,1.9-4.3,4.3c0,2.4,1.9,4.3,4.3,4.3h19.6h7.4h34.1h29.1h22.9h6.3h10.4H422c2.4,0,4.3-1.9,4.3-4.3		C426.3,142.2,424.4,140.2,422,140.2z" class="z-d7372u_108" style="stroke-dasharray: 983.906px; stroke-dashoffset: 0px;"></path></g></svg>