<svg xmlns="http://www.w3.org/2000/svg" width="390" height="552.1" viewBox="0 0 390 552.1" data-id="111"><path fill="none" stroke="#FFF" stroke-width="2" stroke-miterlimit="10" d="M121.5 59.1h-4.4l2.2 8.4c-.4 3.3-2.2 6.2-2.2 11.7S98 128.5 97.2 130.7s-11.4 27.8-11.4 27.8 21.7 32.4 47.4 48.9M127.3 56.2l-4.8-1.4s-1 3.6.1 8 3.3 7 3.3 7l2.6-2.9" class="z-pi6a7e_111" style="stroke-dasharray: 203.614px; stroke-dashoffset: 0px;"></path><path fill="none" stroke="#FFF" stroke-width="2" stroke-miterlimit="10" d="M135 52.1l-5.2-.5-2.8 4.9 2.2 13.6 3.6.7 1.8-2.6" class="z-aom1mc_111" style="stroke-dasharray: 31.4741px; stroke-dashoffset: 0px;"></path><path fill="none" stroke="#FFF" stroke-width="2" stroke-miterlimit="10" d="M143.8 50.6l-6.3-2.2-4 5.9.4 10.6 1.8 5.9 5.4-1.1" class="z-lyp82e_111" style="stroke-dasharray: 36.0881px; stroke-dashoffset: 0px;"></path><path fill="none" stroke="#FFF" stroke-width="2" stroke-miterlimit="10" d="M151.9 51.4l-5.5-2.6-7.3 6.6 2.1 16.1 3-1.4 2.2-9.3" class="z-rkv13y_111" style="stroke-dasharray: 45.0285px; stroke-dashoffset: 0px;"></path><path fill="none" stroke="#FFF" stroke-width="2" stroke-miterlimit="10" d="M151.9 58.8V43.7h10.2v38.1h-13.7M162.1 55.4h158.7l15.8 16.1H162.1" class="z-qolj42_111" style="stroke-dasharray: 432.858px; stroke-dashoffset: 0px;"></path><path fill="none" stroke="#FFF" stroke-width="2" stroke-miterlimit="10" d="M152.2 65.9l-4-2.1-3.3-5.5 2.9-2.9 9.9 7.7v6.6l-7 10.6-12.1 7.3-18.3 67.1 23.1 20.5 8.4 2.9s.4-4-1.8-6.6c-3.3-.7-10.3-3.7-10.3-3.7v-5.1l-2.2-1.8 1.5-2.6-2.2-1.8.7-3.3-5.9-2.9s4.7-11.1 4.7-12.9c0-1.8 1.9-15.3 3-17.5.7-2.6 12.5-18.3 40.3-11.4 19.1 13.9 13.6 39.9 13.6 42.9s5.5 4.4 4.8 7.3 5.1 13.2-12.8 22.4c11 33.3 8.4 44 7.3 52.4" class="z-99fp8j_111" style="stroke-dasharray: 426.706px; stroke-dashoffset: 0px;"></path><path fill="none" stroke="#FFF" stroke-width="2" stroke-miterlimit="10" d="M153 231.3c-3.7-5.1-13.9-29 9.9-33.7 14.3-2.2 21.6 19.4 24.6 24.9 5.5 10.3 13.9 34.8 13.9 34.8M151.9 178.2c0 4.4-1.8 15.8-2.6 16.9-.7 1.1-37.4 27.5-39.9 30.8s-.7 22.4-.7 22.4" class="z-n1age3_111" style="stroke-dasharray: 208.233px; stroke-dashoffset: 0px;"></path><circle fill="none" stroke="#FFF" stroke-width="2" stroke-miterlimit="10" cx="150.8" cy="293.2" r="61.9" class="z-jlr4ep_111" style="stroke-dasharray: 388.929px; stroke-dashoffset: 0px;"></circle><circle fill="none" stroke="#FFF" stroke-width="2" stroke-miterlimit="10" cx="150.8" cy="293.2" r="61.9" class="z-zip0gx_111" style="stroke-dasharray: 388.929px; stroke-dashoffset: 0px;"></circle><path fill="none" stroke="#FFF" stroke-width="2" stroke-miterlimit="10" d="M154.8 108.2c2.2 2.6 12.1 9.9 18.3 11.7 6.2 1.8 18 19.4 18 22.4M142 116.2c2.9 0 21.9-1.3 26.3 1.6" class="z-385ege_111" style="stroke-dasharray: 77.7533px; stroke-dashoffset: 0px;"></path><path fill="none" stroke="#FFF" stroke-width="2" stroke-miterlimit="10" d="M150.4 116.2c4.8 3.3 11.7 8.4 18 9.2 6.2 1.1 24 14.2 25.4 18.9" class="z-b6th53_111" style="stroke-dasharray: 52.5917px; stroke-dashoffset: 0px;"></path><path fill="none" stroke="#FFF" stroke-width="2" stroke-miterlimit="10" d="M139.4 119.9c1.1 4.8 5.9 7 11 8.4 5.1 1.5 38.2 11.9 43.4 15.2" class="z-lvxew0_111" style="stroke-dasharray: 60.5996px; stroke-dashoffset: 0px;"></path><path fill="none" stroke="#FFF" stroke-width="2" stroke-miterlimit="10" d="M150.4 128.3c3.3 6.2 4.4 7.7 7.3 9.9s34.6 7.4 35.7 11.5M167.6 146.3c.4 3.7 1.5 9.2 3.3 12.5 1.8 3.3 19.8-6.6 19.8-6.6-2.9-1.1-13.6-1.1-18.7-3.3-3.3-1.8-9.2-5.1-10.3-8.8M198 158.7c-3.7 1.8-19.8 11.4-20.9 11.7M170.9 158.7c1.5 5.9 9.2 18 14.3 22.4M138 130c4 2.1 7.2 3.2 9.2 4.3M136.5 134c1.6.7 8.5 4.6 11.4 5.1-1.5 2.1-5.1 4.6-6.9 4.9M139.8 135.3c0 2.7-1.2 6 1.9 8.8" class="z-pyn5a1_111" style="stroke-dasharray: 209.162px; stroke-dashoffset: 0px;"></path><path fill="none" stroke="#FFF" stroke-width="2" stroke-miterlimit="10" d="M149.4 171.8c3.3-.5 9.1-6.3 12.4-9.9 3.3-3.6 6.7-10.9 6.7-10.9M116 344.4c-2.6 8.1-23.5 68.6-24.6 70.1S73 478.2 78.5 496.2M124.7 349.3c-2.2 5.2-7.2 28.6-1.7 53.5s15.5 63.4 15.5 63.4M185.6 343.8c1.5 3.7 11.4 22.4-3.3 43.2 1.5 28.2 11.7 39.9 20.9 39.9s35.5-9.9 36.6-60.5c2.9-42.9-6.6-60.5-6.6-60.5 1.1-2.6 6.2-9.9 20.2-5.5 13.6 4.4 30 27.9 36.6 29 6.6 1.1 31.1 6.6 42.1 24.6-12.5 6.6-39.6 24.2-41 33.7s-1.5 29.7-1.5 31.5c0 1.8 8.1-4 8.1-4s29 53.5 29 56.1c0 2.6-27.3 26.6-27.3 27.7" class="z-glnj9v_111" style="stroke-dasharray: 856.523px; stroke-dashoffset: 0px;"></path><path fill="none" stroke="#FFF" stroke-width="2" stroke-miterlimit="10" d="M186 409c8-1.1 13.8 6.5 20.9 2.9 4.8-2.5 8.9-4.4 15-13.9 3.7-5.1 16.7-19 17.3-21.6M191.4 420c1.5-2.6 5-9.1 5-9.1M198 425.5c1.1-2.9 4.3-12.3 4.3-12.3M207.2 426.3c0-1.1.4-14.9.4-14.9M216.4 422.6l-3.9-13.8M223 417.5l-6.1-12.7M228.8 410.5l-8.6-9.9M232.5 403l-9.2-6.7M233.6 306c7.6 6.3 34.2 32.8 37.2 65.8M272.3 367.4c2.9-2.9 28.8-15 59.8-13.3M251.1 299.9c8.8 7.3 27.4 39.7 26.6 51.9M277.9 351.5c3.7-6.4 27.5-13.4 37.7-13M286.4 328c-1.8 3.7-17.5 49.2-17.5 49.2M289.7 419.3c-.4 4.4-1.5 24.2-1.8 30.1M269.4 363.7c-2.2-4.4-20-19.1-29.5-22.4M263.9 346.4c-3.4-3.9-21-12.2-24.3-12.9M257.5 334.2c-1.8-2.6-19.1-8.3-19.1-8.3M265.8 350.6c-.8-5.6 4.7-22.1 4.7-22.1M261.3 341.3c0-4.8 2-20.8 3.5-23.4M276 364.9c1.9-.2 19.7 1.7 29.5 6.5M292.5 358.9c2.1 0 17.3 4 21.9 6.1M307 355.6c2.5.2 13.5 3.5 15.3 4.4M284.1 361.8c.7-1.4 9.2-13.2 11.4-19.8M295.1 358c.9-.7 10-11.5 12.9-19M277.9 350.6c7.3-10.4 24.7-16.3 28.8-16.3M278.7 348.6c2.2-5.3 14.1-16.5 18.3-17.6M277.8 319.7c.6.1 2.3 19.9.7 29.8M266.4 308.8c1.6 2.9 14.8 32.1 11.3 43.1M169.7 430.7l7.1-27.2s5.8-23.6 3.6-24.5c-2.2-.8-23.9-4.9-28.9-5.2 0 3.7-.3 22.7-20.3 47l56.2 82.7M137.9 411.8l28.3 28.3" class="z-8tf564_111" style="stroke-dasharray: 1140.2px; stroke-dashoffset: 0px;"></path><path fill="none" stroke="#FFF" stroke-width="2" stroke-miterlimit="10" d="M140.1 407.9l29.6 22.8-11.5 30.3M143.6 403l28.3 18.9M151.6 380.2l28 10.1M150.2 384.8l27.8 13M148.8 390.9l27 15.4M146.4 396.8c.8.3 27.8 16.9 27.8 16.9M275.8 437.3c-1.1-1.4-2.7-14.8-1.1-28.9s-3.3-19.8-3.3-19.8l-22.8 14.8M246.4 443.5l31.1-6.2s10.7 7.4 12.6 19.8c1.9 12.4-3 23.6-6.6 27.8-3.6 4.1-10 22.6-10 22.6M251.4 425.5l9.3 15.4M252.2 422l16.5 17.3M253 418.6l21.7 14.9M253.3 414.5l20.6 8.3M253.1 411.1l21.1 1.8M252.6 408.6l22.1-4.8M251.1 406l23.1-9.9M241.2 448.6c.8 0 45.6-.3 45.6-.3M237.3 452.4l53.1 7.8M232.7 456.9l56 16.4M228.6 461.1l54.9 23.8M224.2 465.3l53.6 31.4M220.2 469.1l45.1 38.5M216.5 473.3l31.4 35" class="z-d6acp2_111" style="stroke-dasharray: 959.769px; stroke-dashoffset: 0px;"></path><path fill="none" stroke="#FFF" stroke-width="2" stroke-miterlimit="10" d="M53.2 552.5v-51.9s16.2 9.9 37.4 2.2 44.3-21.7 77-6.9 50 13.5 69.3 12.6c19.2-.8 91.5-2.5 91.5-2.5s.3 42.9.3 46.2" class="z-hug9ww_111" style="stroke-dasharray: 379.672px; stroke-dashoffset: 0px;"></path><path fill="none" stroke="#FFF" stroke-width="2" stroke-miterlimit="10" d="M63.1 504.4c6.3-2.7 18.1-9.1 35.2-23.6 20.6-17 48.9-20.1 69.3-6.6" class="z-clyz2u_111" style="stroke-dasharray: 117.018px; stroke-dashoffset: 0px;"></path><path fill="none" stroke="#FFF" stroke-width="2" stroke-miterlimit="10" d="M69.1 501.7c7.1 0 21.7-1.6 35.5-11.8 23.4-15.4 45.5-11 76.3 4.1" class="z-lbo226_111" style="stroke-dasharray: 118.703px; stroke-dashoffset: 0px;"></path><path fill="none" stroke="#FFF" stroke-width="2" stroke-miterlimit="10" d="M76 497.3c10.7-2.5 22.8-11.8 29.4-15.1 9.9-5.2 35.2-16.2 67.7.2M191.4 440.4l43.5 68.1M187.1 442.6l35.4 66.5M183.2 443.9l28.9 64.9M180.2 447l15.7 46.1M165.2 449.4l22.6 19.3M161.5 451.6l30.2 29.2M160.1 456c-.7 2 50.3 51.9 51.4 51.1M158.5 461.1l40.9 45.5M184.9 405.7c-1.6 4.7-4.3 6.8-10.1 6M170 428.5c3 3.3 20.7 6.8 18.6-13M186 427.4c2.7 1.1 8.1.7 10.3-2.9M135.1 415.6l27.3 34.4" class="z-1b69b7_111" style="stroke-dasharray: 684.032px; stroke-dashoffset: 0px;"></path><path fill="none" stroke="#FFF" stroke-width="2" stroke-miterlimit="10" d="M162.9 448.3c2.7 1.9 13.7 4.1 20.3-4.9 5.5-7.4 1.6-13.7 1.6-14.6M183.2 443.4c3.6-.8 13.4-1.3 11-16.7M172.8 449.8l11.7 9.3M279.4 492.2l42.3 14.1M194.3 433.7c3.3 2 12.2 6 5.9 19.9M205 426.6c2.4 2.6 5.1 9.6-3 15.3M235.4 395.6l-9.5-2.9M230 387.9l7.4.6M215.9 423c.1 2.6.5 9.9-9.2 13.3M202.2 447.2c2.2 2.1 11.3 4.1 8.1 22.7M206.4 437.2c1.5 1.6 4.7 5.8 2.6 16.5M211 434.3c2.3 1 6.2 3.8 4.3 14M209.7 446c2.3.8 14.5 2.1 11.2 22.1M215.9 441.3c2.9 0 14.5 1.4 11.9 20.1M214.8 429.4c1.6.7 7.4 2.5 6.2 13.1M221.5 418.6c.3 1.8 2.5 8.5-3.3 12.6M222.1 425c1.5 1.2 5.5 4.1 4.7 12M220.7 435.3c3 .8 14.2 1 15 18.6M226.6 413c0 1.5 1 6.6-4.3 10.6M225.1 420.7c1.6.4 7.4 2.6 6.2 11M225.9 430.6c1.8.1 13.5.6 16.6 16.5M230.9 427.7c2.1-.5 13.1-1.1 17.6 13.7M226.8 415.9c1.6 0 10.2 0 8.4 11.3M235.1 422.8c1.2-.3 16.6-.4 17.9 14.3M229.1 409.7c1.8-.1 7.6.8 9.1 5.9M232.3 417.1c2.1-.8 16.4-5.2 17 10.4M233 402.8c1.9.1 7 2.3 8.4 6.7M233 410.4c3-1 11.6-3.8 14.7 5.7M236 395.3c2.1.5 5.2 1.6 6.9 7.3" class="z-zyr1nf_111" style="stroke-dasharray: 575.807px; stroke-dashoffset: 0px;"></path><path fill="none" stroke="#FFF" stroke-width="2" stroke-miterlimit="10" d="M237.2 404.5c1.5-1.4 11.4-5.1 15 3.8 1 2.8 2.8 10.2-2.5 20.1M237.2 389.5c1-.1 6.2-.7 8.5 4.3M239.5 396.5c2.1-2.3 10.9-6.9 13.1 4.4M238.2 384.2c1.2-.4 6.7 0 9.6 3M242.4 390.3c1-.7 9.3-9.3 18.2 5.9M241.3 384.3c1.2-1.4 13.7-9.5 19.6 3.2M254 380.9c1.1-1 14.8-12 22.8 4.5M271.3 388.8c1.5-1 7.8-7.8 13.3-.8M276.8 393.8c.8-1.4 10.6-9.5 14.2-6.5M274.2 394.2c1.4-1 7.3-1.5 11 4M282.7 395.8c.7-.7 7.1-4.8 7.8-3.6M275.1 398.9c1.5-.7 7.6-3.7 12 1M279.7 406.3c.7-1.5 5.4-9.6 10.3-5.1M274.9 406.1c1.5-.3 6-.7 9.1 3.3M279.8 415.4c1.5-2.7 5.5-10.6 9.9-4.8M274.2 416.6c1.4-.1 6.2-4 10.2 3.6M281 424.4c1.1-1.1 3.7-7 8.7-4.4M274 424.6c1.6-.8 7.8-2.7 10.9 4.7M276.9 437.3c1-1.2 5.5-12 12.1-6.3M131.8 440.1l-9.6 27.7M289.6 454.4l24.7-8.3M288.5 451.4l21.1-14.3M287.9 444.5l17.1-16M288.7 434.2l11.9-13.4M290.4 458.8l28.6-3.6M290.7 464l32.4-.3M290.1 468.7l32.7 6.8M289.3 472.2l26.4 11M287.6 477.5l20.7 12.3M285.4 482.1l17.4 13.5M179.4 338.5c15.9-11.3 20.1-26.4 20.3-39.6.1-4.5 0-26.1-11.8-30.8s-18.7 25.3-24.7 17.3 5.9-26.8-4.1-35.1c-12.1-8.5-21.7 3.9-22.6 7 4-.9 13.9-.5 13 7.1-.9 9.8-3.6 18.5-9.1 20.9-5.5 2.5-16.8-19.2-24.5-19.2s-12.6 10.2-14.6 17.6c-2.3 9.1-7.4 32.7 18.2 49.7M109.3 288.7c-2.6 8.3-2.6 24.8 8.5 36.6M117.2 290.9c-2.8 9.4-3.9 18.2 1.8 30.9M124.8 293.8c-6.8 12.6-2 29.6.4 32.6M191.1 288.7c2.6 8.3 2.6 24.8-8.5 36.6M183.1 290.9c2.8 9.4 3.9 18.2-1.8 30.9M175.5 293.8c6.8 12.6 2 29.6-.4 32.6M255.5 390.1c1.6-.9 7-6 14.3-.2M244.4 417.4c2.1-1.6 5.7-2.6 8.3 3.2M213.7 475.4l42.6-41.8" class="z-17d4zi_111" style="stroke-dasharray: 1230.04px; stroke-dashoffset: 0px;"></path><path fill="none" stroke="#FFF" stroke-width="2" stroke-miterlimit="10" d="M146.6 248.2l-2.4-9.1 4.9 4.3 4.7-9 3 9.2 6.8-2.8-5.4 9.3M135.2 329.5l-1 4.9-8.3 3 6.3 1.9.6 7.8 4.4-6 5 1.2-3.7-6.3 1.2-5.6M163.7 330.3l.5 5 8 3.8-6.5 1.2-1.4 7.8-3.7-6.4-5.1.7 4.3-6-.6-5.7" class="z-iuamdf_111" style="stroke-dasharray: 161.784px; stroke-dashoffset: 0px;"></path></svg>