<svg version="1.1" id="Layer_1" xmlns="http://www.w3.org/2000/svg" xmlns:xlink="http://www.w3.org/1999/xlink" x="0px" y="0px" width="518px" height="800px" viewBox="0 0 518 800" enable-background="new 0 0 518 800" xml:space="preserve" data-id="113"><polyline fill="none" stroke="#FFFFFF" stroke-width="4" stroke-miterlimit="10" points="333.8,336.4 369.6,73.5 405.3,336.4 " class="z-1a59zs_113"></polyline><polygon fill="none" stroke="#FFFFFF" stroke-width="4" stroke-miterlimit="10" points="412.6,351.2 326.6,351.2 329.4,277.6 	409.7,277.6 " class="z-eu7afl_113" style="stroke-dasharray: 313.61px; stroke-dashoffset: 0px;"></polygon><line fill="none" stroke="#FFFFFF" stroke-width="4" stroke-miterlimit="10" x1="334.5" y1="277.6" x2="334.5" y2="257.2" class="z-ogtqot_113" style="stroke-dasharray: 20.4px; stroke-dashoffset: 0px;"></line><line fill="none" stroke="#FFFFFF" stroke-width="4" stroke-miterlimit="10" x1="404.7" y1="277.6" x2="404.7" y2="257.2" class="z-3ihfuw_113" style="stroke-dasharray: 20.4px; stroke-dashoffset: 0px;"></line><path fill="none" stroke="#FFFFFF" stroke-width="4" stroke-miterlimit="10" d="M369.6,254.3v10.2c0,10.2,5.9,24.3,30.7,59.5	c5.5,8.3,7,21.4,7,27.2H332c0-5.8,1.4-18.9,7-27.2c24.8-35.2,30.7-49.3,30.7-59.5" class="z-ti3lzb_113" style="stroke-dasharray: 277.799px; stroke-dashoffset: 0px;"></path><circle fill="none" stroke="#FFFFFF" stroke-width="4" stroke-miterlimit="10" cx="369.6" cy="254.3" r="5.2" class="z-mos9ll_113" style="stroke-dasharray: 32.6726px; stroke-dashoffset: 0px;"></circle><rect x="326.6" y="351.2" fill="none" stroke="#FFFFFF" stroke-width="4" stroke-miterlimit="10" width="86.1" height="118.1" class="z-mxvd5x_113" style="stroke-dasharray: 408.4px; stroke-dashoffset: 0px;"></rect><rect x="326.6" y="476.2" fill="none" stroke="#FFFFFF" stroke-width="4" stroke-miterlimit="10" width="86.1" height="88.2" class="z-uafhvn_113" style="stroke-dasharray: 348.6px; stroke-dashoffset: 0px;"></rect><rect x="326.6" y="571.2" fill="none" stroke="#FFFFFF" stroke-width="4" stroke-miterlimit="10" width="86.1" height="77.8" class="z-huua2f_113" style="stroke-dasharray: 327.8px; stroke-dashoffset: 0px;"></rect><rect x="326.6" y="655.8" fill="none" stroke="#FFFFFF" stroke-width="4" stroke-miterlimit="10" width="86.1" height="42" class="z-3dvqhv_113" style="stroke-dasharray: 256.2px; stroke-dashoffset: 0px;"></rect><polyline fill="none" stroke="#FFFFFF" stroke-width="4" stroke-miterlimit="10" points="326.6,488.5 157.5,488.5 58.4,578.7 	136.6,578.7 " class="z-cskoa4_113"></polyline><rect x="92.8" y="578.7" fill="none" stroke="#FFFFFF" stroke-width="4" stroke-miterlimit="10" width="43.9" height="222" class="z-0h9rao_113" style="stroke-dasharray: 531.8px; stroke-dashoffset: 0px;"></rect><polygon fill="none" stroke="#FFFFFF" stroke-width="4" stroke-miterlimit="10" points="136.6,572.2 136.6,762.4 130.6,800.6 	158.9,800.6 158.9,762.4 158.9,572.2 " class="z-j01n29_113" style="stroke-dasharray: 507.868px; stroke-dashoffset: 0px;"></polygon><line fill="none" stroke="#FFFFFF" stroke-width="4" stroke-miterlimit="10" x1="158.9" y1="583.2" x2="309.7" y2="583.2" class="z-u656pn_113" style="stroke-dasharray: 150.8px; stroke-dashoffset: 0px;"></line><path fill="none" stroke="#FFFFFF" stroke-width="4" stroke-miterlimit="10" d="M172.6,595.8c0-3.8-3.1-6.8-6.8-6.8	c-3.8,0-6.8,3.1-6.8,6.8v4.6" class="z-b19u4p_113" style="stroke-dasharray: 25.9612px; stroke-dashoffset: 0px;"></path><path fill="none" stroke="#FFFFFF" stroke-width="4" stroke-miterlimit="10" d="M186.3,595.8c0-3.8-3.1-6.8-6.8-6.8	c-3.8,0-6.8,3.1-6.8,6.8" class="z-s7iuvs_113" style="stroke-dasharray: 21.3613px; stroke-dashoffset: 0px;"></path><path fill="none" stroke="#FFFFFF" stroke-width="4" stroke-miterlimit="10" d="M200,595.8c0-3.8-3.1-6.8-6.8-6.8	c-3.8,0-6.8,3.1-6.8,6.8" class="z-m5mb4h_113" style="stroke-dasharray: 21.3613px; stroke-dashoffset: 0px;"></path><path fill="none" stroke="#FFFFFF" stroke-width="4" stroke-miterlimit="10" d="M213.7,595.8c0-3.8-3.1-6.8-6.8-6.8	c-3.8,0-6.8,3.1-6.8,6.8" class="z-np5dvc_113" style="stroke-dasharray: 21.3613px; stroke-dashoffset: 0px;"></path><path fill="none" stroke="#FFFFFF" stroke-width="4" stroke-miterlimit="10" d="M227.4,595.8c0-3.8-3.1-6.8-6.8-6.8	s-6.8,3.1-6.8,6.8" class="z-by0bms_113" style="stroke-dasharray: 21.3396px; stroke-dashoffset: 0px;"></path><path fill="none" stroke="#FFFFFF" stroke-width="4" stroke-miterlimit="10" d="M241.1,595.8c0-3.8-3.1-6.8-6.8-6.8	c-3.8,0-6.8,3.1-6.8,6.8" class="z-rkyhh8_113" style="stroke-dasharray: 21.3613px; stroke-dashoffset: 0px;"></path><path fill="none" stroke="#FFFFFF" stroke-width="4" stroke-miterlimit="10" d="M254.8,595.8c0-3.8-3.1-6.8-6.8-6.8	s-6.8,3.1-6.8,6.8" class="z-82ki2d_113" style="stroke-dasharray: 21.3396px; stroke-dashoffset: 0px;"></path><path fill="none" stroke="#FFFFFF" stroke-width="4" stroke-miterlimit="10" d="M268.5,595.8c0-3.8-3.1-6.8-6.8-6.8	s-6.8,3.1-6.8,6.8" class="z-deg6c4_113" style="stroke-dasharray: 21.3396px; stroke-dashoffset: 0px;"></path><path fill="none" stroke="#FFFFFF" stroke-width="4" stroke-miterlimit="10" d="M282.2,595.8c0-3.8-3.1-6.8-6.8-6.8	c-3.8,0-6.8,3.1-6.8,6.8" class="z-wlqtsq_113" style="stroke-dasharray: 21.3612px; stroke-dashoffset: 0px;"></path><path fill="none" stroke="#FFFFFF" stroke-width="4" stroke-miterlimit="10" d="M295.9,595.8c0-3.8-3.1-6.8-6.8-6.8	s-6.8,3.1-6.8,6.8" class="z-0iqfj3_113" style="stroke-dasharray: 21.3396px; stroke-dashoffset: 0px;"></path><path fill="none" stroke="#FFFFFF" stroke-width="4" stroke-miterlimit="10" d="M309.6,595.8c0-3.8-3.1-6.8-6.8-6.8	s-6.8,3.1-6.8,6.8" class="z-zrf2h5_113" style="stroke-dasharray: 21.3396px; stroke-dashoffset: 0px;"></path><path fill="none" stroke="#FFFFFF" stroke-width="4" stroke-miterlimit="10" d="M226.3,751.3V618.6c0-4.4,3.5-7.9,7.9-7.9	c4.4,0,7.9,3.5,7.9,7.9v132.6H226.3z" class="z-530nw5_113" style="stroke-dasharray: 306.054px; stroke-dashoffset: 0px;"></path><path fill="none" stroke="#FFFFFF" stroke-width="4" stroke-miterlimit="10" d="M264.6,751.3V638.4c0-4.4,3.5-7.9,7.9-7.9	s7.9,3.5,7.9,7.9v112.8H264.6z" class="z-w5gqaz_113" style="stroke-dasharray: 266.454px; stroke-dashoffset: 0px;"></path><path fill="none" stroke="#FFFFFF" stroke-width="4" stroke-miterlimit="10" d="M186.7,751.3V638.4c0-4.4,3.5-7.9,7.9-7.9	c4.4,0,7.9,3.5,7.9,7.9v112.8H186.7z" class="z-tyvazc_113" style="stroke-dasharray: 266.454px; stroke-dashoffset: 0px;"></path><line fill="none" stroke="#FFFFFF" stroke-width="4" stroke-miterlimit="10" x1="226.3" y1="626" x2="242.2" y2="626" class="z-zusn5k_113" style="stroke-dasharray: 15.9px; stroke-dashoffset: 0px;"></line><line fill="none" stroke="#FFFFFF" stroke-width="4" stroke-miterlimit="10" x1="226.3" y1="638.6" x2="242.2" y2="638.6" class="z-gin8hf_113" style="stroke-dasharray: 15.9px; stroke-dashoffset: 0px;"></line><line fill="none" stroke="#FFFFFF" stroke-width="4" stroke-miterlimit="10" x1="226.3" y1="651.1" x2="242.2" y2="651.1" class="z-oyxon8_113" style="stroke-dasharray: 15.9px; stroke-dashoffset: 0px;"></line><line fill="none" stroke="#FFFFFF" stroke-width="4" stroke-miterlimit="10" x1="226.3" y1="663.7" x2="242.2" y2="663.7" class="z-6eyxeb_113" style="stroke-dasharray: 15.9px; stroke-dashoffset: 0px;"></line><line fill="none" stroke="#FFFFFF" stroke-width="4" stroke-miterlimit="10" x1="226.3" y1="676.2" x2="242.2" y2="676.2" class="z-6ml0on_113" style="stroke-dasharray: 15.9px; stroke-dashoffset: 0px;"></line><line fill="none" stroke="#FFFFFF" stroke-width="4" stroke-miterlimit="10" x1="226.3" y1="688.8" x2="242.2" y2="688.8" class="z-uzxjrh_113" style="stroke-dasharray: 15.9px; stroke-dashoffset: 0px;"></line><line fill="none" stroke="#FFFFFF" stroke-width="4" stroke-miterlimit="10" x1="226.3" y1="701.3" x2="242.2" y2="701.3" class="z-6wsg0k_113" style="stroke-dasharray: 15.9px; stroke-dashoffset: 0px;"></line><line fill="none" stroke="#FFFFFF" stroke-width="4" stroke-miterlimit="10" x1="226.3" y1="713.9" x2="242.2" y2="713.9" class="z-d4fnpj_113" style="stroke-dasharray: 15.9px; stroke-dashoffset: 0px;"></line><line fill="none" stroke="#FFFFFF" stroke-width="4" stroke-miterlimit="10" x1="226.3" y1="726.4" x2="242.2" y2="726.4" class="z-7zdhj2_113" style="stroke-dasharray: 15.9px; stroke-dashoffset: 0px;"></line><line fill="none" stroke="#FFFFFF" stroke-width="4" stroke-miterlimit="10" x1="226.3" y1="739" x2="242.2" y2="739" class="z-6s68dq_113" style="stroke-dasharray: 15.9px; stroke-dashoffset: 0px;"></line><line fill="none" stroke="#FFFFFF" stroke-width="4" stroke-miterlimit="10" x1="264.6" y1="651.1" x2="280.4" y2="651.1" class="z-pdospm_113" style="stroke-dasharray: 15.8px; stroke-dashoffset: 0px;"></line><line fill="none" stroke="#FFFFFF" stroke-width="4" stroke-miterlimit="10" x1="264.6" y1="663.7" x2="280.4" y2="663.7" class="z-wchq8y_113" style="stroke-dasharray: 15.8px; stroke-dashoffset: 0px;"></line><line fill="none" stroke="#FFFFFF" stroke-width="4" stroke-miterlimit="10" x1="264.6" y1="676.2" x2="280.4" y2="676.2" class="z-dw1grf_113" style="stroke-dasharray: 15.8px; stroke-dashoffset: 0px;"></line><line fill="none" stroke="#FFFFFF" stroke-width="4" stroke-miterlimit="10" x1="264.6" y1="688.8" x2="280.4" y2="688.8" class="z-qpwwwi_113" style="stroke-dasharray: 15.8px; stroke-dashoffset: 0px;"></line><line fill="none" stroke="#FFFFFF" stroke-width="4" stroke-miterlimit="10" x1="264.6" y1="701.3" x2="280.4" y2="701.3" class="z-3n957m_113" style="stroke-dasharray: 15.8px; stroke-dashoffset: 0px;"></line><line fill="none" stroke="#FFFFFF" stroke-width="4" stroke-miterlimit="10" x1="264.6" y1="713.9" x2="280.4" y2="713.9" class="z-81n43o_113" style="stroke-dasharray: 15.8px; stroke-dashoffset: 0px;"></line><line fill="none" stroke="#FFFFFF" stroke-width="4" stroke-miterlimit="10" x1="264.6" y1="726.4" x2="280.4" y2="726.4" class="z-s13vme_113" style="stroke-dasharray: 15.8px; stroke-dashoffset: 0px;"></line><line fill="none" stroke="#FFFFFF" stroke-width="4" stroke-miterlimit="10" x1="264.6" y1="739" x2="280.4" y2="739" class="z-1a2ic1_113" style="stroke-dasharray: 15.8px; stroke-dashoffset: 0px;"></line><line fill="none" stroke="#FFFFFF" stroke-width="4" stroke-miterlimit="10" x1="186.7" y1="651.1" x2="202.5" y2="651.1" class="z-8wg6lj_113" style="stroke-dasharray: 15.8px; stroke-dashoffset: 0px;"></line><line fill="none" stroke="#FFFFFF" stroke-width="4" stroke-miterlimit="10" x1="186.7" y1="663.7" x2="202.5" y2="663.7" class="z-q19bbv_113" style="stroke-dasharray: 15.8px; stroke-dashoffset: 0px;"></line><line fill="none" stroke="#FFFFFF" stroke-width="4" stroke-miterlimit="10" x1="186.7" y1="676.2" x2="202.5" y2="676.2" class="z-wvsovk_113" style="stroke-dasharray: 15.8px; stroke-dashoffset: 0px;"></line><line fill="none" stroke="#FFFFFF" stroke-width="4" stroke-miterlimit="10" x1="186.7" y1="688.8" x2="202.5" y2="688.8" class="z-7je56j_113" style="stroke-dasharray: 15.8px; stroke-dashoffset: 0px;"></line><line fill="none" stroke="#FFFFFF" stroke-width="4" stroke-miterlimit="10" x1="186.7" y1="701.3" x2="202.5" y2="701.3" class="z-goa9dx_113" style="stroke-dasharray: 15.8px; stroke-dashoffset: 0px;"></line><line fill="none" stroke="#FFFFFF" stroke-width="4" stroke-miterlimit="10" x1="186.7" y1="713.9" x2="202.5" y2="713.9" class="z-xz9jmc_113" style="stroke-dasharray: 15.8px; stroke-dashoffset: 0px;"></line><line fill="none" stroke="#FFFFFF" stroke-width="4" stroke-miterlimit="10" x1="186.7" y1="726.4" x2="202.5" y2="726.4" class="z-rvduq6_113" style="stroke-dasharray: 15.8px; stroke-dashoffset: 0px;"></line><line fill="none" stroke="#FFFFFF" stroke-width="4" stroke-miterlimit="10" x1="186.7" y1="739" x2="202.5" y2="739" class="z-zrcnps_113" style="stroke-dasharray: 15.8px; stroke-dashoffset: 0px;"></line><polygon fill="none" stroke="#FFFFFF" stroke-width="4" stroke-miterlimit="10" points="142,525.1 152.8,534.8 131.2,534.8 " class="z-3vc2aq_113" style="stroke-dasharray: 50.6331px; stroke-dashoffset: 0px;"></polygon><rect x="135.8" y="534.8" fill="none" stroke="#FFFFFF" stroke-width="4" stroke-miterlimit="10" width="12.4" height="10" class="z-kfatp8_113" style="stroke-dasharray: 44.8px; stroke-dashoffset: 0px;"></rect><rect x="332" y="697.9" fill="none" stroke="#FFFFFF" stroke-width="4" stroke-miterlimit="10" width="80.7" height="102.8" class="z-2jq16y_113" style="stroke-dasharray: 367px; stroke-dashoffset: 0px;"></rect><line fill="#64B089" stroke="#FFFFFF" stroke-width="4" stroke-miterlimit="10" x1="369.6" y1="73.5" x2="369.6" y2="40.6" class="z-941guy_113" style="stroke-dasharray: 32.9px; stroke-dashoffset: 0px;"></line><circle fill="none" stroke="#FFFFFF" stroke-width="4" stroke-miterlimit="10" cx="369.6" cy="67.8" r="7.4" class="z-jo3j7s_113" style="stroke-dasharray: 46.4956px; stroke-dashoffset: 0px;"></circle><circle fill="none" stroke="#FFFFFF" stroke-width="4" stroke-miterlimit="10" cx="369.6" cy="40.6" r="9.4" class="z-kgespb_113" style="stroke-dasharray: 59.0619px; stroke-dashoffset: 0px;"></circle><rect x="107" y="586.1" fill="none" stroke="#FFFFFF" stroke-width="4" stroke-miterlimit="10" width="15.2" height="26.6" class="z-faxpm1_113" style="stroke-dasharray: 83.6px; stroke-dashoffset: 0px;"></rect><rect x="107" y="648.6" fill="none" stroke="#FFFFFF" stroke-width="4" stroke-miterlimit="10" width="15.2" height="26.6" class="z-g2j9z2_113" style="stroke-dasharray: 83.6px; stroke-dashoffset: 0px;"></rect><line fill="none" stroke="#FFFFFF" stroke-width="4" stroke-miterlimit="10" x1="107" y1="661.9" x2="122.1" y2="661.9" class="z-auryvi_113" style="stroke-dasharray: 15.1px; stroke-dashoffset: 0px;"></line><line fill="none" stroke="#FFFFFF" stroke-width="4" stroke-miterlimit="10" x1="114.5" y1="648.6" x2="114.5" y2="675.2" class="z-qfg8o0_113" style="stroke-dasharray: 26.6px; stroke-dashoffset: 0px;"></line><rect x="107" y="709.6" fill="none" stroke="#FFFFFF" stroke-width="4" stroke-miterlimit="10" width="15.2" height="26.6" class="z-5t0wwv_113" style="stroke-dasharray: 83.6px; stroke-dashoffset: 0px;"></rect><line fill="none" stroke="#FFFFFF" stroke-width="4" stroke-miterlimit="10" x1="107" y1="723" x2="122.1" y2="723" class="z-ry630e_113" style="stroke-dasharray: 15.1px; stroke-dashoffset: 0px;"></line><line fill="none" stroke="#FFFFFF" stroke-width="4" stroke-miterlimit="10" x1="114.5" y1="709.6" x2="114.5" y2="736.3" class="z-kqi6vv_113" style="stroke-dasharray: 26.7px; stroke-dashoffset: 0px;"></line><line fill="none" stroke="#FFFFFF" stroke-width="4" stroke-miterlimit="10" x1="326.6" y1="373" x2="412.6" y2="373" class="z-y4b8zn_113" style="stroke-dasharray: 86px; stroke-dashoffset: 0px;"></line><line fill="none" stroke="#FFFFFF" stroke-width="4" stroke-miterlimit="10" x1="326.6" y1="394.4" x2="412.6" y2="394.4" class="z-yihaa8_113" style="stroke-dasharray: 86px; stroke-dashoffset: 0px;"></line><line fill="none" stroke="#FFFFFF" stroke-width="4" stroke-miterlimit="10" x1="326.6" y1="415.7" x2="412.6" y2="415.7" class="z-bxhhgf_113" style="stroke-dasharray: 86px; stroke-dashoffset: 0px;"></line><line fill="none" stroke="#FFFFFF" stroke-width="4" stroke-miterlimit="10" x1="326.6" y1="437" x2="412.6" y2="437" class="z-bdrh5f_113" style="stroke-dasharray: 86px; stroke-dashoffset: 0px;"></line><line fill="none" stroke="#FFFFFF" stroke-width="4" stroke-miterlimit="10" x1="326.6" y1="458.3" x2="412.6" y2="458.3" class="z-ujb52b_113" style="stroke-dasharray: 86px; stroke-dashoffset: 0px;"></line><line fill="none" stroke="#FFFFFF" stroke-width="4" stroke-miterlimit="10" x1="326.6" y1="487.1" x2="412.6" y2="487.1" class="z-6v4h68_113" style="stroke-dasharray: 86px; stroke-dashoffset: 0px;"></line><line fill="none" stroke="#FFFFFF" stroke-width="4" stroke-miterlimit="10" x1="326.6" y1="508.4" x2="412.6" y2="508.4" class="z-bm3cvv_113" style="stroke-dasharray: 86px; stroke-dashoffset: 0px;"></line><line fill="none" stroke="#FFFFFF" stroke-width="4" stroke-miterlimit="10" x1="326.6" y1="529.7" x2="412.6" y2="529.7" class="z-bx7a7w_113" style="stroke-dasharray: 86px; stroke-dashoffset: 0px;"></line><line fill="none" stroke="#FFFFFF" stroke-width="4" stroke-miterlimit="10" x1="326.6" y1="583.2" x2="412.6" y2="583.2" class="z-3pske3_113" style="stroke-dasharray: 86px; stroke-dashoffset: 0px;"></line><line fill="none" stroke="#FFFFFF" stroke-width="4" stroke-miterlimit="10" x1="326.6" y1="604" x2="412.6" y2="604" class="z-7suqts_113" style="stroke-dasharray: 86px; stroke-dashoffset: 0px;"></line><line fill="none" stroke="#FFFFFF" stroke-width="4" stroke-miterlimit="10" x1="326.6" y1="626.4" x2="412.6" y2="626.4" class="z-etayll_113" style="stroke-dasharray: 86px; stroke-dashoffset: 0px;"></line><line fill="none" stroke="#FFFFFF" stroke-width="4" stroke-miterlimit="10" x1="326.6" y1="677.5" x2="412.6" y2="677.5" class="z-3szqi0_113" style="stroke-dasharray: 86px; stroke-dashoffset: 0px;"></line><line fill="none" stroke="#FFFFFF" stroke-width="4" stroke-miterlimit="10" x1="326.6" y1="710.2" x2="412.6" y2="710.2" class="z-edpfyn_113" style="stroke-dasharray: 86px; stroke-dashoffset: 0px;"></line><line fill="none" stroke="#FFFFFF" stroke-width="4" stroke-miterlimit="10" x1="326.6" y1="733.6" x2="412.6" y2="733.6" class="z-76xijq_113" style="stroke-dasharray: 86px; stroke-dashoffset: 0px;"></line><line fill="none" stroke="#FFFFFF" stroke-width="4" stroke-miterlimit="10" x1="326.6" y1="757.1" x2="412.6" y2="757.1" class="z-g4u194_113" style="stroke-dasharray: 86px; stroke-dashoffset: 0px;"></line><line fill="none" stroke="#FFFFFF" stroke-width="4" stroke-miterlimit="10" x1="326.6" y1="780.6" x2="412.6" y2="780.6" class="z-469fpp_113" style="stroke-dasharray: 86px; stroke-dashoffset: 0px;"></line><line fill="none" stroke="#FFFFFF" stroke-width="4" stroke-miterlimit="10" x1="326.6" y1="552.5" x2="412.6" y2="552.5" class="z-xblpea_113" style="stroke-dasharray: 86px; stroke-dashoffset: 0px;"></line><circle fill="none" stroke="#FFFFFF" stroke-width="4" stroke-miterlimit="10" cx="369.6" cy="351.2" r="30.8" class="z-bkhpq4_113" style="stroke-dasharray: 193.522px; stroke-dashoffset: 0px;"></circle><circle fill="none" stroke="#FFFFFF" stroke-width="4" stroke-miterlimit="10" cx="369.6" cy="351.2" r="20.9" class="z-ja9ph6_113" style="stroke-dasharray: 131.319px; stroke-dashoffset: 0px;"></circle><line fill="#64B089" stroke="#FFFFFF" stroke-width="4" stroke-miterlimit="10" x1="369.6" y1="330.3" x2="369.6" y2="372.2" class="z-5aln7f_113" style="stroke-dasharray: 41.9px; stroke-dashoffset: 0px;"></line><line fill="#64B089" stroke="#FFFFFF" stroke-width="4" stroke-miterlimit="10" x1="390.5" y1="351.2" x2="348.7" y2="351.2" class="z-no0t89_113" style="stroke-dasharray: 41.8px; stroke-dashoffset: 0px;"></line><line fill="#64B089" stroke="#FFFFFF" stroke-width="4" stroke-miterlimit="10" x1="384.4" y1="336.4" x2="354.8" y2="366" class="z-v350c9_113" style="stroke-dasharray: 41.8607px; stroke-dashoffset: 0px;"></line><line fill="#64B089" stroke="#FFFFFF" stroke-width="4" stroke-miterlimit="10" x1="384.4" y1="366" x2="354.8" y2="336.4" class="z-5zgc0c_113" style="stroke-dasharray: 41.8607px; stroke-dashoffset: 0px;"></line><circle fill="none" stroke="#FFFFFF" stroke-width="4" stroke-miterlimit="10" cx="369.6" cy="351.2" r="5.2" class="z-k809wp_113" style="stroke-dasharray: 32.6726px; stroke-dashoffset: 0px;"></circle><g class="z-xheids_113">	<path fill="none" stroke="#FFFFFF" stroke-width="4" stroke-miterlimit="10" d="M369.6,398.8c0,0-12.8,8.6-12.8,16.7v32.2h25.6		v-32.2C382.4,407.4,369.6,398.8,369.6,398.8z" class="z-buwmgn_113" style="stroke-dasharray: 133.419px; stroke-dashoffset: 0px;"></path>	<line fill="none" stroke="#FFFFFF" stroke-width="4" stroke-miterlimit="10" x1="356.8" y1="415.5" x2="382.4" y2="415.5" class="z-73gb3x_113" style="stroke-dasharray: 25.6px; stroke-dashoffset: 0px;"></line>	<line fill="none" stroke="#FFFFFF" stroke-width="4" stroke-miterlimit="10" x1="365.2" y1="415.5" x2="365.2" y2="447.7" class="z-xofd59_113" style="stroke-dasharray: 32.2px; stroke-dashoffset: 0px;"></line>	<line fill="none" stroke="#FFFFFF" stroke-width="4" stroke-miterlimit="10" x1="373.8" y1="415.5" x2="373.8" y2="447.7" class="z-mz9rjl_113" style="stroke-dasharray: 32.2px; stroke-dashoffset: 0px;"></line></g><line fill="none" stroke="#FFFFFF" stroke-width="4" stroke-miterlimit="10" x1="344.8" y1="373" x2="344.8" y2="394.4" class="z-9aiqse_113" style="stroke-dasharray: 21.4px; stroke-dashoffset: 0px;"></line><line fill="none" stroke="#FFFFFF" stroke-width="4" stroke-miterlimit="10" x1="390.5" y1="373.9" x2="390.5" y2="394.4" class="z-yi1xk6_113" style="stroke-dasharray: 20.5px; stroke-dashoffset: 0px;"></line><line fill="none" stroke="#FFFFFF" stroke-width="4" stroke-miterlimit="10" x1="352.1" y1="394.4" x2="352.1" y2="415.6" class="z-mg03wv_113" style="stroke-dasharray: 21.2px; stroke-dashoffset: 0px;"></line><line fill="none" stroke="#FFFFFF" stroke-width="4" stroke-miterlimit="10" x1="400.4" y1="394.4" x2="400.4" y2="415.6" class="z-k6i7xm_113" style="stroke-dasharray: 21.2px; stroke-dashoffset: 0px;"></line><line fill="none" stroke="#FFFFFF" stroke-width="4" stroke-miterlimit="10" x1="393.6" y1="415.5" x2="393.6" y2="437" class="z-rlfbhf_113" style="stroke-dasharray: 21.5px; stroke-dashoffset: 0px;"></line><line fill="none" stroke="#FFFFFF" stroke-width="4" stroke-miterlimit="10" x1="400.4" y1="437" x2="400.4" y2="458.3" class="z-6td25e_113" style="stroke-dasharray: 21.3px; stroke-dashoffset: 0px;"></line><line fill="none" stroke="#FFFFFF" stroke-width="4" stroke-miterlimit="10" x1="385.5" y1="458.3" x2="385.5" y2="469" class="z-x6x3gs_113" style="stroke-dasharray: 10.7px; stroke-dashoffset: 0px;"></line><line fill="none" stroke="#FFFFFF" stroke-width="4" stroke-miterlimit="10" x1="359.1" y1="458.3" x2="359.1" y2="469" class="z-us4hky_113" style="stroke-dasharray: 10.7px; stroke-dashoffset: 0px;"></line><line fill="none" stroke="#FFFFFF" stroke-width="4" stroke-miterlimit="10" x1="338" y1="458.3" x2="338" y2="469" class="z-8neie8_113" style="stroke-dasharray: 10.7px; stroke-dashoffset: 0px;"></line><line fill="none" stroke="#FFFFFF" stroke-width="4" stroke-miterlimit="10" x1="385.5" y1="486.8" x2="385.5" y2="508.4" class="z-h41d7c_113" style="stroke-dasharray: 21.6px; stroke-dashoffset: 0px;"></line><line fill="none" stroke="#FFFFFF" stroke-width="4" stroke-miterlimit="10" x1="338" y1="487.1" x2="338" y2="508.4" class="z-p9hqtp_113" style="stroke-dasharray: 21.3px; stroke-dashoffset: 0px;"></line><line fill="none" stroke="#FFFFFF" stroke-width="4" stroke-miterlimit="10" x1="350.2" y1="508.4" x2="350.2" y2="529.7" class="z-02m86m_113" style="stroke-dasharray: 21.3px; stroke-dashoffset: 0px;"></line><line fill="none" stroke="#FFFFFF" stroke-width="4" stroke-miterlimit="10" x1="400.4" y1="508.4" x2="400.4" y2="529.7" class="z-ulavor_113" style="stroke-dasharray: 21.3px; stroke-dashoffset: 0px;"></line><line fill="none" stroke="#FFFFFF" stroke-width="4" stroke-miterlimit="10" x1="350.2" y1="476.4" x2="350.2" y2="487.1" class="z-1izwk1_113" style="stroke-dasharray: 10.7px; stroke-dashoffset: 0px;"></line><line fill="none" stroke="#FFFFFF" stroke-width="4" stroke-miterlimit="10" x1="400.4" y1="476.4" x2="400.4" y2="487.1" class="z-wiaahb_113" style="stroke-dasharray: 10.7px; stroke-dashoffset: 0px;"></line><line fill="none" stroke="#FFFFFF" stroke-width="4" stroke-miterlimit="10" x1="340" y1="529.7" x2="340" y2="553.2" class="z-u0l2ke_113" style="stroke-dasharray: 23.5px; stroke-dashoffset: 0px;"></line><line fill="none" stroke="#FFFFFF" stroke-width="4" stroke-miterlimit="10" x1="386.8" y1="529.7" x2="386.8" y2="552.5" class="z-ncn9ig_113" style="stroke-dasharray: 22.8px; stroke-dashoffset: 0px;"></line><line fill="none" stroke="#FFFFFF" stroke-width="4" stroke-miterlimit="10" x1="396.7" y1="553.2" x2="396.7" y2="563.9" class="z-8r9si3_113" style="stroke-dasharray: 10.7px; stroke-dashoffset: 0px;"></line><line fill="none" stroke="#FFFFFF" stroke-width="4" stroke-miterlimit="10" x1="363.8" y1="553.2" x2="363.8" y2="563.9" class="z-8ynt6a_113" style="stroke-dasharray: 10.7px; stroke-dashoffset: 0px;"></line><line fill="none" stroke="#FFFFFF" stroke-width="4" stroke-miterlimit="10" x1="349.3" y1="572.2" x2="349.3" y2="582.9" class="z-rzvrlt_113" style="stroke-dasharray: 10.7px; stroke-dashoffset: 0px;"></line><line fill="none" stroke="#FFFFFF" stroke-width="4" stroke-miterlimit="10" x1="391.3" y1="572.2" x2="391.3" y2="582.9" class="z-psmd95_113" style="stroke-dasharray: 10.7px; stroke-dashoffset: 0px;"></line><line fill="none" stroke="#FFFFFF" stroke-width="4" stroke-miterlimit="10" x1="402.3" y1="582.9" x2="402.3" y2="604" class="z-4te446_113" style="stroke-dasharray: 21.1px; stroke-dashoffset: 0px;"></line><line fill="none" stroke="#FFFFFF" stroke-width="4" stroke-miterlimit="10" x1="341.4" y1="583.2" x2="341.4" y2="604.2" class="z-o8r3de_113" style="stroke-dasharray: 21px; stroke-dashoffset: 0px;"></line><line fill="none" stroke="#FFFFFF" stroke-width="4" stroke-miterlimit="10" x1="357.5" y1="604.8" x2="357.5" y2="626" class="z-eqpbbo_113" style="stroke-dasharray: 21.2px; stroke-dashoffset: 0px;"></line><line fill="none" stroke="#FFFFFF" stroke-width="4" stroke-miterlimit="10" x1="345.7" y1="626.4" x2="345.7" y2="639.6" class="z-b0qd0u_113" style="stroke-dasharray: 13.2px; stroke-dashoffset: 0px;"></line><line fill="none" stroke="#FFFFFF" stroke-width="4" stroke-miterlimit="10" x1="394.5" y1="604.6" x2="394.5" y2="626.6" class="z-ubcw99_113" style="stroke-dasharray: 22px; stroke-dashoffset: 0px;"></line><line fill="none" stroke="#FFFFFF" stroke-width="4" stroke-miterlimit="10" x1="385.7" y1="626.4" x2="385.7" y2="649" class="z-gt33gg_113" style="stroke-dasharray: 22.6px; stroke-dashoffset: 0px;"></line><line fill="none" stroke="#FFFFFF" stroke-width="4" stroke-miterlimit="10" x1="402.3" y1="656.7" x2="402.3" y2="678" class="z-o1ryje_113" style="stroke-dasharray: 21.3px; stroke-dashoffset: 0px;"></line><line fill="none" stroke="#FFFFFF" stroke-width="4" stroke-miterlimit="10" x1="395.8" y1="697.6" x2="395.8" y2="710.2" class="z-t9263i_113" style="stroke-dasharray: 12.6px; stroke-dashoffset: 0px;"></line><line fill="none" stroke="#FFFFFF" stroke-width="4" stroke-miterlimit="10" x1="349.7" y1="697.6" x2="349.7" y2="710.2" class="z-q6brrz_113" style="stroke-dasharray: 12.6px; stroke-dashoffset: 0px;"></line><line fill="none" stroke="#FFFFFF" stroke-width="4" stroke-miterlimit="10" x1="341.4" y1="711.2" x2="341.4" y2="733.6" class="z-qnria6_113" style="stroke-dasharray: 22.4px; stroke-dashoffset: 0px;"></line><line fill="none" stroke="#FFFFFF" stroke-width="4" stroke-miterlimit="10" x1="377.5" y1="711.2" x2="377.5" y2="724.9" class="z-9f0gec_113" style="stroke-dasharray: 13.7px; stroke-dashoffset: 0px;"></line><line fill="none" stroke="#FFFFFF" stroke-width="4" stroke-miterlimit="10" x1="402.3" y1="710.2" x2="402.3" y2="732.5" class="z-km7dsd_113" style="stroke-dasharray: 22.3px; stroke-dashoffset: 0px;"></line><line fill="none" stroke="#FFFFFF" stroke-width="4" stroke-miterlimit="10" x1="348.4" y1="733.6" x2="348.4" y2="757" class="z-18he6w_113" style="stroke-dasharray: 23.4px; stroke-dashoffset: 0px;"></line><line fill="none" stroke="#FFFFFF" stroke-width="4" stroke-miterlimit="10" x1="343.9" y1="757.1" x2="343.9" y2="780.6" class="z-wn6b9y_113" style="stroke-dasharray: 23.5px; stroke-dashoffset: 0px;"></line><line fill="none" stroke="#FFFFFF" stroke-width="4" stroke-miterlimit="10" x1="401.2" y1="756.5" x2="401.2" y2="780.6" class="z-xq474c_113" style="stroke-dasharray: 24.1px; stroke-dashoffset: 0px;"></line><line fill="none" stroke="#FFFFFF" stroke-width="4" stroke-miterlimit="10" x1="394.5" y1="733.6" x2="394.5" y2="757.1" class="z-70ucfh_113" style="stroke-dasharray: 23.5px; stroke-dashoffset: 0px;"></line><line fill="none" stroke="#FFFFFF" stroke-width="4" stroke-miterlimit="10" x1="340" y1="415.5" x2="340" y2="437" class="z-firpi9_113" style="stroke-dasharray: 21.5px; stroke-dashoffset: 0px;"></line><line fill="none" stroke="#FFFFFF" stroke-width="4" stroke-miterlimit="10" x1="347.7" y1="437" x2="347.7" y2="459" class="z-fbc152_113" style="stroke-dasharray: 22px; stroke-dashoffset: 0px;"></line><polygon fill="none" stroke="#FFFFFF" stroke-width="4" stroke-miterlimit="10" points="417.7,469.3 321.4,469.3 326.6,476.2 	412.6,476.2 " class="z-cth6mh_113" style="stroke-dasharray: 199.52px; stroke-dashoffset: 0px;"></polygon><polygon fill="none" stroke="#FFFFFF" stroke-width="4" stroke-miterlimit="10" points="417.7,564.4 321.4,564.4 326.6,571.2 	412.6,571.2 " class="z-wmjk1d_113" style="stroke-dasharray: 199.36px; stroke-dashoffset: 0px;"></polygon><polygon fill="none" stroke="#FFFFFF" stroke-width="4" stroke-miterlimit="10" points="417.7,649 321.4,649 326.6,655.8 	412.6,655.8 " class="z-mvhqxq_113" style="stroke-dasharray: 199.36px; stroke-dashoffset: 0px;"></polygon><polygon fill="none" stroke="#FFFFFF" stroke-width="4" stroke-miterlimit="10" points="234.3,476.2 341.4,571.2 127.2,571.2 " class="z-7plyvy_113" style="stroke-dasharray: 500.524px; stroke-dashoffset: 0px;"></polygon><polygon fill="none" stroke="#FFFFFF" stroke-width="4" stroke-miterlimit="10" points="332,628.7 419.6,697.9 332,697.9 " class="z-1ddxww_113" style="stroke-dasharray: 268.435px; stroke-dashoffset: 0px;"></polygon><rect x="365.3" y="508.4" fill="none" stroke="#FFFFFF" stroke-width="4" stroke-miterlimit="10" width="8.5" height="21.3" class="z-5je9a5_113" style="stroke-dasharray: 59.6px; stroke-dashoffset: 0px;"></rect><rect x="365.3" y="583.2" fill="none" stroke="#FFFFFF" stroke-width="4" stroke-miterlimit="10" width="8.5" height="20.8" class="z-4bu3ml_113" style="stroke-dasharray: 58.6px; stroke-dashoffset: 0px;"></rect><rect x="365.3" y="616" fill="none" stroke="#FFFFFF" stroke-width="4" stroke-miterlimit="10" width="8.5" height="20.8" class="z-zs0gvq_113" style="stroke-dasharray: 58.6px; stroke-dashoffset: 0px;"></rect><path fill="none" stroke="#FFFFFF" stroke-width="4" stroke-miterlimit="10" d="M369.6,718.2c0,0-14.4,9.7-14.4,18.9v63.6H384	V737C384,727.8,369.6,718.2,369.6,718.2z" class="z-8guos7_113" style="stroke-dasharray: 205.061px; stroke-dashoffset: 0px;"></path><path fill="none" stroke="#FFFFFF" stroke-width="4" stroke-miterlimit="10" d="M355.1,758.9c0-8,6.5-14.5,14.5-14.5	c8,0,14.5,6.5,14.5,14.5" class="z-mkge2d_113" style="stroke-dasharray: 45.5527px; stroke-dashoffset: 0px;"></path><line fill="none" stroke="#FFFFFF" stroke-width="4" stroke-miterlimit="10" x1="369.6" y1="718.2" x2="369.6" y2="744.4" class="z-b352ll_113" style="stroke-dasharray: 26.2px; stroke-dashoffset: 0px;"></line><line fill="none" stroke="#FFFFFF" stroke-width="4" stroke-miterlimit="10" x1="362.2" y1="724.9" x2="362.2" y2="746.5" class="z-vz9q96_113" style="stroke-dasharray: 21.6px; stroke-dashoffset: 0px;"></line><line fill="none" stroke="#FFFFFF" stroke-width="4" stroke-miterlimit="10" x1="376.8" y1="723.5" x2="376.8" y2="746.5" class="z-gaj9q8_113" style="stroke-dasharray: 23px; stroke-dashoffset: 0px;"></line><polygon fill="none" stroke="#FFFFFF" stroke-width="4" stroke-miterlimit="10" points="332,762.4 332,572.2 309.7,572.2 	309.7,800.6 338,800.6 " class="z-xeg5r1_113" style="stroke-dasharray: 507.868px; stroke-dashoffset: 0px;"></polygon><polygon fill="none" stroke="#FFFFFF" stroke-width="4" stroke-miterlimit="10" points="332.4,576.7 136.1,576.7 131.8,570.8 	336.8,570.8 " class="z-2ngrus_113" style="stroke-dasharray: 415.961px; stroke-dashoffset: 0px;"></polygon><polygon fill="none" stroke="#FFFFFF" stroke-width="4" stroke-miterlimit="10" points="264.6,525.1 275.4,534.8 253.7,534.8 " class="z-trlstx_113" style="stroke-dasharray: 50.8076px; stroke-dashoffset: 0px;"></polygon><rect x="258.4" y="534.8" fill="none" stroke="#FFFFFF" stroke-width="4" stroke-miterlimit="10" width="12.4" height="10" class="z-zmhuph_113" style="stroke-dasharray: 44.8px; stroke-dashoffset: 0px;"></rect><polygon fill="none" stroke="#FFFFFF" stroke-width="4" stroke-miterlimit="10" points="202.5,525.1 213.3,534.8 191.7,534.8 " class="z-1lq2em_113" style="stroke-dasharray: 50.6331px; stroke-dashoffset: 0px;"></polygon><rect x="196.3" y="534.8" fill="none" stroke="#FFFFFF" stroke-width="4" stroke-miterlimit="10" width="12.4" height="10" class="z-wljget_113" style="stroke-dasharray: 44.8px; stroke-dashoffset: 0px;"></rect></svg>